<?xml version="1.0" standalone="no"?>
<!DOCTYPE svg PUBLIC "-//W3C//DTD SVG 1.1//EN" "http://www.w3.org/Graphics/SVG/1.1/DTD/svg11.dtd" >
<svg xmlns="http://www.w3.org/2000/svg" xmlns:xlink="http://www.w3.org/1999/xlink" version="1.1">
<metadata>
Created by FontForge 20170910 at Mon Apr 30 13:26:06 2018
 By Jimmy Wärting
Copyright \(c\) 2017 by Gu_mundur _lfarsson &#38; Or Type. All rights reserved.
</metadata>
<defs>
<font id="L15-MediumWide" horiz-adv-x="585" >
  <font-face 
    font-family="L15 Medium Wide"
    font-weight="500"
    font-stretch="semi-expanded"
    units-per-em="1000"
    panose-1="0 0 6 5 0 0 0 0 0 0"
    ascent="800"
    descent="-200"
    x-height="502"
    cap-height="700"
    bbox="-449 -257 1121 989"
    underline-thickness="50"
    underline-position="-100"
    stemh="110"
    stemv="121"
    unicode-range="U+0020-FB04"
  />
<missing-glyph horiz-adv-x="490" 
d="M402 758v-980h-311v980h311zM326 692h-161v-32h63v-36h-64v-33h162v33h-64v36h64v32zM262 566h-98v-102h162v33h-64v69zM228 533v-36h-32v36h32zM326 438h-162v-33h64v-36h-64v-32h98v68h64v33zM326 379h-32v-65h-130v-33h162v98zM326 259h-98v-55h34v23h32v-46h-98v78
h-32v-111h162v111zM326 90h-162v-111h162v111zM294 57v-46h-98v46h98zM326 -44h-162v-32h68l-68 -46v-32h162v32h-100l69 46h31v32z" />
    <glyph glyph-name="f_f" unicode="ff" horiz-adv-x="667" 
d="M595 658c-48 0 -74 -19 -74 -75v-80h124v-104h-124v-399h-116v399h-77v1h-114v-400h-116v400h-68v103h68v78c0 116 68 178 161 178h65v-102h-41c-38 0 -69 -16 -69 -81v-73h191v89c0 112 67 166 162 166h86v-100h-58z" />
    <glyph glyph-name="f_f_i" unicode="ffi" horiz-adv-x="886" 
d="M750 623c-41 0 -74 33 -74 73c0 39 33 72 74 72c40 0 72 -33 72 -72c0 -40 -32 -73 -72 -73zM807 503v-503h-116v398h-181v-398h-116v398h-180v-398h-116v398h-68v105h68v78c0 116 68 178 161 178h65v-102h-41c-38 0 -69 -16 -69 -81v-73h180v78c0 116 68 178 161 178h66
v-102h-42c-38 0 -69 -16 -69 -81v-73h297z" />
    <glyph glyph-name="f_f_l" unicode="ffl" horiz-adv-x="880" 
d="M405 592c0 112 67 166 162 166h86v-100h-58c-48 0 -74 -19 -74 -75v-80h124v-104h-124v-399h-116v399h-77v1h-114v-400h-116v400h-68v103h68v78c0 116 68 178 161 178h65v-102h-41c-38 0 -69 -16 -69 -81v-73h191v89zM686 758h116v-758h-116v758z" />
    <glyph glyph-name="fi" unicode="fi" horiz-adv-x="590" 
d="M454 623c-41 0 -74 33 -74 73c0 39 33 72 74 72c40 0 72 -33 72 -72c0 -40 -32 -73 -72 -73zM511 503v-503h-116v398h-181v-398h-116v398h-68v105h68v78c0 116 68 178 161 178h66v-102h-42c-38 0 -69 -16 -69 -81v-73h297z" />
    <glyph glyph-name="fl" unicode="fl" horiz-adv-x="575" 
d="M107 0v399h-77v104h77v89c0 112 67 166 162 166h86v-100h-58c-48 0 -74 -19 -74 -75v-80h124v-104h-124v-399h-116zM497 758v-758h-116v758h116z" />
    <glyph glyph-name=".notdef" horiz-adv-x="490" 
d="M402 758v-980h-311v980h311zM326 692h-161v-32h63v-36h-64v-33h162v33h-64v36h64v32zM262 566h-98v-102h162v33h-64v69zM228 533v-36h-32v36h32zM326 438h-162v-33h64v-36h-64v-32h98v68h64v33zM326 379h-32v-65h-130v-33h162v98zM326 259h-98v-55h34v23h32v-46h-98v78
h-32v-111h162v111zM326 90h-162v-111h162v111zM294 57v-46h-98v46h98zM326 -44h-162v-32h68l-68 -46v-32h162v32h-100l69 46h31v32z" />
    <glyph glyph-name="A" unicode="A" horiz-adv-x="649" 
d="M515 0l-46 128h-289l-46 -128h-126l264 700h106l264 -700h-127zM218 234h214l-107 298z" />
    <glyph glyph-name="Aacute" unicode="&#xc1;" horiz-adv-x="649" 
d="M487 930l-143 -155h-102l105 155h140zM515 0l-46 128h-289l-46 -128h-126l264 700h106l264 -700h-127zM218 234h214l-107 298z" />
    <glyph glyph-name="Abreve" unicode="&#x102;" horiz-adv-x="649" 
d="M325 758c-91 0 -152 53 -152 142h80c0 -54 35 -71 72 -71c40 0 72 17 72 71h80c0 -89 -58 -142 -152 -142zM515 0l-46 128h-289l-46 -128h-126l264 700h106l264 -700h-127zM218 234h214l-107 298z" />
    <glyph glyph-name="uni01CD" unicode="&#x1cd;" horiz-adv-x="649" 
d="M376 768h-102l-116 131h108l59 -73l59 73h108zM515 0l-46 128h-289l-46 -128h-126l264 700h106l264 -700h-127zM218 234h214l-107 298z" />
    <glyph glyph-name="Acircumflex" unicode="&#xc2;" horiz-adv-x="649" 
d="M326 840l-67 -74h-112l124 131h109l124 -131h-112zM515 0l-46 128h-289l-46 -128h-126l264 700h106l264 -700h-127zM218 234h214l-107 298z" />
    <glyph glyph-name="Adieresis" unicode="&#xc4;" horiz-adv-x="649" 
d="M220 768c-39 0 -69 31 -69 68s30 68 69 68c37 0 67 -31 67 -68s-30 -68 -67 -68zM432 768c-39 0 -69 31 -69 68s30 68 69 68c37 0 67 -31 67 -68s-30 -68 -67 -68zM515 0l-46 128h-289l-46 -128h-126l264 700h106l264 -700h-127zM218 234h214l-107 298z" />
    <glyph glyph-name="Agrave" unicode="&#xc0;" horiz-adv-x="649" 
d="M396 775h-102l-143 155h140zM515 0l-46 128h-289l-46 -128h-126l264 700h106l264 -700h-127zM218 234h214l-107 298z" />
    <glyph glyph-name="Amacron" unicode="&#x100;" horiz-adv-x="649" 
d="M501 862v-78h-353v78h353zM515 0l-46 128h-289l-46 -128h-126l264 700h106l264 -700h-127zM218 234h214l-107 298z" />
    <glyph glyph-name="Aogonek" unicode="&#x104;" horiz-adv-x="649" 
d="M593 -110c15 0 35 4 54 12v-80c-25 -10 -51 -16 -76 -16c-64 0 -109 38 -109 89c0 37 25 77 79 105h-26l-46 128h-289l-46 -128h-126l264 700h106l264 -700h-1c-66 -28 -90 -55 -90 -78c0 -22 20 -32 42 -32zM218 234h214l-107 298z" />
    <glyph glyph-name="Aring" unicode="&#xc5;" horiz-adv-x="649" 
d="M324 739c-49 0 -87 38 -87 87s38 87 87 87c50 0 88 -38 88 -87s-38 -87 -88 -87zM324 865c-21 0 -39 -18 -39 -39c0 -22 18 -39 39 -39s38 17 38 39c0 21 -17 39 -38 39zM515 0l-46 128h-289l-46 -128h-126l264 700h106l264 -700h-127zM218 234h214l-107 298z" />
    <glyph glyph-name="Atilde" unicode="&#xc3;" horiz-adv-x="649" 
d="M254 812c-25 0 -35 -21 -35 -48h-64c0 78 38 128 102 128c65 0 101 -46 139 -46c25 0 36 21 36 48h64c0 -81 -39 -128 -101 -128c-67 0 -102 46 -141 46zM515 0l-46 128h-289l-46 -128h-126l264 700h106l264 -700h-127zM218 234h214l-107 298z" />
    <glyph glyph-name="AE" unicode="&#xc6;" horiz-adv-x="864" 
d="M817 590h-305v-171h288v-108h-288v-201h305v-110h-426v146h-202l-58 -146h-123l277 700h532v-110zM230 251h161v343h-25z" />
    <glyph glyph-name="B" unicode="B" horiz-adv-x="660" 
d="M497 365c62 -28 113 -79 113 -166c0 -91 -63 -199 -241 -199h-283v700h263c184 0 228 -125 228 -188c0 -62 -34 -119 -80 -147zM455 500c0 58 -39 89 -114 89h-133v-177h133c75 0 114 30 114 88zM359 111c85 0 130 36 130 99c0 62 -45 98 -130 98h-151v-197h151z" />
    <glyph glyph-name="C" unicode="C" horiz-adv-x="757" 
d="M405 -14c-205 0 -355 153 -355 364s149 364 356 364c181 0 303 -115 311 -262h-120c-13 83 -74 150 -191 150c-145 0 -233 -104 -233 -252s88 -252 233 -252c114 0 178 67 191 150h120c-8 -147 -132 -262 -312 -262z" />
    <glyph glyph-name="Cacute" unicode="&#x106;" horiz-adv-x="757" 
d="M542 930l-143 -155h-102l105 155h140zM405 -14c-205 0 -355 153 -355 364s149 364 356 364c181 0 303 -115 311 -262h-120c-13 83 -74 150 -191 150c-145 0 -233 -104 -233 -252s88 -252 233 -252c114 0 178 67 191 150h120c-8 -147 -132 -262 -312 -262z" />
    <glyph glyph-name="Ccaron" unicode="&#x10c;" horiz-adv-x="757" 
d="M431 766h-102l-116 131h108l59 -73l59 73h108zM406 98c114 0 178 67 191 150h120c-8 -147 -132 -262 -312 -262c-205 0 -355 153 -355 364s149 364 356 364c181 0 303 -115 311 -262h-120c-13 83 -74 150 -191 150c-145 0 -233 -104 -233 -252s88 -252 233 -252z" />
    <glyph glyph-name="Ccedilla" unicode="&#xc7;" horiz-adv-x="757" 
d="M405 -14c-205 0 -355 153 -355 364s149 364 356 364c181 0 303 -115 311 -262h-120c-13 83 -74 150 -191 150c-145 0 -233 -104 -233 -252s88 -252 233 -252c114 0 178 67 191 150h120c-8 -147 -132 -262 -312 -262zM441 -67l-78 -174l-118 49l116 125h80z" />
    <glyph glyph-name="Ccircumflex" unicode="&#x108;" horiz-adv-x="757" 
d="M381 842l-67 -74h-112l124 131h109l124 -131h-112zM406 98c114 0 178 67 191 150h120c-8 -147 -132 -262 -312 -262c-205 0 -355 153 -355 364s149 364 356 364c181 0 303 -115 311 -262h-120c-13 83 -74 150 -191 150c-145 0 -233 -104 -233 -252s88 -252 233 -252z" />
    <glyph glyph-name="Cdotaccent" unicode="&#x10a;" horiz-adv-x="757" 
d="M380 772c-38 0 -69 31 -69 68s31 68 69 68c37 0 67 -31 67 -68s-30 -68 -67 -68zM405 -14c-205 0 -355 153 -355 364s149 364 356 364c181 0 303 -115 311 -262h-120c-13 83 -74 150 -191 150c-145 0 -233 -104 -233 -252s88 -252 233 -252c114 0 178 67 191 150h120
c-8 -147 -132 -262 -312 -262z" />
    <glyph glyph-name="D" unicode="D" horiz-adv-x="733" 
d="M331 700c200 0 352 -149 352 -350c0 -205 -152 -350 -352 -350h-245v700h245zM331 112c140 0 229 94 229 238c0 140 -89 238 -229 238h-123v-476h123z" />
    <glyph glyph-name="Eth" unicode="&#xd0;" horiz-adv-x="781" 
d="M379 700c200 0 352 -149 352 -350c0 -205 -152 -350 -352 -350h-245v293h-93v107h93v300h245zM379 112c140 0 229 94 229 238c0 140 -89 238 -229 238h-123v-188h168v-107h-168v-181h123z" />
    <glyph glyph-name="Dcaron" unicode="&#x10e;" horiz-adv-x="733" 
d="M401 766h-102l-116 131h108l59 -73l59 73h108zM331 700c200 0 352 -149 352 -350c0 -205 -152 -350 -352 -350h-245v700h245zM331 112c140 0 229 94 229 238c0 140 -89 238 -229 238h-123v-476h123z" />
    <glyph glyph-name="Dcroat" unicode="&#x110;" horiz-adv-x="781" 
d="M379 700c200 0 352 -149 352 -350c0 -205 -152 -350 -352 -350h-245v293h-93v107h93v300h245zM379 112c140 0 229 94 229 238c0 140 -89 238 -229 238h-123v-188h168v-107h-168v-181h123z" />
    <glyph glyph-name="E" unicode="E" 
d="M537 590h-329v-171h312v-108h-312v-201h329v-110h-451v700h451v-110z" />
    <glyph glyph-name="Eacute" unicode="&#xc9;" 
d="M472 930l-143 -155h-102l105 155h140zM537 590h-329v-171h312v-108h-312v-201h329v-110h-451v700h451v-110z" />
    <glyph glyph-name="Ebreve" unicode="&#x114;" 
d="M310 758c-91 0 -152 53 -152 142h80c0 -54 35 -71 72 -71c40 0 72 17 72 71h80c0 -89 -58 -142 -152 -142zM537 590h-329v-171h312v-108h-312v-201h329v-110h-451v700h451v-110z" />
    <glyph glyph-name="Ecaron" unicode="&#x11a;" 
d="M361 766h-102l-116 131h108l59 -73l59 73h108zM537 590h-329v-171h312v-108h-312v-201h329v-110h-451v700h451v-110z" />
    <glyph glyph-name="Ecircumflex" unicode="&#xca;" 
d="M311 840l-67 -74h-112l124 131h109l124 -131h-112zM537 590h-329v-171h312v-108h-312v-201h329v-110h-451v700h451v-110z" />
    <glyph glyph-name="Edieresis" unicode="&#xcb;" 
d="M205 768c-39 0 -69 31 -69 68s30 68 69 68c37 0 67 -31 67 -68s-30 -68 -67 -68zM417 768c-39 0 -69 31 -69 68s30 68 69 68c37 0 67 -31 67 -68s-30 -68 -67 -68zM537 590h-329v-171h312v-108h-312v-201h329v-110h-451v700h451v-110z" />
    <glyph glyph-name="Edotaccent" unicode="&#x116;" 
d="M310 773c-38 0 -69 31 -69 68s31 68 69 68c37 0 67 -31 67 -68s-30 -68 -67 -68zM537 590h-329v-171h312v-108h-312v-201h329v-110h-451v700h451v-110z" />
    <glyph glyph-name="Egrave" unicode="&#xc8;" 
d="M381 775h-102l-143 155h140zM537 590h-329v-171h312v-108h-312v-201h329v-110h-451v700h451v-110z" />
    <glyph glyph-name="Emacron" unicode="&#x112;" 
d="M486 862v-78h-353v78h353zM537 590h-329v-171h312v-108h-312v-201h329v-110h-451v700h451v-110z" />
    <glyph glyph-name="Eogonek" unicode="&#x118;" 
d="M537 590h-329v-171h312v-108h-312v-201h329v-110h-80c-66 -28 -90 -55 -90 -78c0 -22 20 -32 42 -32c15 0 35 4 54 12v-80c-25 -10 -51 -16 -76 -16c-64 0 -109 38 -109 89c0 37 25 77 79 105h-271v700h451v-110z" />
    <glyph glyph-name="F" unicode="F" horiz-adv-x="530" 
d="M506 590h-303v-170h286v-108h-286v-312h-121v700h424v-110z" />
    <glyph glyph-name="G" unicode="G" horiz-adv-x="786" 
d="M397 -14c-198 0 -347 153 -347 366c0 210 144 362 354 362c178 0 306 -111 306 -259h-122c0 78 -68 147 -185 147c-144 0 -230 -103 -230 -250c0 -150 89 -254 233 -254c121 0 191 74 199 175h-232v102h340v-375h-100v81c-38 -58 -118 -95 -216 -95z" />
    <glyph glyph-name="Gbreve" unicode="&#x11e;" horiz-adv-x="786" 
d="M543 900c0 -89 -58 -142 -152 -142c-91 0 -152 53 -152 142h80c0 -54 35 -71 72 -71c40 0 72 17 72 71h80zM397 -14c-198 0 -347 153 -347 366c0 210 144 362 354 362c178 0 306 -111 306 -259h-122c0 78 -68 147 -185 147c-144 0 -230 -103 -230 -250
c0 -150 89 -254 233 -254c121 0 191 74 199 175h-232v102h340v-375h-100v81c-38 -58 -118 -95 -216 -95z" />
    <glyph glyph-name="Gcircumflex" unicode="&#x11c;" horiz-adv-x="786" 
d="M391 842l-67 -74h-112l124 131h109l124 -131h-112zM373 375h340v-375h-100v81c-38 -58 -118 -95 -216 -95c-198 0 -347 153 -347 366c0 210 144 362 354 362c178 0 306 -111 306 -259h-122c0 78 -68 147 -185 147c-144 0 -230 -103 -230 -250c0 -150 89 -254 233 -254
c121 0 191 74 199 175h-232v102z" />
    <glyph glyph-name="Gcommaaccent" unicode="&#x122;" horiz-adv-x="786" 
d="M397 -14c-198 0 -347 153 -347 366c0 210 144 362 354 362c178 0 306 -111 306 -259h-122c0 78 -68 147 -185 147c-144 0 -230 -103 -230 -250c0 -150 89 -254 233 -254c121 0 191 74 199 175h-232v102h340v-375h-100v81c-38 -58 -118 -95 -216 -95zM443 -58v-102
c0 -46 -28 -74 -80 -97l-26 38c30 10 52 24 52 47v12h-59v102h113z" />
    <glyph glyph-name="Gdotaccent" unicode="&#x120;" horiz-adv-x="786" 
d="M391 772c-38 0 -69 31 -69 68s31 68 69 68c37 0 67 -31 67 -68s-30 -68 -67 -68zM397 -14c-198 0 -347 153 -347 366c0 210 144 362 354 362c178 0 306 -111 306 -259h-122c0 78 -68 147 -185 147c-144 0 -230 -103 -230 -250c0 -150 89 -254 233 -254
c121 0 191 74 199 175h-232v102h340v-375h-100v81c-38 -58 -118 -95 -216 -95z" />
    <glyph glyph-name="H" unicode="H" horiz-adv-x="717" 
d="M510 700h121v-700h-121v301h-302v-301h-122v700h122v-290h302v290z" />
    <glyph glyph-name="Hbar" unicode="&#x126;" horiz-adv-x="682" 
d="M652 603v-97h-38v-506h-121v301h-302v-301h-122v506h-40v97h40v97h122v-97h302v97h121v-97h38zM493 410v96h-302v-96h302z" />
    <glyph glyph-name="Hcircumflex" unicode="&#x124;" horiz-adv-x="717" 
d="M358 842l-67 -74h-112l124 131h109l124 -131h-112zM510 700h121v-700h-121v301h-302v-301h-122v700h122v-290h302v290z" />
    <glyph glyph-name="I" unicode="I" horiz-adv-x="294" 
d="M208 700v-700h-122v700h122z" />
    <glyph glyph-name="IJ" unicode="&#x132;" horiz-adv-x="875" 
d="M208 700v-700h-122v700h122zM437 248v-32c0 -81 50 -119 121 -119c73 0 120 38 120 119v484h121v-477c0 -163 -96 -237 -241 -237c-134 0 -240 68 -240 230v32h119z" />
    <glyph glyph-name="Iacute" unicode="&#xcd;" horiz-adv-x="294" 
d="M309 930l-143 -155h-102l105 155h140zM208 700v-700h-122v700h122z" />
    <glyph glyph-name="uni01CF" unicode="&#x1cf;" horiz-adv-x="294" 
d="M198 768h-102l-116 131h108l59 -73l59 73h108zM86 0v700h122v-700h-122z" />
    <glyph glyph-name="Icircumflex" unicode="&#xce;" horiz-adv-x="294" 
d="M202 897l124 -131h-112l-66 74l-67 -74h-112l124 131h109zM86 0v700h122v-700h-122z" />
    <glyph glyph-name="Idieresis" unicode="&#xcf;" horiz-adv-x="294" 
d="M42 768c-39 0 -69 31 -69 68s30 68 69 68c37 0 67 -31 67 -68s-30 -68 -67 -68zM254 768c-39 0 -69 31 -69 68s30 68 69 68c37 0 67 -31 67 -68s-30 -68 -67 -68zM208 700v-700h-122v700h122z" />
    <glyph glyph-name="Idotaccent" unicode="&#x130;" horiz-adv-x="294" 
d="M147 772c-38 0 -69 31 -69 68s31 68 69 68c37 0 67 -31 67 -68s-30 -68 -67 -68zM208 700v-700h-122v700h122z" />
    <glyph glyph-name="Igrave" unicode="&#xcc;" horiz-adv-x="294" 
d="M-27 930h140l105 -155h-102zM208 700v-700h-122v700h122z" />
    <glyph glyph-name="Imacron" unicode="&#x12a;" horiz-adv-x="294" 
d="M323 862v-78h-353v78h353zM208 700v-700h-122v700h122z" />
    <glyph glyph-name="Iogonek" unicode="&#x12e;" horiz-adv-x="294" 
d="M180 0c-66 -28 -90 -55 -90 -78c0 -22 20 -32 42 -32c15 0 35 4 54 12v-80c-25 -10 -51 -16 -76 -16c-64 0 -109 38 -109 89c0 37 25 77 79 105h6v700h122v-700h-28z" />
    <glyph glyph-name="Itilde" unicode="&#x128;" horiz-adv-x="294" 
d="M257 896h64c0 -81 -39 -128 -101 -128c-67 0 -102 46 -141 46c-25 0 -35 -21 -35 -48h-64c0 78 38 128 102 128c65 0 101 -46 139 -46c25 0 36 21 36 48zM208 700v-700h-122v700h122z" />
    <glyph glyph-name="J" unicode="J" horiz-adv-x="581" 
d="M143 248v-32c0 -81 50 -119 121 -119c73 0 120 38 120 119v484h121v-477c0 -163 -96 -237 -241 -237c-134 0 -240 68 -240 230v32h119z" />
    <glyph glyph-name="Jcircumflex" unicode="&#x134;" horiz-adv-x="581" 
d="M297 840l-67 -74h-112l124 131h109l124 -131h-112zM384 700h121v-477c0 -163 -96 -237 -241 -237c-134 0 -240 68 -240 230v32h119v-32c0 -81 50 -119 121 -119c73 0 120 38 120 119v484z" />
    <glyph glyph-name="K" unicode="K" horiz-adv-x="663" 
d="M663 0h-163l-292 302v-302h-122v700h122v-283l272 283h161l-328 -339z" />
    <glyph glyph-name="Kcommaaccent" unicode="&#x136;" horiz-adv-x="663" 
d="M313 361l350 -361h-163l-292 302v-302h-122v700h122v-283l272 283h161zM264 -160v102h113v-102c0 -46 -28 -74 -80 -97l-26 38c30 10 52 24 52 47v12h-59z" />
    <glyph glyph-name="L" unicode="L" horiz-adv-x="545" 
d="M208 700v-590h316v-110h-438v700h122z" />
    <glyph glyph-name="Lacute" unicode="&#x139;" horiz-adv-x="545" 
d="M333 930l-143 -155h-102l105 155h140zM208 700v-590h316v-110h-438v700h122z" />
    <glyph glyph-name="Lcaron" unicode="&#x13d;" horiz-adv-x="545" 
d="M380 715c42 0 77 -34 77 -77c0 -22 -8 -44 -20 -65l-69 -126h-69l63 116c-30 4 -59 37 -59 75c0 43 34 77 77 77zM208 700v-590h316v-110h-438v700h122z" />
    <glyph glyph-name="Lcommaaccent" unicode="&#x13b;" horiz-adv-x="545" 
d="M208 700v-590h316v-110h-438v700h122zM260 -58v-102c0 -46 -28 -74 -80 -97l-26 38c30 10 52 24 52 47v12h-59v102h113z" />
    <glyph glyph-name="Ldot" unicode="&#x13f;" horiz-adv-x="545" 
d="M208 700v-590h316v-110h-438v700h122zM340 353c32 0 57 -25 57 -57s-25 -57 -57 -57s-58 25 -58 57s26 57 58 57z" />
    <glyph glyph-name="Lslash" unicode="&#x141;" horiz-adv-x="477" 
d="M209 110h316v-110h-438v202l-34 -16l-42 91l76 36v387h122v-329l96 45l41 -92l-137 -65v-149z" />
    <glyph glyph-name="M" unicode="M" horiz-adv-x="885" 
d="M617 700h181v-700h-121v570l-180 -374h-109l-180 374v-570h-122v700h184l172 -366z" />
    <glyph glyph-name="N" unicode="N" horiz-adv-x="756" 
d="M548 700h121v-700h-123l-338 501v-501h-122v700h121l341 -498v498z" />
    <glyph glyph-name="Nacute" unicode="&#x143;" horiz-adv-x="756" 
d="M540 930l-143 -155h-102l105 155h140zM548 700h121v-700h-123l-338 501v-501h-122v700h121l341 -498v498z" />
    <glyph glyph-name="Ncaron" unicode="&#x147;" horiz-adv-x="756" 
d="M429 766h-102l-116 131h108l59 -73l59 73h108zM548 700h121v-700h-123l-338 501v-501h-122v700h121l341 -498v498z" />
    <glyph glyph-name="Ncommaaccent" unicode="&#x145;" horiz-adv-x="756" 
d="M548 700h121v-700h-123l-338 501v-501h-122v700h121l341 -498v498zM321 -160v102h113v-102c0 -46 -28 -74 -80 -97l-26 38c30 10 52 24 52 47v12h-59z" />
    <glyph glyph-name="Eng" unicode="&#x14a;" horiz-adv-x="756" 
d="M548 700h121v-732c0 -128 -71 -190 -173 -190h-45v102h23c50 0 79 27 79 84v37l-345 501v-502h-122v700h121l341 -495v495z" />
    <glyph glyph-name="Ntilde" unicode="&#xd1;" horiz-adv-x="756" 
d="M307 812c-25 0 -35 -21 -35 -48h-64c0 78 38 128 102 128c65 0 101 -46 139 -46c25 0 36 21 36 48h64c0 -81 -39 -128 -101 -128c-67 0 -102 46 -141 46zM548 700h121v-700h-123l-338 501v-501h-122v700h121l341 -498v498z" />
    <glyph glyph-name="O" unicode="O" horiz-adv-x="803" 
d="M401 714c200 0 352 -153 352 -364s-152 -364 -352 -364s-351 153 -351 364s151 364 351 364zM401 602c-136 0 -228 -103 -228 -252s92 -252 228 -252c137 0 229 103 229 252s-92 252 -229 252z" />
    <glyph glyph-name="Oacute" unicode="&#xd3;" horiz-adv-x="803" 
d="M564 930l-143 -155h-102l105 155h140zM401 714c200 0 352 -153 352 -364s-152 -364 -352 -364s-351 153 -351 364s151 364 351 364zM401 602c-136 0 -228 -103 -228 -252s92 -252 228 -252c137 0 229 103 229 252s-92 252 -229 252z" />
    <glyph glyph-name="Obreve" unicode="&#x14e;" horiz-adv-x="803" 
d="M554 900c0 -89 -58 -142 -152 -142c-91 0 -152 53 -152 142h80c0 -54 35 -71 72 -71c40 0 72 17 72 71h80zM401 714c200 0 352 -153 352 -364s-152 -364 -352 -364s-351 153 -351 364s151 364 351 364zM401 602c-136 0 -228 -103 -228 -252s92 -252 228 -252
c137 0 229 103 229 252s-92 252 -229 252z" />
    <glyph glyph-name="uni01D1" unicode="&#x1d1;" horiz-adv-x="803" 
d="M453 768h-102l-116 131h108l59 -73l59 73h108zM401 714c200 0 352 -153 352 -364s-152 -364 -352 -364s-351 153 -351 364s151 364 351 364zM401 98c137 0 229 103 229 252s-92 252 -229 252c-136 0 -228 -103 -228 -252s92 -252 228 -252z" />
    <glyph glyph-name="Ocircumflex" unicode="&#xd4;" horiz-adv-x="803" 
d="M403 840l-67 -74h-112l124 131h109l124 -131h-112zM401 714c200 0 352 -153 352 -364s-152 -364 -352 -364s-351 153 -351 364s151 364 351 364zM401 98c137 0 229 103 229 252s-92 252 -229 252c-136 0 -228 -103 -228 -252s92 -252 228 -252z" />
    <glyph glyph-name="Odieresis" unicode="&#xd6;" horiz-adv-x="803" 
d="M297 768c-39 0 -69 31 -69 68s30 68 69 68c37 0 67 -31 67 -68s-30 -68 -67 -68zM509 768c-39 0 -69 31 -69 68s30 68 69 68c37 0 67 -31 67 -68s-30 -68 -67 -68zM401 714c200 0 352 -153 352 -364s-152 -364 -352 -364s-351 153 -351 364s151 364 351 364zM401 602
c-136 0 -228 -103 -228 -252s92 -252 228 -252c137 0 229 103 229 252s-92 252 -229 252z" />
    <glyph glyph-name="Ograve" unicode="&#xd2;" horiz-adv-x="803" 
d="M228 930h140l105 -155h-102zM401 714c200 0 352 -153 352 -364s-152 -364 -352 -364s-351 153 -351 364s151 364 351 364zM401 602c-136 0 -228 -103 -228 -252s92 -252 228 -252c137 0 229 103 229 252s-92 252 -229 252z" />
    <glyph glyph-name="Ohungarumlaut" unicode="&#x150;" horiz-adv-x="803" 
d="M439 894l-121 -137h-101l89 137h133zM644 894l-120 -137h-102l90 137h132zM401 714c200 0 352 -153 352 -364s-152 -364 -352 -364s-351 153 -351 364s151 364 351 364zM401 602c-136 0 -228 -103 -228 -252s92 -252 228 -252c137 0 229 103 229 252s-92 252 -229 252z
" />
    <glyph glyph-name="Omacron" unicode="&#x14c;" horiz-adv-x="803" 
d="M578 862v-78h-353v78h353zM401 714c200 0 352 -153 352 -364s-152 -364 -352 -364s-351 153 -351 364s151 364 351 364zM401 602c-136 0 -228 -103 -228 -252s92 -252 228 -252c137 0 229 103 229 252s-92 252 -229 252z" />
    <glyph glyph-name="Oslash" unicode="&#xd8;" horiz-adv-x="804" 
d="M753 700l-86 -106c54 -63 86 -147 86 -244c0 -211 -152 -364 -352 -364c-69 0 -133 18 -186 51l-30 -37h-119l78 96c-59 64 -94 152 -94 254c0 211 151 364 351 364c74 0 142 -21 197 -58l36 44h119zM173 350c0 -63 17 -119 46 -161l307 378c-35 22 -77 35 -125 35
c-136 0 -228 -103 -228 -252zM630 350c0 58 -14 109 -39 150l-303 -373c32 -19 70 -29 113 -29c137 0 229 103 229 252z" />
    <glyph glyph-name="Otilde" unicode="&#xd5;" horiz-adv-x="803" 
d="M509 894h64c0 -81 -39 -128 -101 -128c-67 0 -102 46 -141 46c-25 0 -35 -21 -35 -48h-64c0 78 38 128 102 128c65 0 101 -46 139 -46c25 0 36 21 36 48zM401 714c200 0 352 -153 352 -364s-152 -364 -352 -364s-351 153 -351 364s151 364 351 364zM401 602
c-136 0 -228 -103 -228 -252s92 -252 228 -252c137 0 229 103 229 252s-92 252 -229 252z" />
    <glyph glyph-name="OE" unicode="&#x152;" horiz-adv-x="1128" 
d="M1080 590h-329v-171h312v-108h-312v-201h329v-110h-450v81c-57 -62 -135 -95 -228 -95c-201 0 -352 153 -352 364s151 364 352 364c93 0 171 -33 228 -95v81h450v-110zM401 98c140 0 229 102 229 252s-89 252 -229 252c-139 0 -228 -102 -228 -252s89 -252 228 -252z" />
    <glyph glyph-name="P" unicode="P" horiz-adv-x="625" 
d="M353 700c162 0 237 -104 237 -214c0 -111 -75 -215 -237 -215h-145v-271h-122v700h267zM339 381c91 0 128 45 128 105c0 59 -37 104 -128 104h-131v-209h131z" />
    <glyph glyph-name="Thorn" unicode="&#xde;" horiz-adv-x="620" 
d="M352 580c162 0 236 -104 236 -214c0 -111 -74 -215 -236 -215h-144v-151h-122v700h122v-120h144zM338 261c94 0 128 47 128 105c0 57 -34 104 -128 104h-130v-209h130z" />
    <glyph glyph-name="Q" unicode="Q" horiz-adv-x="803" 
d="M753 350c0 -112 -43 -208 -113 -273l90 -119h-136l-45 59c-44 -20 -95 -31 -148 -31c-200 0 -351 153 -351 364s151 364 351 364s352 -153 352 -364zM401 98c28 0 54 4 77 12l-114 151h136l69 -91c39 45 61 107 61 180c0 149 -92 252 -229 252
c-136 0 -228 -103 -228 -252s92 -252 228 -252z" />
    <glyph glyph-name="R" unicode="R" horiz-adv-x="640" 
d="M467 0l-146 271h-113v-271h-122v700h267c162 0 236 -104 236 -214c0 -88 -47 -172 -147 -203l161 -283h-136zM208 590v-209h131c91 0 128 45 128 105c0 59 -37 104 -128 104h-131z" />
    <glyph glyph-name="Racute" unicode="&#x154;" horiz-adv-x="640" 
d="M478 930l-143 -155h-102l105 155h140zM467 0l-146 271h-113v-271h-122v700h267c162 0 236 -104 236 -214c0 -88 -47 -172 -147 -203l161 -283h-136zM208 590v-209h131c91 0 128 45 128 105c0 59 -37 104 -128 104h-131z" />
    <glyph glyph-name="Rcaron" unicode="&#x158;" horiz-adv-x="640" 
d="M367 766h-102l-116 131h108l59 -73l59 73h108zM467 0l-146 271h-113v-271h-122v700h267c162 0 236 -104 236 -214c0 -88 -47 -172 -147 -203l161 -283h-136zM208 590v-209h131c91 0 128 45 128 105c0 59 -37 104 -128 104h-131z" />
    <glyph glyph-name="Rcommaaccent" unicode="&#x156;" horiz-adv-x="640" 
d="M442 283l161 -283h-136l-146 271h-113v-271h-122v700h267c162 0 236 -104 236 -214c0 -88 -47 -172 -147 -203zM208 590v-209h131c91 0 128 45 128 105c0 59 -37 104 -128 104h-131zM265 -160v102h113v-102c0 -46 -28 -74 -80 -97l-26 38c30 10 52 24 52 47v12h-59z" />
    <glyph glyph-name="S" unicode="S" horiz-adv-x="603" 
d="M308 -14c-184 0 -269 111 -269 241h121c0 -84 53 -131 150 -131c87 0 129 39 129 93c0 47 -33 76 -100 98l-138 45c-95 31 -148 86 -148 179c0 122 103 203 241 203c158 0 258 -100 258 -230h-120c0 66 -48 120 -138 120c-77 0 -119 -37 -119 -86c0 -40 26 -68 84 -85
l143 -46c114 -35 159 -110 159 -192c0 -117 -89 -209 -253 -209z" />
    <glyph glyph-name="Sacute" unicode="&#x15a;" horiz-adv-x="603" 
d="M478 930l-143 -155h-102l105 155h140zM308 -14c-184 0 -269 111 -269 241h121c0 -84 53 -131 150 -131c87 0 129 39 129 93c0 47 -33 76 -100 98l-138 45c-95 31 -148 86 -148 179c0 122 103 203 241 203c158 0 258 -100 258 -230h-120c0 66 -48 120 -138 120
c-77 0 -119 -37 -119 -86c0 -40 26 -68 84 -85l143 -46c114 -35 159 -110 159 -192c0 -117 -89 -209 -253 -209z" />
    <glyph glyph-name="Scaron" unicode="&#x160;" horiz-adv-x="603" 
d="M367 766h-102l-116 131h108l59 -73l59 73h108zM402 387c114 -35 159 -110 159 -192c0 -117 -89 -209 -253 -209c-184 0 -269 111 -269 241h121c0 -84 53 -131 150 -131c87 0 129 39 129 93c0 47 -33 76 -100 98l-138 45c-95 31 -148 86 -148 179c0 122 103 203 241 203
c158 0 258 -100 258 -230h-120c0 66 -48 120 -138 120c-77 0 -119 -37 -119 -86c0 -40 26 -68 84 -85z" />
    <glyph glyph-name="Scedilla" unicode="&#x15e;" horiz-adv-x="603" 
d="M308 -14c-184 0 -269 111 -269 241h121c0 -84 53 -131 150 -131c87 0 129 39 129 93c0 47 -33 76 -100 98l-138 45c-95 31 -148 86 -148 179c0 122 103 203 241 203c158 0 258 -100 258 -230h-120c0 66 -48 120 -138 120c-77 0 -119 -37 -119 -86c0 -40 26 -68 84 -85
l143 -46c114 -35 159 -110 159 -192c0 -117 -89 -209 -253 -209zM374 -67l-78 -174l-118 49l116 125h80z" />
    <glyph glyph-name="Scircumflex" unicode="&#x15c;" horiz-adv-x="603" 
d="M315 842l-67 -74h-112l124 131h109l124 -131h-112zM402 387c114 -35 159 -110 159 -192c0 -117 -89 -209 -253 -209c-184 0 -269 111 -269 241h121c0 -84 53 -131 150 -131c87 0 129 39 129 93c0 47 -33 76 -100 98l-138 45c-95 31 -148 86 -148 179
c0 122 103 203 241 203c158 0 258 -100 258 -230h-120c0 66 -48 120 -138 120c-77 0 -119 -37 -119 -86c0 -40 26 -68 84 -85z" />
    <glyph glyph-name="Scommaaccent" unicode="&#x218;" horiz-adv-x="603" 
d="M308 -14c-184 0 -269 111 -269 241h121c0 -84 53 -131 150 -131c87 0 129 39 129 93c0 47 -33 76 -100 98l-138 45c-95 31 -148 86 -148 179c0 122 103 203 241 203c158 0 258 -100 258 -230h-120c0 66 -48 120 -138 120c-77 0 -119 -37 -119 -86c0 -40 26 -68 84 -85
l143 -46c114 -35 159 -110 159 -192c0 -117 -89 -209 -253 -209zM369 -58v-102c0 -46 -28 -74 -80 -97l-26 38c30 10 52 24 52 47v12h-59v102h113z" />
    <glyph glyph-name="T" unicode="T" horiz-adv-x="578" 
d="M547 700v-109h-198v-591h-121v591h-197v109h516z" />
    <glyph glyph-name="Tbar" unicode="&#x166;" horiz-adv-x="578" 
d="M547 591h-198v-158h119v-97h-119v-336h-121v336h-118v97h118v158h-197v109h516v-109z" />
    <glyph glyph-name="Tcaron" unicode="&#x164;" horiz-adv-x="578" 
d="M340 766h-102l-116 131h108l59 -73l59 73h108zM547 700v-109h-198v-591h-121v591h-197v109h516z" />
    <glyph glyph-name="uni0162" unicode="&#x162;" horiz-adv-x="578" 
d="M547 700v-109h-198v-591h-121v591h-197v109h516zM134 -183l116 125h80l-78 -174z" />
    <glyph glyph-name="uni021A" unicode="&#x21a;" horiz-adv-x="578" 
d="M547 700v-109h-198v-591h-121v591h-197v109h516zM212 -151v102h113v-102c0 -46 -28 -74 -80 -97l-26 38c30 10 52 24 52 47v12h-59z" />
    <glyph glyph-name="U" unicode="U" horiz-adv-x="734" 
d="M659 700v-418c0 -197 -108 -296 -292 -296s-292 99 -292 296v418h122v-410c0 -128 53 -193 170 -193c118 0 170 65 170 193v410h122z" />
    <glyph glyph-name="Uacute" unicode="&#xda;" horiz-adv-x="734" 
d="M529 922l-143 -155h-102l105 155h140zM659 700v-418c0 -197 -108 -296 -292 -296s-292 99 -292 296v418h122v-410c0 -128 53 -193 170 -193c118 0 170 65 170 193v410h122z" />
    <glyph glyph-name="Ubreve" unicode="&#x16c;" horiz-adv-x="734" 
d="M519 892c0 -89 -58 -142 -152 -142c-91 0 -152 53 -152 142h80c0 -54 35 -71 72 -71c40 0 72 17 72 71h80zM659 700v-418c0 -197 -108 -296 -292 -296s-292 99 -292 296v418h122v-410c0 -128 53 -193 170 -193c118 0 170 65 170 193v410h122z" />
    <glyph glyph-name="uni01D3" unicode="&#x1d3;" horiz-adv-x="734" 
d="M418 760h-102l-116 131h108l59 -73l59 73h108zM537 700h122v-418c0 -197 -108 -296 -292 -296s-292 99 -292 296v418h122v-410c0 -128 53 -193 170 -193c118 0 170 65 170 193v410z" />
    <glyph glyph-name="Ucircumflex" unicode="&#xdb;" horiz-adv-x="734" 
d="M368 832l-67 -74h-112l124 131h109l124 -131h-112zM537 700h122v-418c0 -197 -108 -296 -292 -296s-292 99 -292 296v418h122v-410c0 -128 53 -193 170 -193c118 0 170 65 170 193v410z" />
    <glyph glyph-name="Udieresis" unicode="&#xdc;" horiz-adv-x="734" 
d="M262 760c-39 0 -69 31 -69 68s30 68 69 68c37 0 67 -31 67 -68s-30 -68 -67 -68zM474 760c-39 0 -69 31 -69 68s30 68 69 68c37 0 67 -31 67 -68s-30 -68 -67 -68zM659 700v-418c0 -197 -108 -296 -292 -296s-292 99 -292 296v418h122v-410c0 -128 53 -193 170 -193
c118 0 170 65 170 193v410h122z" />
    <glyph glyph-name="Ugrave" unicode="&#xd9;" horiz-adv-x="734" 
d="M193 922h140l105 -155h-102zM659 700v-418c0 -197 -108 -296 -292 -296s-292 99 -292 296v418h122v-410c0 -128 53 -193 170 -193c118 0 170 65 170 193v410h122z" />
    <glyph glyph-name="Uhungarumlaut" unicode="&#x170;" horiz-adv-x="734" 
d="M404 886l-121 -137h-101l89 137h133zM609 886l-120 -137h-102l90 137h132zM659 700v-418c0 -197 -108 -296 -292 -296s-292 99 -292 296v418h122v-410c0 -128 53 -193 170 -193c118 0 170 65 170 193v410h122z" />
    <glyph glyph-name="Umacron" unicode="&#x16a;" horiz-adv-x="734" 
d="M543 854v-78h-353v78h353zM659 700v-418c0 -197 -108 -296 -292 -296s-292 99 -292 296v418h122v-410c0 -128 53 -193 170 -193c118 0 170 65 170 193v410h122z" />
    <glyph glyph-name="Uogonek" unicode="&#x172;" horiz-adv-x="734" 
d="M537 700h122v-418c0 -179 -89 -277 -244 -294c-53 -25 -73 -49 -73 -70c0 -22 20 -32 42 -32c15 0 35 4 54 12v-80c-25 -10 -51 -16 -76 -16c-64 0 -109 38 -109 89c0 34 21 70 66 97c-155 17 -244 115 -244 294v418h122v-410c0 -128 53 -193 170 -193
c118 0 170 65 170 193v410z" />
    <glyph glyph-name="Uring" unicode="&#x16e;" horiz-adv-x="734" 
d="M366 905c50 0 88 -38 88 -87s-38 -87 -88 -87c-49 0 -87 38 -87 87s38 87 87 87zM366 857c-21 0 -39 -18 -39 -39c0 -22 18 -39 39 -39s38 17 38 39c0 21 -17 39 -38 39zM659 700v-418c0 -197 -108 -296 -292 -296s-292 99 -292 296v418h122v-410
c0 -128 53 -193 170 -193c118 0 170 65 170 193v410h122z" />
    <glyph glyph-name="Utilde" unicode="&#x168;" horiz-adv-x="734" 
d="M477 888h64c0 -81 -39 -128 -101 -128c-67 0 -102 46 -141 46c-25 0 -35 -21 -35 -48h-64c0 78 38 128 102 128c65 0 101 -46 139 -46c25 0 36 21 36 48zM659 700v-418c0 -197 -108 -296 -292 -296s-292 99 -292 296v418h122v-410c0 -128 53 -193 170 -193
c118 0 170 65 170 193v410h122z" />
    <glyph glyph-name="V" unicode="V" horiz-adv-x="649" 
d="M517 700h130l-265 -700h-115l-265 700h130l193 -534z" />
    <glyph glyph-name="W" unicode="W" horiz-adv-x="1108" 
d="M970 700h130l-248 -700h-116l-184 522l-184 -522h-117l-248 700h130l176 -531l176 531h133l176 -531z" />
    <glyph glyph-name="Wacute" unicode="&#x1e82;" horiz-adv-x="1075" 
d="M700 930l-143 -155h-102l105 155h140zM970 700h130l-248 -700h-116l-184 522l-184 -522h-117l-248 700h130l176 -531l176 531h133l176 -531z" />
    <glyph glyph-name="Wcircumflex" unicode="&#x174;" horiz-adv-x="1075" 
d="M539 840l-67 -74h-112l124 131h109l124 -131h-112zM970 700h130l-248 -700h-116l-184 522l-184 -522h-117l-248 700h130l176 -531l176 531h133l176 -531z" />
    <glyph glyph-name="Wdieresis" unicode="&#x1e84;" horiz-adv-x="1075" 
d="M433 768c-39 0 -69 31 -69 68s30 68 69 68c37 0 67 -31 67 -68s-30 -68 -67 -68zM645 768c-39 0 -69 31 -69 68s30 68 69 68c37 0 67 -31 67 -68s-30 -68 -67 -68zM970 700h130l-248 -700h-116l-184 522l-184 -522h-117l-248 700h130l176 -531l176 531h133l176 -531z" />
    <glyph glyph-name="Wgrave" unicode="&#x1e80;" horiz-adv-x="1075" 
d="M609 775h-102l-143 155h140zM970 700h130l-248 -700h-116l-184 522l-184 -522h-117l-248 700h130l176 -531l176 531h133l176 -531z" />
    <glyph glyph-name="X" unicode="X" horiz-adv-x="625" 
d="M600 0h-134l-153 250l-154 -250h-134l221 359l-210 341h135l142 -231l142 231h135l-210 -341z" />
    <glyph glyph-name="Y" unicode="Y" horiz-adv-x="653" 
d="M516 700h130l-259 -459v-241h-121v241l-259 459h130l190 -347z" />
    <glyph glyph-name="Yacute" unicode="&#xdd;" horiz-adv-x="653" 
d="M485 930l-143 -155h-102l105 155h140zM516 700h130l-259 -459v-241h-121v241l-259 459h130l190 -347z" />
    <glyph glyph-name="Ycircumflex" unicode="&#x176;" horiz-adv-x="653" 
d="M324 840l-67 -74h-112l124 131h109l124 -131h-112zM516 700h130l-259 -459v-241h-121v241l-259 459h130l190 -347z" />
    <glyph glyph-name="Ydieresis" unicode="&#x178;" horiz-adv-x="653" 
d="M218 768c-39 0 -69 31 -69 68s30 68 69 68c37 0 67 -31 67 -68s-30 -68 -67 -68zM430 768c-39 0 -69 31 -69 68s30 68 69 68c37 0 67 -31 67 -68s-30 -68 -67 -68zM516 700h130l-259 -459v-241h-121v241l-259 459h130l190 -347z" />
    <glyph glyph-name="Ygrave" unicode="&#x1ef2;" horiz-adv-x="653" 
d="M394 775h-102l-143 155h140zM516 700h130l-259 -459v-241h-121v241l-259 459h130l190 -347z" />
    <glyph glyph-name="Z" unicode="Z" horiz-adv-x="592" 
d="M188 110h367v-110h-512v101l358 489h-345v110h492v-103z" />
    <glyph glyph-name="Zacute" unicode="&#x179;" horiz-adv-x="592" 
d="M452 930l-143 -155h-102l105 155h140zM188 110h367v-110h-512v101l358 489h-345v110h492v-103z" />
    <glyph glyph-name="Zcaron" unicode="&#x17d;" horiz-adv-x="592" 
d="M341 766h-102l-116 131h108l59 -73l59 73h108zM188 110h367v-110h-512v101l358 489h-345v110h492v-103z" />
    <glyph glyph-name="Zdotaccent" unicode="&#x17b;" horiz-adv-x="592" 
d="M290 773c-38 0 -69 31 -69 68s31 68 69 68c37 0 67 -31 67 -68s-30 -68 -67 -68zM188 110h367v-110h-512v101l358 489h-345v110h492v-103z" />
    <glyph glyph-name="I.alt" horiz-adv-x="294" 
d="M208 700v-700h-122v700h122z" />
    <glyph glyph-name="a" unicode="a" horiz-adv-x="546" 
d="M195 -14c-79 0 -155 37 -155 133c0 108 99 153 215 182l120 29c0 62 -43 89 -105 89c-58 0 -107 -24 -107 -85h-110c0 127 107 182 218 182c110 0 217 -52 217 -183v-333h-108v67c-41 -52 -115 -81 -185 -81zM216 84c57 0 156 44 156 121v35l-98 -25
c-77 -19 -119 -45 -119 -84c0 -33 30 -47 61 -47z" />
    <glyph glyph-name="aacute" unicode="&#xe1;" horiz-adv-x="546" 
d="M435 732l-143 -155h-102l105 155h140zM195 -14c-79 0 -155 37 -155 133c0 108 99 153 215 182l120 29c0 62 -43 89 -105 89c-58 0 -107 -24 -107 -85h-110c0 127 107 182 218 182c110 0 217 -52 217 -183v-333h-108v67c-41 -52 -115 -81 -185 -81zM216 84
c57 0 156 44 156 121v35l-98 -25c-77 -19 -119 -45 -119 -84c0 -33 30 -47 61 -47z" />
    <glyph glyph-name="abreve" unicode="&#x103;" horiz-adv-x="546" 
d="M425 699c0 -89 -58 -142 -152 -142c-91 0 -152 53 -152 142h80c0 -54 35 -71 72 -71c40 0 72 17 72 71h80zM195 -14c-79 0 -155 37 -155 133c0 108 99 153 215 182l120 29c0 62 -43 89 -105 89c-58 0 -107 -24 -107 -85h-110c0 127 107 182 218 182
c110 0 217 -52 217 -183v-333h-108v67c-41 -52 -115 -81 -185 -81zM216 84c57 0 156 44 156 121v35l-98 -25c-77 -19 -119 -45 -119 -84c0 -33 30 -47 61 -47z" />
    <glyph glyph-name="uni01CE" unicode="&#x1ce;" horiz-adv-x="546" 
d="M324 570h-102l-116 131h108l59 -73l59 73h108zM271 516c110 0 217 -52 217 -183v-333h-108v67c-41 -52 -115 -81 -185 -81c-79 0 -155 37 -155 133c0 108 99 153 215 182l120 29c0 62 -43 89 -105 89c-58 0 -107 -24 -107 -85h-110c0 127 107 182 218 182zM372 205v35
l-98 -25c-77 -19 -119 -45 -119 -84c0 -33 30 -47 61 -47c57 0 156 44 156 121z" />
    <glyph glyph-name="acircumflex" unicode="&#xe2;" horiz-adv-x="546" 
d="M274 642l-67 -74h-112l124 131h109l124 -131h-112zM271 516c110 0 217 -52 217 -183v-333h-108v67c-41 -52 -115 -81 -185 -81c-79 0 -155 37 -155 133c0 108 99 153 215 182l120 29c0 62 -43 89 -105 89c-58 0 -107 -24 -107 -85h-110c0 127 107 182 218 182zM372 205
v35l-98 -25c-77 -19 -119 -45 -119 -84c0 -33 30 -47 61 -47c57 0 156 44 156 121z" />
    <glyph glyph-name="adieresis" unicode="&#xe4;" horiz-adv-x="546" 
d="M168 570c-39 0 -69 31 -69 68s30 68 69 68c37 0 67 -31 67 -68s-30 -68 -67 -68zM380 570c-39 0 -69 31 -69 68s30 68 69 68c37 0 67 -31 67 -68s-30 -68 -67 -68zM195 -14c-79 0 -155 37 -155 133c0 108 99 153 215 182l120 29c0 62 -43 89 -105 89
c-58 0 -107 -24 -107 -85h-110c0 127 107 182 218 182c110 0 217 -52 217 -183v-333h-108v67c-41 -52 -115 -81 -185 -81zM216 84c57 0 156 44 156 121v35l-98 -25c-77 -19 -119 -45 -119 -84c0 -33 30 -47 61 -47z" />
    <glyph glyph-name="agrave" unicode="&#xe0;" horiz-adv-x="546" 
d="M99 732h140l105 -155h-102zM195 -14c-79 0 -155 37 -155 133c0 108 99 153 215 182l120 29c0 62 -43 89 -105 89c-58 0 -107 -24 -107 -85h-110c0 127 107 182 218 182c110 0 217 -52 217 -183v-333h-108v67c-41 -52 -115 -81 -185 -81zM216 84c57 0 156 44 156 121v35
l-98 -25c-77 -19 -119 -45 -119 -84c0 -33 30 -47 61 -47z" />
    <glyph glyph-name="amacron" unicode="&#x101;" horiz-adv-x="546" 
d="M449 664v-78h-353v78h353zM195 -14c-79 0 -155 37 -155 133c0 108 99 153 215 182l120 29c0 62 -43 89 -105 89c-58 0 -107 -24 -107 -85h-110c0 127 107 182 218 182c110 0 217 -52 217 -183v-333h-108v67c-41 -52 -115 -81 -185 -81zM216 84c57 0 156 44 156 121v35
l-98 -25c-77 -19 -119 -45 -119 -84c0 -33 30 -47 61 -47z" />
    <glyph glyph-name="aogonek" unicode="&#x105;" horiz-adv-x="546" 
d="M465 0c-66 -28 -90 -55 -90 -78c0 -22 20 -32 42 -32c15 0 35 4 54 12v-80c-25 -10 -51 -16 -76 -16c-64 0 -109 38 -109 89c0 37 25 77 79 105h15v67c-41 -52 -115 -81 -185 -81c-79 0 -155 37 -155 133c0 108 99 153 215 182l120 29c0 62 -43 89 -105 89
c-58 0 -107 -24 -107 -85h-110c0 127 107 182 218 182c110 0 217 -52 217 -183v-333h-23zM372 205v35l-98 -25c-77 -19 -119 -45 -119 -84c0 -33 30 -47 61 -47c57 0 156 44 156 121z" />
    <glyph glyph-name="aring" unicode="&#xe5;" horiz-adv-x="546" 
d="M272 715c50 0 88 -38 88 -87s-38 -87 -88 -87c-49 0 -87 38 -87 87s38 87 87 87zM272 667c-21 0 -39 -18 -39 -39c0 -22 18 -39 39 -39s38 17 38 39c0 21 -17 39 -38 39zM195 -14c-79 0 -155 37 -155 133c0 108 99 153 215 182l120 29c0 62 -43 89 -105 89
c-58 0 -107 -24 -107 -85h-110c0 127 107 182 218 182c110 0 217 -52 217 -183v-333h-108v67c-41 -52 -115 -81 -185 -81zM216 84c57 0 156 44 156 121v35l-98 -25c-77 -19 -119 -45 -119 -84c0 -33 30 -47 61 -47z" />
    <glyph glyph-name="atilde" unicode="&#xe3;" horiz-adv-x="546" 
d="M380 696h64c0 -81 -39 -128 -101 -128c-67 0 -102 46 -141 46c-25 0 -35 -21 -35 -48h-64c0 78 38 128 102 128c65 0 101 -46 139 -46c25 0 36 21 36 48zM195 -14c-79 0 -155 37 -155 133c0 108 99 153 215 182l120 29c0 62 -43 89 -105 89c-58 0 -107 -24 -107 -85h-110
c0 127 107 182 218 182c110 0 217 -52 217 -183v-333h-108v67c-41 -52 -115 -81 -185 -81zM216 84c57 0 156 44 156 121v35l-98 -25c-77 -19 -119 -45 -119 -84c0 -33 30 -47 61 -47z" />
    <glyph glyph-name="ae" unicode="&#xe6;" horiz-adv-x="918" 
d="M873 271v-63h-383c6 -61 49 -124 147 -124c65 0 108 25 123 73h108c-21 -109 -110 -171 -232 -171c-97 0 -174 41 -219 107c-51 -73 -130 -107 -216 -107c-85 0 -161 37 -161 133c0 108 99 153 215 182l120 29c0 62 -43 89 -105 89c-58 0 -107 -24 -107 -85h-110
c0 127 107 182 218 182c70 0 138 -21 179 -69c45 43 107 69 180 69c134 0 243 -86 243 -245zM490 293h274c-3 73 -53 125 -137 125c-90 0 -132 -58 -137 -125zM372 205v35l-98 -25c-77 -19 -119 -45 -119 -84c0 -33 30 -47 61 -47c57 0 156 44 156 121z" />
    <glyph glyph-name="b" unicode="b" horiz-adv-x="649" 
d="M356 -14c-76 0 -134 30 -167 75v-61h-111v758h116v-311c32 41 88 69 162 69c130 0 242 -106 242 -265s-112 -265 -242 -265zM334 89c87 0 147 57 147 162s-60 162 -147 162c-86 0 -146 -57 -146 -162s60 -162 146 -162z" />
    <glyph glyph-name="c" unicode="c" 
d="M314 516c122 0 226 -74 237 -202h-110c-10 60 -57 99 -126 99c-96 0 -149 -60 -149 -162c0 -101 52 -162 149 -162c68 0 116 36 126 99h110c-11 -131 -119 -202 -236 -202c-154 0 -266 107 -266 265s112 265 265 265z" />
    <glyph glyph-name="cacute" unicode="&#x107;" 
d="M469 730l-143 -155h-102l105 155h140zM314 516c122 0 226 -74 237 -202h-110c-10 60 -57 99 -126 99c-96 0 -149 -60 -149 -162c0 -101 52 -162 149 -162c68 0 116 36 126 99h110c-11 -131 -119 -202 -236 -202c-154 0 -266 107 -266 265s112 265 265 265z" />
    <glyph glyph-name="ccaron" unicode="&#x10d;" 
d="M358 566h-102l-116 131h108l59 -73l59 73h108zM315 89c68 0 116 36 126 99h110c-11 -131 -119 -202 -236 -202c-154 0 -266 107 -266 265s112 265 265 265c122 0 226 -74 237 -202h-110c-10 60 -57 99 -126 99c-96 0 -149 -60 -149 -162c0 -101 52 -162 149 -162z" />
    <glyph glyph-name="ccedilla" unicode="&#xe7;" 
d="M314 516c122 0 226 -74 237 -202h-110c-10 60 -57 99 -126 99c-96 0 -149 -60 -149 -162c0 -101 52 -162 149 -162c68 0 116 36 126 99h110c-11 -131 -119 -202 -236 -202c-154 0 -266 107 -266 265s112 265 265 265zM356 -67l-78 -174l-118 49l116 125h80z" />
    <glyph glyph-name="ccircumflex" unicode="&#x109;" 
d="M306 641l-67 -74h-112l124 131h109l124 -131h-112zM315 89c68 0 116 36 126 99h110c-11 -131 -119 -202 -236 -202c-154 0 -266 107 -266 265s112 265 265 265c122 0 226 -74 237 -202h-110c-10 60 -57 99 -126 99c-96 0 -149 -60 -149 -162c0 -101 52 -162 149 -162z
" />
    <glyph glyph-name="cdotaccent" unicode="&#x10b;" 
d="M307 572c-38 0 -69 31 -69 68s31 68 69 68c37 0 67 -31 67 -68s-30 -68 -67 -68zM314 516c122 0 226 -74 237 -202h-110c-10 60 -57 99 -126 99c-96 0 -149 -60 -149 -162c0 -101 52 -162 149 -162c68 0 116 36 126 99h110c-11 -131 -119 -202 -236 -202
c-154 0 -266 107 -266 265s112 265 265 265z" />
    <glyph glyph-name="d" unicode="d" horiz-adv-x="649" 
d="M294 -14c-133 0 -244 106 -244 265s111 265 244 265c71 0 129 -28 161 -69v311h116v-758h-112v61c-32 -45 -92 -75 -165 -75zM314 89c86 0 146 57 146 162s-60 162 -146 162s-147 -57 -147 -162s61 -162 147 -162z" />
    <glyph glyph-name="eth" unicode="&#xf0;" horiz-adv-x="631" 
d="M478 572c54 -85 99 -190 99 -304c0 -185 -114 -282 -262 -282c-155 0 -265 106 -265 266c0 163 113 264 247 264c55 0 98 -15 126 -39c-16 30 -37 63 -61 95h-220v71h164c-33 39 -67 74 -95 101h128c25 -26 57 -60 89 -101h138v-71h-88zM314 89c86 0 146 57 146 162
s-60 162 -146 162s-147 -58 -147 -162c0 -105 61 -162 147 -162z" />
    <glyph glyph-name="dcaron" unicode="&#x10f;" horiz-adv-x="646" 
d="M294 -14c-133 0 -244 106 -244 265s111 265 244 265c71 0 129 -28 161 -69v311h116v-758h-112v61c-32 -45 -92 -75 -165 -75zM711 731c42 0 77 -34 77 -77c0 -22 -8 -44 -20 -65l-69 -126h-69l63 116c-30 4 -59 37 -59 75c0 43 34 77 77 77zM314 89c86 0 146 57 146 162
s-60 162 -146 162s-147 -57 -147 -162s61 -162 147 -162z" />
    <glyph glyph-name="dcroat" unicode="&#x111;" horiz-adv-x="635" 
d="M639 665v-89h-68v-576h-112v61c-32 -45 -92 -75 -165 -75c-133 0 -244 106 -244 265s111 265 244 265c71 0 129 -28 161 -69v129h-164v89h164v93h116v-93h68zM314 89c86 0 146 57 146 162s-60 162 -146 162s-147 -57 -147 -162s61 -162 147 -162z" />
    <glyph glyph-name="e" unicode="e" horiz-adv-x="595" 
d="M550 271v-63h-383c6 -61 49 -124 147 -124c65 0 108 25 123 73h108c-21 -109 -110 -171 -232 -171c-160 0 -264 111 -264 264s104 266 258 266c134 0 243 -86 243 -245zM167 293h274c-3 73 -53 125 -137 125c-90 0 -132 -58 -137 -125z" />
    <glyph glyph-name="eacute" unicode="&#xe9;" horiz-adv-x="595" 
d="M462 732l-143 -155h-102l105 155h140zM550 271v-63h-383c6 -61 49 -124 147 -124c65 0 108 25 123 73h108c-21 -109 -110 -171 -232 -171c-160 0 -264 111 -264 264s104 266 258 266c134 0 243 -86 243 -245zM167 293h274c-3 73 -53 125 -137 125
c-90 0 -132 -58 -137 -125z" />
    <glyph glyph-name="ebreve" unicode="&#x115;" horiz-adv-x="595" 
d="M300 560c-91 0 -152 53 -152 142h80c0 -54 35 -71 72 -71c40 0 72 17 72 71h80c0 -89 -58 -142 -152 -142zM550 271v-63h-383c6 -61 49 -124 147 -124c65 0 108 25 123 73h108c-21 -109 -110 -171 -232 -171c-160 0 -264 111 -264 264s104 266 258 266
c134 0 243 -86 243 -245zM167 293h274c-3 73 -53 125 -137 125c-90 0 -132 -58 -137 -125z" />
    <glyph glyph-name="ecaron" unicode="&#x11b;" horiz-adv-x="595" 
d="M351 568h-102l-116 131h108l59 -73l59 73h108zM550 271v-63h-383c6 -61 49 -124 147 -124c65 0 108 25 123 73h108c-21 -109 -110 -171 -232 -171c-160 0 -264 111 -264 264s104 266 258 266c134 0 243 -86 243 -245zM167 293h274c-3 73 -53 125 -137 125
c-90 0 -132 -58 -137 -125z" />
    <glyph glyph-name="ecircumflex" unicode="&#xea;" horiz-adv-x="595" 
d="M301 642l-67 -74h-112l124 131h109l124 -131h-112zM550 271v-63h-383c6 -61 49 -124 147 -124c65 0 108 25 123 73h108c-21 -109 -110 -171 -232 -171c-160 0 -264 111 -264 264s104 266 258 266c134 0 243 -86 243 -245zM167 293h274c-3 73 -53 125 -137 125
c-90 0 -132 -58 -137 -125z" />
    <glyph glyph-name="edieresis" unicode="&#xeb;" horiz-adv-x="595" 
d="M195 570c-39 0 -69 31 -69 68s30 68 69 68c37 0 67 -31 67 -68s-30 -68 -67 -68zM407 570c-39 0 -69 31 -69 68s30 68 69 68c37 0 67 -31 67 -68s-30 -68 -67 -68zM550 271v-63h-383c6 -61 49 -124 147 -124c65 0 108 25 123 73h108c-21 -109 -110 -171 -232 -171
c-160 0 -264 111 -264 264s104 266 258 266c134 0 243 -86 243 -245zM167 293h274c-3 73 -53 125 -137 125c-90 0 -132 -58 -137 -125z" />
    <glyph glyph-name="edotaccent" unicode="&#x117;" horiz-adv-x="595" 
d="M300 575c-38 0 -69 31 -69 68s31 68 69 68c37 0 67 -31 67 -68s-30 -68 -67 -68zM550 271v-63h-383c6 -61 49 -124 147 -124c65 0 108 25 123 73h108c-21 -109 -110 -171 -232 -171c-160 0 -264 111 -264 264s104 266 258 266c134 0 243 -86 243 -245zM167 293h274
c-3 73 -53 125 -137 125c-90 0 -132 -58 -137 -125z" />
    <glyph glyph-name="egrave" unicode="&#xe8;" horiz-adv-x="595" 
d="M371 577h-102l-143 155h140zM550 271v-63h-383c6 -61 49 -124 147 -124c65 0 108 25 123 73h108c-21 -109 -110 -171 -232 -171c-160 0 -264 111 -264 264s104 266 258 266c134 0 243 -86 243 -245zM167 293h274c-3 73 -53 125 -137 125c-90 0 -132 -58 -137 -125z" />
    <glyph glyph-name="emacron" unicode="&#x113;" horiz-adv-x="595" 
d="M476 664v-78h-353v78h353zM550 271v-63h-383c6 -61 49 -124 147 -124c65 0 108 25 123 73h108c-21 -109 -110 -171 -232 -171c-160 0 -264 111 -264 264s104 266 258 266c134 0 243 -86 243 -245zM167 293h274c-3 73 -53 125 -137 125c-90 0 -132 -58 -137 -125z" />
    <glyph glyph-name="eogonek" unicode="&#x119;" horiz-adv-x="595" 
d="M550 271v-63h-383c6 -61 49 -124 147 -124c65 0 108 25 123 73h108c-15 -80 -68 -135 -143 -158c-64 -28 -87 -54 -87 -77c0 -22 20 -32 42 -32c15 0 35 4 54 12v-80c-25 -10 -51 -16 -76 -16c-64 0 -109 38 -109 89c0 32 18 66 58 92c-144 13 -235 120 -235 263
c0 153 104 266 258 266c134 0 243 -86 243 -245zM167 293h274c-3 73 -53 125 -137 125c-90 0 -132 -58 -137 -125z" />
    <glyph glyph-name="f" unicode="f" horiz-adv-x="369" 
d="M107 0v399h-77v104h77v89c0 112 67 166 162 166h86v-100h-58c-48 0 -74 -19 -74 -75v-80h124v-104h-124v-399h-116z" />
    <glyph glyph-name="g" unicode="g" horiz-adv-x="629" 
d="M308 -234c-165 0 -247 90 -247 197h109c0 -75 67 -99 138 -99c77 0 148 30 148 140v52c-34 -46 -92 -70 -158 -70c-140 0 -252 110 -252 265c0 156 111 265 248 265c61 0 116 -21 156 -68v54h115v-497c0 -155 -99 -239 -257 -239zM309 89c87 0 147 57 147 162
s-60 162 -147 162c-86 0 -146 -57 -146 -162c0 -104 60 -162 146 -162z" />
    <glyph glyph-name="gbreve" unicode="&#x11f;" horiz-adv-x="629" 
d="M472 702c0 -89 -58 -142 -152 -142c-91 0 -152 53 -152 142h80c0 -54 35 -71 72 -71c40 0 72 17 72 71h80zM308 -234c-165 0 -247 90 -247 197h109c0 -75 67 -99 138 -99c77 0 148 30 148 140v52c-34 -46 -92 -70 -158 -70c-140 0 -252 110 -252 265
c0 156 111 265 248 265c61 0 116 -21 156 -68v54h115v-497c0 -155 -99 -239 -257 -239zM309 89c87 0 147 57 147 162s-60 162 -147 162c-86 0 -146 -57 -146 -162c0 -104 60 -162 146 -162z" />
    <glyph glyph-name="gcircumflex" unicode="&#x11d;" horiz-adv-x="629" 
d="M319 644l-67 -74h-112l124 131h109l124 -131h-112zM450 502h115v-497c0 -155 -99 -239 -257 -239c-165 0 -247 90 -247 197h109c0 -75 67 -99 138 -99c77 0 148 30 148 140v52c-34 -46 -92 -70 -158 -70c-140 0 -252 110 -252 265c0 156 111 265 248 265
c61 0 116 -21 156 -68v54zM309 89c87 0 147 57 147 162s-60 162 -147 162c-86 0 -146 -57 -146 -162c0 -104 60 -162 146 -162z" />
    <glyph glyph-name="gcommaaccent" unicode="&#x123;" horiz-adv-x="629" 
d="M264 560v102c0 46 28 74 80 97l26 -38c-30 -10 -52 -24 -52 -47v-12h59v-102h-113zM308 -234c-165 0 -247 90 -247 197h109c0 -75 67 -99 138 -99c77 0 148 30 148 140v52c-34 -46 -92 -70 -158 -70c-140 0 -252 110 -252 265c0 156 111 265 248 265
c61 0 116 -21 156 -68v54h115v-497c0 -155 -99 -239 -257 -239zM309 89c87 0 147 57 147 162s-60 162 -147 162c-86 0 -146 -57 -146 -162c0 -104 60 -162 146 -162z" />
    <glyph glyph-name="gdotaccent" unicode="&#x121;" horiz-adv-x="629" 
d="M320 574c-38 0 -69 31 -69 68s31 68 69 68c37 0 67 -31 67 -68s-30 -68 -67 -68zM308 -234c-165 0 -247 90 -247 197h109c0 -75 67 -99 138 -99c77 0 148 30 148 140v52c-34 -46 -92 -70 -158 -70c-140 0 -252 110 -252 265c0 156 111 265 248 265c61 0 116 -21 156 -68
v54h115v-497c0 -155 -99 -239 -257 -239zM309 89c87 0 147 57 147 162s-60 162 -147 162c-86 0 -146 -57 -146 -162c0 -104 60 -162 146 -162z" />
    <glyph glyph-name="h" unicode="h" horiz-adv-x="626" 
d="M78 0v759h116v-311c28 38 80 68 159 68c122 0 204 -73 204 -212v-304h-116v283c0 80 -37 129 -117 129c-88 0 -130 -59 -130 -162v-250h-116z" />
    <glyph glyph-name="hbar" unicode="&#x127;" horiz-adv-x="631" 
d="M359 516c122 0 204 -73 204 -212v-304h-116v283c0 80 -37 129 -117 129c-88 0 -130 -59 -130 -162v-250h-116v576h-66v86h66v97h116v-97h178v-86h-178v-128c28 38 80 68 159 68z" />
    <glyph glyph-name="hcircumflex" unicode="&#x125;" horiz-adv-x="626" 
d="M283 899l-67 -74h-112l124 131h109l124 -131h-112zM353 516c122 0 204 -73 204 -212v-304h-116v283c0 80 -37 129 -117 129c-88 0 -130 -59 -130 -162v-250h-116v759h116v-311c28 38 80 68 159 68z" />
    <glyph glyph-name="i" unicode="i" horiz-adv-x="274" 
d="M138 737c40 0 72 -34 72 -73c0 -40 -32 -73 -72 -73c-41 0 -74 33 -74 73c0 39 33 73 74 73zM195 502v-502h-116v502h116z" />
    <glyph glyph-name="dotlessi" unicode="&#x131;" horiz-adv-x="262" 
d="M73 0v503h116v-503h-116z" />
    <glyph glyph-name="iacute" unicode="&#xed;" horiz-adv-x="262" 
d="M293 733l-143 -155h-102l105 155h140zM73 0v503h116v-503h-116z" />
    <glyph glyph-name="uni01D0" unicode="&#x1d0;" horiz-adv-x="262" 
d="M182 571h-102l-116 131h108l59 -73l59 73h108zM73 0v503h116v-503h-116z" />
    <glyph glyph-name="icircumflex" unicode="&#xee;" horiz-adv-x="262" 
d="M186 700l124 -131h-112l-66 74l-67 -74h-112l124 131h109zM73 0v503h116v-503h-116z" />
    <glyph glyph-name="idieresis" unicode="&#xef;" horiz-adv-x="262" 
d="M26 571c-39 0 -69 31 -69 68s30 68 69 68c37 0 67 -31 67 -68s-30 -68 -67 -68zM238 571c-39 0 -69 31 -69 68s30 68 69 68c37 0 67 -31 67 -68s-30 -68 -67 -68zM73 0v503h116v-503h-116z" />
    <glyph glyph-name="i.loclTRK" horiz-adv-x="262" 
d="M131 575c-38 0 -69 31 -69 68s31 68 69 68c37 0 67 -31 67 -68s-30 -68 -67 -68zM73 0v503h116v-503h-116z" />
    <glyph glyph-name="igrave" unicode="&#xec;" horiz-adv-x="262" 
d="M-43 733h140l105 -155h-102zM73 0v503h116v-503h-116z" />
    <glyph glyph-name="ij" unicode="&#x133;" horiz-adv-x="531" 
d="M138 737c40 0 72 -34 72 -73c0 -40 -32 -73 -72 -73c-41 0 -74 33 -74 73c0 39 33 73 74 73zM405 591c-41 0 -74 33 -74 73c0 39 33 73 74 73c40 0 72 -34 72 -73c0 -40 -32 -73 -72 -73zM195 502v-502h-116v502h116zM462 502v-534c0 -128 -71 -190 -173 -190h-45v102h23
c50 0 79 27 79 84v538h116z" />
    <glyph glyph-name="imacron" unicode="&#x12b;" horiz-adv-x="262" 
d="M307 665v-78h-353v78h353zM73 0v503h116v-503h-116z" />
    <glyph glyph-name="iogonek" unicode="&#x12f;" horiz-adv-x="262" 
d="M131 576c-38 0 -69 31 -69 68s31 68 69 68c37 0 67 -31 67 -68s-30 -68 -67 -68zM73 0v503h116v-503h-27c-66 -28 -90 -55 -90 -78c0 -22 20 -32 42 -32c15 0 35 4 54 12v-80c-25 -10 -51 -16 -76 -16c-64 0 -109 38 -109 89c0 37 25 77 79 105h11z" />
    <glyph glyph-name="itilde" unicode="&#x129;" horiz-adv-x="262" 
d="M241 699h64c0 -81 -39 -128 -101 -128c-67 0 -102 46 -141 46c-25 0 -35 -21 -35 -48h-64c0 78 38 128 102 128c65 0 101 -46 139 -46c25 0 36 21 36 48zM73 0v503h116v-503h-116z" />
    <glyph glyph-name="j" unicode="j" horiz-adv-x="257" 
d="M131 591c-41 0 -74 33 -74 73c0 39 33 73 74 73c40 0 72 -34 72 -73c0 -40 -32 -73 -72 -73zM188 502v-534c0 -128 -71 -190 -173 -190h-45v102h23c50 0 79 27 79 84v538h116z" />
    <glyph glyph-name="jcircumflex" unicode="&#x135;" horiz-adv-x="299" 
d="M196 687l124 -131h-112l-66 74l-67 -74h-112l124 131h109zM90 -43v544h116v-542c0 -131 -74 -183 -158 -183h-40v104h13c24 0 69 7 69 77z" />
    <glyph glyph-name="k" unicode="k" horiz-adv-x="580" 
d="M572 0h-153l-225 239v-239h-116v758h116v-438l205 182h156l-251 -221z" />
    <glyph glyph-name="kcommaaccent" unicode="&#x137;" horiz-adv-x="580" 
d="M304 281l268 -281h-153l-225 239v-239h-116v758h116v-438l205 182h156zM233 -160v102h113v-102c0 -46 -28 -74 -80 -97l-26 38c30 10 52 24 52 47v12h-59z" />
    <glyph glyph-name="l" unicode="l" horiz-adv-x="272" 
d="M194 758v-758h-116v758h116z" />
    <glyph glyph-name="lacute" unicode="&#x13a;" horiz-adv-x="272" 
d="M298 989l-143 -155h-102l105 155h140zM194 758v-758h-116v758h116z" />
    <glyph glyph-name="lcaron" unicode="&#x13e;" horiz-adv-x="272" 
d="M337 774c42 0 77 -34 77 -77c0 -22 -8 -44 -20 -65l-69 -126h-69l63 116c-30 4 -59 37 -59 75c0 43 34 77 77 77zM194 758v-758h-116v758h116z" />
    <glyph glyph-name="lcommaaccent" unicode="&#x13c;" horiz-adv-x="272" 
d="M194 758v-758h-116v758h116zM192 -58v-102c0 -46 -28 -74 -80 -97l-26 38c30 10 52 24 52 47v12h-59v102h113z" />
    <glyph glyph-name="ldot" unicode="&#x140;" horiz-adv-x="272" 
d="M194 758v-758h-116v758h116zM323 350c32 0 57 -25 57 -57s-25 -57 -57 -57s-58 25 -58 57s26 57 58 57z" />
    <glyph glyph-name="lslash" unicode="&#x142;" horiz-adv-x="410" 
d="M373 363l-112 -53v-310h-116v255l-66 -31l-41 92l107 50v392h116v-337l71 33z" />
    <glyph glyph-name="m" unicode="m" horiz-adv-x="931" 
d="M670 516c111 0 192 -69 192 -202v-314h-116v290c0 79 -36 122 -105 122c-67 0 -113 -38 -113 -136v-276h-116v290c0 80 -37 122 -106 122c-67 0 -112 -39 -112 -135v-277h-116v502h110v-59c28 46 85 73 152 73c77 0 130 -35 161 -85c32 56 92 85 169 85z" />
    <glyph glyph-name="n" unicode="n" horiz-adv-x="626" 
d="M78 0v502h110v-63c30 42 80 77 165 77c122 0 204 -73 204 -212v-304h-116v283c0 80 -36 129 -117 129c-88 0 -130 -60 -130 -163v-249h-116z" />
    <glyph glyph-name="nacute" unicode="&#x144;" horiz-adv-x="626" 
d="M472 733l-143 -155h-102l105 155h140zM78 0v502h110v-63c30 42 80 77 165 77c122 0 204 -73 204 -212v-304h-116v283c0 80 -36 129 -117 129c-88 0 -130 -60 -130 -163v-249h-116z" />
    <glyph glyph-name="ncaron" unicode="&#x148;" horiz-adv-x="626" 
d="M361 569h-102l-116 131h108l59 -73l59 73h108zM353 516c122 0 204 -73 204 -212v-304h-116v283c0 80 -36 129 -117 129c-88 0 -130 -60 -130 -163v-249h-116v502h110v-63c30 42 80 77 165 77z" />
    <glyph glyph-name="ncommaaccent" unicode="&#x146;" horiz-adv-x="626" 
d="M78 0v502h110v-63c30 42 80 77 165 77c122 0 204 -73 204 -212v-304h-116v283c0 80 -36 129 -117 129c-88 0 -130 -60 -130 -163v-249h-116zM366 -58v-102c0 -46 -28 -74 -80 -97l-26 38c30 10 52 24 52 47v12h-59v102h113z" />
    <glyph glyph-name="eng" unicode="&#x14b;" horiz-adv-x="626" 
d="M353 516c122 0 204 -73 204 -212v-336c0 -128 -71 -190 -173 -190h-45v102h23c50 0 79 27 79 84v319c0 80 -36 129 -117 129c-88 0 -130 -60 -130 -163v-249h-116v502h110v-63c30 42 80 77 165 77z" />
    <glyph glyph-name="ntilde" unicode="&#xf1;" horiz-adv-x="626" 
d="M417 697h64c0 -81 -39 -128 -101 -128c-67 0 -102 46 -141 46c-25 0 -35 -21 -35 -48h-64c0 78 38 128 102 128c65 0 101 -46 139 -46c25 0 36 21 36 48zM78 0v502h110v-63c30 42 80 77 165 77c122 0 204 -73 204 -212v-304h-116v283c0 80 -36 129 -117 129
c-88 0 -130 -60 -130 -163v-249h-116z" />
    <glyph glyph-name="o" unicode="o" horiz-adv-x="628" 
d="M314 516c151 0 263 -106 263 -265s-112 -265 -263 -265s-264 106 -264 265s113 265 264 265zM314 413c-86 0 -147 -57 -147 -162s61 -162 147 -162s146 57 146 162s-60 162 -146 162z" />
    <glyph glyph-name="oacute" unicode="&#xf3;" horiz-adv-x="628" 
d="M476 732l-143 -155h-102l105 155h140zM314 516c151 0 263 -106 263 -265s-112 -265 -263 -265s-264 106 -264 265s113 265 264 265zM314 413c-86 0 -147 -57 -147 -162s61 -162 147 -162s146 57 146 162s-60 162 -146 162z" />
    <glyph glyph-name="obreve" unicode="&#x14f;" horiz-adv-x="628" 
d="M466 702c0 -89 -58 -142 -152 -142c-91 0 -152 53 -152 142h80c0 -54 35 -71 72 -71c40 0 72 17 72 71h80zM314 516c151 0 263 -106 263 -265s-112 -265 -263 -265s-264 106 -264 265s113 265 264 265zM314 413c-86 0 -147 -57 -147 -162s61 -162 147 -162
s146 57 146 162s-60 162 -146 162z" />
    <glyph glyph-name="uni01D2" unicode="&#x1d2;" horiz-adv-x="628" 
d="M365 570h-102l-116 131h108l59 -73l59 73h108zM314 516c151 0 263 -106 263 -265s-112 -265 -263 -265s-264 106 -264 265s113 265 264 265zM314 89c86 0 146 57 146 162s-60 162 -146 162s-147 -57 -147 -162s61 -162 147 -162z" />
    <glyph glyph-name="ocircumflex" unicode="&#xf4;" horiz-adv-x="628" 
d="M315 642l-67 -74h-112l124 131h109l124 -131h-112zM314 516c151 0 263 -106 263 -265s-112 -265 -263 -265s-264 106 -264 265s113 265 264 265zM314 89c86 0 146 57 146 162s-60 162 -146 162s-147 -57 -147 -162s61 -162 147 -162z" />
    <glyph glyph-name="odieresis" unicode="&#xf6;" horiz-adv-x="628" 
d="M209 570c-39 0 -69 31 -69 68s30 68 69 68c37 0 67 -31 67 -68s-30 -68 -67 -68zM421 570c-39 0 -69 31 -69 68s30 68 69 68c37 0 67 -31 67 -68s-30 -68 -67 -68zM314 516c151 0 263 -106 263 -265s-112 -265 -263 -265s-264 106 -264 265s113 265 264 265zM314 413
c-86 0 -147 -57 -147 -162s61 -162 147 -162s146 57 146 162s-60 162 -146 162z" />
    <glyph glyph-name="ograve" unicode="&#xf2;" horiz-adv-x="628" 
d="M140 732h140l105 -155h-102zM314 516c151 0 263 -106 263 -265s-112 -265 -263 -265s-264 106 -264 265s113 265 264 265zM314 413c-86 0 -147 -57 -147 -162s61 -162 147 -162s146 57 146 162s-60 162 -146 162z" />
    <glyph glyph-name="ohungarumlaut" unicode="&#x151;" horiz-adv-x="628" 
d="M351 696l-121 -137h-101l89 137h133zM556 696l-120 -137h-102l90 137h132zM314 516c151 0 263 -106 263 -265s-112 -265 -263 -265s-264 106 -264 265s113 265 264 265zM314 413c-86 0 -147 -57 -147 -162s61 -162 147 -162s146 57 146 162s-60 162 -146 162z" />
    <glyph glyph-name="omacron" unicode="&#x14d;" horiz-adv-x="628" 
d="M490 664v-78h-353v78h353zM314 516c151 0 263 -106 263 -265s-112 -265 -263 -265s-264 106 -264 265s113 265 264 265zM314 413c-86 0 -147 -57 -147 -162s61 -162 147 -162s146 57 146 162s-60 162 -146 162z" />
    <glyph glyph-name="oslash" unicode="&#xf8;" horiz-adv-x="629" 
d="M587 503l-69 -79c37 -44 58 -104 58 -173c0 -159 -112 -265 -263 -265c-54 0 -104 14 -145 39l-21 -25h-102l65 74c-38 45 -61 106 -61 177c0 159 113 265 264 265c56 0 106 -14 148 -41l24 28h102zM166 251c0 -36 7 -66 20 -90l204 233c-22 13 -48 19 -77 19
c-86 0 -147 -57 -147 -162zM459 251c0 34 -6 62 -17 86l-202 -231c21 -11 46 -17 73 -17c86 0 146 57 146 162z" />
    <glyph glyph-name="otilde" unicode="&#xf5;" horiz-adv-x="628" 
d="M421 696h64c0 -81 -39 -128 -101 -128c-67 0 -102 46 -141 46c-25 0 -35 -21 -35 -48h-64c0 78 38 128 102 128c65 0 101 -46 139 -46c25 0 36 21 36 48zM314 516c151 0 263 -106 263 -265s-112 -265 -263 -265s-264 106 -264 265s113 265 264 265zM314 413
c-86 0 -147 -57 -147 -162s61 -162 147 -162s146 57 146 162s-60 162 -146 162z" />
    <glyph glyph-name="oe" unicode="&#x153;" horiz-adv-x="1003" 
d="M959 271v-63h-383c6 -61 49 -124 147 -124c65 0 108 25 123 73h108c-21 -109 -110 -171 -232 -171c-88 0 -159 33 -205 89c-47 -56 -119 -89 -203 -89c-151 0 -264 106 -264 265s113 265 264 265c84 0 156 -33 203 -89c46 55 115 89 199 89c134 0 243 -86 243 -245z
M576 293h274c-3 73 -53 125 -137 125c-90 0 -132 -58 -137 -125zM314 89c79 0 136 48 145 137c-1 8 -1 16 -1 24s0 17 1 25c-9 90 -66 138 -145 138c-86 0 -147 -57 -147 -162s61 -162 147 -162z" />
    <glyph glyph-name="p" unicode="p" horiz-adv-x="649" 
d="M78 -222v724h111v-61c33 45 91 75 167 75c130 0 242 -106 242 -265s-112 -265 -242 -265c-74 0 -130 28 -162 69v-277h-116zM334 89c87 0 147 57 147 162s-60 162 -147 162c-86 0 -146 -57 -146 -162s60 -162 146 -162z" />
    <glyph glyph-name="thorn" unicode="&#xfe;" horiz-adv-x="646" 
d="M356 516c127 0 240 -106 240 -265s-113 -265 -240 -265c-75 0 -130 28 -162 69v-277h-116v981h116v-311c33 41 89 68 162 68zM333 89c86 0 146 57 146 162s-60 162 -146 162c-85 0 -145 -57 -145 -162s60 -162 145 -162z" />
    <glyph glyph-name="q" unicode="q" horiz-adv-x="649" 
d="M455 -222v277c-32 -41 -88 -69 -162 -69c-130 0 -243 106 -243 265s113 265 243 265c76 0 134 -30 166 -75v61h112v-724h-116zM314 89c86 0 146 57 146 162s-60 162 -146 162s-147 -57 -147 -162s61 -162 147 -162z" />
    <glyph glyph-name="r" unicode="r" horiz-adv-x="382" 
d="M366 507v-111h-56c-70 0 -116 -39 -116 -126v-270h-116v502h110v-71c28 45 78 76 141 76h37z" />
    <glyph glyph-name="racute" unicode="&#x155;" horiz-adv-x="382" 
d="M344 731l-143 -155h-102l105 155h140zM366 507v-111h-56c-70 0 -116 -39 -116 -126v-270h-116v502h110v-71c28 45 78 76 141 76h37z" />
    <glyph glyph-name="rcaron" unicode="&#x159;" horiz-adv-x="382" 
d="M233 567h-102l-116 131h108l59 -73l59 73h108zM329 507h37v-111h-56c-70 0 -116 -39 -116 -126v-270h-116v502h110v-71c28 45 78 76 141 76z" />
    <glyph glyph-name="rcommaaccent" unicode="&#x157;" horiz-adv-x="382" 
d="M366 507v-111h-56c-70 0 -116 -39 -116 -126v-270h-116v502h110v-71c28 45 78 76 141 76h37zM238 -58v-102c0 -46 -28 -74 -80 -97l-26 38c30 10 52 24 52 47v12h-59v102h113z" />
    <glyph glyph-name="s" unicode="s" horiz-adv-x="484" 
d="M237 516c107 0 206 -57 206 -179h-109c0 66 -55 84 -97 84c-44 0 -82 -16 -82 -56c0 -32 25 -46 67 -57l87 -22c77 -19 139 -60 139 -143c0 -98 -87 -157 -202 -157c-139 0 -213 75 -213 180h106c0 -60 45 -85 106 -85c58 0 92 24 92 60c0 31 -25 46 -67 57l-97 26
c-81 20 -128 67 -128 138c0 99 87 154 192 154z" />
    <glyph glyph-name="sacute" unicode="&#x15b;" horiz-adv-x="484" 
d="M403 732l-143 -155h-102l105 155h140zM237 516c107 0 206 -57 206 -179h-109c0 66 -55 84 -97 84c-44 0 -82 -16 -82 -56c0 -32 25 -46 67 -57l87 -22c77 -19 139 -60 139 -143c0 -98 -87 -157 -202 -157c-139 0 -213 75 -213 180h106c0 -60 45 -85 106 -85
c58 0 92 24 92 60c0 31 -25 46 -67 57l-97 26c-81 20 -128 67 -128 138c0 99 87 154 192 154z" />
    <glyph glyph-name="scaron" unicode="&#x161;" horiz-adv-x="484" 
d="M292 568h-102l-116 131h108l59 -73l59 73h108zM309 286c77 -19 139 -60 139 -143c0 -98 -87 -157 -202 -157c-139 0 -213 75 -213 180h106c0 -60 45 -85 106 -85c58 0 92 24 92 60c0 31 -25 46 -67 57l-97 26c-81 20 -128 67 -128 138c0 99 87 154 192 154
c107 0 206 -57 206 -179h-109c0 66 -55 84 -97 84c-44 0 -82 -16 -82 -56c0 -32 25 -46 67 -57z" />
    <glyph glyph-name="scedilla" unicode="&#x15f;" horiz-adv-x="484" 
d="M237 516c107 0 206 -57 206 -179h-109c0 66 -55 84 -97 84c-44 0 -82 -16 -82 -56c0 -32 25 -46 67 -57l87 -22c77 -19 139 -60 139 -143c0 -98 -87 -157 -202 -157c-139 0 -213 75 -213 180h106c0 -60 45 -85 106 -85c58 0 92 24 92 60c0 31 -25 46 -67 57l-97 26
c-81 20 -128 67 -128 138c0 99 87 154 192 154zM302 -67l-78 -174l-118 49l116 125h80z" />
    <glyph glyph-name="scircumflex" unicode="&#x15d;" horiz-adv-x="484" 
d="M244 643l-67 -74h-112l124 131h109l124 -131h-112zM309 286c77 -19 139 -60 139 -143c0 -98 -87 -157 -202 -157c-139 0 -213 75 -213 180h106c0 -60 45 -85 106 -85c58 0 92 24 92 60c0 31 -25 46 -67 57l-97 26c-81 20 -128 67 -128 138c0 99 87 154 192 154
c107 0 206 -57 206 -179h-109c0 66 -55 84 -97 84c-44 0 -82 -16 -82 -56c0 -32 25 -46 67 -57z" />
    <glyph glyph-name="scommaaccent" unicode="&#x219;" horiz-adv-x="484" 
d="M237 516c107 0 206 -57 206 -179h-109c0 66 -55 84 -97 84c-44 0 -82 -16 -82 -56c0 -32 25 -46 67 -57l87 -22c77 -19 139 -60 139 -143c0 -98 -87 -157 -202 -157c-139 0 -213 75 -213 180h106c0 -60 45 -85 106 -85c58 0 92 24 92 60c0 31 -25 46 -67 57l-97 26
c-81 20 -128 67 -128 138c0 99 87 154 192 154zM297 -58v-102c0 -46 -28 -74 -80 -97l-26 38c30 10 52 24 52 47v12h-59v102h113z" />
    <glyph glyph-name="germandbls" unicode="&#xdf;" horiz-adv-x="667" 
d="M503 283c66 -26 126 -65 126 -146c0 -88 -71 -151 -179 -151c-105 0 -196 59 -196 180h107c0 -61 41 -84 86 -84c49 0 71 26 71 56c0 36 -30 47 -59 57l-88 33c-72 27 -106 69 -106 126c0 126 165 112 165 190c0 40 -44 67 -104 67c-90 0 -132 -60 -132 -156v-455h-116
v452c0 153 78 262 251 262c161 0 218 -96 218 -172c0 -130 -166 -118 -166 -181c0 -20 15 -37 70 -58z" />
    <glyph glyph-name="t" unicode="t" horiz-adv-x="388" 
d="M348 404h-125v-218c0 -64 23 -87 79 -87h44v-99h-79c-105 0 -159 44 -159 165v239h-86v98h86v146h115v-146h125v-98z" />
    <glyph glyph-name="tbar" unicode="&#x167;" horiz-adv-x="412" 
d="M349 404h-125v-93h111v-95h-111v-30c0 -64 23 -87 79 -87h44v-99h-79c-105 0 -159 44 -159 165v51h-73v95h73v93h-86v98h86v146h115v-146h125v-98z" />
    <glyph glyph-name="tcaron" unicode="&#x165;" horiz-adv-x="386" 
d="M390 744c42 0 77 -34 77 -77c0 -22 -8 -44 -20 -65l-69 -126h-30v-72h-125v-218c0 -64 23 -87 79 -87h44v-99h-79c-105 0 -159 44 -159 165v239h-86v98h86v146h115v-146h100l49 90c-30 4 -59 37 -59 75c0 43 34 77 77 77z" />
    <glyph glyph-name="uni0163" unicode="&#x163;" horiz-adv-x="388" 
d="M348 404h-125v-218c0 -64 23 -87 79 -87h44v-99h-79c-105 0 -159 44 -159 165v239h-86v98h86v146h115v-146h125v-98zM89 -192l116 125h80l-78 -174z" />
    <glyph glyph-name="uni021B" unicode="&#x21b;" horiz-adv-x="388" 
d="M348 404h-125v-218c0 -64 23 -87 79 -87h44v-99h-79c-105 0 -159 44 -159 165v239h-86v98h86v146h115v-146h125v-98zM167 -160v102h113v-102c0 -46 -28 -74 -80 -97l-26 38c30 10 52 24 52 47v12h-59z" />
    <glyph glyph-name="u" unicode="u" horiz-adv-x="625" 
d="M272 -14c-122 0 -204 73 -204 212v304h116v-283c0 -80 37 -129 117 -129c88 0 130 60 130 163v249h116v-502h-110v60c-30 -40 -78 -74 -165 -74z" />
    <glyph glyph-name="uacute" unicode="&#xfa;" horiz-adv-x="625" 
d="M472 733l-143 -155h-102l105 155h140zM272 -14c-122 0 -204 73 -204 212v304h116v-283c0 -80 37 -129 117 -129c88 0 130 60 130 163v249h116v-502h-110v60c-30 -40 -78 -74 -165 -74z" />
    <glyph glyph-name="ubreve" unicode="&#x16d;" horiz-adv-x="625" 
d="M462 703c0 -89 -58 -142 -152 -142c-91 0 -152 53 -152 142h80c0 -54 35 -71 72 -71c40 0 72 17 72 71h80zM272 -14c-122 0 -204 73 -204 212v304h116v-283c0 -80 37 -129 117 -129c88 0 130 60 130 163v249h116v-502h-110v60c-30 -40 -78 -74 -165 -74z" />
    <glyph glyph-name="uni01D4" unicode="&#x1d4;" horiz-adv-x="625" 
d="M361 571h-102l-116 131h108l59 -73l59 73h108zM431 502h116v-502h-110v60c-30 -40 -78 -74 -165 -74c-122 0 -204 73 -204 212v304h116v-283c0 -80 37 -129 117 -129c88 0 130 60 130 163v249z" />
    <glyph glyph-name="ucircumflex" unicode="&#xfb;" horiz-adv-x="625" 
d="M311 643l-67 -74h-112l124 131h109l124 -131h-112zM431 502h116v-502h-110v60c-30 -40 -78 -74 -165 -74c-122 0 -204 73 -204 212v304h116v-283c0 -80 37 -129 117 -129c88 0 130 60 130 163v249z" />
    <glyph glyph-name="udieresis" unicode="&#xfc;" horiz-adv-x="625" 
d="M205 571c-39 0 -69 31 -69 68s30 68 69 68c37 0 67 -31 67 -68s-30 -68 -67 -68zM417 571c-39 0 -69 31 -69 68s30 68 69 68c37 0 67 -31 67 -68s-30 -68 -67 -68zM272 -14c-122 0 -204 73 -204 212v304h116v-283c0 -80 37 -129 117 -129c88 0 130 60 130 163v249h116
v-502h-110v60c-30 -40 -78 -74 -165 -74z" />
    <glyph glyph-name="ugrave" unicode="&#xf9;" horiz-adv-x="625" 
d="M136 733h140l105 -155h-102zM272 -14c-122 0 -204 73 -204 212v304h116v-283c0 -80 37 -129 117 -129c88 0 130 60 130 163v249h116v-502h-110v60c-30 -40 -78 -74 -165 -74z" />
    <glyph glyph-name="uhungarumlaut" unicode="&#x171;" horiz-adv-x="625" 
d="M347 697l-121 -137h-101l89 137h133zM552 697l-120 -137h-102l90 137h132zM272 -14c-122 0 -204 73 -204 212v304h116v-283c0 -80 37 -129 117 -129c88 0 130 60 130 163v249h116v-502h-110v60c-30 -40 -78 -74 -165 -74z" />
    <glyph glyph-name="umacron" unicode="&#x16b;" horiz-adv-x="625" 
d="M486 665v-78h-353v78h353zM272 -14c-122 0 -204 73 -204 212v304h116v-283c0 -80 37 -129 117 -129c88 0 130 60 130 163v249h116v-502h-110v60c-30 -40 -78 -74 -165 -74z" />
    <glyph glyph-name="uogonek" unicode="&#x173;" horiz-adv-x="625" 
d="M521 0c-66 -28 -90 -55 -90 -78c0 -22 20 -32 42 -32c15 0 35 4 54 12v-80c-25 -10 -51 -16 -76 -16c-64 0 -109 38 -109 89c0 37 25 77 79 105h16v60c-30 -40 -78 -74 -165 -74c-122 0 -204 73 -204 212v304h116v-283c0 -80 37 -129 117 -129c88 0 130 60 130 163v249
h116v-502h-26z" />
    <glyph glyph-name="uring" unicode="&#x16f;" horiz-adv-x="625" 
d="M309 716c50 0 88 -38 88 -87s-38 -87 -88 -87c-49 0 -87 38 -87 87s38 87 87 87zM309 668c-21 0 -39 -18 -39 -39c0 -22 18 -39 39 -39s38 17 38 39c0 21 -17 39 -38 39zM272 -14c-122 0 -204 73 -204 212v304h116v-283c0 -80 37 -129 117 -129c88 0 130 60 130 163v249
h116v-502h-110v60c-30 -40 -78 -74 -165 -74z" />
    <glyph glyph-name="utilde" unicode="&#x169;" horiz-adv-x="625" 
d="M420 699h64c0 -81 -39 -128 -101 -128c-67 0 -102 46 -141 46c-25 0 -35 -21 -35 -48h-64c0 78 38 128 102 128c65 0 101 -46 139 -46c25 0 36 21 36 48zM272 -14c-122 0 -204 73 -204 212v304h116v-283c0 -80 37 -129 117 -129c88 0 130 60 130 163v249h116v-502h-110
v60c-30 -40 -78 -74 -165 -74z" />
    <glyph glyph-name="v" unicode="v" horiz-adv-x="568" 
d="M437 502h120l-215 -502h-116l-215 502h119l154 -371z" />
    <glyph glyph-name="w" unicode="w" horiz-adv-x="821" 
d="M676 502h119l-162 -503h-120l-102 359l-103 -359h-120l-162 503h119l105 -372l105 372h111l105 -372z" />
    <glyph glyph-name="wacute" unicode="&#x1e83;" horiz-adv-x="821" 
d="M573 730l-143 -155h-102l105 155h140zM676 502h119l-162 -503h-120l-102 359l-103 -359h-120l-162 503h119l105 -372l105 372h111l105 -372z" />
    <glyph glyph-name="wcircumflex" unicode="&#x175;" horiz-adv-x="821" 
d="M412 640l-67 -74h-112l124 131h109l124 -131h-112zM676 502h119l-162 -503h-120l-102 359l-103 -359h-120l-162 503h119l105 -372l105 372h111l105 -372z" />
    <glyph glyph-name="wdieresis" unicode="&#x1e85;" horiz-adv-x="821" 
d="M306 568c-39 0 -69 31 -69 68s30 68 69 68c37 0 67 -31 67 -68s-30 -68 -67 -68zM518 568c-39 0 -69 31 -69 68s30 68 69 68c37 0 67 -31 67 -68s-30 -68 -67 -68zM676 502h119l-162 -503h-120l-102 359l-103 -359h-120l-162 503h119l105 -372l105 372h111l105 -372z" />
    <glyph glyph-name="wgrave" unicode="&#x1e81;" horiz-adv-x="821" 
d="M482 575h-102l-143 155h140zM676 502h119l-162 -503h-120l-102 359l-103 -359h-120l-162 503h119l105 -372l105 372h111l105 -372z" />
    <glyph glyph-name="x" unicode="x" horiz-adv-x="573" 
d="M558 0h-133l-138 178l-139 -178h-133l205 264l-185 238h133l119 -153l118 153h134l-186 -238z" />
    <glyph glyph-name="y" unicode="y" horiz-adv-x="570" 
d="M440 502h125l-312 -724h-114l93 222l-226 502h123l160 -364z" />
    <glyph glyph-name="yacute" unicode="&#xfd;" horiz-adv-x="570" 
d="M460 733l-143 -155h-102l105 155h140zM440 502h125l-312 -724h-114l93 222l-226 502h123l160 -364z" />
    <glyph glyph-name="ycircumflex" unicode="&#x177;" horiz-adv-x="570" 
d="M299 643l-67 -74h-112l124 131h109l124 -131h-112zM440 502h125l-312 -724h-114l93 222l-226 502h123l160 -364z" />
    <glyph glyph-name="ydieresis" unicode="&#xff;" horiz-adv-x="570" 
d="M193 571c-39 0 -69 31 -69 68s30 68 69 68c37 0 67 -31 67 -68s-30 -68 -67 -68zM405 571c-39 0 -69 31 -69 68s30 68 69 68c37 0 67 -31 67 -68s-30 -68 -67 -68zM440 502h125l-312 -724h-114l93 222l-226 502h123l160 -364z" />
    <glyph glyph-name="ygrave" unicode="&#x1ef3;" horiz-adv-x="570" 
d="M369 578h-102l-143 155h140zM440 502h125l-312 -724h-114l93 222l-226 502h123l160 -364z" />
    <glyph glyph-name="z" unicode="z" horiz-adv-x="502" 
d="M448 502v-80l-252 -318h266v-104h-413v87l247 311h-232v104h384z" />
    <glyph glyph-name="zacute" unicode="&#x17a;" horiz-adv-x="502" 
d="M416 730l-143 -155h-102l105 155h140zM448 502v-80l-252 -318h266v-104h-413v87l247 311h-232v104h384z" />
    <glyph glyph-name="zcaron" unicode="&#x17e;" horiz-adv-x="502" 
d="M305 566h-102l-116 131h108l59 -73l59 73h108zM196 104h266v-104h-413v87l247 311h-232v104h384v-80z" />
    <glyph glyph-name="zdotaccent" unicode="&#x17c;" horiz-adv-x="502" 
d="M254 573c-38 0 -69 31 -69 68s31 68 69 68c37 0 67 -31 67 -68s-30 -68 -67 -68zM448 502v-80l-252 -318h266v-104h-413v87l247 311h-232v104h384z" />
    <glyph glyph-name="a.ss01" horiz-adv-x="636" 
d="M287 -14c-127 0 -237 106 -237 266c0 158 110 265 237 265c68 0 123 -26 155 -62v48h116v-503h-111v54c-34 -40 -90 -68 -160 -68zM308 89c82 0 140 58 140 163s-58 162 -140 162s-141 -58 -141 -162c0 -105 59 -163 141 -163z" />
    <glyph glyph-name="pi" unicode="&#x3c0;" horiz-adv-x="631" 
d="M598 503v-104h-71v-399h-116v399h-189v-399h-116v399h-74v104h566z" />
    <glyph glyph-name="zero" unicode="0" horiz-adv-x="683" 
d="M342 -15c-190 1 -288 170 -288 364c0 197 98 364 288 365c190 -1 287 -171 287 -365c0 -195 -98 -363 -287 -364zM342 97c105 1 165 103 165 252c0 153 -60 252 -165 253c-106 -1 -165 -103 -165 -253c0 -151 59 -251 165 -252z" />
    <glyph glyph-name="one" unicode="1" horiz-adv-x="487" 
d="M381 700v-700h-118v572l-200 -106v119l214 115h104z" />
    <glyph glyph-name="two" unicode="2" horiz-adv-x="636" 
d="M260 113h313v-113h-488v99l275 253c50 44 86 87 86 143c0 68 -54 109 -128 109c-77 0 -135 -46 -135 -131h-118c0 152 114 241 252 241c146 0 251 -99 251 -219c0 -84 -53 -154 -116 -209z" />
    <glyph glyph-name="three" unicode="3" horiz-adv-x="620" 
d="M310 -14c-146 0 -258 80 -258 225h118c0 -67 53 -115 140 -115c79 0 139 39 139 108c0 70 -68 104 -144 104h-49v102h49c73 0 124 35 124 92c0 61 -49 102 -125 102c-86 0 -133 -52 -133 -116h-117c0 136 104 226 250 226c127 0 245 -78 245 -202
c0 -85 -53 -129 -95 -151c49 -17 116 -68 116 -160c0 -129 -116 -215 -260 -215z" />
    <glyph glyph-name="four" unicode="4" horiz-adv-x="647" 
d="M616 271v-104h-111v-167h-118v167h-356v99l314 434h160v-429h111zM163 271h224v313z" />
    <glyph glyph-name="five" unicode="5" horiz-adv-x="630" 
d="M533 700v-111h-340v-173c24 23 74 48 139 48c125 0 242 -85 242 -230c0 -137 -96 -248 -261 -248c-148 0 -254 86 -254 223h121c0 -75 65 -113 134 -113c89 0 138 63 138 133c0 72 -54 130 -136 130c-66 0 -113 -33 -131 -61h-105v402h453z" />
    <glyph glyph-name="six" unicode="6" horiz-adv-x="622" 
d="M312 -14c-139 0 -260 87 -260 237c0 96 49 167 90 222l189 255h136l-195 -264c22 6 47 9 71 9c126 0 231 -82 231 -222c0 -148 -119 -237 -262 -237zM313 96c79 0 141 49 141 127c0 77 -62 126 -141 126s-141 -49 -141 -126c0 -78 63 -127 141 -127z" />
    <glyph glyph-name="seven" unicode="7" horiz-adv-x="575" 
d="M45 700h474v-102l-272 -598h-129l268 589h-341v111z" />
    <glyph glyph-name="eight" unicode="8" horiz-adv-x="636" 
d="M318 -14c-161 0 -262 96 -262 210c0 93 62 144 116 169c-52 27 -94 77 -94 150c0 108 91 199 240 199c150 0 240 -91 240 -199c0 -72 -41 -123 -94 -150c53 -25 116 -76 116 -169c0 -114 -101 -210 -262 -210zM318 408c71 0 119 39 119 99s-49 99 -119 99
c-71 0 -119 -39 -119 -99s48 -99 119 -99zM318 94c86 0 140 46 140 112c0 65 -54 111 -140 111s-140 -46 -140 -111c0 -66 54 -112 140 -112z" />
    <glyph glyph-name="nine" unicode="9" horiz-adv-x="624" 
d="M310 714c139 0 260 -87 260 -237c0 -96 -49 -167 -90 -222l-189 -255h-136l195 264c-22 -6 -47 -9 -71 -9c-126 0 -231 82 -231 222c0 148 119 237 262 237zM309 604c-79 0 -141 -49 -141 -127c0 -77 62 -126 141 -126s141 49 141 126c0 78 -63 127 -141 127z" />
    <glyph glyph-name="zero.tf" horiz-adv-x="683" 
d="M342 -15c-190 1 -288 170 -288 364c0 197 98 364 288 365c190 -1 287 -171 287 -365c0 -195 -98 -363 -287 -364zM342 97c105 1 165 103 165 252c0 153 -60 252 -165 253c-106 -1 -165 -103 -165 -253c0 -151 59 -251 165 -252z" />
    <glyph glyph-name="one.tf" horiz-adv-x="683" 
d="M422 113h223v-113h-574v113h233v459l-220 -117v119l234 126h104v-587z" />
    <glyph glyph-name="two.tf" horiz-adv-x="683" 
d="M282 113h313v-113h-488v99l275 253c50 44 86 87 86 143c0 68 -54 109 -128 109c-77 0 -135 -46 -135 -131h-118c0 152 114 241 252 241c146 0 251 -99 251 -219c0 -84 -53 -154 -116 -209z" />
    <glyph glyph-name="three.tf" horiz-adv-x="683" 
d="M335 -14c-146 0 -258 80 -258 225h118c0 -67 53 -115 140 -115c79 0 139 39 139 108c0 70 -68 104 -144 104h-49v102h49c73 0 124 35 124 92c0 61 -49 102 -125 102c-86 0 -133 -52 -133 -116h-117c0 136 104 226 250 226c127 0 245 -78 245 -202
c0 -85 -53 -129 -95 -151c49 -17 116 -68 116 -160c0 -129 -116 -215 -260 -215z" />
    <glyph glyph-name="four.tf" horiz-adv-x="683" 
d="M634 271v-104h-111v-167h-118v167h-356v99l314 434h160v-429h111zM181 271h224v313z" />
    <glyph glyph-name="five.tf" horiz-adv-x="683" 
d="M558 700v-111h-340v-173c24 23 74 48 139 48c125 0 242 -85 242 -230c0 -137 -96 -248 -261 -248c-148 0 -254 86 -254 223h121c0 -75 65 -113 134 -113c89 0 138 63 138 133c0 72 -54 130 -136 130c-66 0 -113 -33 -131 -61h-105v402h453z" />
    <glyph glyph-name="six.tf" horiz-adv-x="683" 
d="M337 -14c-139 0 -260 87 -260 237c0 96 49 167 90 222l189 255h136l-195 -264c22 6 47 9 71 9c126 0 231 -82 231 -222c0 -148 -119 -237 -262 -237zM338 96c79 0 141 49 141 127c0 77 -62 126 -141 126s-141 -49 -141 -126c0 -78 63 -127 141 -127z" />
    <glyph glyph-name="seven.tf" horiz-adv-x="683" 
d="M78 700h529v-102l-295 -598h-129l290 589h-395v111z" />
    <glyph glyph-name="eight.tf" horiz-adv-x="683" 
d="M342 -14c-161 0 -262 96 -262 210c0 93 62 144 116 169c-52 27 -94 77 -94 150c0 108 91 199 240 199c150 0 240 -91 240 -199c0 -72 -41 -123 -94 -150c53 -25 116 -76 116 -169c0 -114 -101 -210 -262 -210zM342 408c71 0 119 39 119 99s-49 99 -119 99
c-71 0 -119 -39 -119 -99s48 -99 119 -99zM342 94c86 0 140 46 140 112c0 65 -54 111 -140 111s-140 -46 -140 -111c0 -66 54 -112 140 -112z" />
    <glyph glyph-name="nine.tf" horiz-adv-x="683" 
d="M343 714c139 0 260 -87 260 -237c0 -96 -49 -167 -90 -222l-189 -255h-136l195 264c-22 -6 -47 -9 -71 -9c-126 0 -231 82 -231 222c0 148 119 237 262 237zM342 604c-79 0 -141 -49 -141 -127c0 -77 62 -126 141 -126s141 49 141 126c0 78 -63 127 -141 127z" />
    <glyph glyph-name="zero.dnom" horiz-adv-x="402" 
d="M201 393c117 0 176 -94 176 -201s-59 -200 -176 -200s-176 94 -176 200c0 108 59 201 176 201zM201 311c-56 0 -87 -49 -87 -119c0 -71 31 -119 87 -119c57 0 88 50 88 119c0 72 -31 119 -88 119z" />
    <glyph glyph-name="one.dnom" horiz-adv-x="370" 
d="M260 406v-406h-86v323l-136 -74v83l129 74h93z" />
    <glyph glyph-name="two.dnom" horiz-adv-x="386" 
d="M195 414c87 0 157 -55 157 -133c0 -47 -30 -86 -79 -126l-93 -76h175v-79h-305v63l161 136c31 27 52 48 52 80c0 43 -39 57 -70 57c-33 0 -73 -12 -73 -63h-83c0 93 77 141 158 141z" />
    <glyph glyph-name="three.dnom" horiz-adv-x="364" 
d="M176 414c84 0 151 -51 151 -119c0 -50 -25 -67 -53 -85c34 -14 66 -40 66 -94c0 -75 -74 -124 -159 -124c-81 0 -155 44 -155 130h83c0 -36 33 -52 70 -52c38 0 75 15 75 55c0 36 -44 47 -76 47h-30v72h30c34 0 64 13 64 42c0 30 -25 50 -66 50c-46 0 -68 -26 -68 -54
h-80c0 82 66 132 148 132z" />
    <glyph glyph-name="four.dnom" horiz-adv-x="375" 
d="M358 166v-72h-66v-94h-86v94h-189v73l181 239h94v-240h66zM107 166h99v136z" />
    <glyph glyph-name="five.dnom" horiz-adv-x="367" 
d="M319 406v-78h-192v-75c12 11 41 22 74 22c81 0 143 -56 143 -140c0 -79 -56 -143 -159 -143c-85 0 -154 44 -154 129h84c0 -35 37 -50 70 -50c47 0 72 30 72 63c0 30 -23 68 -73 68c-38 0 -61 -23 -66 -34l-74 2v236h275z" />
    <glyph glyph-name="six.dnom" horiz-adv-x="367" 
d="M196 406h99l-118 -155c6 1 20 3 36 3c59 0 132 -39 132 -127c0 -93 -82 -135 -165 -135c-72 0 -156 29 -156 131c0 26 4 59 47 117zM184 186c-34 0 -74 -16 -74 -57c0 -42 40 -58 74 -58c35 0 74 17 74 58c0 40 -39 57 -74 57z" />
    <glyph glyph-name="seven.dnom" horiz-adv-x="331" 
d="M305 406v-72l-156 -334h-94l155 328h-189l-1 78h285z" />
    <glyph glyph-name="eight.dnom" horiz-adv-x="374" 
d="M187 414c66 0 148 -38 148 -121c0 -40 -22 -63 -52 -81c34 -19 65 -47 65 -94c0 -82 -81 -126 -161 -126s-161 45 -161 125c0 48 32 76 65 95c-30 18 -53 41 -53 81c0 83 82 121 149 121zM187 337c-35 0 -62 -15 -62 -46s28 -46 62 -46s62 15 62 46s-28 46 -62 46z
M187 177c-34 0 -74 -14 -74 -52s40 -54 74 -54c35 0 74 16 74 54s-40 52 -74 52z" />
    <glyph glyph-name="nine.dnom" horiz-adv-x="367" 
d="M74 0l110 151c-4 1 -10 0 -22 0c-65 0 -140 40 -140 131c0 96 87 132 166 132c71 0 155 -29 155 -130c0 -31 -6 -62 -47 -117l-124 -167h-98zM184 220c34 0 75 16 75 57c0 42 -42 58 -75 58c-35 0 -75 -17 -75 -58c0 -40 40 -57 75 -57z" />
    <glyph glyph-name="zero.numr" horiz-adv-x="402" 
d="M201 710c117 0 176 -94 176 -201s-59 -200 -176 -200s-176 94 -176 200c0 108 59 201 176 201zM201 628c-56 0 -87 -49 -87 -119c0 -71 31 -119 87 -119c57 0 88 50 88 119c0 72 -31 119 -88 119z" />
    <glyph glyph-name="one.numr" horiz-adv-x="370" 
d="M260 700v-406h-86v323l-136 -74v83l129 74h93z" />
    <glyph glyph-name="two.numr" horiz-adv-x="386" 
d="M195 707c87 0 157 -55 157 -133c0 -47 -30 -86 -79 -126l-93 -76h175v-79h-305v63l161 136c31 27 52 48 52 80c0 43 -39 57 -70 57c-33 0 -73 -12 -73 -63h-83c0 93 77 141 158 141z" />
    <glyph glyph-name="three.numr" horiz-adv-x="364" 
d="M176 706c84 0 151 -51 151 -119c0 -50 -25 -67 -53 -85c34 -14 66 -40 66 -94c0 -75 -74 -124 -159 -124c-81 0 -155 44 -155 130h83c0 -36 33 -52 70 -52c38 0 75 15 75 55c0 36 -44 47 -76 47h-30v72h30c34 0 64 13 64 42c0 30 -25 50 -66 50c-46 0 -68 -26 -68 -54
h-80c0 82 66 132 148 132z" />
    <glyph glyph-name="four.numr" horiz-adv-x="375" 
d="M358 460v-72h-66v-94h-86v94h-189v73l181 239h94v-240h66zM107 460h99v136z" />
    <glyph glyph-name="five.numr" horiz-adv-x="367" 
d="M319 700v-78h-192v-75c12 11 41 22 74 22c81 0 143 -56 143 -140c0 -79 -56 -143 -159 -143c-85 0 -154 44 -154 129h84c0 -35 37 -50 70 -50c47 0 72 30 72 63c0 30 -23 68 -73 68c-38 0 -61 -23 -66 -34l-74 2v236h275z" />
    <glyph glyph-name="six.numr" horiz-adv-x="367" 
d="M196 700h99l-118 -155c6 1 20 3 36 3c59 0 132 -39 132 -127c0 -93 -82 -135 -165 -135c-72 0 -156 29 -156 131c0 26 4 59 47 117zM184 480c-34 0 -74 -16 -74 -57c0 -42 40 -58 74 -58c35 0 74 17 74 58c0 40 -39 57 -74 57z" />
    <glyph glyph-name="seven.numr" horiz-adv-x="331" 
d="M305 700v-72l-156 -334h-94l155 328h-189l-1 78h285z" />
    <glyph glyph-name="eight.numr" horiz-adv-x="374" 
d="M187 706c66 0 148 -38 148 -121c0 -40 -22 -63 -52 -81c34 -19 65 -47 65 -94c0 -82 -81 -126 -161 -126s-161 45 -161 125c0 48 32 76 65 95c-30 18 -53 41 -53 81c0 83 82 121 149 121zM187 629c-35 0 -62 -15 -62 -46s28 -46 62 -46s62 15 62 46s-28 46 -62 46z
M187 469c-34 0 -74 -14 -74 -52s40 -54 74 -54c35 0 74 16 74 54s-40 52 -74 52z" />
    <glyph glyph-name="nine.numr" horiz-adv-x="367" 
d="M74 291l110 151c-4 1 -10 0 -22 0c-65 0 -140 40 -140 131c0 96 87 132 166 132c71 0 155 -29 155 -130c0 -31 -6 -62 -47 -117l-124 -167h-98zM184 511c34 0 75 16 75 57c0 42 -42 58 -75 58c-35 0 -75 -17 -75 -58c0 -40 40 -57 75 -57z" />
    <glyph glyph-name="fraction" unicode="&#x2044;" horiz-adv-x="102" 
d="M229 700h98l-453 -700h-99z" />
    <glyph glyph-name="onehalf" unicode="&#xbd;" horiz-adv-x="858" 
d="M260 700v-406h-86v323l-136 -74v83l129 74h93zM599 700h98l-453 -700h-99zM667 414c87 0 157 -55 157 -133c0 -47 -30 -86 -79 -126l-93 -76h175v-79h-305v63l161 136c31 27 52 48 52 80c0 43 -39 57 -70 57c-33 0 -73 -12 -73 -63h-83c0 93 77 141 158 141z" />
    <glyph glyph-name="onequarter" unicode="&#xbc;" horiz-adv-x="847" 
d="M174 294v323l-136 -74v83l129 74h93v-406h-86zM599 700h98l-453 -700h-99zM830 166v-72h-66v-94h-86v94h-189v73l181 239h94v-240h66zM579 166h99v136z" />
    <glyph glyph-name="threequarters" unicode="&#xbe;" horiz-adv-x="841" 
d="M340 408c0 -75 -74 -124 -159 -124c-81 0 -155 44 -155 130h83c0 -36 33 -52 70 -52c38 0 75 15 75 55c0 36 -44 47 -76 47h-30v72h30c34 0 64 13 64 42c0 30 -25 50 -66 50c-46 0 -68 -26 -68 -54h-80c0 82 66 132 148 132c84 0 151 -51 151 -119c0 -50 -25 -67 -53 -85
c34 -14 66 -40 66 -94zM593 700h98l-453 -700h-99zM824 166v-72h-66v-94h-86v94h-189v73l181 239h94v-240h66zM573 166h99v136z" />
    <glyph glyph-name="asterisk" unicode="*" horiz-adv-x="497" 
d="M293 632l-4 -119l115 45l31 -84l-116 -39l81 -101l-72 -55l-79 112l-81 -112l-71 55l81 101l-116 39l30 84l115 -45l-4 119h90z" />
    <glyph glyph-name="uni2042" unicode="&#x2042;" horiz-adv-x="983" 
d="M530 745l-4 -119l115 45l31 -84l-116 -39l81 -101l-72 -55l-79 112l-81 -112l-71 55l81 101l-116 39l30 84l115 -45l-4 119h90zM286 353l-4 -119l115 45l31 -84l-116 -39l81 -101l-72 -55l-79 112l-81 -112l-71 55l81 101l-116 39l30 84l115 -45l-4 119h90zM786 353
l-4 -119l115 45l31 -84l-116 -39l81 -101l-72 -55l-79 112l-81 -112l-71 55l81 101l-116 39l30 84l115 -45l-4 119h90z" />
    <glyph glyph-name="backslash" unicode="\" horiz-adv-x="522" 
d="M149 771l308 -846l-101 -17l-308 846z" />
    <glyph glyph-name="periodcentered" unicode="&#xb7;" horiz-adv-x="290" 
d="M145 375c32 0 57 -25 57 -57s-25 -57 -57 -57s-58 25 -58 57s26 57 58 57z" />
    <glyph glyph-name="bullet" unicode="&#x2022;" horiz-adv-x="418" 
d="M209 487c65 0 118 -54 118 -120s-52 -117 -118 -117s-119 51 -119 117s53 120 119 120z" />
    <glyph glyph-name="colon" unicode=":" horiz-adv-x="231" 
d="M120 359c-43 0 -77 35 -77 77c0 43 34 77 77 77c42 0 77 -34 77 -77c0 -42 -35 -77 -77 -77zM120 -14c-43 0 -77 35 -77 77c0 43 34 77 77 77c42 0 77 -34 77 -77c0 -42 -35 -77 -77 -77z" />
    <glyph glyph-name="comma" unicode="," horiz-adv-x="239" 
d="M120 140c42 0 77 -34 77 -77c0 -22 -8 -44 -20 -65l-69 -126h-69l63 116c-30 4 -59 37 -59 75c0 43 34 77 77 77z" />
    <glyph glyph-name="ellipsis" unicode="&#x2026;" horiz-adv-x="890" 
d="M187 -14c-42 0 -77 35 -77 77c0 43 35 77 77 77c43 0 77 -34 77 -77c0 -42 -34 -77 -77 -77zM450 -14c-43 0 -78 35 -78 77c0 43 35 77 78 77c42 0 77 -34 77 -77c0 -42 -35 -77 -77 -77zM712 -14c-42 0 -77 35 -77 77c0 43 35 77 77 77s77 -34 77 -77
c0 -42 -35 -77 -77 -77z" />
    <glyph glyph-name="exclam" unicode="!" horiz-adv-x="293" 
d="M205 692l-6 -468h-107l-5 468h118zM145 -14c-43 0 -77 35 -77 77c0 43 34 77 77 77c42 0 77 -34 77 -77c0 -42 -35 -77 -77 -77z" />
    <glyph glyph-name="exclamdown" unicode="&#xa1;" horiz-adv-x="293" 
d="M145 706c42 0 77 -35 77 -77c0 -43 -35 -77 -77 -77c-43 0 -77 34 -77 77c0 42 34 77 77 77zM205 0h-118l5 468h107z" />
    <glyph glyph-name="numbersign" unicode="#" horiz-adv-x="767" 
d="M707 414h-142l-15 -133h132v-86h-143l-23 -195h-99l24 195h-173l-23 -195h-99l23 195h-136v86h147l15 133h-137v86h148l21 179h99l-21 -179h172l22 179h98l-21 -179h131v-86zM451 281l16 133h-173l-15 -133h172z" />
    <glyph glyph-name="period" unicode="." horiz-adv-x="239" 
d="M120 -14c-43 0 -77 35 -77 77c0 43 34 77 77 77c42 0 77 -34 77 -77c0 -42 -35 -77 -77 -77z" />
    <glyph glyph-name="question" unicode="?" horiz-adv-x="476" 
d="M238 714c133 0 203 -84 203 -183c0 -137 -149 -159 -149 -287v-30h-112v31c0 176 145 193 145 283c0 50 -41 80 -88 80c-42 0 -88 -24 -88 -101h-113c0 111 69 207 202 207zM238 -14c-43 0 -77 35 -77 77c0 43 34 77 77 77c42 0 77 -34 77 -77c0 -42 -35 -77 -77 -77z
" />
    <glyph glyph-name="questiondown" unicode="&#xbf;" horiz-adv-x="402" 
d="M181 497c43 0 77 -35 77 -77c0 -43 -34 -77 -77 -77c-42 0 -77 34 -77 77c0 42 35 77 77 77zM181 -231c-133 0 -203 84 -203 183c0 137 149 159 149 287v30h112v-31c0 -176 -145 -193 -145 -283c0 -50 41 -80 88 -80c42 0 88 24 88 101h113c0 -111 -69 -207 -202 -207z
" />
    <glyph glyph-name="quotedbl" unicode="&#x22;" horiz-adv-x="405" 
d="M174 700l-19 -219h-79l-19 219h117zM348 700l-18 -219h-79l-19 219h116z" />
    <glyph glyph-name="quotesingle" unicode="'" horiz-adv-x="195" 
d="M134 700l-18 -219h-79l-19 219h116z" />
    <glyph glyph-name="semicolon" unicode=";" horiz-adv-x="222" 
d="M116 362c-43 0 -77 35 -77 77c0 43 34 77 77 77c42 0 77 -34 77 -77c0 -42 -35 -77 -77 -77zM120 140c42 0 77 -34 77 -77c0 -22 -8 -44 -20 -65l-69 -126h-69l63 116c-30 4 -59 37 -59 75c0 43 34 77 77 77z" />
    <glyph glyph-name="slash" unicode="/" horiz-adv-x="505" 
d="M350 754h107l-302 -829h-107z" />
    <glyph glyph-name="underscore" unicode="_" horiz-adv-x="664" 
d="M637 -17v-71h-610v71h610z" />
    <glyph glyph-name="braceleft" unicode="{" horiz-adv-x="436" 
d="M330 842h40v-68h-33c-59 0 -72 -42 -72 -92v-216c0 -47 -27 -80 -66 -101c39 -21 66 -53 66 -100v-216c0 -50 13 -92 72 -92h33v-68h-40c-98 0 -165 53 -165 151v227c0 49 -21 71 -84 72v53c60 1 84 23 84 72v227c0 99 67 151 165 151z" />
    <glyph glyph-name="braceright" unicode="}" horiz-adv-x="436" 
d="M106 842c98 0 165 -52 165 -151v-227c0 -49 24 -71 84 -72v-53c-63 -1 -84 -23 -84 -72v-227c0 -98 -67 -151 -165 -151h-40v68h33c59 0 72 42 72 92v216c0 47 27 79 66 100c-39 21 -66 54 -66 101v216c0 50 -13 92 -72 92h-33v68h40z" />
    <glyph glyph-name="bracketleft" unicode="[" horiz-adv-x="448" 
d="M362 844v-93h-144v-781h144v-83h-250v957h250z" />
    <glyph glyph-name="bracketright" unicode="]" horiz-adv-x="448" 
d="M336 844v-957h-250v83h144v785h-144v89h250z" />
    <glyph glyph-name="parenleft" unicode="(" horiz-adv-x="338" 
d="M215 759h113c-125 -134 -190 -278 -190 -428s65 -294 190 -428h-113c-125 127 -190 280 -190 428s65 301 190 428z" />
    <glyph glyph-name="parenright" unicode=")" horiz-adv-x="338" 
d="M123 759c125 -127 190 -280 190 -428s-65 -301 -190 -428h-113c125 134 190 278 190 428s-65 294 -190 428h113z" />
    <glyph glyph-name="emdash" unicode="&#x2014;" horiz-adv-x="769" 
d="M724 346v-96h-679v96h679z" />
    <glyph glyph-name="endash" unicode="&#x2013;" horiz-adv-x="638" 
d="M593 346v-96h-548v96h548z" />
    <glyph glyph-name="hyphen" unicode="-" horiz-adv-x="640" 
d="M550 346v-96h-460v96h460z" />
    <glyph glyph-name="guillemotleft" unicode="&#xab;" horiz-adv-x="637" 
d="M266 540l54 -41l-128 -200l128 -200l-54 -41l-185 241zM502 540l54 -41l-127 -200l127 -200l-54 -41l-185 241z" />
    <glyph glyph-name="guillemotright" unicode="&#xbb;" horiz-adv-x="637" 
d="M135 540l185 -241l-185 -241l-54 41l127 200l-127 200zM371 540l185 -241l-185 -241l-54 41l128 200l-128 200z" />
    <glyph glyph-name="guilsinglleft" unicode="&#x2039;" horiz-adv-x="410" 
d="M274 540l55 -41l-134 -200l134 -200l-55 -41l-193 241z" />
    <glyph glyph-name="guilsinglright" unicode="&#x203a;" horiz-adv-x="410" 
d="M136 540l193 -241l-193 -241l-55 41l134 200l-134 200z" />
    <glyph glyph-name="quotedblbase" unicode="&#x201e;" horiz-adv-x="405" 
d="M114 140c42 0 77 -34 77 -77c0 -22 -8 -44 -20 -65l-69 -126h-69l63 116c-30 4 -59 37 -59 75c0 43 34 77 77 77zM317 140c42 0 77 -34 77 -77c0 -22 -8 -44 -20 -65l-69 -126h-69l63 116c-30 4 -59 37 -59 75c0 43 34 77 77 77z" />
    <glyph glyph-name="quotedblleft" unicode="&#x201c;" horiz-adv-x="414" 
d="M92 456c-42 0 -77 34 -77 77c0 22 8 44 20 65l69 126h69l-63 -116c30 -4 59 -37 59 -75c0 -43 -34 -77 -77 -77zM304 456c-42 0 -77 34 -77 77c0 22 8 44 20 65l69 126h69l-63 -116c30 -4 59 -37 59 -75c0 -43 -34 -77 -77 -77z" />
    <glyph glyph-name="quotedblright" unicode="&#x201d;" horiz-adv-x="414" 
d="M110 715c42 0 77 -34 77 -77c0 -22 -8 -44 -20 -65l-69 -126h-69l63 116c-30 4 -59 37 -59 75c0 43 34 77 77 77zM321 715c42 0 77 -34 77 -77c0 -22 -8 -44 -20 -65l-69 -126h-69l63 116c-30 4 -59 37 -59 75c0 43 34 77 77 77z" />
    <glyph glyph-name="quoteleft" unicode="&#x2018;" horiz-adv-x="202" 
d="M92 456c-42 0 -77 34 -77 77c0 22 8 44 20 65l69 126h69l-63 -116c30 -4 59 -37 59 -75c0 -43 -34 -77 -77 -77z" />
    <glyph glyph-name="quoteright" unicode="&#x2019;" horiz-adv-x="202" 
d="M110 715c42 0 77 -34 77 -77c0 -22 -8 -44 -20 -65l-69 -126h-69l63 116c-30 4 -59 37 -59 75c0 43 34 77 77 77z" />
    <glyph glyph-name="quotesinglbase" unicode="&#x201a;" horiz-adv-x="206" 
d="M113 140c42 0 77 -34 77 -77c0 -22 -8 -44 -20 -65l-69 -126h-69l63 116c-30 4 -59 37 -59 75c0 43 34 77 77 77z" />
    <glyph glyph-name="space" unicode=" " horiz-adv-x="256" 
 />
    <glyph glyph-name="cent" unicode="&#xa2;" 
d="M336 90c57 7 96 42 105 98h110c-10 -123 -106 -193 -215 -201v-71h-56v72c-136 15 -231 117 -231 263s96 249 231 263v69h56v-68c112 -8 205 -81 215 -201h-110c-9 54 -48 91 -105 98v-322zM166 251c0 -88 40 -146 114 -159v318c-74 -13 -114 -70 -114 -159z" />
    <glyph glyph-name="currency" unicode="&#xa4;" horiz-adv-x="651" 
d="M508 584l67 -67l-60 -61c23 -37 35 -79 35 -121c0 -43 -11 -85 -35 -122l60 -61l-67 -67l-60 60c-37 -25 -80 -36 -123 -36s-85 11 -122 35l-60 -59l-67 67l60 60c-25 37 -37 81 -37 124s12 85 36 122l-59 59l67 67l59 -59c37 24 79 36 123 36c42 0 85 -13 123 -37z
M325 460c-70 0 -125 -57 -125 -125c0 -69 57 -124 125 -124c70 0 125 58 125 125c0 66 -56 124 -125 124z" />
    <glyph glyph-name="dollar" unicode="$" horiz-adv-x="603" 
d="M561 195c0 -112 -82 -201 -233 -209v-70h-55v71c-160 14 -234 119 -234 240h121c0 -73 40 -118 113 -128v210l-72 23c-95 31 -148 86 -148 179c0 116 93 195 220 202v67h55v-68c138 -13 224 -108 224 -228h-120c0 57 -36 105 -104 117v-190l74 -24
c114 -35 159 -110 159 -192zM259 433l14 -5v175c-64 -6 -98 -41 -98 -85c0 -40 26 -68 84 -85zM328 97c75 5 111 42 111 92c0 47 -33 76 -100 98l-11 4v-194z" />
    <glyph glyph-name="Euro" unicode="&#x20ac;" horiz-adv-x="755" 
d="M443 98c92 0 141 56 151 130h121c-8 -135 -118 -242 -273 -242c-150 0 -266 97 -307 243h-85l26 80h45c-1 13 -2 27 -2 41c0 8 0 17 1 25h-69l26 80h54c37 155 155 259 312 259s263 -107 272 -242h-121c-10 74 -58 130 -151 130c-91 0 -157 -57 -185 -147h243l-26 -80
h-231c-1 -8 -1 -17 -1 -25c0 -14 1 -28 2 -41h209l-26 -80h-165c31 -81 94 -131 180 -131z" />
    <glyph glyph-name="florin" unicode="&#x192;" horiz-adv-x="446" 
d="M365 759v-102h-38c-32 0 -59 -15 -59 -78v-77h91v-105h-91v-444c0 -114 -64 -175 -151 -175h-62v101h38c32 0 59 16 59 79v439h-82v105h82v81c0 115 65 176 152 176h61z" />
    <glyph glyph-name="sterling" unicode="&#xa3;" horiz-adv-x="630" 
d="M299 249c0 -53 -30 -102 -76 -146h331v-103h-484v83c78 56 111 113 111 163c0 17 -4 32 -9 47h-125v91h72c-20 34 -37 72 -37 122c0 129 105 208 242 208c151 0 251 -100 251 -221h-121c0 70 -52 111 -128 111c-74 0 -126 -42 -126 -111c0 -42 20 -76 42 -109h230v-91
h-180c4 -14 7 -28 7 -44z" />
    <glyph glyph-name="yen" unicode="&#xa5;" horiz-adv-x="653" 
d="M646 700l-200 -355h111v-73h-153l-17 -31v-35h170v-73h-170v-133h-121v133h-169v73h169v35l-17 31h-152v73h110l-200 355h130l190 -347l189 347h130z" />
    <glyph glyph-name="plus" unicode="+" horiz-adv-x="635" 
d="M365 555v-204h204v-96h-204v-204h-97v204h-202v96h202v204h97z" />
    <glyph glyph-name="minus" unicode="&#x2212;" horiz-adv-x="675" 
d="M616 337v-96h-551v96h551z" />
    <glyph glyph-name="multiply" unicode="&#xd7;" horiz-adv-x="575" 
d="M414 485l68 -69l-127 -127l127 -127l-68 -69l-127 127l-126 -127l-69 69l126 127l-126 127l69 69l126 -127z" />
    <glyph glyph-name="divide" unicode="&#xf7;" horiz-adv-x="619" 
d="M370 569v-127h-121v127h121zM583 349v-96h-546v96h546zM370 159v-127h-121v127h121z" />
    <glyph glyph-name="equal" unicode="=" horiz-adv-x="715" 
d="M639 433v-91h-563v91h563zM639 236v-91h-563v91h563z" />
    <glyph glyph-name="notequal" unicode="&#x2260;" horiz-adv-x="715" 
d="M639 342h-187l-74 -106h261v-91h-325l-96 -137l-84 57l56 80h-114v91h178l74 106h-252v91h316l94 135l84 -58l-54 -77h123v-91z" />
    <glyph glyph-name="greater" unicode="&#x3e;" horiz-adv-x="601" 
d="M55 584l491 -214v-95l-491 -214v106l361 156l-361 155v106z" />
    <glyph glyph-name="less" unicode="&#x3c;" horiz-adv-x="592" 
d="M546 584v-106l-361 -155l361 -156v-106l-491 214v95z" />
    <glyph glyph-name="greaterequal" unicode="&#x2265;" horiz-adv-x="685" 
d="M567 382l-491 -214v106l361 156l-361 155v106l491 -214v-95zM76 97h492v-97h-492v97z" />
    <glyph glyph-name="lessequal" unicode="&#x2264;" horiz-adv-x="615" 
d="M553 691v-106l-361 -155l361 -156v-106l-491 214v95zM61 0v97h492v-97h-492z" />
    <glyph glyph-name="plusminus" unicode="&#xb1;" horiz-adv-x="732" 
d="M422 674v-204h204v-96h-204v-204h-97v204h-202v96h202v204h97zM625 97v-97h-502v97h502z" />
    <glyph glyph-name="approxequal" unicode="&#x2248;" horiz-adv-x="707" 
d="M245 474c82 0 119 -62 192 -62c22 0 58 2 97 48l61 -49c-23 -51 -90 -101 -162 -101c-80 0 -123 59 -193 59c-28 0 -63 -5 -95 -44l-55 57c23 42 81 92 155 92zM249 265c82 0 119 -62 192 -62c22 0 58 2 97 48l61 -49c-23 -51 -90 -101 -162 -101c-80 0 -123 59 -193 59
c-28 0 -63 -5 -95 -44l-55 57c23 42 81 92 155 92z" />
    <glyph glyph-name="asciitilde" unicode="~" horiz-adv-x="683" 
d="M239 441c82 0 119 -62 192 -62c22 0 58 2 97 48l61 -49c-23 -51 -90 -101 -162 -101c-80 0 -123 59 -193 59c-28 0 -63 -5 -95 -44l-55 57c23 42 81 92 155 92z" />
    <glyph glyph-name="logicalnot" unicode="&#xac;" horiz-adv-x="715" 
d="M627 456v-283h-97v187h-443v96h540z" />
    <glyph glyph-name="infinity" unicode="&#x221e;" horiz-adv-x="849" 
d="M608 465c108 0 186 -79 186 -175c0 -98 -78 -176 -186 -176c-73 0 -137 47 -184 99c-47 -52 -110 -99 -183 -99c-108 0 -186 78 -186 176c0 96 78 175 186 175c75 0 135 -45 184 -100c48 55 108 100 183 100zM241 206c55 0 97 43 126 84c-29 39 -71 82 -126 82
c-58 0 -94 -36 -94 -82c0 -48 36 -84 94 -84zM608 206c57 0 93 36 93 84c0 46 -36 82 -93 82c-55 0 -98 -43 -126 -82c28 -41 71 -84 126 -84z" />
    <glyph glyph-name="integral" unicode="&#x222b;" horiz-adv-x="451" 
d="M361 759v-102h-38c-32 0 -59 -15 -59 -78v-626c0 -114 -65 -175 -151 -175h-62v101h38c32 0 59 16 59 79v625c0 115 64 176 151 176h62z" />
    <glyph glyph-name="uni2126" unicode="&#x2126;" horiz-adv-x="794" 
d="M397 717c199 0 329 -151 329 -323c0 -151 -113 -246 -169 -269v-19h154v-106h-268v139c111 43 159 144 159 248c0 99 -55 218 -205 218s-206 -119 -206 -218c0 -104 48 -205 160 -248v-139h-269v106h155v19c-56 23 -170 118 -170 269c0 172 131 323 330 323z" />
    <glyph glyph-name="uni2206" unicode="&#x2206;" horiz-adv-x="763" 
d="M610 294l-276 -294l-136 406l186 294zM267 267l165 -161l14 287z" />
    <glyph glyph-name="product" unicode="&#x220f;" horiz-adv-x="613" 
d="M524 700v-700h-116v594h-203v-594h-116v700h435z" />
    <glyph glyph-name="summation" unicode="&#x2211;" horiz-adv-x="584" 
d="M510 700v-110h-283l128 -216v-46l-129 -218h284v-110h-430v89l156 261l-156 264v86h430z" />
    <glyph glyph-name="radical" unicode="&#x221a;" horiz-adv-x="760" 
d="M571 695l107 -34l-232 -661h-104l-126 277h-154v98h228l95 -211z" />
    <glyph glyph-name="uni00B5" unicode="&#xb5;" horiz-adv-x="625" 
d="M431 502h116v-502h-110v60c-30 -40 -78 -74 -165 -74c-32 0 -62 5 -88 15v-195h-116v696h116v-283c0 -80 37 -129 117 -129c88 0 130 60 130 163v249z" />
    <glyph glyph-name="partialdiff" unicode="&#x2202;" horiz-adv-x="596" 
d="M305 717c190 0 241 -179 241 -348c0 -275 -134 -383 -280 -383c-129 0 -214 85 -214 237c0 194 137 294 263 294c59 0 96 -23 124 -57c-17 121 -80 154 -149 154c-62 0 -102 -27 -147 -66l-68 70c62 56 137 99 230 99zM317 413c-65 0 -144 -57 -144 -183
c0 -80 32 -135 98 -135c76 0 145 72 145 181c0 65 -25 137 -99 137z" />
    <glyph glyph-name="percent" unicode="%" horiz-adv-x="953" 
d="M249 373c-97 0 -173 75 -173 170c0 96 76 171 173 171s174 -75 174 -171c0 -95 -77 -170 -174 -170zM204 0l430 700h116l-429 -700h-117zM249 472c43 0 77 32 77 71c0 41 -34 74 -77 74c-40 0 -74 -33 -74 -74c0 -39 34 -71 74 -71zM703 -14c-97 0 -174 75 -174 170
s77 170 174 170c98 0 175 -75 175 -170s-77 -170 -175 -170zM703 83c42 0 75 32 75 73c0 40 -33 73 -75 73s-75 -33 -75 -73c0 -41 33 -73 75 -73z" />
    <glyph glyph-name="perthousand" unicode="&#x2030;" horiz-adv-x="1181" 
d="M421 538c0 -95 -76 -170 -172 -170c-97 0 -173 75 -173 170c0 96 76 171 173 171c96 0 172 -75 172 -171zM630 700h117l-427 -700h-118zM175 538c0 -39 33 -71 74 -71c42 0 75 32 75 71c0 41 -33 74 -75 74c-41 0 -74 -33 -74 -74zM947 322c97 0 174 -75 174 -170
s-77 -170 -174 -170c-49 0 -92 19 -124 50c-31 -31 -75 -50 -124 -50c-96 0 -172 75 -172 170s76 170 172 170c49 0 93 -19 124 -50c32 31 75 50 124 50zM699 79c42 0 75 32 75 73c0 40 -33 73 -75 73c-41 0 -74 -33 -74 -73c0 -41 33 -73 74 -73zM947 79c41 0 74 32 74 73
c0 40 -33 73 -74 73c-38 0 -69 -28 -74 -63v-10v-10c5 -36 36 -63 74 -63z" />
    <glyph glyph-name="arrowup" unicode="&#x2191;" horiz-adv-x="685" 
d="M342 714l262 -261l-1 -134l-213 219l-1 -538h-94l-1 539l-213 -221v134z" />
    <glyph glyph-name="uni2197" unicode="&#x2197;" horiz-adv-x="704" 
d="M629 700v-370l-95 -94l5 306l-397 -395l-66 67l395 396l-307 -5l95 94z" />
    <glyph glyph-name="arrowright" unicode="&#x2192;" horiz-adv-x="885" 
d="M810 295l-261 -261h-134l219 213l-559 2v93l560 1l-221 213h134z" />
    <glyph glyph-name="uni2198" unicode="&#x2198;" horiz-adv-x="704" 
d="M629 0l-370 1l-95 94l307 -5l-395 396l66 67l397 -395l-5 306l95 -94v-370z" />
    <glyph glyph-name="arrowdown" unicode="&#x2193;" horiz-adv-x="684" 
d="M342 -14l-261 262v134l213 -221l1 539h94l1 -538l213 219v-134z" />
    <glyph glyph-name="uni2199" unicode="&#x2199;" horiz-adv-x="704" 
d="M76 0v370l94 94l-5 -306l397 395l67 -67l-396 -396l307 5l-95 -94z" />
    <glyph glyph-name="arrowleft" unicode="&#x2190;" horiz-adv-x="885" 
d="M75 295l262 261h134l-221 -213l560 -1v-93l-559 -2l219 -213h-134z" />
    <glyph glyph-name="uni2196" unicode="&#x2196;" horiz-adv-x="704" 
d="M75 700l370 -1l95 -94l-308 5l396 -396l-66 -67l-397 395l5 -306l-95 94v370z" />
    <glyph glyph-name="arrowboth" unicode="&#x2194;" horiz-adv-x="1028" 
d="M329 84l-263 261l262 261h133l-219 -213h538l-220 213h134l261 -261l-262 -261h-134l221 213h-538l220 -213h-133z" />
    <glyph glyph-name="arrowupdn" unicode="&#x2195;" horiz-adv-x="609" 
d="M305 -93l-262 262v134l214 -221v496l-214 -222v134l262 262l261 -261v-133l-213 219v-494l213 219v-133z" />
    <glyph glyph-name="lozenge" unicode="&#x25ca;" 
d="M330 699l208 -348l-210 -351h-72l-209 351l207 348h76zM292 566l-129 -215l129 -214l129 214z" />
    <glyph glyph-name="uniF8FF" unicode="&#xf8ff;" horiz-adv-x="1057" 
d="M992 700v-922h-927v922h927zM922 630h-787v-782h787v782zM417 495c119 0 208 -98 208 -230c0 -134 -90 -230 -208 -230c-117 0 -206 95 -206 230c0 133 88 230 206 230zM418 420c-78 0 -129 -60 -129 -155s51 -156 129 -156c76 0 127 61 127 156s-51 155 -127 155z
M852 383v-74h-36c-34 0 -57 -24 -57 -71v-190h-74v331h70v-37c15 22 44 41 72 41h25z" />
    <glyph glyph-name="at" unicode="@" horiz-adv-x="1152" 
d="M576 -222c-315 0 -489 205 -489 463c0 269 223 473 508 473c255 0 459 -164 459 -380v-194c0 -128 -80 -190 -179 -190c-85 0 -151 34 -170 125c-48 -58 -124 -89 -198 -89c-84 0 -156 40 -156 133c0 127 138 164 213 182l123 30c-1 62 -43 89 -105 89
c-58 0 -106 -24 -106 -85h-111c0 133 116 182 218 182c98 0 217 -45 217 -183v-223c0 -47 30 -73 76 -73c48 0 77 32 77 87v209c0 181 -152 284 -360 284c-243 0 -401 -162 -401 -367c0 -195 114 -382 379 -382h88v-91h-83zM527 84c57 0 157 44 157 119v38l-102 -26
c-76 -19 -115 -46 -115 -84c0 -34 30 -47 60 -47z" />
    <glyph glyph-name="ampersand" unicode="&#x26;" horiz-adv-x="783" 
d="M783 0h-148l-93 84c-55 -52 -130 -99 -236 -99c-149 0 -222 91 -222 182s61 148 146 197c-62 58 -94 106 -94 170c0 76 49 180 208 180c160 0 209 -103 209 -180c0 -81 -74 -140 -150 -185l129 -118l93 102h140l-154 -175zM344 611c-49 0 -89 -27 -89 -77
c0 -39 30 -75 74 -116c70 39 104 65 104 116c0 50 -41 77 -89 77zM315 91c60 0 106 28 146 65l-154 138c-63 -36 -102 -78 -102 -123c0 -44 37 -80 110 -80z" />
    <glyph glyph-name="paragraph" unicode="&#xb6;" horiz-adv-x="824" 
d="M736 700v-99h-69v-823h-112v823h-132v-823h-111v485c-114 0 -208 101 -208 219c0 117 94 218 208 218h424z" />
    <glyph glyph-name="section" unicode="&#xa7;" horiz-adv-x="647" 
d="M351 717c107 0 170 -66 208 -113l-70 -67c-30 36 -67 80 -138 80c-52 0 -81 -29 -81 -65c0 -40 38 -68 106 -98c83 -40 191 -93 191 -213c0 -73 -38 -131 -108 -158c36 -32 62 -75 62 -135c0 -96 -73 -181 -204 -181c-144 0 -221 104 -234 136l71 68
c19 -34 87 -106 165 -106c65 0 94 39 94 83c0 48 -50 82 -141 124c-94 47 -145 94 -145 188c0 63 44 123 117 146c-54 37 -83 79 -83 146c0 97 73 165 190 165zM330 359c-49 -5 -101 -39 -101 -94c0 -51 57 -83 116 -111l34 -17c58 3 88 55 88 97c0 52 -59 86 -137 125z" />
    <glyph glyph-name="copyright" unicode="&#xa9;" horiz-adv-x="880" 
d="M440 -14c-205 0 -372 163 -372 364s167 364 372 364s372 -163 372 -364s-167 -364 -372 -364zM440 62c157 0 288 128 288 288s-131 288 -288 288c-158 0 -288 -128 -288 -288s130 -288 288 -288zM442 140c-121 0 -205 87 -205 210c0 125 86 210 204 210
c79 0 180 -49 188 -157h-96c-8 46 -41 69 -89 69c-65 0 -102 -44 -102 -122c0 -77 37 -123 103 -123c48 0 80 24 88 70h96c-8 -108 -105 -157 -187 -157z" />
    <glyph glyph-name="registered" unicode="&#xae;" horiz-adv-x="873" 
d="M440 714c205 0 372 -163 372 -364s-167 -364 -372 -364s-372 163 -372 364s167 364 372 364zM440 62c157 0 288 128 288 288s-131 288 -288 288c-158 0 -288 -128 -288 -288s130 -288 288 -288zM599 428c0 -39 -19 -109 -114 -128l119 -165h-106l-109 155v-155h-90v430
h131c143 0 169 -88 169 -137zM389 484v-108h41c75 0 78 38 78 52c0 22 -3 56 -78 56h-41z" />
    <glyph glyph-name="trademark" unicode="&#x2122;" horiz-adv-x="651" 
d="M228 700v-67h-70v-283h-78v283h-70v67h218zM641 700v-350h-78v252l-66 -152h-66l-65 152v-252h-78v350h113l63 -151l63 151h114z" />
    <glyph glyph-name="degree" unicode="&#xb0;" horiz-adv-x="354" 
d="M177 714c-91 0 -165 -74 -165 -165s74 -166 165 -166s165 75 165 166s-74 165 -165 165zM177 633c46 0 84 -39 84 -84c0 -46 -38 -85 -84 -85c-45 0 -84 39 -84 85c0 45 39 84 84 84z" />
    <glyph glyph-name="bar" unicode="|" horiz-adv-x="277" 
d="M188 759v-898h-99v898h99z" />
    <glyph glyph-name="brokenbar" unicode="&#xa6;" horiz-adv-x="277" 
d="M188 759v-352h-99v352h99zM188 213v-352h-99v352h99z" />
    <glyph glyph-name="uni2113" unicode="&#x2113;" horiz-adv-x="429" 
d="M233 85c21 0 40 9 59 26l55 -68c-35 -40 -80 -57 -130 -57c-108 0 -139 77 -139 171v73c-14 -5 -29 -10 -44 -14l-21 98c23 7 45 14 65 22v272c0 104 69 159 165 159c61 0 155 -22 155 -171c0 -133 -85 -242 -204 -312v-142c0 -38 14 -57 39 -57zM194 406
c63 55 93 124 93 197c0 54 -19 70 -48 70c-27 0 -45 -21 -45 -66v-201z" />
    <glyph glyph-name="dagger" unicode="&#x2020;" horiz-adv-x="655" 
d="M377 759v-168h202v-97h-202v-657h-100v657h-201v97h201v168h100z" />
    <glyph glyph-name="daggerdbl" unicode="&#x2021;" horiz-adv-x="655" 
d="M377 759v-168h202v-97h-202v-318h202v-97h-202v-242h-100v242h-201v97h201v318h-201v97h201v168h100z" />
    <glyph glyph-name="uni2116" unicode="&#x2116;" horiz-adv-x="1154" 
d="M923 383c-91 0 -165 75 -165 166s74 165 165 165s165 -74 165 -165s-74 -166 -165 -166zM548 202v498h121v-700h-123l-338 501v-501h-122v700h121zM923 626c-42 0 -77 -35 -77 -77c0 -43 35 -78 77 -78s77 35 77 78c0 42 -35 77 -77 77zM762 225v84h322v-84h-322z" />
    <glyph glyph-name="asciicircum" unicode="^" horiz-adv-x="634" 
d="M375 700l209 -411h-116l-153 312l-163 -312h-107l209 411h121z" />
    <glyph glyph-name="uni0308" unicode="&#x308;" horiz-adv-x="0" 
d="M-343 571c-39 0 -69 31 -69 68s30 68 69 68c37 0 67 -31 67 -68s-30 -68 -67 -68zM-131 571c-39 0 -69 31 -69 68s30 68 69 68c37 0 67 -31 67 -68s-30 -68 -67 -68z" />
    <glyph glyph-name="uni0307" unicode="&#x307;" horiz-adv-x="0" 
d="M-136 575c-38 0 -69 31 -69 68s31 68 69 68c37 0 67 -31 67 -68s-30 -68 -67 -68z" />
    <glyph glyph-name="gravecomb" unicode="&#x300;" horiz-adv-x="0" 
d="M-298 733h140l105 -155h-102z" />
    <glyph glyph-name="acutecomb" unicode="&#x301;" horiz-adv-x="0" 
d="M7 733l-143 -155h-102l105 155h140z" />
    <glyph glyph-name="uni030B" unicode="&#x30b;" horiz-adv-x="0" 
d="M-227 697l-121 -137h-101l89 137h133zM-22 697l-120 -137h-102l90 137h132z" />
    <glyph glyph-name="uni0302" unicode="&#x302;" horiz-adv-x="0" 
d="M-42 569h-112l-66 74l-67 -74h-112l124 131h109z" />
    <glyph glyph-name="uni030C" unicode="&#x30c;" horiz-adv-x="0" 
d="M-161 700h108l-116 -131h-102l-116 131h108l59 -73z" />
    <glyph glyph-name="uni0306" unicode="&#x306;" horiz-adv-x="0" 
d="M-63 700c0 -89 -58 -142 -152 -142c-91 0 -152 53 -152 142h80c0 -54 35 -71 72 -71c40 0 72 17 72 71h80z" />
    <glyph glyph-name="uni030A" unicode="&#x30a;" horiz-adv-x="0" 
d="M-164 716c50 0 88 -38 88 -87s-38 -87 -88 -87c-49 0 -87 38 -87 87s38 87 87 87zM-164 668c-21 0 -39 -18 -39 -39c0 -22 18 -39 39 -39s38 17 38 39c0 21 -17 39 -38 39z" />
    <glyph glyph-name="tildecomb" unicode="&#x303;" horiz-adv-x="0" 
d="M-129 697h64c0 -81 -39 -128 -101 -128c-67 0 -102 46 -141 46c-25 0 -35 -21 -35 -48h-64c0 78 38 128 102 128c65 0 101 -46 139 -46c25 0 36 21 36 48z" />
    <glyph glyph-name="uni0304" unicode="&#x304;" horiz-adv-x="0" 
d="M-53 665v-78h-353v78h353z" />
    <glyph glyph-name="uni0312" unicode="&#x312;" horiz-adv-x="0" 
d="M-163 578v102c0 46 28 74 80 97l26 -38c-30 -10 -52 -24 -52 -47v-12h59v-102h-113z" />
    <glyph glyph-name="uni0326" unicode="&#x326;" horiz-adv-x="0" 
d="M-50 -58v-102c0 -46 -28 -74 -80 -97l-26 38c30 10 52 24 52 47v12h-59v102h113z" />
    <glyph glyph-name="uni0327" unicode="&#x327;" horiz-adv-x="0" 
d="M-78 -67l-78 -174l-118 49l116 125h80z" />
    <glyph glyph-name="uni0328" unicode="&#x328;" horiz-adv-x="0" 
d="M-92 -194c-64 0 -109 38 -109 89c0 37 25 77 79 105h100c-66 -28 -90 -55 -90 -78c0 -22 20 -32 42 -32c15 0 35 4 54 12v-80c-25 -10 -51 -16 -76 -16z" />
    <glyph glyph-name="acute" unicode="&#xb4;" horiz-adv-x="274" 
d="M302 733l-143 -155h-102l105 155h140z" />
    <glyph glyph-name="breve" unicode="&#x2d8;" horiz-adv-x="431" 
d="M368 700c0 -89 -58 -142 -152 -142c-91 0 -152 53 -152 142h80c0 -54 35 -71 72 -71c40 0 72 17 72 71h80z" />
    <glyph glyph-name="caron" unicode="&#x2c7;" horiz-adv-x="439" 
d="M278 700h108l-116 -131h-102l-116 131h108l59 -73z" />
    <glyph glyph-name="cedilla" unicode="&#xb8;" horiz-adv-x="333" 
d="M226 -67l-78 -174l-118 49l116 125h80z" />
    <glyph glyph-name="circumflex" unicode="&#x2c6;" horiz-adv-x="439" 
d="M397 569h-112l-66 74l-67 -74h-112l124 131h109z" />
    <glyph glyph-name="dieresis" unicode="&#xa8;" horiz-adv-x="472" 
d="M131 572c-39 0 -69 31 -69 68s30 68 69 68c37 0 67 -31 67 -68s-30 -68 -67 -68zM343 572c-39 0 -69 31 -69 68s30 68 69 68c37 0 67 -31 67 -68s-30 -68 -67 -68z" />
    <glyph glyph-name="dotaccent" unicode="&#x2d9;" horiz-adv-x="276" 
d="M140 575c-38 0 -69 31 -69 68s31 68 69 68c37 0 67 -31 67 -68s-30 -68 -67 -68z" />
    <glyph glyph-name="grave" unicode="`" horiz-adv-x="372" 
d="M49 733h140l105 -155h-102z" />
    <glyph glyph-name="hungarumlaut" unicode="&#x2dd;" horiz-adv-x="593" 
d="M366 697l-121 -137h-101l89 137h133zM571 697l-120 -137h-102l90 137h132z" />
    <glyph glyph-name="macron" unicode="&#xaf;" horiz-adv-x="463" 
d="M408 665v-78h-353v78h353z" />
    <glyph glyph-name="ogonek" unicode="&#x2db;" horiz-adv-x="296" 
d="M173 -194c-64 0 -109 38 -109 89c0 37 25 77 79 105h100c-66 -28 -90 -55 -90 -78c0 -22 20 -32 42 -32c15 0 35 4 54 12v-80c-25 -10 -51 -16 -76 -16z" />
    <glyph glyph-name="ring" unicode="&#x2da;" horiz-adv-x="327" 
d="M163 716c50 0 88 -38 88 -87s-38 -87 -88 -87c-49 0 -87 38 -87 87s38 87 87 87zM163 668c-21 0 -39 -18 -39 -39c0 -22 18 -39 39 -39s38 17 38 39c0 21 -17 39 -38 39z" />
    <glyph glyph-name="tilde" unicode="&#x2dc;" horiz-adv-x="487" 
d="M358 697h64c0 -81 -39 -128 -101 -128c-67 0 -102 46 -141 46c-25 0 -35 -21 -35 -48h-64c0 78 38 128 102 128c65 0 101 -46 139 -46c25 0 36 21 36 48z" />
    </font>
</defs>
</svg>
