<?xml version="1.0" standalone="no"?>
<!DOCTYPE svg PUBLIC "-//W3C//DTD SVG 1.1//EN" "http://www.w3.org/Graphics/SVG/1.1/DTD/svg11.dtd" >
<svg xmlns="http://www.w3.org/2000/svg" xmlns:xlink="http://www.w3.org/1999/xlink" version="1.1">
<metadata>
Created by FontForge 20170910 at Mon Apr 30 13:26:05 2018
 By Jimmy Wärting
Copyright \(c\) 2017 by Gu_mundur _lfarsson &#38; Or Type. All rights reserved.
</metadata>
<defs>
<font id="L15-Bold" horiz-adv-x="658" >
  <font-face 
    font-family="L15"
    font-weight="700"
    font-stretch="normal"
    units-per-em="1000"
    panose-1="0 0 8 0 0 0 0 0 0 0"
    ascent="800"
    descent="-200"
    x-height="502"
    cap-height="700"
    bbox="-460 -268 1084 996"
    underline-thickness="50"
    underline-position="-100"
    stemh="133"
    stemv="152"
    unicode-range="U+0020-FB04"
  />
<missing-glyph horiz-adv-x="490" 
d="M402 758v-980h-311v980h311zM326 692h-161v-32h63v-36h-64v-33h162v33h-64v36h64v32zM262 566h-98v-102h162v33h-64v69zM228 533v-36h-32v36h32zM326 438h-162v-33h64v-36h-64v-32h98v68h64v33zM326 379h-32v-65h-130v-33h162v98zM326 259h-98v-55h34v23h32v-46h-98v78
h-32v-111h162v111zM326 90h-162v-111h162v111zM294 57v-46h-98v46h98zM326 -44h-162v-32h68l-68 -46v-32h162v32h-100l69 46h31v32z" />
    <glyph glyph-name="f_f" unicode="ff" horiz-adv-x="691" 
d="M639 637c-42 0 -69 -14 -69 -77v-58h106v-124h-106v-378h-145v378h-68v1h-116v-379h-145v379h-68v124h68v63c0 126 72 193 174 193h68v-121h-38c-32 0 -59 -14 -59 -77v-58h133v-1h51v83c0 113 72 173 178 173h77v-121h-41z" />
    <glyph glyph-name="f_f_i" unicode="ffi" horiz-adv-x="909" 
d="M769 599c-47 0 -85 38 -85 84s38 84 85 84c46 0 84 -38 84 -84s-38 -84 -84 -84zM839 503v-503h-145v375h-154v-375h-145v375h-154v-375h-145v375h-68v128h68v63c0 126 72 193 174 193h68v-121h-38c-32 0 -59 -14 -59 -77v-58h154v63c0 126 72 193 174 193h68v-121h-38
c-32 0 -59 -14 -59 -77v-58h299z" />
    <glyph glyph-name="f_f_l" unicode="ffl" horiz-adv-x="947" 
d="M425 585c0 113 72 173 178 173h77v-121h-41c-42 0 -69 -14 -69 -77v-58h106v-124h-106v-378h-145v378h-68v1h-116v-379h-145v379h-68v124h68v63c0 126 72 193 174 193h68v-121h-38c-32 0 -59 -14 -59 -77v-58h133v-1h51v83zM734 758h145v-758h-145v758z" />
    <glyph glyph-name="fi" unicode="fi" horiz-adv-x="610" 
d="M470 599c-47 0 -85 38 -85 84s38 84 85 84c46 0 84 -38 84 -84s-38 -84 -84 -84zM540 503v-503h-145v375h-154v-375h-145v375h-68v128h68v63c0 126 72 193 174 193h68v-121h-38c-32 0 -59 -14 -59 -77v-58h299z" />
    <glyph glyph-name="fl" unicode="fl" horiz-adv-x="604" 
d="M96 0v378h-68v124h68v83c0 113 72 173 178 173h77v-121h-41c-42 0 -69 -14 -69 -77v-58h106v-124h-106v-378h-145zM536 758v-758h-145v758h145z" />
    <glyph glyph-name=".notdef" horiz-adv-x="490" 
d="M402 758v-980h-311v980h311zM326 692h-161v-32h63v-36h-64v-33h162v33h-64v36h64v32zM262 566h-98v-102h162v33h-64v69zM228 533v-36h-32v36h32zM326 438h-162v-33h64v-36h-64v-32h98v68h64v33zM326 379h-32v-65h-130v-33h162v98zM326 259h-98v-55h34v23h32v-46h-98v78
h-32v-111h162v111zM326 90h-162v-111h162v111zM294 57v-46h-98v46h98zM326 -44h-162v-32h68l-68 -46v-32h162v32h-100l69 46h31v32z" />
    <glyph glyph-name="A" unicode="A" horiz-adv-x="629" 
d="M470 0l-36 116h-238l-37 -116h-159l250 700h129l250 -700h-159zM236 242h158l-79 251z" />
    <glyph glyph-name="Aacute" unicode="&#xc1;" horiz-adv-x="629" 
d="M477 937l-136 -161h-114l98 161h152zM470 0l-36 116h-238l-37 -116h-159l250 700h129l250 -700h-159zM236 242h158l-79 251z" />
    <glyph glyph-name="Abreve" unicode="&#x102;" horiz-adv-x="629" 
d="M315 752c-86 0 -153 56 -153 148h91c0 -50 30 -70 62 -70s62 20 62 70h91c0 -92 -67 -148 -153 -148zM470 0l-36 116h-238l-37 -116h-159l250 700h129l250 -700h-159zM236 242h158l-79 251z" />
    <glyph glyph-name="uni01CD" unicode="&#x1cd;" horiz-adv-x="629" 
d="M374 766h-118l-116 131h122l53 -69l53 69h122zM470 0l-36 116h-238l-37 -116h-159l250 700h129l250 -700h-159zM236 242h158l-79 251z" />
    <glyph glyph-name="Acircumflex" unicode="&#xc2;" horiz-adv-x="629" 
d="M315 835l-53 -69h-122l116 131h118l116 -131h-122zM470 0l-36 116h-238l-37 -116h-159l250 700h129l250 -700h-159zM236 242h158l-79 251z" />
    <glyph glyph-name="Adieresis" unicode="&#xc4;" horiz-adv-x="629" 
d="M206 763c-41 0 -73 32 -73 72s32 72 73 72c40 0 72 -32 72 -72s-32 -72 -72 -72zM424 763c-41 0 -73 32 -73 72s32 72 73 72c40 0 72 -32 72 -72s-32 -72 -72 -72zM470 0l-36 116h-238l-37 -116h-159l250 700h129l250 -700h-159zM236 242h158l-79 251z" />
    <glyph glyph-name="Agrave" unicode="&#xc0;" horiz-adv-x="629" 
d="M391 776h-114l-136 161h152zM470 0l-36 116h-238l-37 -116h-159l250 700h129l250 -700h-159zM236 242h158l-79 251z" />
    <glyph glyph-name="Amacron" unicode="&#x100;" horiz-adv-x="629" 
d="M479 870v-89h-329v89h329zM470 0l-36 116h-238l-37 -116h-159l250 700h129l250 -700h-159zM236 242h158l-79 251z" />
    <glyph glyph-name="Aogonek" unicode="&#x104;" horiz-adv-x="629" 
d="M586 -104c15 0 34 6 49 13v-90c-27 -12 -55 -18 -82 -18c-63 0 -106 37 -106 91c0 35 19 76 65 108h-42l-36 116h-238l-37 -116h-159l250 700h129l250 -700c-50 -27 -77 -53 -77 -75c0 -17 14 -29 34 -29zM236 242h158l-79 251z" />
    <glyph glyph-name="Aring" unicode="&#xc5;" horiz-adv-x="629" 
d="M314 740c-49 0 -87 38 -87 87s38 87 87 87c50 0 88 -38 88 -87s-38 -87 -88 -87zM314 859c-18 0 -32 -14 -32 -32c0 -20 14 -33 32 -33s32 13 32 33c0 18 -14 32 -32 32zM470 0l-36 116h-238l-37 -116h-159l250 700h129l250 -700h-159zM236 242h158l-79 251z" />
    <glyph glyph-name="Atilde" unicode="&#xc3;" horiz-adv-x="629" 
d="M246 803c-27 0 -40 -21 -40 -48h-70c0 84 53 140 117 140c58 0 91 -46 131 -46c27 0 40 21 40 48h70c0 -91 -54 -140 -116 -140c-61 0 -91 46 -132 46zM470 0l-36 116h-238l-37 -116h-159l250 700h129l250 -700h-159zM236 242h158l-79 251z" />
    <glyph glyph-name="AE" unicode="&#xc6;" horiz-adv-x="785" 
d="M743 566h-225v-135h208v-132h-208v-165h225v-134h-378v160h-161l-55 -160h-149l240 700h503v-134zM247 286h118v285h-20z" />
    <glyph glyph-name="B" unicode="B" horiz-adv-x="632" 
d="M489 363c64 -30 101 -80 101 -160c0 -95 -58 -203 -238 -203h-272v700h251c187 0 222 -137 222 -195c0 -53 -25 -109 -64 -142zM402 494c0 46 -31 72 -87 72h-83v-144h83c56 0 87 26 87 72zM339 134c68 0 102 29 102 82s-34 82 -102 82h-107v-164h107z" />
    <glyph glyph-name="C" unicode="C" horiz-adv-x="720" 
d="M381 -14c-190 0 -336 153 -336 364s145 364 339 364c181 0 295 -124 301 -273h-147c-13 86 -68 138 -156 138c-109 0 -185 -94 -185 -229c0 -134 74 -229 189 -229c76 0 139 52 152 138h147c-6 -149 -120 -273 -304 -273z" />
    <glyph glyph-name="Cacute" unicode="&#x106;" horiz-adv-x="720" 
d="M522 937l-136 -161h-114l98 161h152zM381 -14c-190 0 -336 153 -336 364s145 364 339 364c181 0 295 -124 301 -273h-147c-13 86 -68 138 -156 138c-109 0 -185 -94 -185 -229c0 -134 74 -229 189 -229c76 0 139 52 152 138h147c-6 -149 -120 -273 -304 -273z" />
    <glyph glyph-name="Ccaron" unicode="&#x10c;" horiz-adv-x="720" 
d="M419 766h-118l-116 131h122l53 -69l53 69h122zM386 121c76 0 139 52 152 138h147c-6 -149 -120 -273 -304 -273c-190 0 -336 153 -336 364s145 364 339 364c181 0 295 -124 301 -273h-147c-13 86 -68 138 -156 138c-109 0 -185 -94 -185 -229c0 -134 74 -229 189 -229z
" />
    <glyph glyph-name="Ccedilla" unicode="&#xc7;" horiz-adv-x="720" 
d="M381 -14c-190 0 -336 153 -336 364s145 364 339 364c181 0 295 -124 301 -273h-147c-13 86 -68 138 -156 138c-109 0 -185 -94 -185 -229c0 -134 74 -229 189 -229c76 0 139 52 152 138h147c-6 -149 -120 -273 -304 -273zM428 -67l-87 -194l-138 57l127 137h98z" />
    <glyph glyph-name="Ccircumflex" unicode="&#x108;" horiz-adv-x="720" 
d="M360 835l-53 -69h-122l116 131h118l116 -131h-122zM386 121c76 0 139 52 152 138h147c-6 -149 -120 -273 -304 -273c-190 0 -336 153 -336 364s145 364 339 364c181 0 295 -124 301 -273h-147c-13 86 -68 138 -156 138c-109 0 -185 -94 -185 -229
c0 -134 74 -229 189 -229z" />
    <glyph glyph-name="Cdotaccent" unicode="&#x10a;" horiz-adv-x="720" 
d="M360 767c-41 0 -73 32 -73 72s32 72 73 72c40 0 72 -32 72 -72s-32 -72 -72 -72zM381 -14c-190 0 -336 153 -336 364s145 364 339 364c181 0 295 -124 301 -273h-147c-13 86 -68 138 -156 138c-109 0 -185 -94 -185 -229c0 -134 74 -229 189 -229c76 0 139 52 152 138
h147c-6 -149 -120 -273 -304 -273z" />
    <glyph glyph-name="D" unicode="D" horiz-adv-x="709" 
d="M327 700c192 0 337 -149 337 -350c0 -205 -145 -350 -337 -350h-247v700h247zM327 135c118 0 185 83 185 215c0 128 -67 215 -185 215h-95v-430h95z" />
    <glyph glyph-name="Eth" unicode="&#xd0;" horiz-adv-x="754" 
d="M372 700c192 0 337 -149 337 -350c0 -205 -145 -350 -337 -350h-247v286h-90v131h90v283h247zM372 135c118 0 185 83 185 215c0 128 -67 215 -185 215h-95v-148h164v-131h-164v-151h95z" />
    <glyph glyph-name="Dcaron" unicode="&#x10e;" horiz-adv-x="709" 
d="M388 766h-118l-116 131h122l53 -69l53 69h122zM327 700c192 0 337 -149 337 -350c0 -205 -145 -350 -337 -350h-247v700h247zM327 135c118 0 185 83 185 215c0 128 -67 215 -185 215h-95v-430h95z" />
    <glyph glyph-name="Dcroat" unicode="&#x110;" horiz-adv-x="754" 
d="M372 700c192 0 337 -149 337 -350c0 -205 -145 -350 -337 -350h-247v286h-90v131h90v283h247zM372 135c118 0 185 83 185 215c0 128 -67 215 -185 215h-95v-148h164v-131h-164v-151h95z" />
    <glyph glyph-name="E" unicode="E" horiz-adv-x="549" 
d="M507 566h-275v-135h258v-132h-258v-165h275v-134h-427v700h427v-134z" />
    <glyph glyph-name="Eacute" unicode="&#xc9;" horiz-adv-x="549" 
d="M454 937l-136 -161h-114l98 161h152zM507 566h-275v-135h258v-132h-258v-165h275v-134h-427v700h427v-134z" />
    <glyph glyph-name="Ebreve" unicode="&#x114;" horiz-adv-x="549" 
d="M292 752c-86 0 -153 56 -153 148h91c0 -50 30 -70 62 -70s62 20 62 70h91c0 -92 -67 -148 -153 -148zM507 566h-275v-135h258v-132h-258v-165h275v-134h-427v700h427v-134z" />
    <glyph glyph-name="Ecaron" unicode="&#x11a;" horiz-adv-x="549" 
d="M351 766h-118l-116 131h122l53 -69l53 69h122zM507 566h-275v-135h258v-132h-258v-165h275v-134h-427v700h427v-134z" />
    <glyph glyph-name="Ecircumflex" unicode="&#xca;" horiz-adv-x="549" 
d="M292 835l-53 -69h-122l116 131h118l116 -131h-122zM507 566h-275v-135h258v-132h-258v-165h275v-134h-427v700h427v-134z" />
    <glyph glyph-name="Edieresis" unicode="&#xcb;" horiz-adv-x="549" 
d="M183 763c-41 0 -73 32 -73 72s32 72 73 72c40 0 72 -32 72 -72s-32 -72 -72 -72zM401 763c-41 0 -73 32 -73 72s32 72 73 72c40 0 72 -32 72 -72s-32 -72 -72 -72zM507 566h-275v-135h258v-132h-258v-165h275v-134h-427v700h427v-134z" />
    <glyph glyph-name="Edotaccent" unicode="&#x116;" horiz-adv-x="549" 
d="M292 768c-41 0 -73 32 -73 72s32 72 73 72c40 0 72 -32 72 -72s-32 -72 -72 -72zM507 566h-275v-135h258v-132h-258v-165h275v-134h-427v700h427v-134z" />
    <glyph glyph-name="Egrave" unicode="&#xc8;" horiz-adv-x="549" 
d="M368 776h-114l-136 161h152zM507 566h-275v-135h258v-132h-258v-165h275v-134h-427v700h427v-134z" />
    <glyph glyph-name="Emacron" unicode="&#x112;" horiz-adv-x="549" 
d="M456 870v-89h-329v89h329zM507 566h-275v-135h258v-132h-258v-165h275v-134h-427v700h427v-134z" />
    <glyph glyph-name="Eogonek" unicode="&#x118;" horiz-adv-x="549" 
d="M507 566h-275v-135h258v-132h-258v-165h275v-134h-114c-50 -27 -77 -53 -77 -75c0 -17 14 -29 34 -29c15 0 34 6 49 13v-90c-27 -12 -55 -18 -82 -18c-63 0 -106 37 -106 91c0 35 19 76 65 108h-196v700h427v-134z" />
    <glyph glyph-name="F" unicode="F" horiz-adv-x="515" 
d="M497 566h-275v-134h258v-132h-258v-300h-152v700h427v-134z" />
    <glyph glyph-name="G" unicode="G" horiz-adv-x="752" 
d="M367 -14c-180 0 -322 155 -322 364c0 211 144 364 340 364c168 0 297 -112 297 -254h-152c0 73 -66 119 -145 119c-113 0 -188 -94 -188 -229c0 -133 72 -229 191 -229c93 0 146 58 157 140h-189v126h326v-387h-128v72c-35 -53 -104 -86 -187 -86z" />
    <glyph glyph-name="Gbreve" unicode="&#x11e;" horiz-adv-x="752" 
d="M527 900c0 -92 -67 -148 -153 -148s-153 56 -153 148h91c0 -50 30 -70 62 -70s62 20 62 70h91zM367 -14c-180 0 -322 155 -322 364c0 211 144 364 340 364c168 0 297 -112 297 -254h-152c0 73 -66 119 -145 119c-113 0 -188 -94 -188 -229c0 -133 72 -229 191 -229
c93 0 146 58 157 140h-189v126h326v-387h-128v72c-35 -53 -104 -86 -187 -86z" />
    <glyph glyph-name="Gcircumflex" unicode="&#x11c;" horiz-adv-x="752" 
d="M374 835l-53 -69h-122l116 131h118l116 -131h-122zM356 261v126h326v-387h-128v72c-35 -53 -104 -86 -187 -86c-180 0 -322 155 -322 364c0 211 144 364 340 364c168 0 297 -112 297 -254h-152c0 73 -66 119 -145 119c-113 0 -188 -94 -188 -229c0 -133 72 -229 191 -229
c93 0 146 58 157 140h-189z" />
    <glyph glyph-name="Gcommaaccent" unicode="&#x122;" horiz-adv-x="752" 
d="M367 -14c-180 0 -322 155 -322 364c0 211 144 364 340 364c168 0 297 -112 297 -254h-152c0 73 -66 119 -145 119c-113 0 -188 -94 -188 -229c0 -133 72 -229 191 -229c93 0 146 58 157 140h-189v126h326v-387h-128v72c-35 -53 -104 -86 -187 -86zM415 -58v-110
c0 -47 -35 -80 -87 -100l-25 44c30 10 54 21 54 47v9h-67v110h125z" />
    <glyph glyph-name="Gdotaccent" unicode="&#x120;" horiz-adv-x="752" 
d="M374 767c-41 0 -73 32 -73 72s32 72 73 72c40 0 72 -32 72 -72s-32 -72 -72 -72zM367 -14c-180 0 -322 155 -322 364c0 211 144 364 340 364c168 0 297 -112 297 -254h-152c0 73 -66 119 -145 119c-113 0 -188 -94 -188 -229c0 -133 72 -229 191 -229
c93 0 146 58 157 140h-189v126h326v-387h-128v72c-35 -53 -104 -86 -187 -86z" />
    <glyph glyph-name="H" unicode="H" horiz-adv-x="700" 
d="M468 700h152v-700h-152v289h-236v-289h-152v700h152v-278h236v278z" />
    <glyph glyph-name="Hbar" unicode="&#x126;" horiz-adv-x="702" 
d="M672 613v-117h-51v-496h-152v289h-236v-289h-152v496h-51v117h51v87h152v-87h236v87h152v-87h51zM469 422v74h-236v-74h236z" />
    <glyph glyph-name="Hcircumflex" unicode="&#x124;" horiz-adv-x="700" 
d="M350 835l-53 -69h-122l116 131h118l116 -131h-122zM468 700h152v-700h-152v289h-236v-289h-152v700h152v-278h236v278z" />
    <glyph glyph-name="I" unicode="I" horiz-adv-x="312" 
d="M232 700v-700h-152v700h152z" />
    <glyph glyph-name="IJ" unicode="&#x132;" horiz-adv-x="871" 
d="M232 700v-700h-152v700h152zM480 238v-28c0 -62 40 -90 87 -90s87 28 87 90v490h152v-469c0 -166 -97 -245 -239 -245c-120 0 -235 58 -235 225v27h148z" />
    <glyph glyph-name="Iacute" unicode="&#xcd;" horiz-adv-x="312" 
d="M318 937l-136 -161h-114l98 161h152zM232 700v-700h-152v700h152z" />
    <glyph glyph-name="uni01CF" unicode="&#x1cf;" horiz-adv-x="312" 
d="M215 766h-118l-116 131h122l53 -69l53 69h122zM80 0v700h152v-700h-152z" />
    <glyph glyph-name="Icircumflex" unicode="&#xce;" horiz-adv-x="312" 
d="M156 835l-53 -69h-122l116 131h118l116 -131h-122zM80 0v700h152v-700h-152z" />
    <glyph glyph-name="Idieresis" unicode="&#xcf;" horiz-adv-x="312" 
d="M47 763c-41 0 -73 32 -73 72s32 72 73 72c40 0 72 -32 72 -72s-32 -72 -72 -72zM265 763c-41 0 -73 32 -73 72s32 72 73 72c40 0 72 -32 72 -72s-32 -72 -72 -72zM232 700v-700h-152v700h152z" />
    <glyph glyph-name="Idotaccent" unicode="&#x130;" horiz-adv-x="312" 
d="M156 767c-41 0 -73 32 -73 72s32 72 73 72c40 0 72 -32 72 -72s-32 -72 -72 -72zM232 700v-700h-152v700h152z" />
    <glyph glyph-name="Igrave" unicode="&#xcc;" horiz-adv-x="312" 
d="M-18 937h152l98 -161h-114zM232 700v-700h-152v700h152z" />
    <glyph glyph-name="Imacron" unicode="&#x12a;" horiz-adv-x="312" 
d="M320 870v-89h-329v89h329zM232 700v-700h-152v700h152z" />
    <glyph glyph-name="Iogonek" unicode="&#x12e;" horiz-adv-x="312" 
d="M168 0c-50 -27 -77 -53 -77 -75c0 -17 14 -29 34 -29c15 0 34 6 49 13v-90c-27 -12 -55 -18 -82 -18c-63 0 -106 37 -106 91c0 35 19 76 65 108h29v700h152v-700h-64z" />
    <glyph glyph-name="Itilde" unicode="&#x128;" horiz-adv-x="312" 
d="M277 897h70c0 -91 -54 -140 -116 -140c-61 0 -91 46 -132 46c-27 0 -40 -21 -40 -48h-70c0 84 53 140 117 140c58 0 91 -46 131 -46c27 0 40 21 40 48zM232 700v-700h-152v700h152z" />
    <glyph glyph-name="J" unicode="J" horiz-adv-x="559" 
d="M168 238v-28c0 -62 40 -90 87 -90s87 28 87 90v490h152v-469c0 -166 -97 -245 -239 -245c-120 0 -235 58 -235 225v27h148z" />
    <glyph glyph-name="Jcircumflex" unicode="&#x134;" horiz-adv-x="559" 
d="M287 835l-53 -69h-122l116 131h118l116 -131h-122zM342 700h152v-469c0 -166 -97 -245 -239 -245c-120 0 -235 58 -235 225v27h148v-28c0 -62 40 -90 87 -90s87 28 87 90v490z" />
    <glyph glyph-name="K" unicode="K" horiz-adv-x="666" 
d="M666 0h-201l-233 279v-279h-152v700h152v-259l213 259h200l-290 -339z" />
    <glyph glyph-name="Kcommaaccent" unicode="&#x136;" horiz-adv-x="666" 
d="M355 361l311 -361h-201l-233 279v-279h-152v700h152v-259l213 259h200zM270 -168v110h125v-110c0 -47 -35 -80 -87 -100l-25 44c30 10 54 21 54 47v9h-67z" />
    <glyph glyph-name="L" unicode="L" horiz-adv-x="515" 
d="M232 700v-566h268v-134h-420v700h152z" />
    <glyph glyph-name="Lacute" unicode="&#x139;" horiz-adv-x="515" 
d="M346 937l-136 -161h-114l98 161h152zM232 700v-566h268v-134h-420v700h152z" />
    <glyph glyph-name="Lcaron" unicode="&#x13d;" horiz-adv-x="515" 
d="M381 712c48 0 88 -40 88 -88c0 -22 -4 -45 -12 -63l-68 -150h-75l50 126c-38 5 -72 43 -72 87c0 48 40 88 89 88zM232 700v-566h268v-134h-420v700h152z" />
    <glyph glyph-name="Lcommaaccent" unicode="&#x13b;" horiz-adv-x="515" 
d="M232 700v-566h268v-134h-420v700h152zM274 -58v-110c0 -47 -35 -80 -87 -100l-25 44c30 10 54 21 54 47v9h-67v110h125z" />
    <glyph glyph-name="Ldot" unicode="&#x13f;" horiz-adv-x="515" 
d="M232 700v-566h268v-134h-420v700h152zM334 365c38 0 69 -31 69 -69s-31 -69 -69 -69s-69 31 -69 69s31 69 69 69z" />
    <glyph glyph-name="Lslash" unicode="&#x141;" horiz-adv-x="540" 
d="M257 134h268v-134h-420v192l-36 -17l-49 107l85 40v378h152v-306l72 34l49 -107l-121 -57v-130z" />
    <glyph glyph-name="M" unicode="M" horiz-adv-x="884" 
d="M575 700h229v-700h-152v534l-147 -342h-126l-147 342v-534h-152v700h229l133 -320z" />
    <glyph glyph-name="N" unicode="N" horiz-adv-x="732" 
d="M500 700h152v-700h-162l-258 446v-446h-152v700h159l261 -442v442z" />
    <glyph glyph-name="Nacute" unicode="&#x143;" horiz-adv-x="732" 
d="M528 937l-136 -161h-114l98 161h152zM500 700h152v-700h-162l-258 446v-446h-152v700h159l261 -442v442z" />
    <glyph glyph-name="Ncaron" unicode="&#x147;" horiz-adv-x="732" 
d="M425 766h-118l-116 131h122l53 -69l53 69h122zM500 700h152v-700h-162l-258 446v-446h-152v700h159l261 -442v442z" />
    <glyph glyph-name="Ncommaaccent" unicode="&#x145;" horiz-adv-x="732" 
d="M500 700h152v-700h-162l-258 446v-446h-152v700h159l261 -442v442zM303 -168v110h125v-110c0 -47 -35 -80 -87 -100l-25 44c30 10 54 21 54 47v9h-67z" />
    <glyph glyph-name="Eng" unicode="&#x14a;" horiz-adv-x="732" 
d="M500 700h152v-716c0 -147 -82 -206 -172 -206h-57v123h17c37 0 67 17 67 76v23l-275 449v-449h-152v700h159l261 -434v434z" />
    <glyph glyph-name="Ntilde" unicode="&#xd1;" horiz-adv-x="732" 
d="M297 803c-27 0 -40 -21 -40 -48h-70c0 84 53 140 117 140c58 0 91 -46 131 -46c27 0 40 21 40 48h70c0 -91 -54 -140 -116 -140c-61 0 -91 46 -132 46zM500 700h152v-700h-162l-258 446v-446h-152v700h159l261 -442v442z" />
    <glyph glyph-name="O" unicode="O" horiz-adv-x="764" 
d="M382 714c192 0 337 -153 337 -364s-145 -364 -337 -364s-337 153 -337 364s145 364 337 364zM382 579c-111 0 -185 -92 -185 -229s74 -229 185 -229s185 92 185 229s-74 229 -185 229z" />
    <glyph glyph-name="Oacute" unicode="&#xd3;" horiz-adv-x="764" 
d="M546 937l-136 -161h-114l98 161h152zM382 714c192 0 337 -153 337 -364s-145 -364 -337 -364s-337 153 -337 364s145 364 337 364zM382 579c-111 0 -185 -92 -185 -229s74 -229 185 -229s185 92 185 229s-74 229 -185 229z" />
    <glyph glyph-name="Obreve" unicode="&#x14e;" horiz-adv-x="764" 
d="M537 900c0 -92 -67 -148 -153 -148s-153 56 -153 148h91c0 -50 30 -70 62 -70s62 20 62 70h91zM382 714c192 0 337 -153 337 -364s-145 -364 -337 -364s-337 153 -337 364s145 364 337 364zM382 579c-111 0 -185 -92 -185 -229s74 -229 185 -229s185 92 185 229
s-74 229 -185 229z" />
    <glyph glyph-name="uni01D1" unicode="&#x1d1;" horiz-adv-x="764" 
d="M443 766h-118l-116 131h122l53 -69l53 69h122zM382 714c192 0 337 -153 337 -364s-145 -364 -337 -364s-337 153 -337 364s145 364 337 364zM382 121c111 0 185 92 185 229s-74 229 -185 229s-185 -92 -185 -229s74 -229 185 -229z" />
    <glyph glyph-name="Ocircumflex" unicode="&#xd4;" horiz-adv-x="764" 
d="M384 835l-53 -69h-122l116 131h118l116 -131h-122zM382 714c192 0 337 -153 337 -364s-145 -364 -337 -364s-337 153 -337 364s145 364 337 364zM382 121c111 0 185 92 185 229s-74 229 -185 229s-185 -92 -185 -229s74 -229 185 -229z" />
    <glyph glyph-name="Odieresis" unicode="&#xd6;" horiz-adv-x="764" 
d="M275 763c-41 0 -73 32 -73 72s32 72 73 72c40 0 72 -32 72 -72s-32 -72 -72 -72zM493 763c-41 0 -73 32 -73 72s32 72 73 72c40 0 72 -32 72 -72s-32 -72 -72 -72zM382 714c192 0 337 -153 337 -364s-145 -364 -337 -364s-337 153 -337 364s145 364 337 364zM382 579
c-111 0 -185 -92 -185 -229s74 -229 185 -229s185 92 185 229s-74 229 -185 229z" />
    <glyph glyph-name="Ograve" unicode="&#xd2;" horiz-adv-x="764" 
d="M210 937h152l98 -161h-114zM382 714c192 0 337 -153 337 -364s-145 -364 -337 -364s-337 153 -337 364s145 364 337 364zM382 579c-111 0 -185 -92 -185 -229s74 -229 185 -229s185 92 185 229s-74 229 -185 229z" />
    <glyph glyph-name="Ohungarumlaut" unicode="&#x150;" horiz-adv-x="764" 
d="M421 903l-126 -146h-121l98 146h149zM633 903l-126 -146h-121l98 146h149zM382 714c192 0 337 -153 337 -364s-145 -364 -337 -364s-337 153 -337 364s145 364 337 364zM382 579c-111 0 -185 -92 -185 -229s74 -229 185 -229s185 92 185 229s-74 229 -185 229z" />
    <glyph glyph-name="Omacron" unicode="&#x14c;" horiz-adv-x="764" 
d="M548 870v-89h-329v89h329zM382 714c192 0 337 -153 337 -364s-145 -364 -337 -364s-337 153 -337 364s145 364 337 364zM382 579c-111 0 -185 -92 -185 -229s74 -229 185 -229s185 92 185 229s-74 229 -185 229z" />
    <glyph glyph-name="Oslash" unicode="&#xd8;" horiz-adv-x="768" 
d="M723 700l-83 -110c50 -62 79 -145 79 -240c0 -211 -145 -364 -337 -364c-61 0 -117 15 -165 43l-22 -29h-129l71 94c-58 64 -92 153 -92 256c0 211 145 364 337 364c68 0 130 -19 182 -54l30 40h129zM197 350c0 -53 11 -99 31 -136l252 335c-27 20 -61 30 -98 30
c-111 0 -185 -92 -185 -229zM567 350c0 43 -7 82 -21 115l-245 -325c24 -12 51 -19 81 -19c111 0 185 92 185 229z" />
    <glyph glyph-name="Otilde" unicode="&#xd5;" horiz-adv-x="764" 
d="M493 897h70c0 -91 -54 -140 -116 -140c-61 0 -91 46 -132 46c-27 0 -40 -21 -40 -48h-70c0 84 53 140 117 140c58 0 91 -46 131 -46c27 0 40 21 40 48zM382 714c192 0 337 -153 337 -364s-145 -364 -337 -364s-337 153 -337 364s145 364 337 364zM382 579
c-111 0 -185 -92 -185 -229s74 -229 185 -229s185 92 185 229s-74 229 -185 229z" />
    <glyph glyph-name="OE" unicode="&#x152;" horiz-adv-x="1036" 
d="M994 566h-275v-135h258v-132h-258v-165h275v-134h-427v55c-48 -44 -111 -69 -185 -69c-192 0 -337 153 -337 364s145 364 337 364c74 0 137 -25 185 -69v55h427v-134zM382 121c118 0 185 91 185 229s-67 229 -185 229s-185 -91 -185 -229s67 -229 185 -229z" />
    <glyph glyph-name="P" unicode="P" horiz-adv-x="594" 
d="M312 700c182 0 252 -114 252 -220s-70 -220 -252 -220h-80v-260h-152v700h232zM301 393c71 0 111 31 111 87s-40 87 -111 87h-69v-174h69z" />
    <glyph glyph-name="Thorn" unicode="&#xde;" horiz-adv-x="589" 
d="M308 585c182 0 252 -114 252 -220s-70 -220 -252 -220h-76v-145h-152v700h152v-115h76zM297 278c82 0 111 42 111 87s-29 87 -111 87h-65v-174h65z" />
    <glyph glyph-name="Q" unicode="Q" horiz-adv-x="764" 
d="M719 350c0 -112 -41 -207 -107 -272l90 -127h-163l-39 56c-37 -14 -76 -21 -118 -21c-192 0 -337 153 -337 364s145 364 337 364s337 -153 337 -364zM382 121c12 0 23 1 34 3l-111 157h163l59 -83c25 39 40 91 40 152c0 137 -74 229 -185 229s-185 -92 -185 -229
s74 -229 185 -229z" />
    <glyph glyph-name="R" unicode="R" horiz-adv-x="613" 
d="M412 0l-134 260h-46v-260h-152v700h233c182 0 252 -114 252 -220c0 -80 -40 -165 -139 -202l157 -278h-171zM232 567v-174h70c71 0 111 31 111 87s-40 87 -111 87h-70z" />
    <glyph glyph-name="Racute" unicode="&#x154;" horiz-adv-x="613" 
d="M466 937l-136 -161h-114l98 161h152zM412 0l-134 260h-46v-260h-152v700h233c182 0 252 -114 252 -220c0 -80 -40 -165 -139 -202l157 -278h-171zM232 567v-174h70c71 0 111 31 111 87s-40 87 -111 87h-70z" />
    <glyph glyph-name="Rcaron" unicode="&#x158;" horiz-adv-x="613" 
d="M363 766h-118l-116 131h122l53 -69l53 69h122zM412 0l-134 260h-46v-260h-152v700h233c182 0 252 -114 252 -220c0 -80 -40 -165 -139 -202l157 -278h-171zM232 567v-174h70c71 0 111 31 111 87s-40 87 -111 87h-70z" />
    <glyph glyph-name="Rcommaaccent" unicode="&#x156;" horiz-adv-x="613" 
d="M426 278l157 -278h-171l-134 260h-46v-260h-152v700h233c182 0 252 -114 252 -220c0 -80 -40 -165 -139 -202zM232 567v-174h70c71 0 111 31 111 87s-40 87 -111 87h-70zM241 -168v110h125v-110c0 -47 -35 -80 -87 -100l-25 44c30 10 54 21 54 47v9h-67z" />
    <glyph glyph-name="S" unicode="S" horiz-adv-x="570" 
d="M284 -14c-199 0 -249 144 -249 249h146c0 -72 31 -115 108 -115c56 0 90 27 90 68c0 43 -30 66 -99 95l-99 42c-95 40 -133 104 -133 182c0 123 94 207 236 207c168 0 240 -116 240 -238h-146c0 66 -35 103 -97 103c-53 0 -82 -27 -82 -68c0 -27 14 -53 64 -74l123 -51
c109 -44 143 -116 143 -192c0 -119 -84 -208 -245 -208z" />
    <glyph glyph-name="Sacute" unicode="&#x15a;" horiz-adv-x="570" 
d="M457 937l-136 -161h-114l98 161h152zM284 -14c-199 0 -249 144 -249 249h146c0 -72 31 -115 108 -115c56 0 90 27 90 68c0 43 -30 66 -99 95l-99 42c-95 40 -133 104 -133 182c0 123 94 207 236 207c168 0 240 -116 240 -238h-146c0 66 -35 103 -97 103
c-53 0 -82 -27 -82 -68c0 -27 14 -53 64 -74l123 -51c109 -44 143 -116 143 -192c0 -119 -84 -208 -245 -208z" />
    <glyph glyph-name="Scaron" unicode="&#x160;" horiz-adv-x="570" 
d="M354 766h-118l-116 131h122l53 -69l53 69h122zM386 386c109 -44 143 -116 143 -192c0 -119 -84 -208 -245 -208c-199 0 -249 144 -249 249h146c0 -72 31 -115 108 -115c56 0 90 27 90 68c0 43 -30 66 -99 95l-99 42c-95 40 -133 104 -133 182c0 123 94 207 236 207
c168 0 240 -116 240 -238h-146c0 66 -35 103 -97 103c-53 0 -82 -27 -82 -68c0 -27 14 -53 64 -74z" />
    <glyph glyph-name="Scedilla" unicode="&#x15e;" horiz-adv-x="570" 
d="M284 -14c-199 0 -249 144 -249 249h146c0 -72 31 -115 108 -115c56 0 90 27 90 68c0 43 -30 66 -99 95l-99 42c-95 40 -133 104 -133 182c0 123 94 207 236 207c168 0 240 -116 240 -238h-146c0 66 -35 103 -97 103c-53 0 -82 -27 -82 -68c0 -27 14 -53 64 -74l123 -51
c109 -44 143 -116 143 -192c0 -119 -84 -208 -245 -208zM363 -67l-87 -194l-138 57l127 137h98z" />
    <glyph glyph-name="Scircumflex" unicode="&#x15c;" horiz-adv-x="570" 
d="M295 835l-53 -69h-122l116 131h118l116 -131h-122zM386 386c109 -44 143 -116 143 -192c0 -119 -84 -208 -245 -208c-199 0 -249 144 -249 249h146c0 -72 31 -115 108 -115c56 0 90 27 90 68c0 43 -30 66 -99 95l-99 42c-95 40 -133 104 -133 182c0 123 94 207 236 207
c168 0 240 -116 240 -238h-146c0 66 -35 103 -97 103c-53 0 -82 -27 -82 -68c0 -27 14 -53 64 -74z" />
    <glyph glyph-name="Scommaaccent" unicode="&#x218;" horiz-adv-x="570" 
d="M284 -14c-199 0 -249 144 -249 249h146c0 -72 31 -115 108 -115c56 0 90 27 90 68c0 43 -30 66 -99 95l-99 42c-95 40 -133 104 -133 182c0 123 94 207 236 207c168 0 240 -116 240 -238h-146c0 66 -35 103 -97 103c-53 0 -82 -27 -82 -68c0 -27 14 -53 64 -74l123 -51
c109 -44 143 -116 143 -192c0 -119 -84 -208 -245 -208zM357 -58v-110c0 -47 -35 -80 -87 -100l-25 44c30 10 54 21 54 47v9h-67v110h125z" />
    <glyph glyph-name="T" unicode="T" horiz-adv-x="536" 
d="M511 700v-134h-167v-566h-152v566h-167v134h486z" />
    <glyph glyph-name="Tbar" unicode="&#x166;" horiz-adv-x="536" 
d="M511 566h-167v-121h88v-122h-88v-323h-152v323h-88v122h88v121h-167v134h486v-134z" />
    <glyph glyph-name="Tcaron" unicode="&#x164;" horiz-adv-x="536" 
d="M327 766h-118l-116 131h122l53 -69l53 69h122zM511 700v-134h-167v-566h-152v566h-167v134h486z" />
    <glyph glyph-name="uni0162" unicode="&#x162;" horiz-adv-x="536" 
d="M511 700v-134h-167v-566h-152v566h-167v134h486zM84 -195l127 137h98l-87 -194z" />
    <glyph glyph-name="uni021A" unicode="&#x21a;" horiz-adv-x="536" 
d="M511 700v-134h-167v-566h-152v566h-167v134h486zM178 -159v110h125v-110c0 -47 -35 -80 -87 -100l-25 44c30 10 54 21 54 47v9h-67z" />
    <glyph glyph-name="U" unicode="U" horiz-adv-x="708" 
d="M643 700v-433c0 -208 -137 -281 -289 -281s-289 73 -289 281v433h152v-421c0 -118 60 -159 137 -159s137 41 137 159v421h152z" />
    <glyph glyph-name="Uacute" unicode="&#xda;" horiz-adv-x="708" 
d="M517 937l-136 -161h-114l98 161h152zM643 700v-433c0 -208 -137 -281 -289 -281s-289 73 -289 281v433h152v-421c0 -118 60 -159 137 -159s137 41 137 159v421h152z" />
    <glyph glyph-name="Ubreve" unicode="&#x16c;" horiz-adv-x="708" 
d="M508 900c0 -92 -67 -148 -153 -148s-153 56 -153 148h91c0 -50 30 -70 62 -70s62 20 62 70h91zM643 700v-433c0 -208 -137 -281 -289 -281s-289 73 -289 281v433h152v-421c0 -118 60 -159 137 -159s137 41 137 159v421h152z" />
    <glyph glyph-name="uni01D3" unicode="&#x1d3;" horiz-adv-x="708" 
d="M414 766h-118l-116 131h122l53 -69l53 69h122zM491 700h152v-433c0 -208 -137 -281 -289 -281s-289 73 -289 281v433h152v-421c0 -118 60 -159 137 -159s137 41 137 159v421z" />
    <glyph glyph-name="Ucircumflex" unicode="&#xdb;" horiz-adv-x="708" 
d="M355 835l-53 -69h-122l116 131h118l116 -131h-122zM491 700h152v-433c0 -208 -137 -281 -289 -281s-289 73 -289 281v433h152v-421c0 -118 60 -159 137 -159s137 41 137 159v421z" />
    <glyph glyph-name="Udieresis" unicode="&#xdc;" horiz-adv-x="708" 
d="M246 763c-41 0 -73 32 -73 72s32 72 73 72c40 0 72 -32 72 -72s-32 -72 -72 -72zM464 763c-41 0 -73 32 -73 72s32 72 73 72c40 0 72 -32 72 -72s-32 -72 -72 -72zM643 700v-433c0 -208 -137 -281 -289 -281s-289 73 -289 281v433h152v-421c0 -118 60 -159 137 -159
s137 41 137 159v421h152z" />
    <glyph glyph-name="Ugrave" unicode="&#xd9;" horiz-adv-x="708" 
d="M181 937h152l98 -161h-114zM643 700v-433c0 -208 -137 -281 -289 -281s-289 73 -289 281v433h152v-421c0 -118 60 -159 137 -159s137 41 137 159v421h152z" />
    <glyph glyph-name="Uhungarumlaut" unicode="&#x170;" horiz-adv-x="708" 
d="M392 903l-126 -146h-121l98 146h149zM604 903l-126 -146h-121l98 146h149zM643 700v-433c0 -208 -137 -281 -289 -281s-289 73 -289 281v433h152v-421c0 -118 60 -159 137 -159s137 41 137 159v421h152z" />
    <glyph glyph-name="Umacron" unicode="&#x16a;" horiz-adv-x="708" 
d="M519 870v-89h-329v89h329zM643 700v-433c0 -208 -137 -281 -289 -281s-289 73 -289 281v433h152v-421c0 -118 60 -159 137 -159s137 41 137 159v421h152z" />
    <glyph glyph-name="Uogonek" unicode="&#x172;" horiz-adv-x="708" 
d="M491 700h152v-433c0 -208 -137 -281 -289 -281h-4c-44 -25 -68 -49 -68 -70c0 -17 14 -29 34 -29c15 0 34 6 49 13v-90c-27 -12 -55 -18 -82 -18c-63 0 -106 37 -106 91c0 35 19 76 65 108h46c-124 20 -223 99 -223 276v433h152v-421c0 -118 60 -159 137 -159
s137 41 137 159v421z" />
    <glyph glyph-name="Uring" unicode="&#x16e;" horiz-adv-x="708" 
d="M354 914c50 0 88 -38 88 -87s-38 -87 -88 -87c-49 0 -87 38 -87 87s38 87 87 87zM354 859c-18 0 -32 -14 -32 -32c0 -20 14 -33 32 -33s32 13 32 33c0 18 -14 32 -32 32zM643 700v-433c0 -208 -137 -281 -289 -281s-289 73 -289 281v433h152v-421
c0 -118 60 -159 137 -159s137 41 137 159v421h152z" />
    <glyph glyph-name="Utilde" unicode="&#x168;" horiz-adv-x="708" 
d="M476 897h70c0 -91 -54 -140 -116 -140c-61 0 -91 46 -132 46c-27 0 -40 -21 -40 -48h-70c0 84 53 140 117 140c58 0 91 -46 131 -46c27 0 40 21 40 48zM643 700v-433c0 -208 -137 -281 -289 -281s-289 73 -289 281v433h152v-421c0 -118 60 -159 137 -159s137 41 137 159
v421h152z" />
    <glyph glyph-name="V" unicode="V" horiz-adv-x="631" 
d="M469 700h162l-246 -700h-139l-246 700h162l154 -483z" />
    <glyph glyph-name="W" unicode="W" horiz-adv-x="1044" 
d="M883 700h161l-234 -700h-138l-150 457l-150 -457h-138l-234 700h161l142 -480l142 480h154l142 -480z" />
    <glyph glyph-name="Wacute" unicode="&#x1e82;" horiz-adv-x="1072" 
d="M696 937l-136 -161h-114l98 161h152zM883 700h161l-234 -700h-138l-150 457l-150 -457h-138l-234 700h161l142 -480l142 480h154l142 -480z" />
    <glyph glyph-name="Wcircumflex" unicode="&#x174;" horiz-adv-x="1072" 
d="M534 835l-53 -69h-122l116 131h118l116 -131h-122zM883 700h161l-234 -700h-138l-150 457l-150 -457h-138l-234 700h161l142 -480l142 480h154l142 -480z" />
    <glyph glyph-name="Wdieresis" unicode="&#x1e84;" horiz-adv-x="1072" 
d="M425 763c-41 0 -73 32 -73 72s32 72 73 72c40 0 72 -32 72 -72s-32 -72 -72 -72zM643 763c-41 0 -73 32 -73 72s32 72 73 72c40 0 72 -32 72 -72s-32 -72 -72 -72zM883 700h161l-234 -700h-138l-150 457l-150 -457h-138l-234 700h161l142 -480l142 480h154l142 -480z" />
    <glyph glyph-name="Wgrave" unicode="&#x1e80;" horiz-adv-x="1072" 
d="M610 776h-114l-136 161h152zM883 700h161l-234 -700h-138l-150 457l-150 -457h-138l-234 700h161l142 -480l142 480h154l142 -480z" />
    <glyph glyph-name="X" unicode="X" horiz-adv-x="616" 
d="M591 0h-164l-119 213l-119 -213h-164l200 360l-190 340h167l106 -191l106 191h167l-190 -340z" />
    <glyph glyph-name="Y" unicode="Y" 
d="M476 700h162l-233 -459v-241h-152v241l-233 459h162l147 -317z" />
    <glyph glyph-name="Yacute" unicode="&#xdd;" 
d="M474 937l-136 -161h-114l98 161h152zM476 700h162l-233 -459v-241h-152v241l-233 459h162l147 -317z" />
    <glyph glyph-name="Ycircumflex" unicode="&#x176;" 
d="M312 835l-53 -69h-122l116 131h118l116 -131h-122zM476 700h162l-233 -459v-241h-152v241l-233 459h162l147 -317z" />
    <glyph glyph-name="Ydieresis" unicode="&#x178;" 
d="M203 763c-41 0 -73 32 -73 72s32 72 73 72c40 0 72 -32 72 -72s-32 -72 -72 -72zM421 763c-41 0 -73 32 -73 72s32 72 73 72c40 0 72 -32 72 -72s-32 -72 -72 -72zM476 700h162l-233 -459v-241h-152v241l-233 459h162l147 -317z" />
    <glyph glyph-name="Ygrave" unicode="&#x1ef2;" 
d="M388 776h-114l-136 161h152zM476 700h162l-233 -459v-241h-152v241l-233 459h162l147 -317z" />
    <glyph glyph-name="Z" unicode="Z" horiz-adv-x="549" 
d="M213 134h293v-134h-463v127l286 439h-274v134h447v-127z" />
    <glyph glyph-name="Zacute" unicode="&#x179;" horiz-adv-x="549" 
d="M442 937l-136 -161h-114l98 161h152zM213 134h293v-134h-463v127l286 439h-274v134h447v-127z" />
    <glyph glyph-name="Zcaron" unicode="&#x17d;" horiz-adv-x="549" 
d="M339 766h-118l-116 131h122l53 -69l53 69h122zM213 134h293v-134h-463v127l286 439h-274v134h447v-127z" />
    <glyph glyph-name="Zdotaccent" unicode="&#x17b;" horiz-adv-x="549" 
d="M280 768c-41 0 -73 32 -73 72s32 72 73 72c40 0 72 -32 72 -72s-32 -72 -72 -72zM213 134h293v-134h-463v127l286 439h-274v134h447v-127z" />
    <glyph glyph-name="I.alt" horiz-adv-x="312" 
d="M232 700v-700h-152v700h152z" />
    <glyph glyph-name="a" unicode="a" horiz-adv-x="524" 
d="M175 -14c-67 0 -141 33 -141 132c0 103 80 153 201 187l99 28c0 51 -38 69 -77 69c-43 0 -78 -20 -78 -71h-130c0 134 110 185 215 185c103 0 208 -50 208 -190v-326h-138v54c-37 -45 -103 -68 -159 -68zM218 101c43 0 109 38 109 89v37l-70 -20c-66 -19 -82 -46 -82 -70
c0 -21 16 -36 43 -36z" />
    <glyph glyph-name="aacute" unicode="&#xe1;" horiz-adv-x="524" 
d="M424 739l-136 -161h-114l98 161h152zM175 -14c-67 0 -141 33 -141 132c0 103 80 153 201 187l99 28c0 51 -38 69 -77 69c-43 0 -78 -20 -78 -71h-130c0 134 110 185 215 185c103 0 208 -50 208 -190v-326h-138v54c-37 -45 -103 -68 -159 -68zM218 101c43 0 109 38 109 89
v37l-70 -20c-66 -19 -82 -46 -82 -70c0 -21 16 -36 43 -36z" />
    <glyph glyph-name="abreve" unicode="&#x103;" horiz-adv-x="524" 
d="M415 699c0 -92 -67 -148 -153 -148s-153 56 -153 148h91c0 -50 30 -70 62 -70s62 20 62 70h91zM175 -14c-67 0 -141 33 -141 132c0 103 80 153 201 187l99 28c0 51 -38 69 -77 69c-43 0 -78 -20 -78 -71h-130c0 134 110 185 215 185c103 0 208 -50 208 -190v-326h-138v54
c-37 -45 -103 -68 -159 -68zM218 101c43 0 109 38 109 89v37l-70 -20c-66 -19 -82 -46 -82 -70c0 -21 16 -36 43 -36z" />
    <glyph glyph-name="uni01CE" unicode="&#x1ce;" horiz-adv-x="524" 
d="M321 568h-118l-116 131h122l53 -69l53 69h122zM264 516c103 0 208 -50 208 -190v-326h-138v54c-37 -45 -103 -68 -159 -68c-67 0 -141 33 -141 132c0 103 80 153 201 187l99 28c0 51 -38 69 -77 69c-43 0 -78 -20 -78 -71h-130c0 134 110 185 215 185zM327 190v37
l-70 -20c-66 -19 -82 -46 -82 -70c0 -21 16 -36 43 -36c43 0 109 38 109 89z" />
    <glyph glyph-name="acircumflex" unicode="&#xe2;" horiz-adv-x="524" 
d="M262 637l-53 -69h-122l116 131h118l116 -131h-122zM264 516c103 0 208 -50 208 -190v-326h-138v54c-37 -45 -103 -68 -159 -68c-67 0 -141 33 -141 132c0 103 80 153 201 187l99 28c0 51 -38 69 -77 69c-43 0 -78 -20 -78 -71h-130c0 134 110 185 215 185zM327 190v37
l-70 -20c-66 -19 -82 -46 -82 -70c0 -21 16 -36 43 -36c43 0 109 38 109 89z" />
    <glyph glyph-name="adieresis" unicode="&#xe4;" horiz-adv-x="524" 
d="M153 565c-41 0 -73 32 -73 72s32 72 73 72c40 0 72 -32 72 -72s-32 -72 -72 -72zM371 565c-41 0 -73 32 -73 72s32 72 73 72c40 0 72 -32 72 -72s-32 -72 -72 -72zM175 -14c-67 0 -141 33 -141 132c0 103 80 153 201 187l99 28c0 51 -38 69 -77 69c-43 0 -78 -20 -78 -71
h-130c0 134 110 185 215 185c103 0 208 -50 208 -190v-326h-138v54c-37 -45 -103 -68 -159 -68zM218 101c43 0 109 38 109 89v37l-70 -20c-66 -19 -82 -46 -82 -70c0 -21 16 -36 43 -36z" />
    <glyph glyph-name="agrave" unicode="&#xe0;" horiz-adv-x="524" 
d="M88 739h152l98 -161h-114zM175 -14c-67 0 -141 33 -141 132c0 103 80 153 201 187l99 28c0 51 -38 69 -77 69c-43 0 -78 -20 -78 -71h-130c0 134 110 185 215 185c103 0 208 -50 208 -190v-326h-138v54c-37 -45 -103 -68 -159 -68zM218 101c43 0 109 38 109 89v37
l-70 -20c-66 -19 -82 -46 -82 -70c0 -21 16 -36 43 -36z" />
    <glyph glyph-name="amacron" unicode="&#x101;" horiz-adv-x="524" 
d="M426 672v-89h-329v89h329zM175 -14c-67 0 -141 33 -141 132c0 103 80 153 201 187l99 28c0 51 -38 69 -77 69c-43 0 -78 -20 -78 -71h-130c0 134 110 185 215 185c103 0 208 -50 208 -190v-326h-138v54c-37 -45 -103 -68 -159 -68zM218 101c43 0 109 38 109 89v37
l-70 -20c-66 -19 -82 -46 -82 -70c0 -21 16 -36 43 -36z" />
    <glyph glyph-name="aogonek" unicode="&#x105;" horiz-adv-x="524" 
d="M429 -104c15 0 34 6 49 13v-90c-27 -12 -55 -18 -82 -18c-63 0 -106 37 -106 91c0 35 19 76 65 108h-21v54c-37 -45 -103 -68 -159 -68c-67 0 -141 33 -141 132c0 103 80 153 201 187l99 28c0 51 -38 69 -77 69c-43 0 -78 -20 -78 -71h-130c0 134 110 185 215 185
c103 0 208 -50 208 -190v-326c-50 -27 -77 -53 -77 -75c0 -17 14 -29 34 -29zM327 190v37l-70 -20c-66 -19 -82 -46 -82 -70c0 -21 16 -36 43 -36c43 0 109 38 109 89z" />
    <glyph glyph-name="aring" unicode="&#xe5;" horiz-adv-x="524" 
d="M261 716c50 0 88 -38 88 -87s-38 -87 -88 -87c-49 0 -87 38 -87 87s38 87 87 87zM261 661c-18 0 -32 -14 -32 -32c0 -20 14 -33 32 -33s32 13 32 33c0 18 -14 32 -32 32zM175 -14c-67 0 -141 33 -141 132c0 103 80 153 201 187l99 28c0 51 -38 69 -77 69
c-43 0 -78 -20 -78 -71h-130c0 134 110 185 215 185c103 0 208 -50 208 -190v-326h-138v54c-37 -45 -103 -68 -159 -68zM218 101c43 0 109 38 109 89v37l-70 -20c-66 -19 -82 -46 -82 -70c0 -21 16 -36 43 -36z" />
    <glyph glyph-name="atilde" unicode="&#xe3;" horiz-adv-x="524" 
d="M371 699h70c0 -91 -54 -140 -116 -140c-61 0 -91 46 -132 46c-27 0 -40 -21 -40 -48h-70c0 84 53 140 117 140c58 0 91 -46 131 -46c27 0 40 21 40 48zM175 -14c-67 0 -141 33 -141 132c0 103 80 153 201 187l99 28c0 51 -38 69 -77 69c-43 0 -78 -20 -78 -71h-130
c0 134 110 185 215 185c103 0 208 -50 208 -190v-326h-138v54c-37 -45 -103 -68 -159 -68zM218 101c43 0 109 38 109 89v37l-70 -20c-66 -19 -82 -46 -82 -70c0 -21 16 -36 43 -36z" />
    <glyph glyph-name="ae" unicode="&#xe6;" horiz-adv-x="856" 
d="M814 267v-65h-344c6 -49 41 -99 116 -99c57 0 83 28 91 53h130c-20 -100 -92 -170 -222 -170c-93 0 -163 37 -206 95c-45 -62 -110 -95 -196 -95c-72 0 -149 33 -149 132c0 103 80 153 201 187l99 28c0 51 -38 69 -77 69c-43 0 -78 -20 -78 -71h-130
c0 134 110 185 215 185c58 0 116 -16 156 -54c42 34 95 54 157 54c127 0 237 -84 237 -249zM470 298h211c-2 55 -42 101 -107 101s-99 -46 -104 -101zM327 190v37l-70 -20c-66 -19 -82 -46 -82 -70c0 -21 16 -36 43 -36c43 0 109 38 109 89z" />
    <glyph glyph-name="b" unicode="b" horiz-adv-x="615" 
d="M354 -14c-80 0 -122 35 -145 70v-56h-141v759h145v-305c20 30 62 62 141 62c105 0 216 -101 216 -265s-111 -265 -216 -265zM316 110c59 0 109 44 109 141s-50 141 -109 141c-60 0 -109 -43 -109 -141s49 -141 109 -141z" />
    <glyph glyph-name="c" unicode="c" horiz-adv-x="550" 
d="M292 516c109 0 225 -68 232 -208h-133c-8 51 -41 84 -96 84c-65 0 -106 -50 -106 -141s41 -141 106 -141c55 0 88 34 96 84h133c-7 -140 -123 -208 -232 -208c-145 0 -248 109 -248 265s103 265 248 265z" />
    <glyph glyph-name="cacute" unicode="&#x107;" horiz-adv-x="550" 
d="M453 737l-136 -161h-114l98 161h152zM292 516c109 0 225 -68 232 -208h-133c-8 51 -41 84 -96 84c-65 0 -106 -50 -106 -141s41 -141 106 -141c55 0 88 34 96 84h133c-7 -140 -123 -208 -232 -208c-145 0 -248 109 -248 265s103 265 248 265z" />
    <glyph glyph-name="ccaron" unicode="&#x10d;" horiz-adv-x="550" 
d="M350 566h-118l-116 131h122l53 -69l53 69h122zM295 110c55 0 88 34 96 84h133c-7 -140 -123 -208 -232 -208c-145 0 -248 109 -248 265s103 265 248 265c109 0 225 -68 232 -208h-133c-8 51 -41 84 -96 84c-65 0 -106 -50 -106 -141s41 -141 106 -141z" />
    <glyph glyph-name="ccedilla" unicode="&#xe7;" horiz-adv-x="550" 
d="M292 516c109 0 225 -68 232 -208h-133c-8 51 -41 84 -96 84c-65 0 -106 -50 -106 -141s41 -141 106 -141c55 0 88 34 96 84h133c-7 -140 -123 -208 -232 -208c-145 0 -248 109 -248 265s103 265 248 265zM340 -67l-87 -194l-138 57l127 137h98z" />
    <glyph glyph-name="ccircumflex" unicode="&#x109;" horiz-adv-x="550" 
d="M291 635l-53 -69h-122l116 131h118l116 -131h-122zM295 110c55 0 88 34 96 84h133c-7 -140 -123 -208 -232 -208c-145 0 -248 109 -248 265s103 265 248 265c109 0 225 -68 232 -208h-133c-8 51 -41 84 -96 84c-65 0 -106 -50 -106 -141s41 -141 106 -141z" />
    <glyph glyph-name="cdotaccent" unicode="&#x10b;" horiz-adv-x="550" 
d="M291 567c-41 0 -73 32 -73 72s32 72 73 72c40 0 72 -32 72 -72s-32 -72 -72 -72zM292 516c109 0 225 -68 232 -208h-133c-8 51 -41 84 -96 84c-65 0 -106 -50 -106 -141s41 -141 106 -141c55 0 88 34 96 84h133c-7 -140 -123 -208 -232 -208c-145 0 -248 109 -248 265
s103 265 248 265z" />
    <glyph glyph-name="d" unicode="d" horiz-adv-x="615" 
d="M266 -14c-118 0 -221 101 -221 265s104 265 221 265c65 0 116 -32 136 -62v305h145v-759h-141v56c-23 -35 -75 -70 -140 -70zM299 110c60 0 109 43 109 141s-49 141 -109 141c-59 0 -109 -44 -109 -141s50 -141 109 -141z" />
    <glyph glyph-name="eth" unicode="&#xf0;" horiz-adv-x="598" 
d="M466 566c49 -91 87 -196 87 -301c0 -178 -104 -279 -253 -279c-154 0 -255 104 -255 266c0 173 116 264 228 264c39 0 78 -8 108 -29c-13 26 -29 53 -46 79h-202v83h144c-33 43 -64 79 -83 99h141c25 -27 53 -60 80 -99h127v-83h-76zM299 110c60 0 109 43 109 141
s-49 141 -109 141c-59 0 -109 -44 -109 -141s50 -141 109 -141z" />
    <glyph glyph-name="dcaron" unicode="&#x10f;" horiz-adv-x="615" 
d="M266 -14c-118 0 -221 101 -221 265s104 265 221 265c65 0 116 -32 136 -62v305h145v-759h-141v56c-23 -35 -75 -70 -140 -70zM701 728c48 0 88 -40 88 -88c0 -22 -4 -45 -12 -63l-68 -150h-75l50 126c-38 5 -72 43 -72 87c0 48 40 88 89 88zM299 110c60 0 109 43 109 141
s-49 141 -109 141c-59 0 -109 -44 -109 -141s50 -141 109 -141z" />
    <glyph glyph-name="dcroat" unicode="&#x111;" horiz-adv-x="637" 
d="M622 679v-101h-75v-578h-141v56c-23 -35 -75 -70 -140 -70c-118 0 -221 101 -221 265s104 265 221 265c65 0 116 -32 136 -62v124h-146v101h146v80h145v-80h75zM299 110c60 0 109 43 109 141s-49 141 -109 141c-59 0 -109 -44 -109 -141s50 -141 109 -141z" />
    <glyph glyph-name="e" unicode="e" horiz-adv-x="574" 
d="M532 267v-65h-344c6 -49 41 -99 116 -99c57 0 83 28 91 53h130c-20 -100 -92 -170 -222 -170c-167 0 -258 118 -258 265s100 265 250 265c127 0 237 -84 237 -249zM188 298h211c-2 55 -42 101 -107 101s-99 -46 -104 -101z" />
    <glyph glyph-name="eacute" unicode="&#xe9;" horiz-adv-x="574" 
d="M449 739l-136 -161h-114l98 161h152zM532 267v-65h-344c6 -49 41 -99 116 -99c57 0 83 28 91 53h130c-20 -100 -92 -170 -222 -170c-167 0 -258 118 -258 265s100 265 250 265c127 0 237 -84 237 -249zM188 298h211c-2 55 -42 101 -107 101s-99 -46 -104 -101z" />
    <glyph glyph-name="ebreve" unicode="&#x115;" horiz-adv-x="574" 
d="M287 554c-86 0 -153 56 -153 148h91c0 -50 30 -70 62 -70s62 20 62 70h91c0 -92 -67 -148 -153 -148zM532 267v-65h-344c6 -49 41 -99 116 -99c57 0 83 28 91 53h130c-20 -100 -92 -170 -222 -170c-167 0 -258 118 -258 265s100 265 250 265c127 0 237 -84 237 -249z
M188 298h211c-2 55 -42 101 -107 101s-99 -46 -104 -101z" />
    <glyph glyph-name="ecaron" unicode="&#x11b;" horiz-adv-x="574" 
d="M346 568h-118l-116 131h122l53 -69l53 69h122zM532 267v-65h-344c6 -49 41 -99 116 -99c57 0 83 28 91 53h130c-20 -100 -92 -170 -222 -170c-167 0 -258 118 -258 265s100 265 250 265c127 0 237 -84 237 -249zM188 298h211c-2 55 -42 101 -107 101s-99 -46 -104 -101z
" />
    <glyph glyph-name="ecircumflex" unicode="&#xea;" horiz-adv-x="574" 
d="M287 637l-53 -69h-122l116 131h118l116 -131h-122zM532 267v-65h-344c6 -49 41 -99 116 -99c57 0 83 28 91 53h130c-20 -100 -92 -170 -222 -170c-167 0 -258 118 -258 265s100 265 250 265c127 0 237 -84 237 -249zM188 298h211c-2 55 -42 101 -107 101
s-99 -46 -104 -101z" />
    <glyph glyph-name="edieresis" unicode="&#xeb;" horiz-adv-x="574" 
d="M178 565c-41 0 -73 32 -73 72s32 72 73 72c40 0 72 -32 72 -72s-32 -72 -72 -72zM396 565c-41 0 -73 32 -73 72s32 72 73 72c40 0 72 -32 72 -72s-32 -72 -72 -72zM532 267v-65h-344c6 -49 41 -99 116 -99c57 0 83 28 91 53h130c-20 -100 -92 -170 -222 -170
c-167 0 -258 118 -258 265s100 265 250 265c127 0 237 -84 237 -249zM188 298h211c-2 55 -42 101 -107 101s-99 -46 -104 -101z" />
    <glyph glyph-name="edotaccent" unicode="&#x117;" horiz-adv-x="574" 
d="M287 570c-41 0 -73 32 -73 72s32 72 73 72c40 0 72 -32 72 -72s-32 -72 -72 -72zM532 267v-65h-344c6 -49 41 -99 116 -99c57 0 83 28 91 53h130c-20 -100 -92 -170 -222 -170c-167 0 -258 118 -258 265s100 265 250 265c127 0 237 -84 237 -249zM188 298h211
c-2 55 -42 101 -107 101s-99 -46 -104 -101z" />
    <glyph glyph-name="egrave" unicode="&#xe8;" horiz-adv-x="574" 
d="M363 578h-114l-136 161h152zM532 267v-65h-344c6 -49 41 -99 116 -99c57 0 83 28 91 53h130c-20 -100 -92 -170 -222 -170c-167 0 -258 118 -258 265s100 265 250 265c127 0 237 -84 237 -249zM188 298h211c-2 55 -42 101 -107 101s-99 -46 -104 -101z" />
    <glyph glyph-name="emacron" unicode="&#x113;" horiz-adv-x="574" 
d="M451 672v-89h-329v89h329zM532 267v-65h-344c6 -49 41 -99 116 -99c57 0 83 28 91 53h130c-20 -100 -92 -170 -222 -170c-167 0 -258 118 -258 265s100 265 250 265c127 0 237 -84 237 -249zM188 298h211c-2 55 -42 101 -107 101s-99 -46 -104 -101z" />
    <glyph glyph-name="eogonek" unicode="&#x119;" horiz-adv-x="574" 
d="M532 267v-65h-344c6 -49 41 -99 116 -99c57 0 83 28 91 53h130c-15 -74 -58 -131 -131 -156c-50 -27 -77 -53 -77 -75c0 -17 14 -29 34 -29c15 0 34 6 49 13v-90c-27 -12 -55 -18 -82 -18c-63 0 -106 37 -106 91c0 31 15 67 50 97c-141 17 -217 128 -217 262
c0 147 100 265 250 265c127 0 237 -84 237 -249zM188 298h211c-2 55 -42 101 -107 101s-99 -46 -104 -101z" />
    <glyph glyph-name="f" unicode="f" horiz-adv-x="362" 
d="M96 0v378h-68v124h68v83c0 113 72 173 178 173h77v-121h-41c-42 0 -69 -14 -69 -77v-58h106v-124h-106v-378h-145z" />
    <glyph glyph-name="g" unicode="g" horiz-adv-x="596" 
d="M293 -234c-196 0 -237 129 -237 200h133c0 -60 41 -84 104 -84s112 29 112 121v38c-29 -40 -78 -55 -126 -55c-131 0 -238 109 -238 265s107 265 229 265c51 0 96 -18 125 -52v39h145v-495c0 -149 -81 -242 -247 -242zM295 110c60 0 109 43 109 141s-49 141 -109 141
c-59 0 -109 -44 -109 -141s50 -141 109 -141z" />
    <glyph glyph-name="gbreve" unicode="&#x11f;" horiz-adv-x="596" 
d="M455 700c0 -92 -67 -148 -153 -148s-153 56 -153 148h91c0 -50 30 -70 62 -70s62 20 62 70h91zM293 -234c-196 0 -237 129 -237 200h133c0 -60 41 -84 104 -84s112 29 112 121v38c-29 -40 -78 -55 -126 -55c-131 0 -238 109 -238 265s107 265 229 265
c51 0 96 -18 125 -52v39h145v-495c0 -149 -81 -242 -247 -242zM295 110c60 0 109 43 109 141s-49 141 -109 141c-59 0 -109 -44 -109 -141s50 -141 109 -141z" />
    <glyph glyph-name="gcircumflex" unicode="&#x11d;" horiz-adv-x="596" 
d="M302 635l-53 -69h-122l116 131h118l116 -131h-122zM395 503h145v-495c0 -149 -81 -242 -247 -242c-196 0 -237 129 -237 200h133c0 -60 41 -84 104 -84s112 29 112 121v38c-29 -40 -78 -55 -126 -55c-131 0 -238 109 -238 265s107 265 229 265c51 0 96 -18 125 -52v39z
M295 110c60 0 109 43 109 141s-49 141 -109 141c-59 0 -109 -44 -109 -141s50 -141 109 -141z" />
    <glyph glyph-name="gcommaaccent" unicode="&#x123;" horiz-adv-x="596" 
d="M240 558v110c0 47 35 80 87 100l25 -44c-30 -10 -54 -21 -54 -47v-9h67v-110h-125zM293 -234c-196 0 -237 129 -237 200h133c0 -60 41 -84 104 -84s112 29 112 121v38c-29 -40 -78 -55 -126 -55c-131 0 -238 109 -238 265s107 265 229 265c51 0 96 -18 125 -52v39h145
v-495c0 -149 -81 -242 -247 -242zM295 110c60 0 109 43 109 141s-49 141 -109 141c-59 0 -109 -44 -109 -141s50 -141 109 -141z" />
    <glyph glyph-name="gdotaccent" unicode="&#x121;" horiz-adv-x="596" 
d="M302 567c-41 0 -73 32 -73 72s32 72 73 72c40 0 72 -32 72 -72s-32 -72 -72 -72zM293 -234c-196 0 -237 129 -237 200h133c0 -60 41 -84 104 -84s112 29 112 121v38c-29 -40 -78 -55 -126 -55c-131 0 -238 109 -238 265s107 265 229 265c51 0 96 -18 125 -52v39h145v-495
c0 -149 -81 -242 -247 -242zM295 110c60 0 109 43 109 141s-49 141 -109 141c-59 0 -109 -44 -109 -141s50 -141 109 -141z" />
    <glyph glyph-name="h" unicode="h" horiz-adv-x="600" 
d="M68 0v758h145v-302c25 29 71 60 135 60c124 0 191 -78 191 -213v-303h-145v285c0 73 -32 104 -85 104c-62 0 -96 -42 -96 -133v-256h-145z" />
    <glyph glyph-name="hbar" unicode="&#x127;" horiz-adv-x="600" 
d="M348 516c124 0 191 -78 191 -213v-303h-145v285c0 73 -32 104 -85 104c-62 0 -96 -42 -96 -133v-256h-145v571h-55v96h55v91h145v-91h131v-96h-131v-115c25 29 71 60 135 60z" />
    <glyph glyph-name="hcircumflex" unicode="&#x125;" horiz-adv-x="600" 
d="M300 894l-53 -69h-122l116 131h118l116 -131h-122zM348 516c124 0 191 -78 191 -213v-303h-145v285c0 73 -32 104 -85 104c-62 0 -96 -42 -96 -133v-256h-145v758h145v-302c25 29 71 60 135 60z" />
    <glyph glyph-name="i" unicode="i" horiz-adv-x="281" 
d="M141 747c46 0 84 -38 84 -84s-38 -84 -84 -84c-47 0 -85 38 -85 84s38 84 85 84zM213 502v-502h-145v502h145z" />
    <glyph glyph-name="dotlessi" unicode="&#x131;" horiz-adv-x="257" 
d="M56 0v503h145v-503h-145z" />
    <glyph glyph-name="iacute" unicode="&#xed;" horiz-adv-x="257" 
d="M291 740l-136 -161h-114l98 161h152zM56 0v503h145v-503h-145z" />
    <glyph glyph-name="uni01D0" unicode="&#x1d0;" horiz-adv-x="257" 
d="M188 569h-118l-116 131h122l53 -69l53 69h122zM56 0v503h145v-503h-145z" />
    <glyph glyph-name="icircumflex" unicode="&#xee;" horiz-adv-x="257" 
d="M129 638l-53 -69h-122l116 131h118l116 -131h-122zM56 0v503h145v-503h-145z" />
    <glyph glyph-name="idieresis" unicode="&#xef;" horiz-adv-x="257" 
d="M20 566c-41 0 -73 32 -73 72s32 72 73 72c40 0 72 -32 72 -72s-32 -72 -72 -72zM238 566c-41 0 -73 32 -73 72s32 72 73 72c40 0 72 -32 72 -72s-32 -72 -72 -72zM56 0v503h145v-503h-145z" />
    <glyph glyph-name="i.loclTRK" horiz-adv-x="257" 
d="M129 570c-41 0 -73 32 -73 72s32 72 73 72c40 0 72 -32 72 -72s-32 -72 -72 -72zM56 0v503h145v-503h-145z" />
    <glyph glyph-name="igrave" unicode="&#xec;" horiz-adv-x="257" 
d="M-45 740h152l98 -161h-114zM56 0v503h145v-503h-145z" />
    <glyph glyph-name="ij" unicode="&#x133;" horiz-adv-x="558" 
d="M141 747c46 0 84 -38 84 -84s-38 -84 -84 -84c-47 0 -85 38 -85 84s38 84 85 84zM426 579c-47 0 -85 38 -85 84s38 84 85 84c46 0 84 -38 84 -84s-38 -84 -84 -84zM213 502v-502h-145v502h145zM498 502v-518c0 -147 -82 -206 -172 -206h-57v123h17c37 0 67 17 67 76v525
h145z" />
    <glyph glyph-name="imacron" unicode="&#x12b;" horiz-adv-x="257" 
d="M293 673v-89h-329v89h329zM56 0v503h145v-503h-145z" />
    <glyph glyph-name="iogonek" unicode="&#x12f;" horiz-adv-x="257" 
d="M129 571c-41 0 -73 32 -73 72s32 72 73 72c40 0 72 -32 72 -72s-32 -72 -72 -72zM56 0v503h145v-503h-63c-50 -27 -77 -53 -77 -75c0 -17 14 -29 34 -29c15 0 34 6 49 13v-90c-27 -12 -55 -18 -82 -18c-63 0 -106 37 -106 91c0 35 19 76 65 108h35z" />
    <glyph glyph-name="itilde" unicode="&#x129;" horiz-adv-x="257" 
d="M250 700h70c0 -91 -54 -140 -116 -140c-61 0 -91 46 -132 46c-27 0 -40 -21 -40 -48h-70c0 84 53 140 117 140c58 0 91 -46 131 -46c27 0 40 21 40 48zM56 0v503h145v-503h-145z" />
    <glyph glyph-name="j" unicode="j" horiz-adv-x="277" 
d="M145 579c-47 0 -85 38 -85 84s38 84 85 84c46 0 84 -38 84 -84s-38 -84 -84 -84zM217 502v-518c0 -147 -82 -206 -172 -206h-57v123h17c37 0 67 17 67 76v525h145z" />
    <glyph glyph-name="jcircumflex" unicode="&#x135;" horiz-adv-x="287" 
d="M155 625l-53 -69h-122l116 131h118l116 -131h-122zM82 -20v523h145v-521c0 -147 -80 -206 -170 -206h-57v127h13c24 0 69 7 69 77z" />
    <glyph glyph-name="k" unicode="k" horiz-adv-x="568" 
d="M558 0h-179l-166 213v-213h-145v759h145v-417l145 161h182l-208 -221z" />
    <glyph glyph-name="kcommaaccent" unicode="&#x137;" horiz-adv-x="568" 
d="M332 282l226 -282h-179l-166 213v-213h-145v759h145v-417l145 161h182zM221 -168v110h125v-110c0 -47 -35 -80 -87 -100l-25 44c30 10 54 21 54 47v9h-67z" />
    <glyph glyph-name="l" unicode="l" horiz-adv-x="281" 
d="M213 758v-758h-145v758h145z" />
    <glyph glyph-name="lacute" unicode="&#x13a;" horiz-adv-x="281" 
d="M303 996l-136 -161h-114l98 161h152zM213 758v-758h-145v758h145z" />
    <glyph glyph-name="lcaron" unicode="&#x13e;" horiz-adv-x="281" 
d="M359 771c48 0 88 -40 88 -88c0 -22 -4 -45 -12 -63l-68 -150h-75l50 126c-38 5 -72 43 -72 87c0 48 40 88 89 88zM213 758v-758h-145v758h145z" />
    <glyph glyph-name="lcommaaccent" unicode="&#x13c;" horiz-adv-x="281" 
d="M213 758v-758h-145v758h145zM203 -58v-110c0 -47 -35 -80 -87 -100l-25 44c30 10 54 21 54 47v9h-67v110h125z" />
    <glyph glyph-name="ldot" unicode="&#x140;" horiz-adv-x="281" 
d="M213 758v-758h-145v758h145zM317 362c38 0 69 -31 69 -69s-31 -69 -69 -69s-69 31 -69 69s31 69 69 69z" />
    <glyph glyph-name="lslash" unicode="&#x142;" horiz-adv-x="398" 
d="M378 358l-109 -52v-306h-145v238l-55 -26l-48 108l103 48v390h145v-322l61 29z" />
    <glyph glyph-name="m" unicode="m" horiz-adv-x="884" 
d="M648 516c103 0 175 -70 175 -203v-313h-145v294c0 73 -35 95 -79 95c-48 0 -81 -36 -81 -105v-284h-145v294c0 74 -37 95 -79 95c-48 0 -81 -38 -81 -105v-284h-145v502h139v-53c28 44 78 67 139 67c58 0 107 -27 139 -78c33 51 91 78 163 78z" />
    <glyph glyph-name="n" unicode="n" horiz-adv-x="600" 
d="M68 0v502h139v-54c25 37 63 68 141 68c124 0 191 -78 191 -213v-303h-145v285c0 73 -31 104 -84 104c-62 0 -97 -42 -97 -133v-256h-145z" />
    <glyph glyph-name="nacute" unicode="&#x144;" horiz-adv-x="600" 
d="M462 740l-136 -161h-114l98 161h152zM68 0v502h139v-54c25 37 63 68 141 68c124 0 191 -78 191 -213v-303h-145v285c0 73 -31 104 -84 104c-62 0 -97 -42 -97 -133v-256h-145z" />
    <glyph glyph-name="ncaron" unicode="&#x148;" horiz-adv-x="600" 
d="M359 569h-118l-116 131h122l53 -69l53 69h122zM348 516c124 0 191 -78 191 -213v-303h-145v285c0 73 -31 104 -84 104c-62 0 -97 -42 -97 -133v-256h-145v502h139v-54c25 37 63 68 141 68z" />
    <glyph glyph-name="ncommaaccent" unicode="&#x146;" horiz-adv-x="600" 
d="M68 0v502h139v-54c25 37 63 68 141 68c124 0 191 -78 191 -213v-303h-145v285c0 73 -31 104 -84 104c-62 0 -97 -42 -97 -133v-256h-145zM362 -58v-110c0 -47 -35 -80 -87 -100l-25 44c30 10 54 21 54 47v9h-67v110h125z" />
    <glyph glyph-name="eng" unicode="&#x14b;" horiz-adv-x="600" 
d="M348 516c124 0 191 -78 191 -213v-319c0 -147 -82 -206 -172 -206h-57v123h17c37 0 67 17 67 76v308c0 73 -31 104 -84 104c-62 0 -97 -42 -97 -133v-256h-145v502h139v-54c25 37 63 68 141 68z" />
    <glyph glyph-name="ntilde" unicode="&#xf1;" horiz-adv-x="600" 
d="M409 700h70c0 -91 -54 -140 -116 -140c-61 0 -91 46 -132 46c-27 0 -40 -21 -40 -48h-70c0 84 53 140 117 140c58 0 91 -46 131 -46c27 0 40 21 40 48zM68 0v502h139v-54c25 37 63 68 141 68c124 0 191 -78 191 -213v-303h-145v285c0 73 -31 104 -84 104
c-62 0 -97 -42 -97 -133v-256h-145z" />
    <glyph glyph-name="o" unicode="o" horiz-adv-x="598" 
d="M299 516c143 0 254 -101 254 -265s-111 -265 -254 -265s-254 101 -254 265s111 265 254 265zM299 392c-59 0 -109 -44 -109 -141s50 -141 109 -141c60 0 109 43 109 141s-49 141 -109 141z" />
    <glyph glyph-name="oacute" unicode="&#xf3;" horiz-adv-x="598" 
d="M461 739l-136 -161h-114l98 161h152zM299 516c143 0 254 -101 254 -265s-111 -265 -254 -265s-254 101 -254 265s111 265 254 265zM299 392c-59 0 -109 -44 -109 -141s50 -141 109 -141c60 0 109 43 109 141s-49 141 -109 141z" />
    <glyph glyph-name="obreve" unicode="&#x14f;" horiz-adv-x="598" 
d="M452 702c0 -92 -67 -148 -153 -148s-153 56 -153 148h91c0 -50 30 -70 62 -70s62 20 62 70h91zM299 516c143 0 254 -101 254 -265s-111 -265 -254 -265s-254 101 -254 265s111 265 254 265zM299 392c-59 0 -109 -44 -109 -141s50 -141 109 -141c60 0 109 43 109 141
s-49 141 -109 141z" />
    <glyph glyph-name="uni01D2" unicode="&#x1d2;" horiz-adv-x="598" 
d="M358 568h-118l-116 131h122l53 -69l53 69h122zM299 516c143 0 254 -101 254 -265s-111 -265 -254 -265s-254 101 -254 265s111 265 254 265zM299 110c60 0 109 43 109 141s-49 141 -109 141c-59 0 -109 -44 -109 -141s50 -141 109 -141z" />
    <glyph glyph-name="ocircumflex" unicode="&#xf4;" horiz-adv-x="598" 
d="M299 637l-53 -69h-122l116 131h118l116 -131h-122zM299 516c143 0 254 -101 254 -265s-111 -265 -254 -265s-254 101 -254 265s111 265 254 265zM299 110c60 0 109 43 109 141s-49 141 -109 141c-59 0 -109 -44 -109 -141s50 -141 109 -141z" />
    <glyph glyph-name="odieresis" unicode="&#xf6;" horiz-adv-x="598" 
d="M190 565c-41 0 -73 32 -73 72s32 72 73 72c40 0 72 -32 72 -72s-32 -72 -72 -72zM408 565c-41 0 -73 32 -73 72s32 72 73 72c40 0 72 -32 72 -72s-32 -72 -72 -72zM299 516c143 0 254 -101 254 -265s-111 -265 -254 -265s-254 101 -254 265s111 265 254 265zM299 392
c-59 0 -109 -44 -109 -141s50 -141 109 -141c60 0 109 43 109 141s-49 141 -109 141z" />
    <glyph glyph-name="ograve" unicode="&#xf2;" horiz-adv-x="598" 
d="M125 739h152l98 -161h-114zM299 516c143 0 254 -101 254 -265s-111 -265 -254 -265s-254 101 -254 265s111 265 254 265zM299 392c-59 0 -109 -44 -109 -141s50 -141 109 -141c60 0 109 43 109 141s-49 141 -109 141z" />
    <glyph glyph-name="ohungarumlaut" unicode="&#x151;" horiz-adv-x="598" 
d="M336 705l-126 -146h-121l98 146h149zM548 705l-126 -146h-121l98 146h149zM299 516c143 0 254 -101 254 -265s-111 -265 -254 -265s-254 101 -254 265s111 265 254 265zM299 392c-59 0 -109 -44 -109 -141s50 -141 109 -141c60 0 109 43 109 141s-49 141 -109 141z" />
    <glyph glyph-name="omacron" unicode="&#x14d;" horiz-adv-x="598" 
d="M463 672v-89h-329v89h329zM299 516c143 0 254 -101 254 -265s-111 -265 -254 -265s-254 101 -254 265s111 265 254 265zM299 392c-59 0 -109 -44 -109 -141s50 -141 109 -141c60 0 109 43 109 141s-49 141 -109 141z" />
    <glyph glyph-name="oslash" unicode="&#xf8;" horiz-adv-x="600" 
d="M565 503l-65 -81c33 -44 53 -102 53 -171c0 -164 -111 -265 -254 -265c-46 0 -90 11 -127 31l-13 -17h-108l56 69c-39 45 -62 107 -62 182c0 164 111 265 254 265c51 0 98 -13 138 -37l19 24h109zM190 251c0 -26 4 -48 10 -66l154 192c-16 10 -35 15 -55 15
c-59 0 -109 -44 -109 -141zM408 251c0 19 -2 36 -5 51l-148 -183c14 -6 29 -9 44 -9c60 0 109 43 109 141z" />
    <glyph glyph-name="otilde" unicode="&#xf5;" horiz-adv-x="598" 
d="M408 699h70c0 -91 -54 -140 -116 -140c-61 0 -91 46 -132 46c-27 0 -40 -21 -40 -48h-70c0 84 53 140 117 140c58 0 91 -46 131 -46c27 0 40 21 40 48zM299 516c143 0 254 -101 254 -265s-111 -265 -254 -265s-254 101 -254 265s111 265 254 265zM299 392
c-59 0 -109 -44 -109 -141s50 -141 109 -141c60 0 109 43 109 141s-49 141 -109 141z" />
    <glyph glyph-name="oe" unicode="&#x153;" horiz-adv-x="938" 
d="M896 267v-65h-344c6 -49 41 -99 116 -99c57 0 83 28 91 53h130c-20 -100 -92 -170 -222 -170c-80 0 -143 27 -186 72c-46 -46 -110 -72 -182 -72c-143 0 -254 101 -254 265s111 265 254 265c73 0 137 -26 183 -73c43 45 104 73 177 73c127 0 237 -84 237 -249zM552 298
h211c-2 55 -42 101 -107 101s-99 -46 -104 -101zM299 110c60 0 109 43 109 141s-49 141 -109 141c-59 0 -109 -44 -109 -141s50 -141 109 -141z" />
    <glyph glyph-name="p" unicode="p" horiz-adv-x="615" 
d="M68 -222v724h141v-56c23 35 65 70 145 70c105 0 216 -101 216 -265s-111 -265 -216 -265c-79 0 -121 32 -141 62v-270h-145zM316 110c59 0 109 44 109 141s-50 141 -109 141c-60 0 -109 -43 -109 -141s49 -141 109 -141z" />
    <glyph glyph-name="thorn" unicode="&#xfe;" horiz-adv-x="615" 
d="M354 516c105 0 216 -101 216 -265s-111 -265 -216 -265c-79 0 -121 32 -141 62v-270h-145v980h145v-306c24 33 65 64 141 64zM316 110c59 0 109 44 109 141s-50 141 -109 141c-60 0 -109 -43 -109 -141s49 -141 109 -141z" />
    <glyph glyph-name="q" unicode="q" horiz-adv-x="615" 
d="M402 -222v270c-20 -30 -62 -62 -141 -62c-105 0 -216 101 -216 265s111 265 216 265c80 0 122 -35 145 -70v56h141v-724h-145zM299 110c60 0 109 43 109 141s-49 141 -109 141c-59 0 -109 -44 -109 -141s50 -141 109 -141z" />
    <glyph glyph-name="r" unicode="r" horiz-adv-x="371" 
d="M360 507v-134h-44c-61 0 -103 -44 -103 -126v-247h-145v502h139v-69c26 45 71 74 127 74h26z" />
    <glyph glyph-name="racute" unicode="&#x155;" horiz-adv-x="371" 
d="M348 740l-136 -161h-114l98 161h152zM360 507v-134h-44c-61 0 -103 -44 -103 -126v-247h-145v502h139v-69c26 45 71 74 127 74h26z" />
    <glyph glyph-name="rcaron" unicode="&#x159;" horiz-adv-x="371" 
d="M245 569h-118l-116 131h122l53 -69l53 69h122zM207 433c26 45 71 74 127 74h26v-134h-44c-61 0 -103 -44 -103 -126v-247h-145v502h139v-69z" />
    <glyph glyph-name="rcommaaccent" unicode="&#x157;" horiz-adv-x="371" 
d="M360 507v-134h-44c-61 0 -103 -44 -103 -126v-247h-145v502h139v-69c26 45 71 74 127 74h26zM248 -58v-110c0 -47 -35 -80 -87 -100l-25 44c30 10 54 21 54 47v9h-67v110h125z" />
    <glyph glyph-name="s" unicode="s" horiz-adv-x="447" 
d="M220 516c107 0 194 -63 194 -179h-129c0 44 -24 68 -62 68c-31 0 -53 -16 -53 -44c0 -23 15 -36 52 -49l81 -28c69 -24 115 -66 115 -140c0 -99 -77 -158 -194 -158c-144 0 -198 87 -198 185h125c0 -56 30 -74 74 -74c46 0 64 21 64 46c0 22 -15 36 -60 51l-68 23
c-83 28 -122 78 -122 147c0 88 69 152 181 152z" />
    <glyph glyph-name="sacute" unicode="&#x15b;" horiz-adv-x="447" 
d="M378 737l-136 -161h-114l98 161h152zM220 516c107 0 194 -63 194 -179h-129c0 44 -24 68 -62 68c-31 0 -53 -16 -53 -44c0 -23 15 -36 52 -49l81 -28c69 -24 115 -66 115 -140c0 -99 -77 -158 -194 -158c-144 0 -198 87 -198 185h125c0 -56 30 -74 74 -74
c46 0 64 21 64 46c0 22 -15 36 -60 51l-68 23c-83 28 -122 78 -122 147c0 88 69 152 181 152z" />
    <glyph glyph-name="scaron" unicode="&#x161;" horiz-adv-x="447" 
d="M275 566h-118l-116 131h122l53 -69l53 69h122zM303 284c69 -24 115 -66 115 -140c0 -99 -77 -158 -194 -158c-144 0 -198 87 -198 185h125c0 -56 30 -74 74 -74c46 0 64 21 64 46c0 22 -15 36 -60 51l-68 23c-83 28 -122 78 -122 147c0 88 69 152 181 152
c107 0 194 -63 194 -179h-129c0 44 -24 68 -62 68c-31 0 -53 -16 -53 -44c0 -23 15 -36 52 -49z" />
    <glyph glyph-name="scedilla" unicode="&#x15f;" horiz-adv-x="447" 
d="M220 516c107 0 194 -63 194 -179h-129c0 44 -24 68 -62 68c-31 0 -53 -16 -53 -44c0 -23 15 -36 52 -49l81 -28c69 -24 115 -66 115 -140c0 -99 -77 -158 -194 -158c-144 0 -198 87 -198 185h125c0 -56 30 -74 74 -74c46 0 64 21 64 46c0 22 -15 36 -60 51l-68 23
c-83 28 -122 78 -122 147c0 88 69 152 181 152zM284 -67l-87 -194l-138 57l127 137h98z" />
    <glyph glyph-name="scircumflex" unicode="&#x15d;" horiz-adv-x="447" 
d="M216 635l-53 -69h-122l116 131h118l116 -131h-122zM303 284c69 -24 115 -66 115 -140c0 -99 -77 -158 -194 -158c-144 0 -198 87 -198 185h125c0 -56 30 -74 74 -74c46 0 64 21 64 46c0 22 -15 36 -60 51l-68 23c-83 28 -122 78 -122 147c0 88 69 152 181 152
c107 0 194 -63 194 -179h-129c0 44 -24 68 -62 68c-31 0 -53 -16 -53 -44c0 -23 15 -36 52 -49z" />
    <glyph glyph-name="scommaaccent" unicode="&#x219;" horiz-adv-x="447" 
d="M220 516c107 0 194 -63 194 -179h-129c0 44 -24 68 -62 68c-31 0 -53 -16 -53 -44c0 -23 15 -36 52 -49l81 -28c69 -24 115 -66 115 -140c0 -99 -77 -158 -194 -158c-144 0 -198 87 -198 185h125c0 -56 30 -74 74 -74c46 0 64 21 64 46c0 22 -15 36 -60 51l-68 23
c-83 28 -122 78 -122 147c0 88 69 152 181 152zM278 -58v-110c0 -47 -35 -80 -87 -100l-25 44c30 10 54 21 54 47v9h-67v110h125z" />
    <glyph glyph-name="germandbls" unicode="&#xdf;" horiz-adv-x="635" 
d="M505 285c62 -31 106 -69 106 -144c0 -95 -70 -155 -173 -155c-125 0 -185 79 -185 185h122c0 -56 28 -74 55 -74c29 0 46 21 46 47c0 29 -21 39 -41 48l-48 22c-79 36 -109 84 -109 136c0 104 123 98 123 170c0 35 -30 70 -86 70c-67 0 -102 -49 -102 -125v-465h-145v459
c0 135 70 255 249 255c180 0 227 -122 227 -194c0 -117 -124 -114 -124 -165c0 -15 10 -32 39 -47z" />
    <glyph glyph-name="t" unicode="t" horiz-adv-x="376" 
d="M344 384h-106v-179c0 -63 19 -86 66 -86h35v-119h-89c-102 0 -156 45 -156 173v211h-78v118h78v146h144v-146h106v-118z" />
    <glyph glyph-name="tbar" unicode="&#x167;" horiz-adv-x="398" 
d="M344 384h-106v-73h106v-114h-106c2 -57 21 -78 66 -78h35v-119h-89c-102 0 -156 45 -156 173v24h-78v114h78v73h-78v118h78v146h144v-146h106v-118z" />
    <glyph glyph-name="tcaron" unicode="&#x165;" horiz-adv-x="376" 
d="M403 744c48 0 88 -40 88 -88c0 -22 -4 -45 -12 -63l-68 -150h-67v-59h-106v-179c0 -63 19 -86 66 -86h35v-119h-89c-102 0 -156 45 -156 173v211h-78v118h78v146h144v-146h106v-39l42 106c-38 5 -72 43 -72 87c0 48 40 88 89 88z" />
    <glyph glyph-name="uni0163" unicode="&#x163;" horiz-adv-x="376" 
d="M344 384h-106v-179c0 -63 19 -86 66 -86h35v-119h-89c-102 0 -156 45 -156 173v211h-78v118h78v146h144v-146h106v-118zM73 -204l127 137h98l-87 -194z" />
    <glyph glyph-name="uni021B" unicode="&#x21b;" horiz-adv-x="376" 
d="M344 384h-106v-179c0 -63 19 -86 66 -86h35v-119h-89c-102 0 -156 45 -156 173v211h-78v118h78v146h144v-146h106v-118zM167 -168v110h125v-110c0 -47 -35 -80 -87 -100l-25 44c30 10 54 21 54 47v9h-67z" />
    <glyph glyph-name="u" unicode="u" horiz-adv-x="604" 
d="M254 -14c-124 0 -191 78 -191 213v303h145v-285c0 -73 32 -104 85 -104c62 0 96 44 96 136v253h145v-502h-139v54c-25 -37 -63 -68 -141 -68z" />
    <glyph glyph-name="uacute" unicode="&#xfa;" horiz-adv-x="604" 
d="M464 740l-136 -161h-114l98 161h152zM254 -14c-124 0 -191 78 -191 213v303h145v-285c0 -73 32 -104 85 -104c62 0 96 44 96 136v253h145v-502h-139v54c-25 -37 -63 -68 -141 -68z" />
    <glyph glyph-name="ubreve" unicode="&#x16d;" horiz-adv-x="604" 
d="M455 703c0 -92 -67 -148 -153 -148s-153 56 -153 148h91c0 -50 30 -70 62 -70s62 20 62 70h91zM254 -14c-124 0 -191 78 -191 213v303h145v-285c0 -73 32 -104 85 -104c62 0 96 44 96 136v253h145v-502h-139v54c-25 -37 -63 -68 -141 -68z" />
    <glyph glyph-name="uni01D4" unicode="&#x1d4;" horiz-adv-x="604" 
d="M361 569h-118l-116 131h122l53 -69l53 69h122zM389 502h145v-502h-139v54c-25 -37 -63 -68 -141 -68c-124 0 -191 78 -191 213v303h145v-285c0 -73 32 -104 85 -104c62 0 96 44 96 136v253z" />
    <glyph glyph-name="ucircumflex" unicode="&#xfb;" horiz-adv-x="604" 
d="M302 638l-53 -69h-122l116 131h118l116 -131h-122zM389 502h145v-502h-139v54c-25 -37 -63 -68 -141 -68c-124 0 -191 78 -191 213v303h145v-285c0 -73 32 -104 85 -104c62 0 96 44 96 136v253z" />
    <glyph glyph-name="udieresis" unicode="&#xfc;" horiz-adv-x="604" 
d="M193 566c-41 0 -73 32 -73 72s32 72 73 72c40 0 72 -32 72 -72s-32 -72 -72 -72zM411 566c-41 0 -73 32 -73 72s32 72 73 72c40 0 72 -32 72 -72s-32 -72 -72 -72zM254 -14c-124 0 -191 78 -191 213v303h145v-285c0 -73 32 -104 85 -104c62 0 96 44 96 136v253h145v-502
h-139v54c-25 -37 -63 -68 -141 -68z" />
    <glyph glyph-name="ugrave" unicode="&#xf9;" horiz-adv-x="604" 
d="M128 740h152l98 -161h-114zM254 -14c-124 0 -191 78 -191 213v303h145v-285c0 -73 32 -104 85 -104c62 0 96 44 96 136v253h145v-502h-139v54c-25 -37 -63 -68 -141 -68z" />
    <glyph glyph-name="uhungarumlaut" unicode="&#x171;" horiz-adv-x="604" 
d="M339 706l-126 -146h-121l98 146h149zM551 706l-126 -146h-121l98 146h149zM254 -14c-124 0 -191 78 -191 213v303h145v-285c0 -73 32 -104 85 -104c62 0 96 44 96 136v253h145v-502h-139v54c-25 -37 -63 -68 -141 -68z" />
    <glyph glyph-name="umacron" unicode="&#x16b;" horiz-adv-x="604" 
d="M466 673v-89h-329v89h329zM254 -14c-124 0 -191 78 -191 213v303h145v-285c0 -73 32 -104 85 -104c62 0 96 44 96 136v253h145v-502h-139v54c-25 -37 -63 -68 -141 -68z" />
    <glyph glyph-name="uogonek" unicode="&#x173;" horiz-adv-x="604" 
d="M471 0c-50 -27 -77 -53 -77 -75c0 -17 14 -29 34 -29c15 0 34 6 49 13v-90c-27 -12 -55 -18 -82 -18c-63 0 -106 37 -106 91c0 35 19 76 65 108h41v54c-25 -37 -63 -68 -141 -68c-124 0 -191 78 -191 213v303h145v-285c0 -73 32 -104 85 -104c62 0 96 44 96 136v253h145
v-502h-63z" />
    <glyph glyph-name="uring" unicode="&#x16f;" horiz-adv-x="604" 
d="M301 717c50 0 88 -38 88 -87s-38 -87 -88 -87c-49 0 -87 38 -87 87s38 87 87 87zM301 662c-18 0 -32 -14 -32 -32c0 -20 14 -33 32 -33s32 13 32 33c0 18 -14 32 -32 32zM254 -14c-124 0 -191 78 -191 213v303h145v-285c0 -73 32 -104 85 -104c62 0 96 44 96 136v253h145
v-502h-139v54c-25 -37 -63 -68 -141 -68z" />
    <glyph glyph-name="utilde" unicode="&#x169;" horiz-adv-x="604" 
d="M423 700h70c0 -91 -54 -140 -116 -140c-61 0 -91 46 -132 46c-27 0 -40 -21 -40 -48h-70c0 84 53 140 117 140c58 0 91 -46 131 -46c27 0 40 21 40 48zM254 -14c-124 0 -191 78 -191 213v303h145v-285c0 -73 32 -104 85 -104c62 0 96 44 96 136v253h145v-502h-139v54
c-25 -37 -63 -68 -141 -68z" />
    <glyph glyph-name="v" unicode="v" horiz-adv-x="547" 
d="M388 502h150l-190 -502h-148l-191 502h150l114 -328z" />
    <glyph glyph-name="w" unicode="w" horiz-adv-x="815" 
d="M647 502h148l-159 -502h-151l-77 312l-78 -312h-151l-159 502h148l91 -346l84 346h129l84 -346z" />
    <glyph glyph-name="wacute" unicode="&#x1e83;" horiz-adv-x="815" 
d="M570 737l-136 -161h-114l98 161h152zM647 502h148l-159 -502h-151l-77 312l-78 -312h-151l-159 502h148l91 -346l84 346h129l84 -346z" />
    <glyph glyph-name="wcircumflex" unicode="&#x175;" horiz-adv-x="815" 
d="M408 635l-53 -69h-122l116 131h118l116 -131h-122zM647 502h148l-159 -502h-151l-77 312l-78 -312h-151l-159 502h148l91 -346l84 346h129l84 -346z" />
    <glyph glyph-name="wdieresis" unicode="&#x1e85;" horiz-adv-x="815" 
d="M299 563c-41 0 -73 32 -73 72s32 72 73 72c40 0 72 -32 72 -72s-32 -72 -72 -72zM517 563c-41 0 -73 32 -73 72s32 72 73 72c40 0 72 -32 72 -72s-32 -72 -72 -72zM647 502h148l-159 -502h-151l-77 312l-78 -312h-151l-159 502h148l91 -346l84 346h129l84 -346z" />
    <glyph glyph-name="wgrave" unicode="&#x1e81;" horiz-adv-x="815" 
d="M484 576h-114l-136 161h152zM647 502h148l-159 -502h-151l-77 312l-78 -312h-151l-159 502h148l91 -346l84 346h129l84 -346z" />
    <glyph glyph-name="x" unicode="x" horiz-adv-x="586" 
d="M571 0h-167l-111 150l-111 -150h-167l194 265l-175 237h170l89 -122l90 122h170l-175 -237z" />
    <glyph glyph-name="y" unicode="y" horiz-adv-x="559" 
d="M401 502h158l-292 -724h-142l86 226l-211 498h157l125 -313z" />
    <glyph glyph-name="yacute" unicode="&#xfd;" horiz-adv-x="559" 
d="M452 740l-136 -161h-114l98 161h152zM401 502h158l-292 -724h-142l86 226l-211 498h157l125 -313z" />
    <glyph glyph-name="ycircumflex" unicode="&#x177;" horiz-adv-x="559" 
d="M290 638l-53 -69h-122l116 131h118l116 -131h-122zM401 502h158l-292 -724h-142l86 226l-211 498h157l125 -313z" />
    <glyph glyph-name="ydieresis" unicode="&#xff;" horiz-adv-x="559" 
d="M181 566c-41 0 -73 32 -73 72s32 72 73 72c40 0 72 -32 72 -72s-32 -72 -72 -72zM399 566c-41 0 -73 32 -73 72s32 72 73 72c40 0 72 -32 72 -72s-32 -72 -72 -72zM401 502h158l-292 -724h-142l86 226l-211 498h157l125 -313z" />
    <glyph glyph-name="ygrave" unicode="&#x1ef3;" horiz-adv-x="559" 
d="M366 579h-114l-136 161h152zM401 502h158l-292 -724h-142l86 226l-211 498h157l125 -313z" />
    <glyph glyph-name="z" unicode="z" horiz-adv-x="503" 
d="M444 502v-89l-205 -285h219v-128h-406v96l199 278h-179v128h372z" />
    <glyph glyph-name="zacute" unicode="&#x17a;" horiz-adv-x="503" 
d="M415 737l-136 -161h-114l98 161h152zM444 502v-89l-205 -285h219v-128h-406v96l199 278h-179v128h372z" />
    <glyph glyph-name="zcaron" unicode="&#x17e;" horiz-adv-x="503" 
d="M312 566h-118l-116 131h122l53 -69l53 69h122zM239 128h219v-128h-406v96l199 278h-179v128h372v-89z" />
    <glyph glyph-name="zdotaccent" unicode="&#x17c;" horiz-adv-x="503" 
d="M253 568c-41 0 -73 32 -73 72s32 72 73 72c40 0 72 -32 72 -72s-32 -72 -72 -72zM444 502v-89l-205 -285h219v-128h-406v96l199 278h-179v128h372z" />
    <glyph glyph-name="a.ss01" horiz-adv-x="615" 
d="M261 -14c-105 0 -216 101 -216 265s111 265 216 265c79 0 121 -32 141 -62v49h145v-503h-141v56c-23 -35 -65 -70 -145 -70zM299 110c60 0 109 43 109 141s-49 141 -109 141c-59 0 -109 -44 -109 -141s50 -141 109 -141z" />
    <glyph glyph-name="pi" unicode="&#x3c0;" horiz-adv-x="619" 
d="M604 503v-125h-60v-378h-145v378h-177v-378h-145v378h-62v125h589z" />
    <glyph glyph-name="zero" unicode="0" 
d="M329 -14c-187 0 -281 170 -281 363c0 197 94 365 281 365s281 -171 281 -365c0 -196 -95 -363 -281 -363zM329 121c85 0 132 94 132 228c0 139 -47 230 -132 230s-132 -94 -132 -230c0 -137 47 -228 132 -228z" />
    <glyph glyph-name="one" unicode="1" horiz-adv-x="470" 
d="M370 700v-700h-144v546l-156 -79v139l181 94h119z" />
    <glyph glyph-name="two" unicode="2" horiz-adv-x="611" 
d="M293 134h258v-134h-466v108l243 257c34 36 70 75 70 127c0 61 -48 89 -92 89c-45 0 -99 -23 -99 -109h-141c0 159 110 242 237 242c136 0 244 -96 244 -219c0 -99 -67 -168 -108 -210z" />
    <glyph glyph-name="three" unicode="3" horiz-adv-x="578" 
d="M285 -14c-155 0 -242 88 -242 225h141c0 -56 40 -93 101 -93c62 0 104 36 104 90c0 53 -47 89 -118 89h-36v121h38c59 0 98 33 98 83c0 49 -37 81 -92 81c-57 0 -95 -38 -95 -96h-141c0 113 74 228 238 228c135 0 239 -87 239 -206c0 -76 -40 -122 -87 -147
c48 -20 105 -71 105 -158c0 -125 -110 -217 -253 -217z" />
    <glyph glyph-name="four" unicode="4" horiz-adv-x="619" 
d="M588 283v-120h-100v-163h-142v163h-315v120l278 417h179v-417h100zM176 283h170v256z" />
    <glyph glyph-name="five" unicode="5" horiz-adv-x="584" 
d="M504 700v-130h-291v-140c18 19 62 35 110 35c115 0 221 -80 221 -229c0 -137 -85 -250 -248 -250c-133 0 -239 77 -239 223h141c0 -62 49 -90 95 -90c60 0 104 45 104 113c0 67 -43 108 -104 108c-50 0 -85 -28 -97 -57h-120v417h428z" />
    <glyph glyph-name="six" unicode="6" horiz-adv-x="582" 
d="M294 -14c-125 0 -250 77 -250 237c0 98 44 166 84 227l163 250h157l-176 -265c16 5 35 8 55 8c104 0 217 -65 217 -220c0 -160 -125 -237 -250 -237zM294 120c60 0 105 41 105 103s-45 103 -105 103s-105 -41 -105 -103s45 -103 105 -103z" />
    <glyph glyph-name="seven" unicode="7" horiz-adv-x="523" 
d="M31 700h442v-120l-233 -580h-154l231 570h-286v130z" />
    <glyph glyph-name="eight" unicode="8" horiz-adv-x="595" 
d="M297 -14c-151 0 -250 96 -250 215c0 91 56 139 102 164c-45 28 -82 73 -82 146c0 118 92 203 230 203s230 -85 230 -203c0 -73 -37 -118 -82 -146c46 -25 102 -73 102 -164c0 -119 -99 -215 -250 -215zM297 420c52 0 86 34 86 82s-34 81 -86 81s-86 -33 -86 -81
s34 -82 86 -82zM297 115c64 0 106 38 106 95s-42 95 -106 95s-106 -38 -106 -95s42 -95 106 -95z" />
    <glyph glyph-name="nine" unicode="9" horiz-adv-x="582" 
d="M288 714c125 0 250 -77 250 -237c0 -98 -44 -166 -84 -227l-163 -250h-157l176 265c-16 -5 -35 -8 -55 -8c-104 0 -217 65 -217 220c0 160 125 237 250 237zM288 580c-60 0 -105 -41 -105 -103s45 -103 105 -103s105 41 105 103s-45 103 -105 103z" />
    <glyph glyph-name="zero.tf" 
d="M329 -14c-187 0 -281 170 -281 363c0 197 94 365 281 365s281 -171 281 -365c0 -196 -95 -363 -281 -363zM329 121c85 0 132 94 132 228c0 139 -47 230 -132 230s-132 -94 -132 -230c0 -137 47 -228 132 -228z" />
    <glyph glyph-name="one.tf" 
d="M615 134v-134h-196v-1h-144v1h-206v134h206v411l-196 -99v139l221 114h119v-565h196z" />
    <glyph glyph-name="two.tf" 
d="M314 134h258v-134h-466v108l243 257c34 36 70 75 70 127c0 61 -48 89 -92 89c-45 0 -99 -23 -99 -109h-141c0 159 110 242 237 242c136 0 244 -96 244 -219c0 -99 -67 -168 -108 -210z" />
    <glyph glyph-name="three.tf" 
d="M323 -14c-155 0 -242 88 -242 225h141c0 -56 40 -93 101 -93c62 0 104 36 104 90c0 53 -47 89 -118 89h-36v121h38c59 0 98 33 98 83c0 49 -37 81 -92 81c-57 0 -95 -38 -95 -96h-141c0 113 74 228 238 228c135 0 239 -87 239 -206c0 -76 -40 -122 -87 -147
c48 -20 105 -71 105 -158c0 -125 -110 -217 -253 -217z" />
    <glyph glyph-name="four.tf" 
d="M607 283v-120h-100v-163h-142v163h-315v120l278 417h179v-417h100zM195 283h170v256z" />
    <glyph glyph-name="five.tf" 
d="M534 700v-130h-291v-140c18 19 62 35 110 35c115 0 221 -80 221 -229c0 -137 -85 -250 -248 -250c-133 0 -239 77 -239 223h141c0 -62 49 -90 95 -90c60 0 104 45 104 113c0 67 -43 108 -104 108c-50 0 -85 -28 -97 -57h-120v417h428z" />
    <glyph glyph-name="six.tf" 
d="M326 -14c-125 0 -250 77 -250 237c0 98 44 166 84 227l163 250h157l-176 -265c16 5 35 8 55 8c104 0 217 -65 217 -220c0 -160 -125 -237 -250 -237zM326 120c60 0 105 41 105 103s-45 103 -105 103s-105 -41 -105 -103s45 -103 105 -103z" />
    <glyph glyph-name="seven.tf" 
d="M71 700h512v-120l-263 -580h-154l258 570h-353v130z" />
    <glyph glyph-name="eight.tf" 
d="M329 -14c-151 0 -250 96 -250 215c0 91 56 139 102 164c-45 28 -82 73 -82 146c0 118 92 203 230 203s230 -85 230 -203c0 -73 -37 -118 -82 -146c46 -25 102 -73 102 -164c0 -119 -99 -215 -250 -215zM329 420c52 0 86 34 86 82s-34 81 -86 81s-86 -33 -86 -81
s34 -82 86 -82zM329 115c64 0 106 38 106 95s-42 95 -106 95s-106 -38 -106 -95s42 -95 106 -95z" />
    <glyph glyph-name="nine.tf" 
d="M335 714c125 0 250 -77 250 -237c0 -98 -44 -166 -84 -227l-163 -250h-157l176 265c-16 -5 -35 -8 -55 -8c-104 0 -217 65 -217 220c0 160 125 237 250 237zM335 580c-60 0 -105 -41 -105 -103s45 -103 105 -103s105 41 105 103s-45 103 -105 103z" />
    <glyph glyph-name="zero.dnom" horiz-adv-x="395" 
d="M198 393c116 0 174 -94 174 -201s-58 -200 -174 -200c-117 0 -175 94 -175 200c0 108 58 201 175 201zM198 302c-50 0 -76 -46 -76 -110c0 -65 26 -110 76 -110c49 0 76 46 76 110c0 66 -27 110 -76 110z" />
    <glyph glyph-name="one.dnom" horiz-adv-x="358" 
d="M258 406v-406h-101v313l-100 -54v94l89 53h112z" />
    <glyph glyph-name="two.dnom" horiz-adv-x="369" 
d="M186 414c82 0 151 -50 151 -130c0 -53 -37 -90 -79 -131l-70 -68h151v-85h-289v66l137 135c24 24 51 45 51 81c0 37 -33 45 -52 45c-25 0 -60 -4 -60 -57h-88c0 96 72 144 148 144z" />
    <glyph glyph-name="three.dnom" horiz-adv-x="340" 
d="M164 414c95 0 142 -62 142 -122c0 -47 -16 -59 -46 -82c31 -19 58 -41 58 -92c0 -68 -61 -126 -150 -126c-75 0 -143 43 -143 130h88c0 -35 30 -44 53 -44c29 0 61 12 61 50c0 29 -35 41 -61 41h-29v78h29c27 0 49 12 49 40c0 22 -10 40 -49 40c-42 0 -55 -22 -55 -46
h-84c0 82 58 133 137 133z" />
    <glyph glyph-name="four.dnom" horiz-adv-x="359" 
d="M342 173v-83h-59v-90h-100v90h-166v87l159 229h107v-233h59zM120 173h63v98z" />
    <glyph glyph-name="five.dnom" horiz-adv-x="341" 
d="M303 406v-88h-164v-53c7 7 31 11 54 11c79 0 128 -58 128 -141c0 -77 -45 -143 -146 -143c-79 0 -145 39 -145 131h93c0 -27 26 -36 46 -37c31 -1 52 21 52 48c0 21 -12 57 -51 57c-27 0 -42 -17 -46 -32l-83 1v246h262z" />
    <glyph glyph-name="six.dnom" horiz-adv-x="346" 
d="M177 406h112l-113 -157c5 0 16 2 32 2c58 0 119 -39 119 -125c0 -95 -76 -134 -159 -134c-69 0 -147 25 -147 132c0 14 -6 44 45 119zM175 172c-24 0 -56 -12 -56 -43s31 -43 56 -43s53 13 53 43c0 31 -29 43 -53 43z" />
    <glyph glyph-name="seven.dnom" horiz-adv-x="302" 
d="M280 406v-83l-135 -323h-108l133 318h-152l-1 88h263z" />
    <glyph glyph-name="eight.dnom" horiz-adv-x="352" 
d="M176 414c59 0 142 -33 142 -124c0 -40 -20 -59 -44 -78c29 -20 55 -44 55 -91c0 -89 -80 -129 -153 -129c-72 0 -153 40 -153 128c0 46 26 71 55 92c-24 19 -44 38 -44 78c0 91 82 124 142 124zM176 320c-26 0 -42 -11 -42 -36c0 -21 17 -32 42 -32s42 11 42 32
c0 25 -17 36 -42 36zM176 170c-27 0 -54 -12 -54 -40c0 -31 28 -44 54 -44c27 0 54 13 54 44c0 28 -27 40 -54 40z" />
    <glyph glyph-name="nine.dnom" horiz-adv-x="346" 
d="M59 0l94 151c0 3 0 3 -7 3c-64 0 -127 40 -127 128c0 99 81 132 159 132c69 0 147 -25 147 -130c0 -21 4 -47 -45 -121l-109 -163h-112zM174 234c24 0 54 12 54 43c0 32 -32 43 -54 43c-26 0 -55 -13 -55 -43s29 -43 55 -43z" />
    <glyph glyph-name="zero.numr" horiz-adv-x="395" 
d="M198 712c116 0 174 -94 174 -201s-58 -200 -174 -200c-117 0 -175 94 -175 200c0 108 58 201 175 201zM198 621c-50 0 -76 -46 -76 -110c0 -65 26 -110 76 -110c49 0 76 46 76 110c0 66 -27 110 -76 110z" />
    <glyph glyph-name="one.numr" horiz-adv-x="358" 
d="M258 700v-406h-101v313l-100 -54v94l89 53h112z" />
    <glyph glyph-name="two.numr" horiz-adv-x="369" 
d="M186 709c82 0 151 -50 151 -130c0 -53 -37 -90 -79 -131l-70 -68h151v-85h-289v66l137 135c24 24 51 45 51 81c0 37 -33 45 -52 45c-25 0 -60 -4 -60 -57h-88c0 96 72 144 148 144z" />
    <glyph glyph-name="three.numr" horiz-adv-x="340" 
d="M164 708c95 0 142 -62 142 -122c0 -47 -16 -59 -46 -82c31 -19 58 -41 58 -92c0 -68 -61 -126 -150 -126c-75 0 -143 43 -143 130h88c0 -35 30 -44 53 -44c29 0 61 12 61 50c0 29 -35 41 -61 41h-29v78h29c27 0 49 12 49 40c0 22 -10 40 -49 40c-42 0 -55 -22 -55 -46
h-84c0 82 58 133 137 133z" />
    <glyph glyph-name="four.numr" horiz-adv-x="359" 
d="M342 467v-83h-59v-90h-100v90h-166v87l159 229h107v-233h59zM120 467h63v98z" />
    <glyph glyph-name="five.numr" horiz-adv-x="341" 
d="M303 700v-88h-164v-53c7 7 31 11 54 11c79 0 128 -58 128 -141c0 -77 -45 -143 -146 -143c-79 0 -145 39 -145 131h93c0 -27 26 -36 46 -37c31 -1 52 21 52 48c0 21 -12 57 -51 57c-27 0 -42 -17 -46 -32l-83 1v246h262z" />
    <glyph glyph-name="six.numr" horiz-adv-x="346" 
d="M177 700h112l-113 -157c5 0 16 2 32 2c58 0 119 -39 119 -125c0 -95 -76 -134 -159 -134c-69 0 -147 25 -147 132c0 14 -6 44 45 119zM175 466c-24 0 -56 -12 -56 -43s31 -43 56 -43s53 13 53 43c0 31 -29 43 -53 43z" />
    <glyph glyph-name="seven.numr" horiz-adv-x="302" 
d="M280 700v-83l-135 -323h-108l133 318h-152l-1 88h263z" />
    <glyph glyph-name="eight.numr" horiz-adv-x="352" 
d="M176 708c59 0 142 -33 142 -124c0 -40 -20 -59 -44 -78c29 -20 55 -44 55 -91c0 -89 -80 -129 -153 -129c-72 0 -153 40 -153 128c0 46 26 71 55 92c-24 19 -44 38 -44 78c0 91 82 124 142 124zM176 614c-26 0 -42 -11 -42 -36c0 -21 17 -32 42 -32s42 11 42 32
c0 25 -17 36 -42 36zM176 464c-27 0 -54 -12 -54 -40c0 -31 28 -44 54 -44c27 0 54 13 54 44c0 28 -27 40 -54 40z" />
    <glyph glyph-name="nine.numr" horiz-adv-x="346" 
d="M59 293l94 151c0 3 0 3 -7 3c-64 0 -127 40 -127 128c0 99 81 132 159 132c69 0 147 -25 147 -130c0 -21 4 -47 -45 -121l-109 -163h-112zM174 527c24 0 54 12 54 43c0 32 -32 43 -54 43c-26 0 -55 -13 -55 -43s29 -43 55 -43z" />
    <glyph glyph-name="fraction" unicode="&#x2044;" horiz-adv-x="100" 
d="M204 700h96l-403 -700h-97z" />
    <glyph glyph-name="onehalf" unicode="&#xbd;" horiz-adv-x="827" 
d="M258 700v-406h-101v313l-100 -54v94l89 53h112zM562 700h96l-403 -700h-97zM644 414c82 0 151 -50 151 -130c0 -53 -37 -90 -79 -131l-70 -68h151v-85h-289v66l137 135c24 24 51 45 51 81c0 37 -33 45 -52 45c-25 0 -60 -4 -60 -57h-88c0 96 72 144 148 144z" />
    <glyph glyph-name="onequarter" unicode="&#xbc;" horiz-adv-x="817" 
d="M258 294h-101v313l-100 -54v94l89 53h112v-406zM562 700h96l-403 -700h-97zM800 173v-83h-59v-90h-100v90h-166v87l159 229h107v-233h59zM578 173h63v98z" />
    <glyph glyph-name="threequarters" unicode="&#xbe;" horiz-adv-x="799" 
d="M318 412c0 -68 -61 -126 -150 -126c-75 0 -143 43 -143 130h88c0 -35 30 -44 53 -44c29 0 61 12 61 50c0 29 -35 41 -61 41h-29v78h29c27 0 49 12 49 40c0 22 -10 40 -49 40c-42 0 -55 -22 -55 -46h-84c0 82 58 133 137 133c95 0 142 -62 142 -122c0 -47 -16 -59 -46 -82
c31 -19 58 -41 58 -92zM544 700h96l-403 -700h-97zM782 173v-83h-59v-90h-100v90h-166v87l159 229h107v-233h59zM560 173h63v98z" />
    <glyph glyph-name="asterisk" unicode="*" horiz-adv-x="496" 
d="M302 641l-4 -115l111 44l37 -101l-113 -38l79 -99l-86 -65l-78 109l-78 -109l-86 65l79 99l-113 38l37 101l111 -44l-4 115h108z" />
    <glyph glyph-name="uni2042" unicode="&#x2042;" horiz-adv-x="1040" 
d="M568 758l-4 -115l111 44l37 -101l-113 -38l79 -99l-86 -65l-78 109l-78 -109l-86 65l79 99l-113 38l37 101l111 -44l-4 115h108zM307 362l-4 -115l111 44l37 -101l-113 -38l79 -99l-86 -65l-78 109l-78 -109l-86 65l79 99l-113 38l37 101l111 -44l-4 115h108zM841 362
l-4 -115l111 44l37 -101l-113 -38l79 -99l-86 -65l-78 109l-78 -109l-86 65l79 99l-113 38l37 101l111 -44l-4 115h108z" />
    <glyph glyph-name="backslash" unicode="\" horiz-adv-x="510" 
d="M163 751l300 -823h-133l-300 823h133z" />
    <glyph glyph-name="periodcentered" unicode="&#xb7;" horiz-adv-x="278" 
d="M139 387c38 0 69 -31 69 -69s-31 -69 -69 -69s-69 31 -69 69s31 69 69 69z" />
    <glyph glyph-name="bullet" unicode="&#x2022;" horiz-adv-x="406" 
d="M203 501c74 0 133 -60 133 -134s-59 -132 -133 -132s-133 58 -133 132s59 134 133 134z" />
    <glyph glyph-name="colon" unicode=":" horiz-adv-x="254" 
d="M124 335c-49 0 -89 40 -89 89c0 48 40 88 89 88c48 0 88 -40 88 -88c0 -49 -40 -89 -88 -89zM124 -14c-49 0 -89 40 -89 89c0 48 40 88 89 88c48 0 88 -40 88 -88c0 -49 -40 -89 -88 -89z" />
    <glyph glyph-name="comma" unicode="," horiz-adv-x="247" 
d="M124 163c48 0 88 -40 88 -88c0 -22 -4 -45 -12 -63l-68 -150h-75l50 126c-38 5 -72 43 -72 87c0 48 40 88 89 88z" />
    <glyph glyph-name="ellipsis" unicode="&#x2026;" horiz-adv-x="902" 
d="M174 -14c-49 0 -89 40 -89 89c0 48 40 88 89 88c48 0 88 -40 88 -88c0 -49 -40 -89 -88 -89zM448 -14c-49 0 -89 40 -89 89c0 48 40 88 89 88c48 0 88 -40 88 -88c0 -49 -40 -89 -88 -89zM722 -14c-49 0 -89 40 -89 89c0 48 40 88 89 88c48 0 88 -40 88 -88
c0 -49 -40 -89 -88 -89z" />
    <glyph glyph-name="exclam" unicode="!" horiz-adv-x="281" 
d="M211 692l-6 -455h-130l-5 455h141zM139 -14c-49 0 -89 40 -89 89c0 48 40 88 89 88c48 0 88 -40 88 -88c0 -49 -40 -89 -88 -89z" />
    <glyph glyph-name="exclamdown" unicode="&#xa1;" horiz-adv-x="281" 
d="M139 706c48 0 88 -40 88 -89c0 -48 -40 -88 -88 -88c-49 0 -89 40 -89 88c0 49 40 89 89 89zM211 0h-141l5 455h130z" />
    <glyph glyph-name="numbersign" unicode="#" horiz-adv-x="700" 
d="M665 391h-120l-13 -109h108v-109h-121l-21 -173h-122l21 173h-131l-21 -173h-122l21 173h-109v109h122l13 109h-110v109h123l18 151h122l-18 -151h131l18 151h122l-18 -151h107v-109zM410 282l13 109h-131l-13 -109h131z" />
    <glyph glyph-name="period" unicode="." horiz-adv-x="247" 
d="M124 -14c-49 0 -89 40 -89 89c0 48 40 88 89 88c48 0 88 -40 88 -88c0 -49 -40 -89 -88 -89z" />
    <glyph glyph-name="question" unicode="?" horiz-adv-x="434" 
d="M222 714c121 0 187 -80 187 -171c0 -127 -130 -167 -130 -278v-34h-133v34c0 175 124 205 124 275c0 28 -20 49 -52 49c-24 0 -56 -11 -56 -82h-137c0 104 60 207 197 207zM213 -14c-49 0 -89 40 -89 89c0 48 40 88 89 88c48 0 88 -40 88 -88c0 -49 -40 -89 -88 -89z" />
    <glyph glyph-name="questiondown" unicode="&#xbf;" horiz-adv-x="406" 
d="M226 498c49 0 89 -40 89 -89c0 -48 -40 -88 -89 -88c-48 0 -88 40 -88 88c0 49 40 89 88 89zM217 -230c-121 0 -187 80 -187 171c0 127 130 167 130 278v34h133v-34c0 -175 -124 -205 -124 -275c0 -28 20 -49 52 -49c24 0 56 11 56 82h137c0 -104 -60 -207 -197 -207z
" />
    <glyph glyph-name="quotedbl" unicode="&#x22;" horiz-adv-x="393" 
d="M175 700l-19 -219h-102l-19 219h140zM358 700l-18 -219h-102l-19 219h139z" />
    <glyph glyph-name="quotesingle" unicode="'" horiz-adv-x="210" 
d="M155 700l-19 -219h-102l-19 219h140z" />
    <glyph glyph-name="semicolon" unicode=";" horiz-adv-x="234" 
d="M114 335c-49 0 -89 40 -89 89c0 48 40 88 89 88c48 0 88 -40 88 -88c0 -49 -40 -89 -88 -89zM124 163c48 0 88 -40 88 -88c0 -22 -4 -45 -12 -63l-68 -150h-75l50 126c-38 5 -72 43 -72 87c0 48 40 88 89 88z" />
    <glyph glyph-name="slash" unicode="/" horiz-adv-x="493" 
d="M330 751h133l-300 -823h-133z" />
    <glyph glyph-name="underscore" unicode="_" horiz-adv-x="652" 
d="M637 -17v-79h-622v79h622z" />
    <glyph glyph-name="braceleft" unicode="{" horiz-adv-x="404" 
d="M303 848h41v-86h-15c-58 0 -67 -42 -67 -90v-206c0 -47 -25 -80 -61 -101c36 -21 61 -53 61 -100v-206c0 -48 9 -90 67 -90h15v-86h-41c-97 0 -164 58 -164 167v217c0 44 -20 64 -72 66v65c52 1 72 22 72 66v217c0 111 67 167 164 167z" />
    <glyph glyph-name="braceright" unicode="}" horiz-adv-x="404" 
d="M101 848c97 0 164 -56 164 -167v-217c0 -44 20 -65 72 -66v-65c-52 -2 -72 -22 -72 -66v-217c0 -109 -67 -167 -164 -167h-41v86h15c58 0 67 42 67 90v206c0 47 25 79 61 100c-36 21 -61 54 -61 101v206c0 48 -9 90 -67 90h-15v86h41z" />
    <glyph glyph-name="bracketleft" unicode="[" horiz-adv-x="428" 
d="M348 850v-112h-125v-755h125v-102h-253v969h253z" />
    <glyph glyph-name="bracketright" unicode="]" horiz-adv-x="428" 
d="M333 850v-969h-253v102h125v765h-125v102h253z" />
    <glyph glyph-name="parenleft" unicode="(" horiz-adv-x="341" 
d="M197 759h134c-113 -134 -172 -278 -172 -428s59 -294 172 -428h-134c-113 127 -172 280 -172 428s59 301 172 428z" />
    <glyph glyph-name="parenright" unicode=")" horiz-adv-x="341" 
d="M144 759c113 -127 172 -280 172 -428s-59 -301 -172 -428h-134c113 134 172 278 172 428s-59 294 -172 428h134z" />
    <glyph glyph-name="emdash" unicode="&#x2014;" horiz-adv-x="752" 
d="M707 358v-120h-662v120h662z" />
    <glyph glyph-name="endash" unicode="&#x2013;" horiz-adv-x="644" 
d="M599 358v-120h-554v120h554z" />
    <glyph glyph-name="hyphen" unicode="-" horiz-adv-x="623" 
d="M533 358v-120h-443v120h443z" />
    <glyph glyph-name="guillemotleft" unicode="&#xab;" horiz-adv-x="623" 
d="M259 548l62 -48l-123 -201l123 -201l-62 -48l-184 249zM486 548l62 -48l-123 -201l123 -201l-62 -48l-184 249z" />
    <glyph glyph-name="guillemotright" unicode="&#xbb;" horiz-adv-x="623" 
d="M137 548l184 -249l-184 -249l-62 48l123 201l-123 201zM364 548l184 -249l-184 -249l-62 48l123 201l-123 201z" />
    <glyph glyph-name="guilsinglleft" unicode="&#x2039;" horiz-adv-x="396" 
d="M259 548l62 -48l-123 -201l123 -201l-62 -48l-184 249z" />
    <glyph glyph-name="guilsinglright" unicode="&#x203a;" horiz-adv-x="396" 
d="M137 548l184 -249l-184 -249l-62 48l123 201l-123 201z" />
    <glyph glyph-name="quotedblbase" unicode="&#x201e;" horiz-adv-x="417" 
d="M124 163c48 0 88 -40 88 -88c0 -22 -4 -45 -12 -63l-68 -150h-75l50 126c-38 5 -72 43 -72 87c0 48 40 88 89 88zM327 163c48 0 88 -40 88 -88c0 -22 -4 -45 -12 -63l-68 -150h-75l50 126c-38 5 -72 43 -72 87c0 48 40 88 89 88z" />
    <glyph glyph-name="quotedblleft" unicode="&#x201c;" horiz-adv-x="437" 
d="M100 433c-48 0 -88 40 -88 88c0 22 4 45 12 63l68 150h75l-50 -126c38 -5 72 -43 72 -87c0 -48 -40 -88 -89 -88zM323 433c-48 0 -88 40 -88 88c0 22 4 45 12 63l68 150h75l-50 -126c38 -5 72 -43 72 -87c0 -48 -40 -88 -89 -88z" />
    <glyph glyph-name="quotedblright" unicode="&#x201d;" horiz-adv-x="437" 
d="M114 712c48 0 88 -40 88 -88c0 -22 -4 -45 -12 -63l-68 -150h-75l50 126c-38 5 -72 43 -72 87c0 48 40 88 89 88zM337 712c48 0 88 -40 88 -88c0 -22 -4 -45 -12 -63l-68 -150h-75l50 126c-38 5 -72 43 -72 87c0 48 40 88 89 88z" />
    <glyph glyph-name="quoteleft" unicode="&#x2018;" horiz-adv-x="214" 
d="M100 433c-48 0 -88 40 -88 88c0 22 4 45 12 63l68 150h75l-50 -126c38 -5 72 -43 72 -87c0 -48 -40 -88 -89 -88z" />
    <glyph glyph-name="quoteright" unicode="&#x2019;" horiz-adv-x="214" 
d="M114 712c48 0 88 -40 88 -88c0 -22 -4 -45 -12 -63l-68 -150h-75l50 126c-38 5 -72 43 -72 87c0 48 40 88 89 88z" />
    <glyph glyph-name="quotesinglbase" unicode="&#x201a;" horiz-adv-x="194" 
d="M114 163c48 0 88 -40 88 -88c0 -22 -4 -45 -12 -63l-68 -150h-75l50 126c-38 5 -72 43 -72 87c0 48 40 88 89 88z" />
    <glyph glyph-name="space" unicode=" " horiz-adv-x="224" 
 />
    <glyph glyph-name="cent" unicode="&#xa2;" horiz-adv-x="550" 
d="M325 114c37 10 60 40 66 80h133c-6 -126 -101 -194 -199 -206v-72h-67v72c-127 16 -214 119 -214 263s87 247 214 263v69h67v-69c98 -12 193 -80 199 -206h-133c-6 41 -29 70 -66 80v-274zM189 251c0 -72 26 -119 69 -135v270c-43 -16 -69 -63 -69 -135z" />
    <glyph glyph-name="currency" unicode="&#xa4;" horiz-adv-x="639" 
d="M502 584l67 -67l-60 -61c23 -37 35 -79 35 -121c0 -43 -11 -85 -35 -122l60 -61l-67 -67l-60 60c-37 -25 -80 -36 -123 -36s-85 11 -122 35l-60 -59l-67 67l60 60c-25 37 -37 81 -37 124s12 85 36 122l-59 59l67 67l59 -59c37 24 79 36 123 36c42 0 85 -13 123 -37z
M319 438c-58 0 -103 -47 -103 -103c0 -57 47 -102 103 -102c58 0 103 48 103 103c0 54 -46 102 -103 102z" />
    <glyph glyph-name="dollar" unicode="$" horiz-adv-x="570" 
d="M529 194c0 -111 -73 -196 -214 -207v-71h-67v72c-169 16 -213 149 -213 247h146c0 -58 20 -97 67 -110v172l-67 28c-95 40 -133 104 -133 182c0 112 78 192 200 205v68h67v-67c146 -14 209 -123 209 -237h-146c0 53 -22 87 -63 99v-160l71 -29c109 -44 143 -116 143 -192
zM199 511c0 -24 11 -47 49 -67v131c-32 -9 -49 -33 -49 -64zM315 122c40 7 64 32 64 66c0 35 -20 57 -64 79v-145z" />
    <glyph glyph-name="Euro" unicode="&#x20ac;" horiz-adv-x="708" 
d="M411 121c60 0 105 44 115 118h147c-4 -137 -107 -253 -259 -253c-138 0 -246 96 -285 240h-84l21 80h49c-1 14 -2 29 -2 44v16h-68l21 80h56c33 159 145 268 293 268c154 0 254 -118 258 -253h-147c-10 74 -52 118 -113 118c-66 0 -115 -52 -137 -133h178l-21 -80h-168
v-15c0 -16 1 -31 2 -45h145l-21 -80h-106c25 -65 70 -105 126 -105z" />
    <glyph glyph-name="florin" unicode="&#x192;" horiz-adv-x="434" 
d="M374 759v-121h-38c-32 0 -59 -14 -59 -77v-61h96v-128h-96v-402c0 -126 -72 -193 -174 -193h-68v121h38c32 0 59 14 59 77v397h-102v128h102v66c0 126 72 193 174 193h68z" />
    <glyph glyph-name="sterling" unicode="&#xa3;" horiz-adv-x="578" 
d="M290 248c0 -39 -18 -78 -55 -122h280v-126h-461v83c65 55 97 114 97 169c0 14 -2 27 -6 40h-106v94h60c-18 33 -33 70 -33 118c0 116 87 210 231 210c149 0 250 -100 250 -229h-149c0 68 -44 96 -95 96c-52 0 -96 -31 -96 -91c0 -35 15 -70 33 -104h201v-94h-158
c4 -14 7 -29 7 -44z" />
    <glyph glyph-name="yen" unicode="&#xa5;" 
d="M638 700l-167 -329h100v-85h-143l-23 -45v-23h166v-85h-166v-133h-152v133h-165v85h165v23l-23 45h-142v85h99l-167 329h162l147 -317l147 317h162z" />
    <glyph glyph-name="plus" unicode="+" horiz-adv-x="623" 
d="M371 555v-192h192v-120h-192v-192h-120v192h-191v120h191v192h120z" />
    <glyph glyph-name="minus" unicode="&#x2212;" horiz-adv-x="663" 
d="M616 349v-120h-563v120h563z" />
    <glyph glyph-name="multiply" unicode="&#xd7;" horiz-adv-x="563" 
d="M408 501l85 -85l-127 -127l127 -127l-85 -85l-127 127l-126 -127l-85 85l126 127l-126 127l85 85l126 -127z" />
    <glyph glyph-name="divide" unicode="&#xf7;" horiz-adv-x="607" 
d="M376 581v-151h-144v151h144zM577 361v-120h-546v120h546zM376 171v-151h-144v151h144z" />
    <glyph glyph-name="equal" unicode="=" horiz-adv-x="703" 
d="M633 445v-115h-563v115h563zM633 248v-115h-563v115h563z" />
    <glyph glyph-name="notequal" unicode="&#x2260;" horiz-adv-x="703" 
d="M633 330h-181l-57 -82h238v-115h-319l-95 -136l-104 70l46 66h-91v115h172l57 82h-229v115h310l94 134l103 -71l-44 -63h100v-115z" />
    <glyph glyph-name="greater" unicode="&#x3e;" horiz-adv-x="601" 
d="M55 584l491 -214v-118l-491 -214v129l335 144l-335 144v129z" />
    <glyph glyph-name="less" unicode="&#x3c;" horiz-adv-x="580" 
d="M546 584v-129l-335 -144l335 -144v-129l-491 214v118z" />
    <glyph glyph-name="greaterequal" unicode="&#x2265;" horiz-adv-x="633" 
d="M72 714l491 -214v-118l-491 -214v129l335 144l-335 144v129zM70 0v120h493v-120h-493z" />
    <glyph glyph-name="lessequal" unicode="&#x2264;" horiz-adv-x="633" 
d="M561 297v-129l-491 214v118l491 214v-129l-335 -144zM70 120h493v-120h-493v120z" />
    <glyph glyph-name="plusminus" unicode="&#xb1;" horiz-adv-x="720" 
d="M428 674v-192h192v-120h-192v-192h-120v192h-191v120h191v192h120zM619 120v-120h-502v120h502z" />
    <glyph glyph-name="approxequal" unicode="&#x2248;" horiz-adv-x="695" 
d="M240 486c88 0 119 -62 197 -62c14 0 51 2 89 52l77 -61c-20 -57 -93 -117 -178 -117c-84 0 -121 59 -196 59c-28 0 -61 -8 -89 -49l-70 72c22 47 85 106 170 106zM244 277c88 0 119 -62 197 -62c14 0 51 2 89 52l77 -61c-20 -57 -93 -117 -178 -117
c-84 0 -121 59 -196 59c-28 0 -61 -8 -89 -49l-70 72c22 47 85 106 170 106z" />
    <glyph glyph-name="asciitilde" unicode="~" horiz-adv-x="671" 
d="M240 453c88 0 119 -62 197 -62c14 0 51 2 89 52l77 -61c-20 -57 -93 -117 -178 -117c-84 0 -121 59 -196 59c-28 0 -61 -8 -89 -49l-70 72c22 47 85 106 170 106z" />
    <glyph glyph-name="logicalnot" unicode="&#xac;" horiz-adv-x="703" 
d="M633 468v-295h-120v175h-443v120h563z" />
    <glyph glyph-name="infinity" unicode="&#x221e;" horiz-adv-x="834" 
d="M593 465c108 0 186 -79 186 -175c0 -98 -78 -176 -186 -176c-69 0 -130 42 -176 91c-47 -49 -107 -91 -176 -91c-108 0 -186 78 -186 176c0 96 78 175 186 175c71 0 129 -41 176 -92c47 51 105 92 176 92zM241 218c47 0 84 34 111 72c-27 36 -64 70 -111 70
c-52 0 -82 -30 -82 -70c0 -42 30 -72 82 -72zM593 218c52 0 82 30 82 72c0 40 -30 70 -82 70c-47 0 -84 -34 -111 -70c27 -38 64 -72 111 -72z" />
    <glyph glyph-name="integral" unicode="&#x222b;" horiz-adv-x="439" 
d="M369 759v-121h-38c-32 0 -59 -14 -59 -77v-591c0 -126 -72 -193 -174 -193h-68v121h38c32 0 59 14 59 77v591c0 126 72 193 174 193h68z" />
    <glyph glyph-name="uni2126" unicode="&#x2126;" horiz-adv-x="782" 
d="M391 717c206 0 341 -151 341 -325c0 -151 -105 -245 -158 -261v-7h143v-124h-286v133c103 31 148 147 148 244s-50 205 -188 205s-188 -108 -188 -205s44 -213 148 -244v-133h-286v124h143v7c-53 16 -158 110 -158 261c0 174 135 325 341 325z" />
    <glyph glyph-name="uni2206" unicode="&#x2206;" horiz-adv-x="769" 
d="M459 700l280 -700h-709l279 700h150zM384 508l-153 -385h307z" />
    <glyph glyph-name="product" unicode="&#x220f;" horiz-adv-x="601" 
d="M534 700v-700h-145v570h-177v-570h-145v700h467z" />
    <glyph glyph-name="summation" unicode="&#x2211;" horiz-adv-x="572" 
d="M504 700v-134h-271l128 -192v-46l-129 -194h272v-134h-447v113l156 237l-156 240v110h447z" />
    <glyph glyph-name="radical" unicode="&#x221a;" horiz-adv-x="748" 
d="M558 721l137 -41l-239 -680h-127l-126 277h-158v121h247l86 -191z" />
    <glyph glyph-name="uni00B5" unicode="&#xb5;" horiz-adv-x="604" 
d="M389 502h145v-502h-139v54c-25 -37 -63 -68 -141 -68c-16 0 -32 1 -46 4v-184h-145v696h145v-285c0 -73 32 -104 85 -104c62 0 96 44 96 136v253z" />
    <glyph glyph-name="partialdiff" unicode="&#x2202;" horiz-adv-x="584" 
d="M300 717c193 0 244 -179 244 -346c0 -272 -134 -385 -288 -385c-134 0 -216 86 -216 235c0 198 144 296 270 296c51 0 82 -16 109 -38c-28 90 -75 118 -135 118c-57 0 -92 -26 -135 -66l-80 87c62 55 136 99 231 99zM311 390c-57 0 -126 -50 -126 -161
c0 -68 26 -115 82 -115c65 0 126 65 126 161c0 54 -19 115 -82 115z" />
    <glyph glyph-name="percent" unicode="%" horiz-adv-x="925" 
d="M240 373c-95 0 -170 75 -170 170c0 96 75 171 170 171s170 -75 170 -171c0 -95 -75 -170 -170 -170zM187 0l405 700h145l-404 -700h-146zM240 486c33 0 59 26 59 57c0 33 -26 59 -59 59c-31 0 -57 -26 -57 -59c0 -31 26 -57 57 -57zM684 -14c-95 0 -170 75 -170 170
s75 170 170 170c96 0 171 -75 171 -170s-75 -170 -171 -170zM684 97c32 0 58 26 58 59c0 32 -26 58 -58 58s-58 -26 -58 -58c0 -33 26 -59 58 -59z" />
    <glyph glyph-name="perthousand" unicode="&#x2030;" horiz-adv-x="1153" 
d="M410 538c0 -95 -75 -170 -170 -170s-170 75 -170 170c0 96 75 171 170 171s170 -75 170 -171zM592 700h145l-404 -700h-146zM183 538c0 -31 26 -57 57 -57c33 0 59 26 59 57c0 33 -26 59 -59 59c-31 0 -57 -26 -57 -59zM913 322c96 0 171 -75 171 -170
s-75 -170 -171 -170c-44 0 -84 16 -114 43c-30 -27 -70 -43 -115 -43c-95 0 -170 75 -170 170s75 170 170 170c45 0 85 -16 115 -43c30 27 70 43 114 43zM684 93c32 0 58 26 58 59c0 32 -26 58 -58 58s-58 -26 -58 -58c0 -33 26 -59 58 -59zM913 93c32 0 58 26 58 59
c0 32 -26 58 -58 58s-58 -26 -58 -58c0 -33 26 -59 58 -59z" />
    <glyph glyph-name="arrowup" unicode="&#x2191;" horiz-adv-x="642" 
d="M321 714l218 -218v-160l-158 163l-1 -499h-118l-1 499l-158 -163v160z" />
    <glyph glyph-name="uni2197" unicode="&#x2197;" horiz-adv-x="732" 
d="M657 700v-308l-113 -113l4 227l-389 -388l-84 84l388 389l-227 -4l113 113h308z" />
    <glyph glyph-name="arrowright" unicode="&#x2192;" horiz-adv-x="914" 
d="M839 286l-218 -218h-160l163 158l-549 1v118l549 1l-163 158h160z" />
    <glyph glyph-name="uni2198" unicode="&#x2198;" horiz-adv-x="732" 
d="M657 0h-308l-113 113l227 -4l-388 389l84 84l389 -388l-4 227l113 -113v-308z" />
    <glyph glyph-name="arrowdown" unicode="&#x2193;" horiz-adv-x="642" 
d="M321 -14l-218 218v160l158 -163l1 499h118l1 -499l158 163v-160z" />
    <glyph glyph-name="uni2199" unicode="&#x2199;" horiz-adv-x="732" 
d="M75 0v308l113 113l-4 -227l389 388l84 -84l-388 -389l227 4l-113 -113h-308z" />
    <glyph glyph-name="arrowleft" unicode="&#x2190;" horiz-adv-x="914" 
d="M75 286l218 218h160l-163 -158l549 -1v-118l-549 -1l163 -158h-160z" />
    <glyph glyph-name="uni2196" unicode="&#x2196;" horiz-adv-x="732" 
d="M75 700h308l113 -113l-227 4l388 -389l-84 -84l-389 388l4 -227l-113 113v308z" />
    <glyph glyph-name="arrowboth" unicode="&#x2194;" horiz-adv-x="1014" 
d="M293 133l-218 218l218 218h160l-163 -158h434l-163 158h160l218 -218l-218 -218h-160l163 158h-434l163 -158h-160z" />
    <glyph glyph-name="arrowupdn" unicode="&#x2195;" horiz-adv-x="642" 
d="M321 -49l-218 218v160l158 -163v378l-158 -163v160l218 218l218 -218v-160l-158 163v-378l158 163v-160z" />
    <glyph glyph-name="lozenge" unicode="&#x25ca;" horiz-adv-x="573" 
d="M330 699l208 -348l-210 -351h-84l-209 351l207 348h88zM286 538l-112 -187l112 -186l113 186z" />
    <glyph glyph-name="uniF8FF" unicode="&#xf8ff;" horiz-adv-x="1057" 
d="M992 700v-922h-927v922h927zM922 630h-787v-782h787v782zM417 495c119 0 208 -98 208 -230c0 -134 -90 -230 -208 -230c-117 0 -206 95 -206 230c0 133 88 230 206 230zM418 420c-78 0 -129 -60 -129 -155s51 -156 129 -156c76 0 127 61 127 156s-51 155 -127 155z
M852 383v-74h-36c-34 0 -57 -24 -57 -71v-190h-74v331h70v-37c15 22 44 41 72 41h25z" />
    <glyph glyph-name="at" unicode="@" horiz-adv-x="1094" 
d="M544 -222c-299 0 -463 208 -463 456c0 279 213 480 483 480c244 0 432 -165 432 -380v-194c0 -136 -79 -190 -168 -190c-74 0 -142 29 -160 125c-47 -59 -127 -89 -195 -89c-87 0 -142 49 -142 132c0 127 129 168 201 188l99 28c0 51 -38 69 -77 69
c-42 0 -76 -20 -76 -71h-130c0 134 109 185 213 185c103 0 208 -50 208 -190v-218c0 -45 24 -68 60 -68c39 0 63 31 63 83v210c0 179 -143 281 -328 281c-229 0 -375 -156 -375 -371c0 -183 105 -372 350 -372h82v-94h-77zM510 101c42 0 114 39 114 90v37l-70 -20
c-66 -19 -82 -47 -82 -71c0 -25 16 -36 38 -36z" />
    <glyph glyph-name="ampersand" unicode="&#x26;" horiz-adv-x="755" 
d="M755 0h-177l-63 62c-53 -44 -121 -77 -211 -77c-156 0 -229 87 -229 184c0 87 63 147 136 194c-49 52 -81 101 -81 162c0 75 46 189 210 189c166 0 208 -113 208 -189c0 -73 -63 -128 -142 -180l103 -102l79 97h161l-150 -186zM339 591c-39 0 -67 -23 -67 -66
c0 -31 24 -65 51 -96c56 34 83 56 83 96c0 43 -28 66 -67 66zM319 108c38 0 73 18 105 44l-127 124c-38 -27 -74 -62 -74 -98c0 -43 35 -70 96 -70z" />
    <glyph glyph-name="paragraph" unicode="&#xb6;" horiz-adv-x="812" 
d="M742 700v-120h-73v-802h-131v802h-118v-802h-131v461c-128 0 -231 103 -231 231c0 127 103 230 231 230h453z" />
    <glyph glyph-name="section" unicode="&#xa7;" horiz-adv-x="635" 
d="M349 717c107 0 175 -66 214 -110l-86 -83c-31 33 -65 72 -128 72c-46 0 -70 -23 -70 -49c0 -28 17 -53 99 -89c90 -41 187 -100 187 -213c0 -67 -32 -127 -94 -161c32 -33 55 -75 55 -128c0 -103 -77 -190 -224 -190c-135 0 -219 104 -232 139l88 85
c18 -34 84 -102 151 -102c58 0 81 28 81 68c0 39 -61 72 -138 112c-95 49 -147 95 -147 192c0 65 35 121 102 149c-41 35 -63 76 -63 138c0 95 71 170 205 170zM308 348c-45 -1 -85 -39 -85 -76c0 -48 62 -76 122 -106l36 -18c43 6 68 47 68 81c0 51 -70 82 -141 119z" />
    <glyph glyph-name="copyright" unicode="&#xa9;" horiz-adv-x="838" 
d="M419 -14c-195 0 -354 163 -354 364s159 364 354 364s354 -163 354 -364s-159 -364 -354 -364zM419 62c150 0 274 128 274 288s-124 288 -274 288s-274 -128 -274 -288s124 -288 274 -288zM422 143c-116 0 -197 86 -197 207c0 124 83 207 196 207c78 0 177 -51 183 -159
h-99c-7 41 -35 66 -81 66c-56 0 -91 -40 -91 -114c0 -73 34 -114 91 -114c46 0 74 25 81 67h99c-6 -109 -104 -160 -182 -160z" />
    <glyph glyph-name="registered" unicode="&#xae;" horiz-adv-x="817" 
d="M419 714c195 0 354 -163 354 -364s-159 -364 -354 -364s-354 163 -354 364s159 364 354 364zM419 62c150 0 274 128 274 288s-124 288 -274 288s-274 -128 -274 -288s124 -288 274 -288zM569 425c0 -38 -16 -101 -97 -122l100 -160h-107l-90 153v-153h-91v414h125
c136 0 160 -87 160 -132zM375 478v-103h34c67 0 69 38 69 50c0 15 -3 53 -69 53h-34z" />
    <glyph glyph-name="trademark" unicode="&#x2122;" horiz-adv-x="663" 
d="M228 700v-79h-64v-271h-90v271h-64v79h218zM653 700v-350h-90v229l-60 -135h-66l-59 135v-229h-90v350h125l57 -134l63 134h120z" />
    <glyph glyph-name="degree" unicode="&#xb0;" horiz-adv-x="360" 
d="M180 714c-91 0 -165 -74 -165 -165s74 -166 165 -166s165 75 165 166s-74 165 -165 165zM180 624c42 0 75 -33 75 -75c0 -43 -33 -76 -75 -76s-75 33 -75 76c0 42 33 75 75 75z" />
    <glyph glyph-name="bar" unicode="|" horiz-adv-x="277" 
d="M200 759v-898h-123v898h123z" />
    <glyph glyph-name="brokenbar" unicode="&#xa6;" horiz-adv-x="277" 
d="M200 759v-352h-123v352h123zM200 213v-352h-123v352h123z" />
    <glyph glyph-name="uni2113" unicode="&#x2113;" horiz-adv-x="441" 
d="M250 102c25 0 47 10 65 26l60 -83c-34 -39 -92 -59 -149 -59c-126 0 -158 93 -158 198v27c-14 -4 -29 -7 -44 -10l-17 121c22 5 42 11 61 17v256c0 111 81 172 190 172c70 0 184 -22 184 -174c0 -138 -91 -254 -229 -326v-105c0 -44 18 -60 37 -60zM213 414
c64 51 94 115 94 185c0 50 -23 62 -49 62s-45 -24 -45 -66v-181z" />
    <glyph glyph-name="dagger" unicode="&#x2020;" horiz-adv-x="643" 
d="M383 759v-168h190v-120h-190v-634h-123v634h-190v120h190v168h123z" />
    <glyph glyph-name="daggerdbl" unicode="&#x2021;" horiz-adv-x="643" 
d="M383 759v-168h190v-120h-190v-295h190v-120h-190v-219h-123v219h-190v120h190v295h-190v120h190v168h123z" />
    <glyph glyph-name="uni2116" unicode="&#x2116;" horiz-adv-x="1123" 
d="M913 383c-91 0 -165 75 -165 166s74 165 165 165s165 -74 165 -165s-74 -166 -165 -166zM500 258v442h152v-700h-162l-258 446v-446h-152v700h159zM913 614c-36 0 -65 -29 -65 -65c0 -37 29 -66 65 -66s65 29 65 66c0 36 -29 65 -65 65zM751 224v96h324v-96h-324z" />
    <glyph glyph-name="asciicircum" unicode="^" horiz-adv-x="622" 
d="M369 700l209 -411h-139l-130 283l-140 -283h-130l209 411h121z" />
    <glyph glyph-name="uni0308" unicode="&#x308;" horiz-adv-x="0" 
d="M-354 566c-41 0 -73 32 -73 72s32 72 73 72c40 0 72 -32 72 -72s-32 -72 -72 -72zM-136 566c-41 0 -73 32 -73 72s32 72 73 72c40 0 72 -32 72 -72s-32 -72 -72 -72z" />
    <glyph glyph-name="uni0307" unicode="&#x307;" horiz-adv-x="0" 
d="M-143 570c-41 0 -73 32 -73 72s32 72 73 72c40 0 72 -32 72 -72s-32 -72 -72 -72z" />
    <glyph glyph-name="gravecomb" unicode="&#x300;" horiz-adv-x="0" 
d="M-300 740h152l98 -161h-114z" />
    <glyph glyph-name="acutecomb" unicode="&#x301;" horiz-adv-x="0" 
d="M-50 740l-136 -161h-114l98 161h152z" />
    <glyph glyph-name="uni030B" unicode="&#x30b;" horiz-adv-x="0" 
d="M-213 706l-126 -146h-121l98 146h149zM-1 706l-126 -146h-121l98 146h149z" />
    <glyph glyph-name="uni0302" unicode="&#x302;" horiz-adv-x="0" 
d="M-55 569h-122l-53 69l-53 -69h-122l116 131h118z" />
    <glyph glyph-name="uni030C" unicode="&#x30c;" horiz-adv-x="0" 
d="M-177 700h122l-116 -131h-118l-116 131h122l53 -69z" />
    <glyph glyph-name="uni0306" unicode="&#x306;" horiz-adv-x="0" 
d="M-65 700c0 -92 -67 -148 -153 -148s-153 56 -153 148h91c0 -50 30 -70 62 -70s62 20 62 70h91z" />
    <glyph glyph-name="uni030A" unicode="&#x30a;" horiz-adv-x="0" 
d="M-158 717c50 0 88 -38 88 -87s-38 -87 -88 -87c-49 0 -87 38 -87 87s38 87 87 87zM-158 662c-18 0 -32 -14 -32 -32c0 -20 14 -33 32 -33s32 13 32 33c0 18 -14 32 -32 32z" />
    <glyph glyph-name="tildecomb" unicode="&#x303;" horiz-adv-x="0" 
d="M-125 700h70c0 -91 -54 -140 -116 -140c-61 0 -91 46 -132 46c-27 0 -40 -21 -40 -48h-70c0 84 53 140 117 140c58 0 91 -46 131 -46c27 0 40 21 40 48z" />
    <glyph glyph-name="uni0304" unicode="&#x304;" horiz-adv-x="0" 
d="M-55 673v-89h-329v89h329z" />
    <glyph glyph-name="uni0312" unicode="&#x312;" horiz-adv-x="0" 
d="M-175 579v110c0 47 35 80 87 100l25 -44c-30 -10 -54 -21 -54 -47v-9h67v-110h-125z" />
    <glyph glyph-name="uni0326" unicode="&#x326;" horiz-adv-x="0" 
d="M-50 -58v-110c0 -47 -35 -80 -87 -100l-25 44c30 10 54 21 54 47v9h-67v110h125z" />
    <glyph glyph-name="uni0327" unicode="&#x327;" horiz-adv-x="0" 
d="M-50 -67l-87 -194l-138 57l127 137h98z" />
    <glyph glyph-name="uni0328" unicode="&#x328;" horiz-adv-x="0" 
d="M-109 -199c-63 0 -106 37 -106 91c0 35 19 76 65 108h117c-50 -27 -77 -53 -77 -75c0 -17 14 -29 34 -29c15 0 34 6 49 13v-90c-27 -12 -55 -18 -82 -18z" />
    <glyph glyph-name="acute" unicode="&#xb4;" horiz-adv-x="262" 
d="M314 740l-136 -161h-114l98 161h152z" />
    <glyph glyph-name="breve" unicode="&#x2d8;" horiz-adv-x="438" 
d="M373 700c0 -92 -67 -148 -153 -148s-153 56 -153 148h91c0 -50 30 -70 62 -70s62 20 62 70h91z" />
    <glyph glyph-name="caron" unicode="&#x2c7;" horiz-adv-x="460" 
d="M283 700h122l-116 -131h-118l-116 131h122l53 -69z" />
    <glyph glyph-name="cedilla" unicode="&#xb8;" horiz-adv-x="321" 
d="M234 -67l-87 -194l-138 57l127 137h98z" />
    <glyph glyph-name="circumflex" unicode="&#x2c6;" horiz-adv-x="460" 
d="M405 569h-122l-53 69l-53 -69h-122l116 131h118z" />
    <glyph glyph-name="dieresis" unicode="&#xa8;" horiz-adv-x="491" 
d="M137 570c-41 0 -73 32 -73 72s32 72 73 72c40 0 72 -32 72 -72s-32 -72 -72 -72zM355 570c-41 0 -73 32 -73 72s32 72 73 72c40 0 72 -32 72 -72s-32 -72 -72 -72z" />
    <glyph glyph-name="dotaccent" unicode="&#x2d9;" horiz-adv-x="287" 
d="M144 570c-41 0 -73 32 -73 72s32 72 73 72c40 0 72 -32 72 -72s-32 -72 -72 -72z" />
    <glyph glyph-name="grave" unicode="`" horiz-adv-x="392" 
d="M41 740h152l98 -161h-114z" />
    <glyph glyph-name="hungarumlaut" unicode="&#x2dd;" horiz-adv-x="599" 
d="M386 706l-126 -146h-121l98 146h149zM598 706l-126 -146h-121l98 146h149z" />
    <glyph glyph-name="macron" unicode="&#xaf;" horiz-adv-x="439" 
d="M384 673v-89h-329v89h329z" />
    <glyph glyph-name="ogonek" unicode="&#x2db;" horiz-adv-x="253" 
d="M144 -199c-63 0 -106 37 -106 91c0 35 19 76 65 108h117c-50 -27 -77 -53 -77 -75c0 -17 14 -29 34 -29c15 0 34 6 49 13v-90c-27 -12 -55 -18 -82 -18z" />
    <glyph glyph-name="ring" unicode="&#x2da;" horiz-adv-x="315" 
d="M157 717c50 0 88 -38 88 -87s-38 -87 -88 -87c-49 0 -87 38 -87 87s38 87 87 87zM157 662c-18 0 -32 -14 -32 -32c0 -20 14 -33 32 -33s32 13 32 33c0 18 -14 32 -32 32z" />
    <glyph glyph-name="tilde" unicode="&#x2dc;" horiz-adv-x="468" 
d="M343 700h70c0 -91 -54 -140 -116 -140c-61 0 -91 46 -132 46c-27 0 -40 -21 -40 -48h-70c0 84 53 140 117 140c58 0 91 -46 131 -46c27 0 40 21 40 48z" />
    </font>
</defs>
</svg>
