<?xml version="1.0" standalone="no"?>
<!DOCTYPE svg PUBLIC "-//W3C//DTD SVG 1.1//EN" "http://www.w3.org/Graphics/SVG/1.1/DTD/svg11.dtd" >
<svg xmlns="http://www.w3.org/2000/svg" xmlns:xlink="http://www.w3.org/1999/xlink" version="1.1">
<metadata>
Created by FontForge 20170910 at Mon Apr 30 13:26:05 2018
 By Jimmy Wärting
Copyright \(c\) 2017 by Gu_mundur _lfarsson &#38; Or Type. All rights reserved.
</metadata>
<defs>
<font id="L15-Regular" horiz-adv-x="584" >
  <font-face 
    font-family="L15"
    font-weight="400"
    font-stretch="normal"
    units-per-em="1000"
    panose-1="0 0 5 0 0 0 0 0 0 0"
    ascent="800"
    descent="-200"
    x-height="502"
    cap-height="700"
    bbox="-429 -249 1118 981"
    underline-thickness="50"
    underline-position="-100"
    stemh="93"
    stemv="99"
    unicode-range="U+0020-FB04"
  />
<missing-glyph horiz-adv-x="490" 
d="M402 758v-980h-311v980h311zM326 692h-161v-32h63v-36h-64v-33h162v33h-64v36h64v32zM262 566h-98v-102h162v33h-64v69zM228 533v-36h-32v36h32zM326 438h-162v-33h64v-36h-64v-32h98v68h64v33zM326 379h-32v-65h-130v-33h162v98zM326 259h-98v-55h34v23h32v-46h-98v78
h-32v-111h162v111zM326 90h-162v-111h162v111zM294 57v-46h-98v46h98zM326 -44h-162v-32h68l-68 -46v-32h162v32h-100l69 46h31v32z" />
    <glyph glyph-name="f_f" unicode="ff" horiz-adv-x="604" 
d="M537 672c-42 0 -67 -24 -67 -69v-101h109v-87h-109v-415h-95v415h-68v1h-113v-416h-95v416h-68v87h68v93c0 106 59 163 135 163h57v-88h-38c-32 0 -59 -16 -59 -79v-89h116v-1h65v103c0 106 62 153 138 153h74v-86h-50z" />
    <glyph glyph-name="f_f_i" unicode="ffi" horiz-adv-x="833" 
d="M700 634c-37 0 -66 30 -66 66c0 34 29 64 66 64c35 0 63 -30 63 -64c0 -36 -28 -66 -63 -66zM746 503v-503h-95v415h-181v-415h-95v415h-181v-415h-95v415h-68v88h68v93c0 106 59 163 135 163h57v-88h-38c-32 0 -59 -16 -59 -79v-89h181v93c0 106 59 163 135 163h57v-88
h-38c-32 0 -59 -16 -59 -79v-89h276z" />
    <glyph glyph-name="f_f_l" unicode="ffl" horiz-adv-x="831" 
d="M375 605c0 106 62 153 138 153h74v-86h-50c-42 0 -67 -24 -67 -69v-101h109v-87h-109v-415h-95v415h-68v1h-113v-416h-95v416h-68v87h68v93c0 106 59 163 135 163h57v-88h-38c-32 0 -59 -16 -59 -79v-89h116v-1h65v103zM651 758h95v-758h-95v758z" />
    <glyph glyph-name="fi" unicode="fi" horiz-adv-x="557" 
d="M424 634c-37 0 -66 30 -66 66c0 34 29 64 66 64c35 0 63 -30 63 -64c0 -36 -28 -66 -63 -66zM470 503v-503h-95v415h-181v-415h-95v415h-68v88h68v93c0 106 59 163 135 163h57v-88h-38c-32 0 -59 -16 -59 -79v-89h276z" />
    <glyph glyph-name="fl" unicode="fl" horiz-adv-x="540" 
d="M99 0v415h-68v87h68v103c0 106 62 153 138 153h74v-86h-50c-42 0 -67 -24 -67 -69v-101h109v-87h-109v-415h-95zM455 758v-758h-95v758h95z" />
    <glyph glyph-name=".notdef" horiz-adv-x="490" 
d="M402 758v-980h-311v980h311zM326 692h-161v-32h63v-36h-64v-33h162v33h-64v36h64v32zM262 566h-98v-102h162v33h-64v69zM228 533v-36h-32v36h32zM326 438h-162v-33h64v-36h-64v-32h98v68h64v33zM326 379h-32v-65h-130v-33h162v98zM326 259h-98v-55h34v23h32v-46h-98v78
h-32v-111h162v111zM326 90h-162v-111h162v111zM294 57v-46h-98v46h98zM326 -44h-162v-32h68l-68 -46v-32h162v32h-100l69 46h31v32z" />
    <glyph glyph-name="A" unicode="A" horiz-adv-x="595" 
d="M477 0l-47 146h-264l-48 -146h-105l240 700h89l240 -700h-105zM195 237h205l-102 316z" />
    <glyph glyph-name="Aacute" unicode="&#xc1;" horiz-adv-x="595" 
d="M445 922l-131 -151h-87l98 151h120zM477 0l-47 146h-264l-48 -146h-105l240 700h89l240 -700h-105zM195 237h205l-102 316z" />
    <glyph glyph-name="Abreve" unicode="&#x102;" horiz-adv-x="595" 
d="M298 762c-84 0 -134 52 -134 138h72c0 -57 30 -72 62 -72c37 0 62 15 62 72h72c0 -86 -44 -138 -134 -138zM477 0l-47 146h-264l-48 -146h-105l240 700h89l240 -700h-105zM195 237h205l-102 316z" />
    <glyph glyph-name="uni01CD" unicode="&#x1cd;" horiz-adv-x="595" 
d="M337 769h-78l-116 131h98l57 -69l57 69h98zM477 0l-47 146h-264l-48 -146h-105l240 700h89l240 -700h-105zM195 237h205l-102 316z" />
    <glyph glyph-name="Acircumflex" unicode="&#xc2;" horiz-adv-x="595" 
d="M298 835l-57 -69h-98l116 131h78l116 -131h-98zM477 0l-47 146h-264l-48 -146h-105l240 700h89l240 -700h-105zM195 237h205l-102 316z" />
    <glyph glyph-name="Adieresis" unicode="&#xc4;" horiz-adv-x="595" 
d="M195 770c-37 0 -66 30 -66 66c0 34 29 64 66 64c35 0 63 -30 63 -64c0 -36 -28 -66 -63 -66zM403 770c-37 0 -66 30 -66 66c0 34 29 64 66 64c35 0 63 -30 63 -64c0 -36 -28 -66 -63 -66zM477 0l-47 146h-264l-48 -146h-105l240 700h89l240 -700h-105zM195 237h205
l-102 316z" />
    <glyph glyph-name="Agrave" unicode="&#xc0;" horiz-adv-x="595" 
d="M357 771h-87l-131 151h120zM477 0l-47 146h-264l-48 -146h-105l240 700h89l240 -700h-105zM195 237h205l-102 316z" />
    <glyph glyph-name="Amacron" unicode="&#x100;" horiz-adv-x="595" 
d="M462 856v-69h-329v69h329zM477 0l-47 146h-264l-48 -146h-105l240 700h89l240 -700h-105zM195 237h205l-102 316z" />
    <glyph glyph-name="Aogonek" unicode="&#x104;" horiz-adv-x="595" 
d="M538 -115c14 0 31 4 49 12v-73c-21 -9 -44 -14 -65 -14c-57 0 -97 38 -97 88c0 37 23 75 70 102h-18l-47 146h-264l-48 -146h-105l240 700h89l240 -700c-60 -29 -83 -56 -83 -80c0 -25 19 -35 39 -35zM195 237h205l-102 316z" />
    <glyph glyph-name="Aring" unicode="&#xc5;" horiz-adv-x="595" 
d="M297 740c-49 0 -87 38 -87 87s38 87 87 87c50 0 88 -38 88 -87s-38 -87 -88 -87zM297 869c-22 0 -42 -20 -42 -42c0 -24 20 -43 42 -43s42 19 42 43c0 22 -20 42 -42 42zM477 0l-47 146h-264l-48 -146h-105l240 700h89l240 -700h-105zM195 237h205l-102 316z" />
    <glyph glyph-name="Atilde" unicode="&#xc3;" horiz-adv-x="595" 
d="M234 823c-23 0 -32 -21 -32 -48h-60c0 74 28 120 91 120s96 -46 129 -46c23 0 32 21 32 48h60c0 -74 -28 -120 -90 -120c-63 0 -97 46 -130 46zM477 0l-47 146h-264l-48 -146h-105l240 700h89l240 -700h-105zM195 237h205l-102 316z" />
    <glyph glyph-name="AE" unicode="&#xc6;" horiz-adv-x="740" 
d="M688 607h-240v-196h223v-92h-223v-227h240v-92h-339v176h-175l-60 -176h-101l240 700h435v-93zM205 265h144v342h-27z" />
    <glyph glyph-name="B" unicode="B" horiz-adv-x="612" 
d="M450 363c52 -23 105 -73 105 -166c0 -91 -62 -197 -219 -197h-245v700h225c161 0 209 -114 209 -187c0 -64 -36 -127 -75 -150zM424 505c0 65 -42 101 -118 101h-116v-202h116c76 0 118 36 118 101zM322 94c85 0 132 40 132 111s-47 111 -132 111h-132v-222h132z" />
    <glyph glyph-name="C" unicode="C" horiz-adv-x="715" 
d="M385 -14c-193 0 -331 153 -331 364s138 364 332 364c163 0 275 -108 285 -254h-100c-11 85 -68 159 -184 159c-144 0 -232 -111 -232 -269s89 -269 232 -269c116 0 173 74 184 159h100c-9 -145 -124 -254 -286 -254z" />
    <glyph glyph-name="Cacute" unicode="&#x106;" horiz-adv-x="715" 
d="M505 922l-131 -151h-87l98 151h120zM385 -14c-193 0 -331 153 -331 364s138 364 332 364c163 0 275 -108 285 -254h-100c-11 85 -68 159 -184 159c-144 0 -232 -111 -232 -269s89 -269 232 -269c116 0 173 74 184 159h100c-9 -145 -124 -254 -286 -254z" />
    <glyph glyph-name="Ccaron" unicode="&#x10c;" horiz-adv-x="715" 
d="M397 766h-78l-116 131h98l57 -69l57 69h98zM387 81c116 0 173 74 184 159h100c-9 -145 -124 -254 -286 -254c-193 0 -331 153 -331 364s138 364 332 364c163 0 275 -108 285 -254h-100c-11 85 -68 159 -184 159c-144 0 -232 -111 -232 -269s89 -269 232 -269z" />
    <glyph glyph-name="Ccedilla" unicode="&#xc7;" horiz-adv-x="715" 
d="M385 -14c-193 0 -331 153 -331 364s138 364 332 364c163 0 275 -108 285 -254h-100c-11 85 -68 159 -184 159c-144 0 -232 -111 -232 -269s89 -269 232 -269c116 0 173 74 184 159h100c-9 -145 -124 -254 -286 -254zM406 -67l-72 -160l-104 44l108 116h68z" />
    <glyph glyph-name="Ccircumflex" unicode="&#x108;" horiz-adv-x="715" 
d="M363 835l-57 -69h-98l116 131h78l116 -131h-98zM387 81c116 0 173 74 184 159h100c-9 -145 -124 -254 -286 -254c-193 0 -331 153 -331 364s138 364 332 364c163 0 275 -108 285 -254h-100c-11 85 -68 159 -184 159c-144 0 -232 -111 -232 -269s89 -269 232 -269z" />
    <glyph glyph-name="Cdotaccent" unicode="&#x10a;" horiz-adv-x="715" 
d="M358 770c-37 0 -66 30 -66 66c0 34 29 64 66 64c35 0 63 -30 63 -64c0 -36 -28 -66 -63 -66zM385 -14c-193 0 -331 153 -331 364s138 364 332 364c163 0 275 -108 285 -254h-100c-11 85 -68 159 -184 159c-144 0 -232 -111 -232 -269s89 -269 232 -269
c116 0 173 74 184 159h100c-9 -145 -124 -254 -286 -254z" />
    <glyph glyph-name="D" unicode="D" horiz-adv-x="681" 
d="M300 700c186 0 327 -149 327 -350c0 -205 -141 -350 -327 -350h-209v700h209zM300 95c134 0 226 103 226 255c0 148 -92 255 -226 255h-110v-510h110z" />
    <glyph glyph-name="Eth" unicode="&#xd0;" horiz-adv-x="732" 
d="M351 700c186 0 327 -149 327 -350c0 -205 -141 -350 -327 -350h-209v306h-97v91h97v303h209zM351 95c134 0 226 103 226 255c0 148 -92 255 -226 255h-110v-208h170v-91h-170v-211h110z" />
    <glyph glyph-name="Dcaron" unicode="&#x10e;" horiz-adv-x="681" 
d="M339 766h-78l-116 131h98l57 -69l57 69h98zM300 700c186 0 327 -149 327 -350c0 -205 -141 -350 -327 -350h-209v700h209zM300 95c134 0 226 103 226 255c0 148 -92 255 -226 255h-110v-510h110z" />
    <glyph glyph-name="Dcroat" unicode="&#x110;" horiz-adv-x="732" 
d="M351 700c186 0 327 -149 327 -350c0 -205 -141 -350 -327 -350h-209v306h-97v91h97v303h209zM351 95c134 0 226 103 226 255c0 148 -92 255 -226 255h-110v-208h170v-91h-170v-211h110z" />
    <glyph glyph-name="E" unicode="E" horiz-adv-x="532" 
d="M480 607h-290v-196h273v-92h-273v-227h290v-92h-389v700h389v-93z" />
    <glyph glyph-name="Eacute" unicode="&#xc9;" horiz-adv-x="532" 
d="M428 922l-131 -151h-87l98 151h120zM480 607h-290v-196h273v-92h-273v-227h290v-92h-389v700h389v-93z" />
    <glyph glyph-name="Ebreve" unicode="&#x114;" horiz-adv-x="532" 
d="M281 762c-84 0 -134 52 -134 138h72c0 -57 30 -72 62 -72c37 0 62 15 62 72h72c0 -86 -44 -138 -134 -138zM480 607h-290v-196h273v-92h-273v-227h290v-92h-389v700h389v-93z" />
    <glyph glyph-name="Ecaron" unicode="&#x11a;" horiz-adv-x="532" 
d="M320 766h-78l-116 131h98l57 -69l57 69h98zM480 607h-290v-196h273v-92h-273v-227h290v-92h-389v700h389v-93z" />
    <glyph glyph-name="Ecircumflex" unicode="&#xca;" horiz-adv-x="532" 
d="M281 835l-57 -69h-98l116 131h78l116 -131h-98zM480 607h-290v-196h273v-92h-273v-227h290v-92h-389v700h389v-93z" />
    <glyph glyph-name="Edieresis" unicode="&#xcb;" horiz-adv-x="532" 
d="M178 770c-37 0 -66 30 -66 66c0 34 29 64 66 64c35 0 63 -30 63 -64c0 -36 -28 -66 -63 -66zM386 770c-37 0 -66 30 -66 66c0 34 29 64 66 64c35 0 63 -30 63 -64c0 -36 -28 -66 -63 -66zM480 607h-290v-196h273v-92h-273v-227h290v-92h-389v700h389v-93z" />
    <glyph glyph-name="Edotaccent" unicode="&#x116;" horiz-adv-x="532" 
d="M282 771c-37 0 -66 30 -66 66c0 34 29 64 66 64c35 0 63 -30 63 -64c0 -36 -28 -66 -63 -66zM480 607h-290v-196h273v-92h-273v-227h290v-92h-389v700h389v-93z" />
    <glyph glyph-name="Egrave" unicode="&#xc8;" horiz-adv-x="532" 
d="M340 771h-87l-131 151h120zM480 607h-290v-196h273v-92h-273v-227h290v-92h-389v700h389v-93z" />
    <glyph glyph-name="Emacron" unicode="&#x112;" horiz-adv-x="532" 
d="M445 856v-69h-329v69h329zM480 607h-290v-196h273v-92h-273v-227h290v-92h-389v700h389v-93z" />
    <glyph glyph-name="Eogonek" unicode="&#x118;" horiz-adv-x="532" 
d="M480 607h-290v-196h273v-92h-273v-227h290v-92h-50c-60 -29 -83 -56 -83 -80c0 -25 19 -35 39 -35c14 0 31 4 49 12v-73c-21 -9 -44 -14 -65 -14c-57 0 -97 38 -97 88c0 37 23 75 70 102h-252v700h389v-93z" />
    <glyph glyph-name="F" unicode="F" horiz-adv-x="506" 
d="M478 607h-288v-195h271v-92h-271v-320h-99v700h387v-93z" />
    <glyph glyph-name="G" unicode="G" horiz-adv-x="742" 
d="M378 -14c-184 0 -324 152 -324 367c0 209 133 361 327 361c164 0 282 -108 282 -254h-100c0 81 -61 159 -181 159c-143 0 -227 -110 -227 -267c0 -161 89 -271 229 -271c125 0 192 89 195 200h-228v86h316v-367h-82v83c-34 -59 -115 -97 -207 -97z" />
    <glyph glyph-name="Gbreve" unicode="&#x11e;" horiz-adv-x="742" 
d="M505 900c0 -86 -44 -138 -134 -138c-84 0 -134 52 -134 138h72c0 -57 30 -72 62 -72c37 0 62 15 62 72h72zM378 -14c-184 0 -324 152 -324 367c0 209 133 361 327 361c164 0 282 -108 282 -254h-100c0 81 -61 159 -181 159c-143 0 -227 -110 -227 -267
c0 -161 89 -271 229 -271c125 0 192 89 195 200h-228v86h316v-367h-82v83c-34 -59 -115 -97 -207 -97z" />
    <glyph glyph-name="Gcircumflex" unicode="&#x11c;" horiz-adv-x="742" 
d="M371 835l-57 -69h-98l116 131h78l116 -131h-98zM351 367h316v-367h-82v83c-34 -59 -115 -97 -207 -97c-184 0 -324 152 -324 367c0 209 133 361 327 361c164 0 282 -108 282 -254h-100c0 81 -61 159 -181 159c-143 0 -227 -110 -227 -267c0 -161 89 -271 229 -271
c125 0 192 89 195 200h-228v86z" />
    <glyph glyph-name="Gcommaaccent" unicode="&#x122;" horiz-adv-x="742" 
d="M378 -14c-184 0 -324 152 -324 367c0 209 133 361 327 361c164 0 282 -108 282 -254h-100c0 81 -61 159 -181 159c-143 0 -227 -110 -227 -267c0 -161 89 -271 229 -271c125 0 192 89 195 200h-228v86h316v-367h-82v83c-34 -59 -115 -97 -207 -97zM423 -58v-97
c0 -45 -22 -69 -74 -94l-27 33c29 11 51 26 51 48v13h-54v97h104z" />
    <glyph glyph-name="Gdotaccent" unicode="&#x120;" horiz-adv-x="742" 
d="M371 770c-37 0 -66 30 -66 66c0 34 29 64 66 64c35 0 63 -30 63 -64c0 -36 -28 -66 -63 -66zM378 -14c-184 0 -324 152 -324 367c0 209 133 361 327 361c164 0 282 -108 282 -254h-100c0 81 -61 159 -181 159c-143 0 -227 -110 -227 -267c0 -161 89 -271 229 -271
c125 0 192 89 195 200h-228v86h316v-367h-82v83c-34 -59 -115 -97 -207 -97z" />
    <glyph glyph-name="H" unicode="H" horiz-adv-x="672" 
d="M482 700h99v-700h-99v309h-292v-309h-99v700h99v-298h292v298z" />
    <glyph glyph-name="Hbar" unicode="&#x126;" horiz-adv-x="662" 
d="M627 595v-81h-49v-514h-99v309h-292v-309h-99v514h-53v81h53v105h99v-105h292v105h99v-105h49zM479 402v112h-292v-112h292z" />
    <glyph glyph-name="Hcircumflex" unicode="&#x124;" horiz-adv-x="672" 
d="M336 835l-57 -69h-98l116 131h78l116 -131h-98zM482 700h99v-700h-99v309h-292v-309h-99v700h99v-298h292v298z" />
    <glyph glyph-name="I" unicode="I" horiz-adv-x="281" 
d="M190 700v-700h-99v700h99z" />
    <glyph glyph-name="IJ" unicode="&#x132;" horiz-adv-x="807" 
d="M190 700v-700h-99v700h99zM407 238v-36c0 -78 39 -122 110 -122s110 44 110 122v498h99v-489c0 -145 -74 -225 -209 -225s-209 77 -209 216v36h99z" />
    <glyph glyph-name="Iacute" unicode="&#xcd;" horiz-adv-x="281" 
d="M288 922l-131 -151h-87l98 151h120zM190 700v-700h-99v700h99z" />
    <glyph glyph-name="uni01CF" unicode="&#x1cf;" horiz-adv-x="281" 
d="M180 769h-78l-116 131h98l57 -69l57 69h98zM91 0v700h99v-700h-99z" />
    <glyph glyph-name="Icircumflex" unicode="&#xce;" horiz-adv-x="281" 
d="M180 897l116 -131h-98l-57 69l-57 -69h-98l116 131h78zM91 0v700h99v-700h-99z" />
    <glyph glyph-name="Idieresis" unicode="&#xcf;" horiz-adv-x="281" 
d="M38 770c-37 0 -66 30 -66 66c0 34 29 64 66 64c35 0 63 -30 63 -64c0 -36 -28 -66 -63 -66zM246 770c-37 0 -66 30 -66 66c0 34 29 64 66 64c35 0 63 -30 63 -64c0 -36 -28 -66 -63 -66zM190 700v-700h-99v700h99z" />
    <glyph glyph-name="Idotaccent" unicode="&#x130;" horiz-adv-x="281" 
d="M141 770c-37 0 -66 30 -66 66c0 34 29 64 66 64c35 0 63 -30 63 -64c0 -36 -28 -66 -63 -66zM190 700v-700h-99v700h99z" />
    <glyph glyph-name="Igrave" unicode="&#xcc;" horiz-adv-x="281" 
d="M-18 922h120l98 -151h-87zM190 700v-700h-99v700h99z" />
    <glyph glyph-name="Imacron" unicode="&#x12a;" horiz-adv-x="281" 
d="M305 856v-69h-329v69h329zM190 700v-700h-99v700h99z" />
    <glyph glyph-name="Iogonek" unicode="&#x12e;" horiz-adv-x="281" 
d="M146 -115c14 0 31 4 49 12v-73c-21 -9 -44 -14 -65 -14c-57 0 -97 38 -97 88c0 37 23 75 70 102h-12v700h99v-700c-60 -29 -83 -56 -83 -80c0 -25 19 -35 39 -35z" />
    <glyph glyph-name="Itilde" unicode="&#x128;" horiz-adv-x="281" 
d="M237 900h60c0 -74 -28 -120 -90 -120c-63 0 -97 46 -130 46c-23 0 -32 -21 -32 -48h-60c0 74 28 120 91 120s96 -46 129 -46c23 0 32 21 32 48zM190 700v-700h-99v700h99z" />
    <glyph glyph-name="J" unicode="J" horiz-adv-x="526" 
d="M126 238v-36c0 -78 39 -122 110 -122s110 44 110 122v498h99v-489c0 -145 -74 -225 -209 -225s-209 77 -209 216v36h99z" />
    <glyph glyph-name="Jcircumflex" unicode="&#x134;" horiz-adv-x="526" 
d="M278 835l-57 -69h-98l116 131h78l116 -131h-98zM346 700h99v-489c0 -145 -74 -225 -209 -225s-209 77 -209 216v36h99v-36c0 -78 39 -122 110 -122s110 44 110 122v498z" />
    <glyph glyph-name="K" unicode="K" 
d="M584 0h-121l-273 324v-324h-99v700h99v-306l253 306h120l-281 -339z" />
    <glyph glyph-name="Kcommaaccent" unicode="&#x136;" 
d="M282 361l302 -361h-121l-273 324v-324h-99v700h99v-306l253 306h120zM240 -155v97h104v-97c0 -45 -22 -69 -74 -94l-27 33c29 11 51 26 51 48v13h-54z" />
    <glyph glyph-name="L" unicode="L" horiz-adv-x="498" 
d="M190 700v-607h283v-93h-382v700h99z" />
    <glyph glyph-name="Lacute" unicode="&#x139;" horiz-adv-x="498" 
d="M309 922l-131 -151h-87l98 151h120zM190 700v-607h283v-93h-382v700h99z" />
    <glyph glyph-name="Lcaron" unicode="&#x13d;" horiz-adv-x="498" 
d="M322 717c38 0 69 -31 69 -69c0 -19 -3 -31 -10 -47l-57 -129h-59l46 108c-32 4 -58 33 -58 68c0 38 31 69 69 69zM190 700v-607h283v-93h-382v700h99z" />
    <glyph glyph-name="Lcommaaccent" unicode="&#x13b;" horiz-adv-x="498" 
d="M190 700v-607h283v-93h-382v700h99zM251 -58v-97c0 -45 -22 -69 -74 -94l-27 33c29 11 51 26 51 48v13h-54v97h104z" />
    <glyph glyph-name="Ldot" unicode="&#x13f;" horiz-adv-x="498" 
d="M190 700v-607h283v-93h-382v700h99zM344 345c28 0 49 -21 49 -49s-21 -49 -49 -49s-49 21 -49 49s21 49 49 49z" />
    <glyph glyph-name="Lslash" unicode="&#x141;" horiz-adv-x="402" 
d="M174 93h283v-93h-382v210l-34 -16l-36 80l70 33v393h99v-346l113 53l36 -80l-149 -70v-164z" />
    <glyph glyph-name="M" unicode="M" horiz-adv-x="830" 
d="M591 700h148v-700h-99v582l-174 -383h-102l-174 383v-582h-99v700h148l176 -395z" />
    <glyph glyph-name="N" unicode="N" horiz-adv-x="704" 
d="M514 700h99v-700h-107l-316 530v-530h-99v700h104l319 -527v527z" />
    <glyph glyph-name="Nacute" unicode="&#x143;" horiz-adv-x="704" 
d="M499 922l-131 -151h-87l98 151h120zM514 700h99v-700h-107l-316 530v-530h-99v700h104l319 -527v527z" />
    <glyph glyph-name="Ncaron" unicode="&#x147;" horiz-adv-x="704" 
d="M391 766h-78l-116 131h98l57 -69l57 69h98zM514 700h99v-700h-107l-316 530v-530h-99v700h104l319 -527v527z" />
    <glyph glyph-name="Ncommaaccent" unicode="&#x145;" horiz-adv-x="704" 
d="M514 700h99v-700h-107l-316 530v-530h-99v700h104l319 -527v527zM300 -155v97h104v-97c0 -45 -22 -69 -74 -94l-27 33c29 11 51 26 51 48v13h-54z" />
    <glyph glyph-name="Eng" unicode="&#x14a;" horiz-adv-x="704" 
d="M514 700h99v-756c0 -119 -73 -166 -153 -166h-27v88h16c43 0 69 25 69 76v58l-328 532v-532h-99v700h104l319 -518v518z" />
    <glyph glyph-name="Ntilde" unicode="&#xd1;" horiz-adv-x="704" 
d="M288 823c-23 0 -32 -21 -32 -48h-60c0 74 28 120 91 120s96 -46 129 -46c23 0 32 21 32 48h60c0 -74 -28 -120 -90 -120c-63 0 -97 46 -130 46zM514 700h99v-700h-107l-316 530v-530h-99v700h104l319 -527v527z" />
    <glyph glyph-name="O" unicode="O" horiz-adv-x="762" 
d="M381 714c186 0 327 -153 327 -364s-141 -364 -327 -364s-327 153 -327 364s141 364 327 364zM381 619c-134 0 -226 -111 -226 -269s92 -269 226 -269s226 111 226 269s-92 269 -226 269z" />
    <glyph glyph-name="Oacute" unicode="&#xd3;" horiz-adv-x="762" 
d="M528 922l-131 -151h-87l98 151h120zM381 714c186 0 327 -153 327 -364s-141 -364 -327 -364s-327 153 -327 364s141 364 327 364zM381 619c-134 0 -226 -111 -226 -269s92 -269 226 -269s226 111 226 269s-92 269 -226 269z" />
    <glyph glyph-name="Obreve" unicode="&#x14e;" horiz-adv-x="762" 
d="M515 900c0 -86 -44 -138 -134 -138c-84 0 -134 52 -134 138h72c0 -57 30 -72 62 -72c37 0 62 15 62 72h72zM381 714c186 0 327 -153 327 -364s-141 -364 -327 -364s-327 153 -327 364s141 364 327 364zM381 619c-134 0 -226 -111 -226 -269s92 -269 226 -269
s226 111 226 269s-92 269 -226 269z" />
    <glyph glyph-name="uni01D1" unicode="&#x1d1;" horiz-adv-x="762" 
d="M420 769h-78l-116 131h98l57 -69l57 69h98zM381 714c186 0 327 -153 327 -364s-141 -364 -327 -364s-327 153 -327 364s141 364 327 364zM381 81c134 0 226 111 226 269s-92 269 -226 269s-226 -111 -226 -269s92 -269 226 -269z" />
    <glyph glyph-name="Ocircumflex" unicode="&#xd4;" horiz-adv-x="762" 
d="M381 835l-57 -69h-98l116 131h78l116 -131h-98zM381 714c186 0 327 -153 327 -364s-141 -364 -327 -364s-327 153 -327 364s141 364 327 364zM381 81c134 0 226 111 226 269s-92 269 -226 269s-226 -111 -226 -269s92 -269 226 -269z" />
    <glyph glyph-name="Odieresis" unicode="&#xd6;" horiz-adv-x="762" 
d="M278 770c-37 0 -66 30 -66 66c0 34 29 64 66 64c35 0 63 -30 63 -64c0 -36 -28 -66 -63 -66zM486 770c-37 0 -66 30 -66 66c0 34 29 64 66 64c35 0 63 -30 63 -64c0 -36 -28 -66 -63 -66zM381 714c186 0 327 -153 327 -364s-141 -364 -327 -364s-327 153 -327 364
s141 364 327 364zM381 619c-134 0 -226 -111 -226 -269s92 -269 226 -269s226 111 226 269s-92 269 -226 269z" />
    <glyph glyph-name="Ograve" unicode="&#xd2;" horiz-adv-x="762" 
d="M222 922h120l98 -151h-87zM381 714c186 0 327 -153 327 -364s-141 -364 -327 -364s-327 153 -327 364s141 364 327 364zM381 619c-134 0 -226 -111 -226 -269s92 -269 226 -269s226 111 226 269s-92 269 -226 269z" />
    <glyph glyph-name="Ohungarumlaut" unicode="&#x150;" horiz-adv-x="762" 
d="M416 888l-103 -131h-87l78 131h112zM583 888l-103 -131h-87l78 131h112zM381 714c186 0 327 -153 327 -364s-141 -364 -327 -364s-327 153 -327 364s141 364 327 364zM381 619c-134 0 -226 -111 -226 -269s92 -269 226 -269s226 111 226 269s-92 269 -226 269z" />
    <glyph glyph-name="Omacron" unicode="&#x14c;" horiz-adv-x="762" 
d="M545 856v-69h-329v69h329zM381 714c186 0 327 -153 327 -364s-141 -364 -327 -364s-327 153 -327 364s141 364 327 364zM381 619c-134 0 -226 -111 -226 -269s92 -269 226 -269s226 111 226 269s-92 269 -226 269z" />
    <glyph glyph-name="Oslash" unicode="&#xd8;" horiz-adv-x="762" 
d="M627 596c51 -63 81 -148 81 -246c0 -211 -141 -364 -327 -364c-65 0 -125 19 -175 52l-29 -38h-102l70 92c-57 65 -91 154 -91 258c0 211 141 364 327 364c70 0 134 -22 187 -61l35 47h102zM155 350c0 -70 18 -131 50 -177l305 404c-36 27 -79 42 -129 42
c-134 0 -226 -111 -226 -269zM381 81c134 0 226 111 226 269c0 64 -15 120 -42 165l-301 -400c33 -22 73 -34 117 -34z" />
    <glyph glyph-name="Otilde" unicode="&#xd5;" horiz-adv-x="762" 
d="M477 897h60c0 -74 -28 -120 -90 -120c-63 0 -97 46 -130 46c-23 0 -32 -21 -32 -48h-60c0 74 28 120 91 120s96 -46 129 -46c23 0 32 21 32 48zM381 714c186 0 327 -153 327 -364s-141 -364 -327 -364s-327 153 -327 364s141 364 327 364zM381 619
c-134 0 -226 -111 -226 -269s92 -269 226 -269s226 111 226 269s-92 269 -226 269z" />
    <glyph glyph-name="OE" unicode="&#x152;" horiz-adv-x="1047" 
d="M995 607h-290v-196h273v-92h-273v-227h290v-92h-389v91c-58 -70 -136 -105 -225 -105c-186 0 -327 153 -327 364s141 364 327 364c89 0 167 -35 225 -105v91h389v-93zM381 81c133 0 225 111 225 269s-92 269 -225 269s-225 -111 -225 -269s92 -269 225 -269z" />
    <glyph glyph-name="P" unicode="P" horiz-adv-x="568" 
d="M307 700c147 0 225 -96 225 -210s-78 -211 -225 -211h-117v-279h-99v700h216zM291 372c102 0 140 52 140 118s-38 117 -140 117h-101v-235h101z" />
    <glyph glyph-name="Thorn" unicode="&#xde;" horiz-adv-x="564" 
d="M307 576c146 0 224 -96 224 -210s-78 -211 -224 -211h-117v-155h-99v700h99v-124h117zM291 248c102 0 140 52 140 118s-38 117 -140 117h-101v-235h101z" />
    <glyph glyph-name="Q" unicode="Q" horiz-adv-x="762" 
d="M708 350c0 -113 -41 -210 -107 -275l83 -118h-116l-44 63c-43 -22 -91 -34 -143 -34c-186 0 -327 153 -327 364s141 364 327 364s327 -153 327 -364zM381 81c32 0 61 6 87 18l-100 141h116l60 -84c40 47 63 115 63 194c0 158 -92 269 -226 269s-226 -111 -226 -269
s92 -269 226 -269z" />
    <glyph glyph-name="R" unicode="R" 
d="M432 0l-153 279h-89v-279h-99v700h216c147 0 225 -96 225 -210c0 -93 -52 -175 -151 -202l161 -288h-110zM190 607v-235h101c102 0 140 52 140 118s-38 117 -140 117h-101z" />
    <glyph glyph-name="Racute" unicode="&#x154;" 
d="M427 922l-131 -151h-87l98 151h120zM432 0l-153 279h-89v-279h-99v700h216c147 0 225 -96 225 -210c0 -93 -52 -175 -151 -202l161 -288h-110zM190 607v-235h101c102 0 140 52 140 118s-38 117 -140 117h-101z" />
    <glyph glyph-name="Rcaron" unicode="&#x158;" 
d="M319 766h-78l-116 131h98l57 -69l57 69h98zM432 0l-153 279h-89v-279h-99v700h216c147 0 225 -96 225 -210c0 -93 -52 -175 -151 -202l161 -288h-110zM190 607v-235h101c102 0 140 52 140 118s-38 117 -140 117h-101z" />
    <glyph glyph-name="Rcommaaccent" unicode="&#x156;" 
d="M381 288l161 -288h-110l-153 279h-89v-279h-99v700h216c147 0 225 -96 225 -210c0 -93 -52 -175 -151 -202zM190 607v-235h101c102 0 140 52 140 118s-38 117 -140 117h-101zM248 -155v97h104v-97c0 -45 -22 -69 -74 -94l-27 33c29 11 51 26 51 48v13h-54z" />
    <glyph glyph-name="S" unicode="S" horiz-adv-x="559" 
d="M289 -14c-155 0 -246 102 -246 236h102c0 -90 57 -140 144 -141c91 -1 125 42 125 99c0 44 -22 77 -90 106l-131 56c-75 32 -131 82 -131 176c0 120 100 196 210 196c132 0 236 -83 236 -225h-101c0 65 -40 130 -131 130c-73 0 -113 -41 -113 -94c0 -45 30 -76 76 -95
l138 -58c88 -37 138 -101 138 -187c0 -110 -83 -199 -226 -199z" />
    <glyph glyph-name="Sacute" unicode="&#x15a;" horiz-adv-x="559" 
d="M444 922l-131 -151h-87l98 151h120zM289 -14c-155 0 -246 102 -246 236h102c0 -90 57 -140 144 -141c91 -1 125 42 125 99c0 44 -22 77 -90 106l-131 56c-75 32 -131 82 -131 176c0 120 100 196 210 196c132 0 236 -83 236 -225h-101c0 65 -40 130 -131 130
c-73 0 -113 -41 -113 -94c0 -45 30 -76 76 -95l138 -58c88 -37 138 -101 138 -187c0 -110 -83 -199 -226 -199z" />
    <glyph glyph-name="Scaron" unicode="&#x160;" horiz-adv-x="559" 
d="M336 766h-78l-116 131h98l57 -69l57 69h98zM377 372c88 -37 138 -101 138 -187c0 -110 -83 -199 -226 -199c-155 0 -246 102 -246 236h102c0 -90 57 -140 144 -141c91 -1 125 42 125 99c0 44 -22 77 -90 106l-131 56c-75 32 -131 82 -131 176c0 120 100 196 210 196
c132 0 236 -83 236 -225h-101c0 65 -40 130 -131 130c-73 0 -113 -41 -113 -94c0 -45 30 -76 76 -95z" />
    <glyph glyph-name="Scedilla" unicode="&#x15e;" horiz-adv-x="559" 
d="M289 -14c-155 0 -246 102 -246 236h102c0 -90 57 -140 144 -141c91 -1 125 42 125 99c0 44 -22 77 -90 106l-131 56c-75 32 -131 82 -131 176c0 120 100 196 210 196c132 0 236 -83 236 -225h-101c0 65 -40 130 -131 130c-73 0 -113 -41 -113 -94c0 -45 30 -76 76 -95
l138 -58c88 -37 138 -101 138 -187c0 -110 -83 -199 -226 -199zM341 -67l-72 -160l-104 44l108 116h68z" />
    <glyph glyph-name="Scircumflex" unicode="&#x15c;" horiz-adv-x="559" 
d="M297 835l-57 -69h-98l116 131h78l116 -131h-98zM377 372c88 -37 138 -101 138 -187c0 -110 -83 -199 -226 -199c-155 0 -246 102 -246 236h102c0 -90 57 -140 144 -141c91 -1 125 42 125 99c0 44 -22 77 -90 106l-131 56c-75 32 -131 82 -131 176c0 120 100 196 210 196
c132 0 236 -83 236 -225h-101c0 65 -40 130 -131 130c-73 0 -113 -41 -113 -94c0 -45 30 -76 76 -95z" />
    <glyph glyph-name="Scommaaccent" unicode="&#x218;" horiz-adv-x="559" 
d="M289 -14c-155 0 -246 102 -246 236h102c0 -90 57 -140 144 -141c91 -1 125 42 125 99c0 44 -22 77 -90 106l-131 56c-75 32 -131 82 -131 176c0 120 100 196 210 196c132 0 236 -83 236 -225h-101c0 65 -40 130 -131 130c-73 0 -113 -41 -113 -94c0 -45 30 -76 76 -95
l138 -58c88 -37 138 -101 138 -187c0 -110 -83 -199 -226 -199zM345 -58v-97c0 -45 -22 -69 -74 -94l-27 33c29 11 51 26 51 48v13h-54v97h104z" />
    <glyph glyph-name="T" unicode="T" horiz-adv-x="536" 
d="M501 700v-91h-184v-609h-99v609h-183v91h466z" />
    <glyph glyph-name="Tbar" unicode="&#x166;" horiz-adv-x="536" 
d="M501 609h-184v-184h115v-80h-115v-345h-99v345h-114v80h114v184h-183v91h466v-91z" />
    <glyph glyph-name="Tcaron" unicode="&#x164;" horiz-adv-x="536" 
d="M307 766h-78l-116 131h98l57 -69l57 69h98zM501 700v-91h-184v-609h-99v609h-183v91h466z" />
    <glyph glyph-name="uni0162" unicode="&#x162;" horiz-adv-x="536" 
d="M501 700v-91h-184v-609h-99v609h-183v91h466zM125 -174l108 116h68l-72 -160z" />
    <glyph glyph-name="uni021A" unicode="&#x21a;" horiz-adv-x="536" 
d="M501 700v-91h-184v-609h-99v609h-183v91h466zM201 -146v97h104v-97c0 -45 -22 -69 -74 -94l-27 33c29 11 51 26 51 48v13h-54z" />
    <glyph glyph-name="U" unicode="U" horiz-adv-x="680" 
d="M599 700v-437c0 -183 -105 -277 -259 -277s-259 94 -259 277v437h99v-430c0 -136 62 -189 160 -189s160 53 160 189v430h99z" />
    <glyph glyph-name="Uacute" unicode="&#xda;" horiz-adv-x="680" 
d="M487 909l-131 -151h-87l98 151h120zM599 700v-437c0 -183 -105 -277 -259 -277s-259 94 -259 277v437h99v-430c0 -136 62 -189 160 -189s160 53 160 189v430h99z" />
    <glyph glyph-name="Ubreve" unicode="&#x16c;" horiz-adv-x="680" 
d="M474 887c0 -86 -44 -138 -134 -138c-84 0 -134 52 -134 138h72c0 -57 30 -72 62 -72c37 0 62 15 62 72h72zM599 700v-437c0 -183 -105 -277 -259 -277s-259 94 -259 277v437h99v-430c0 -136 62 -189 160 -189s160 53 160 189v430h99z" />
    <glyph glyph-name="uni01D3" unicode="&#x1d3;" horiz-adv-x="680" 
d="M379 756h-78l-116 131h98l57 -69l57 69h98zM500 700h99v-437c0 -183 -105 -277 -259 -277s-259 94 -259 277v437h99v-430c0 -136 62 -189 160 -189s160 53 160 189v430z" />
    <glyph glyph-name="Ucircumflex" unicode="&#xdb;" horiz-adv-x="680" 
d="M340 822l-57 -69h-98l116 131h78l116 -131h-98zM500 700h99v-437c0 -183 -105 -277 -259 -277s-259 94 -259 277v437h99v-430c0 -136 62 -189 160 -189s160 53 160 189v430z" />
    <glyph glyph-name="Udieresis" unicode="&#xdc;" horiz-adv-x="680" 
d="M237 757c-37 0 -66 30 -66 66c0 34 29 64 66 64c35 0 63 -30 63 -64c0 -36 -28 -66 -63 -66zM445 757c-37 0 -66 30 -66 66c0 34 29 64 66 64c35 0 63 -30 63 -64c0 -36 -28 -66 -63 -66zM599 700v-437c0 -183 -105 -277 -259 -277s-259 94 -259 277v437h99v-430
c0 -136 62 -189 160 -189s160 53 160 189v430h99z" />
    <glyph glyph-name="Ugrave" unicode="&#xd9;" horiz-adv-x="680" 
d="M181 909h120l98 -151h-87zM599 700v-437c0 -183 -105 -277 -259 -277s-259 94 -259 277v437h99v-430c0 -136 62 -189 160 -189s160 53 160 189v430h99z" />
    <glyph glyph-name="Uhungarumlaut" unicode="&#x170;" horiz-adv-x="680" 
d="M375 875l-103 -131h-87l78 131h112zM542 875l-103 -131h-87l78 131h112zM599 700v-437c0 -183 -105 -277 -259 -277s-259 94 -259 277v437h99v-430c0 -136 62 -189 160 -189s160 53 160 189v430h99z" />
    <glyph glyph-name="Umacron" unicode="&#x16a;" horiz-adv-x="680" 
d="M504 843v-69h-329v69h329zM599 700v-437c0 -183 -105 -277 -259 -277s-259 94 -259 277v437h99v-430c0 -136 62 -189 160 -189s160 53 160 189v430h99z" />
    <glyph glyph-name="Uogonek" unicode="&#x172;" horiz-adv-x="680" 
d="M500 700h99v-437c0 -142 -64 -231 -164 -263c-60 -29 -83 -56 -83 -80c0 -25 19 -35 39 -35c14 0 31 4 49 12v-73c-21 -9 -44 -14 -65 -14c-57 0 -97 38 -97 88c0 31 16 63 49 88c-147 5 -246 99 -246 277v437h99v-430c0 -136 62 -189 160 -189s160 53 160 189v430z" />
    <glyph glyph-name="Uring" unicode="&#x16e;" horiz-adv-x="680" 
d="M339 901c50 0 88 -38 88 -87s-38 -87 -88 -87c-49 0 -87 38 -87 87s38 87 87 87zM339 856c-22 0 -42 -20 -42 -42c0 -24 20 -43 42 -43s42 19 42 43c0 22 -20 42 -42 42zM599 700v-437c0 -183 -105 -277 -259 -277s-259 94 -259 277v437h99v-430c0 -136 62 -189 160 -189
s160 53 160 189v430h99z" />
    <glyph glyph-name="Utilde" unicode="&#x168;" horiz-adv-x="680" 
d="M436 887h60c0 -74 -28 -120 -90 -120c-63 0 -97 46 -130 46c-23 0 -32 -21 -32 -48h-60c0 74 28 120 91 120s96 -46 129 -46c23 0 32 21 32 48zM599 700v-437c0 -183 -105 -277 -259 -277s-259 94 -259 277v437h99v-430c0 -136 62 -189 160 -189s160 53 160 189v430h99z
" />
    <glyph glyph-name="V" unicode="V" horiz-adv-x="593" 
d="M482 700h107l-243 -700h-99l-243 700h107l186 -563z" />
    <glyph glyph-name="W" unicode="W" horiz-adv-x="1034" 
d="M914 700h107l-228 -700h-98l-178 553l-178 -553h-98l-228 700h107l171 -559l169 559h114l170 -559z" />
    <glyph glyph-name="Wacute" unicode="&#x1e82;" horiz-adv-x="1078" 
d="M688 922l-131 -151h-87l98 151h120zM914 700h107l-228 -700h-98l-178 553l-178 -553h-98l-228 700h107l171 -559l169 559h114l170 -559z" />
    <glyph glyph-name="Wcircumflex" unicode="&#x174;" horiz-adv-x="1078" 
d="M541 835l-57 -69h-98l116 131h78l116 -131h-98zM914 700h107l-228 -700h-98l-178 553l-178 -553h-98l-228 700h107l171 -559l169 559h114l170 -559z" />
    <glyph glyph-name="Wdieresis" unicode="&#x1e84;" horiz-adv-x="1078" 
d="M438 770c-37 0 -66 30 -66 66c0 34 29 64 66 64c35 0 63 -30 63 -64c0 -36 -28 -66 -63 -66zM646 770c-37 0 -66 30 -66 66c0 34 29 64 66 64c35 0 63 -30 63 -64c0 -36 -28 -66 -63 -66zM914 700h107l-228 -700h-98l-178 553l-178 -553h-98l-228 700h107l171 -559
l169 559h114l170 -559z" />
    <glyph glyph-name="Wgrave" unicode="&#x1e80;" horiz-adv-x="1078" 
d="M600 771h-87l-131 151h120zM914 700h107l-228 -700h-98l-178 553l-178 -553h-98l-228 700h107l171 -559l169 559h114l170 -559z" />
    <glyph glyph-name="X" unicode="X" horiz-adv-x="558" 
d="M533 0h-109l-145 261l-145 -261h-109l200 359l-190 341h109l135 -243l135 243h109l-189 -341z" />
    <glyph glyph-name="Y" unicode="Y" horiz-adv-x="592" 
d="M481 700h107l-242 -459v-241h-99v241l-243 459h107l185 -360z" />
    <glyph glyph-name="Yacute" unicode="&#xdd;" horiz-adv-x="592" 
d="M443 922l-131 -151h-87l98 151h120zM481 700h107l-242 -459v-241h-99v241l-243 459h107l185 -360z" />
    <glyph glyph-name="Ycircumflex" unicode="&#x176;" horiz-adv-x="592" 
d="M296 835l-57 -69h-98l116 131h78l116 -131h-98zM481 700h107l-242 -459v-241h-99v241l-243 459h107l185 -360z" />
    <glyph glyph-name="Ydieresis" unicode="&#x178;" horiz-adv-x="592" 
d="M193 770c-37 0 -66 30 -66 66c0 34 29 64 66 64c35 0 63 -30 63 -64c0 -36 -28 -66 -63 -66zM401 770c-37 0 -66 30 -66 66c0 34 29 64 66 64c35 0 63 -30 63 -64c0 -36 -28 -66 -63 -66zM481 700h107l-242 -459v-241h-99v241l-243 459h107l185 -360z" />
    <glyph glyph-name="Ygrave" unicode="&#x1ef2;" horiz-adv-x="592" 
d="M355 771h-87l-131 151h120zM481 700h107l-242 -459v-241h-99v241l-243 459h107l185 -360z" />
    <glyph glyph-name="Z" unicode="Z" horiz-adv-x="555" 
d="M156 93h366v-93h-479v82l355 525h-341v93h455v-86z" />
    <glyph glyph-name="Zacute" unicode="&#x179;" horiz-adv-x="555" 
d="M439 922l-131 -151h-87l98 151h120zM156 93h366v-93h-479v82l355 525h-341v93h455v-86z" />
    <glyph glyph-name="Zcaron" unicode="&#x17d;" horiz-adv-x="555" 
d="M331 766h-78l-116 131h98l57 -69l57 69h98zM156 93h366v-93h-479v82l355 525h-341v93h455v-86z" />
    <glyph glyph-name="Zdotaccent" unicode="&#x17b;" horiz-adv-x="555" 
d="M293 771c-37 0 -66 30 -66 66c0 34 29 64 66 64c35 0 63 -30 63 -64c0 -36 -28 -66 -63 -66zM156 93h366v-93h-479v82l355 525h-341v93h455v-86z" />
    <glyph glyph-name="I.alt" horiz-adv-x="281" 
d="M190 700v-700h-99v700h99z" />
    <glyph glyph-name="a" unicode="a" horiz-adv-x="513" 
d="M192 -14c-81 0 -149 40 -149 132c0 98 77 147 188 178l125 35c0 70 -40 101 -100 101c-54 0 -105 -25 -105 -96h-96c0 136 106 180 197 180c90 0 199 -42 199 -178v-338h-87v67c-35 -47 -98 -81 -172 -81zM203 71c56 0 153 47 153 124v55l-110 -31
c-81 -23 -106 -57 -106 -92c0 -40 31 -56 63 -56z" />
    <glyph glyph-name="aacute" unicode="&#xe1;" horiz-adv-x="513" 
d="M404 724l-131 -151h-87l98 151h120zM192 -14c-81 0 -149 40 -149 132c0 98 77 147 188 178l125 35c0 70 -40 101 -100 101c-54 0 -105 -25 -105 -96h-96c0 136 106 180 197 180c90 0 199 -42 199 -178v-338h-87v67c-35 -47 -98 -81 -172 -81zM203 71c56 0 153 47 153 124
v55l-110 -31c-81 -23 -106 -57 -106 -92c0 -40 31 -56 63 -56z" />
    <glyph glyph-name="abreve" unicode="&#x103;" horiz-adv-x="513" 
d="M391 699c0 -86 -44 -138 -134 -138c-84 0 -134 52 -134 138h72c0 -57 30 -72 62 -72c37 0 62 15 62 72h72zM192 -14c-81 0 -149 40 -149 132c0 98 77 147 188 178l125 35c0 70 -40 101 -100 101c-54 0 -105 -25 -105 -96h-96c0 136 106 180 197 180
c90 0 199 -42 199 -178v-338h-87v67c-35 -47 -98 -81 -172 -81zM203 71c56 0 153 47 153 124v55l-110 -31c-81 -23 -106 -57 -106 -92c0 -40 31 -56 63 -56z" />
    <glyph glyph-name="uni01CE" unicode="&#x1ce;" horiz-adv-x="513" 
d="M296 571h-78l-116 131h98l57 -69l57 69h98zM252 516c90 0 199 -42 199 -178v-338h-87v67c-35 -47 -98 -81 -172 -81c-81 0 -149 40 -149 132c0 98 77 147 188 178l125 35c0 70 -40 101 -100 101c-54 0 -105 -25 -105 -96h-96c0 136 106 180 197 180zM356 195v55l-110 -31
c-81 -23 -106 -57 -106 -92c0 -40 31 -56 63 -56c56 0 153 47 153 124z" />
    <glyph glyph-name="acircumflex" unicode="&#xe2;" horiz-adv-x="513" 
d="M257 637l-57 -69h-98l116 131h78l116 -131h-98zM252 516c90 0 199 -42 199 -178v-338h-87v67c-35 -47 -98 -81 -172 -81c-81 0 -149 40 -149 132c0 98 77 147 188 178l125 35c0 70 -40 101 -100 101c-54 0 -105 -25 -105 -96h-96c0 136 106 180 197 180zM356 195v55
l-110 -31c-81 -23 -106 -57 -106 -92c0 -40 31 -56 63 -56c56 0 153 47 153 124z" />
    <glyph glyph-name="adieresis" unicode="&#xe4;" horiz-adv-x="513" 
d="M154 572c-37 0 -66 30 -66 66c0 34 29 64 66 64c35 0 63 -30 63 -64c0 -36 -28 -66 -63 -66zM362 572c-37 0 -66 30 -66 66c0 34 29 64 66 64c35 0 63 -30 63 -64c0 -36 -28 -66 -63 -66zM192 -14c-81 0 -149 40 -149 132c0 98 77 147 188 178l125 35
c0 70 -40 101 -100 101c-54 0 -105 -25 -105 -96h-96c0 136 106 180 197 180c90 0 199 -42 199 -178v-338h-87v67c-35 -47 -98 -81 -172 -81zM203 71c56 0 153 47 153 124v55l-110 -31c-81 -23 -106 -57 -106 -92c0 -40 31 -56 63 -56z" />
    <glyph glyph-name="agrave" unicode="&#xe0;" horiz-adv-x="513" 
d="M98 724h120l98 -151h-87zM192 -14c-81 0 -149 40 -149 132c0 98 77 147 188 178l125 35c0 70 -40 101 -100 101c-54 0 -105 -25 -105 -96h-96c0 136 106 180 197 180c90 0 199 -42 199 -178v-338h-87v67c-35 -47 -98 -81 -172 -81zM203 71c56 0 153 47 153 124v55
l-110 -31c-81 -23 -106 -57 -106 -92c0 -40 31 -56 63 -56z" />
    <glyph glyph-name="amacron" unicode="&#x101;" horiz-adv-x="513" 
d="M421 658v-69h-329v69h329zM192 -14c-81 0 -149 40 -149 132c0 98 77 147 188 178l125 35c0 70 -40 101 -100 101c-54 0 -105 -25 -105 -96h-96c0 136 106 180 197 180c90 0 199 -42 199 -178v-338h-87v67c-35 -47 -98 -81 -172 -81zM203 71c56 0 153 47 153 124v55
l-110 -31c-81 -23 -106 -57 -106 -92c0 -40 31 -56 63 -56z" />
    <glyph glyph-name="aogonek" unicode="&#x105;" horiz-adv-x="513" 
d="M407 -115c14 0 31 4 49 12v-73c-21 -9 -44 -14 -65 -14c-57 0 -97 38 -97 88c0 37 23 75 70 102v67c-35 -47 -98 -81 -172 -81c-81 0 -149 40 -149 132c0 98 77 147 188 178l125 35c0 70 -40 101 -100 101c-54 0 -105 -25 -105 -96h-96c0 136 106 180 197 180
c90 0 199 -42 199 -178v-338c-60 -29 -83 -56 -83 -80c0 -25 19 -35 39 -35zM356 195v55l-110 -31c-81 -23 -106 -57 -106 -92c0 -40 31 -56 63 -56c56 0 153 47 153 124z" />
    <glyph glyph-name="aring" unicode="&#xe5;" horiz-adv-x="513" 
d="M256 716c50 0 88 -38 88 -87s-38 -87 -88 -87c-49 0 -87 38 -87 87s38 87 87 87zM256 671c-22 0 -42 -20 -42 -42c0 -24 20 -43 42 -43s42 19 42 43c0 22 -20 42 -42 42zM192 -14c-81 0 -149 40 -149 132c0 98 77 147 188 178l125 35c0 70 -40 101 -100 101
c-54 0 -105 -25 -105 -96h-96c0 136 106 180 197 180c90 0 199 -42 199 -178v-338h-87v67c-35 -47 -98 -81 -172 -81zM203 71c56 0 153 47 153 124v55l-110 -31c-81 -23 -106 -57 -106 -92c0 -40 31 -56 63 -56z" />
    <glyph glyph-name="atilde" unicode="&#xe3;" horiz-adv-x="513" 
d="M353 699h60c0 -74 -28 -120 -90 -120c-63 0 -97 46 -130 46c-23 0 -32 -21 -32 -48h-60c0 74 28 120 91 120s96 -46 129 -46c23 0 32 21 32 48zM192 -14c-81 0 -149 40 -149 132c0 98 77 147 188 178l125 35c0 70 -40 101 -100 101c-54 0 -105 -25 -105 -96h-96
c0 136 106 180 197 180c90 0 199 -42 199 -178v-338h-87v67c-35 -47 -98 -81 -172 -81zM203 71c56 0 153 47 153 124v55l-110 -31c-81 -23 -106 -57 -106 -92c0 -40 31 -56 63 -56z" />
    <glyph glyph-name="ae" unicode="&#xe6;" horiz-adv-x="863" 
d="M819 274v-61h-364c5 -69 45 -142 144 -142c62 0 110 25 124 86h91c-19 -115 -112 -171 -217 -171c-86 0 -158 41 -201 109c-46 -72 -126 -109 -204 -109c-81 0 -149 40 -149 132c0 98 77 147 188 178l125 35c0 70 -40 101 -100 101c-54 0 -105 -25 -105 -96h-96
c0 136 106 180 197 180c61 0 131 -19 170 -75c41 47 100 75 169 75c129 0 228 -88 228 -242zM454 290h269c-3 86 -51 141 -132 141c-91 0 -132 -67 -137 -141zM356 195v55l-110 -31c-81 -23 -106 -57 -106 -92c0 -40 31 -56 63 -56c56 0 153 47 153 124z" />
    <glyph glyph-name="b" unicode="b" horiz-adv-x="608" 
d="M326 -14c-59 0 -113 23 -151 66v-52h-90v758h95v-303c38 40 90 61 146 61c130 0 228 -110 228 -265s-98 -265 -228 -265zM315 73c88 0 142 68 142 178s-54 178 -142 178c-87 0 -140 -68 -140 -178s53 -178 140 -178z" />
    <glyph glyph-name="c" unicode="c" horiz-adv-x="532" 
d="M292 516c119 0 202 -77 213 -193h-93c-8 64 -56 106 -120 106c-92 0 -142 -68 -142 -178c0 -108 48 -178 144 -178c63 0 110 42 118 106h93c-11 -116 -95 -193 -211 -193c-138 0 -241 109 -241 265s101 265 239 265z" />
    <glyph glyph-name="cacute" unicode="&#x107;" horiz-adv-x="532" 
d="M435 722l-131 -151h-87l98 151h120zM292 516c119 0 202 -77 213 -193h-93c-8 64 -56 106 -120 106c-92 0 -142 -68 -142 -178c0 -108 48 -178 144 -178c63 0 110 42 118 106h93c-11 -116 -95 -193 -211 -193c-138 0 -241 109 -241 265s101 265 239 265z" />
    <glyph glyph-name="ccaron" unicode="&#x10d;" horiz-adv-x="532" 
d="M327 566h-78l-116 131h98l57 -69l57 69h98zM294 73c63 0 110 42 118 106h93c-11 -116 -95 -193 -211 -193c-138 0 -241 109 -241 265s101 265 239 265c119 0 202 -77 213 -193h-93c-8 64 -56 106 -120 106c-92 0 -142 -68 -142 -178c0 -108 48 -178 144 -178z" />
    <glyph glyph-name="ccedilla" unicode="&#xe7;" horiz-adv-x="532" 
d="M292 516c119 0 202 -77 213 -193h-93c-8 64 -56 106 -120 106c-92 0 -142 -68 -142 -178c0 -108 48 -178 144 -178c63 0 110 42 118 106h93c-11 -116 -95 -193 -211 -193c-138 0 -241 109 -241 265s101 265 239 265zM326 -67l-72 -160l-104 44l108 116h68z" />
    <glyph glyph-name="ccircumflex" unicode="&#x109;" horiz-adv-x="532" 
d="M288 635l-57 -69h-98l116 131h78l116 -131h-98zM294 73c63 0 110 42 118 106h93c-11 -116 -95 -193 -211 -193c-138 0 -241 109 -241 265s101 265 239 265c119 0 202 -77 213 -193h-93c-8 64 -56 106 -120 106c-92 0 -142 -68 -142 -178c0 -108 48 -178 144 -178z" />
    <glyph glyph-name="cdotaccent" unicode="&#x10b;" horiz-adv-x="532" 
d="M288 570c-37 0 -66 30 -66 66c0 34 29 64 66 64c35 0 63 -30 63 -64c0 -36 -28 -66 -63 -66zM292 516c119 0 202 -77 213 -193h-93c-8 64 -56 106 -120 106c-92 0 -142 -68 -142 -178c0 -108 48 -178 144 -178c63 0 110 42 118 106h93c-11 -116 -95 -193 -211 -193
c-138 0 -241 109 -241 265s101 265 239 265z" />
    <glyph glyph-name="d" unicode="d" horiz-adv-x="608" 
d="M282 -14c-130 0 -228 110 -228 265s98 265 228 265c56 0 108 -21 146 -61v303h95v-758h-90v52c-38 -43 -92 -66 -151 -66zM293 73c87 0 140 68 140 178s-53 178 -140 178c-88 0 -142 -68 -142 -178s54 -178 142 -178z" />
    <glyph glyph-name="eth" unicode="&#xf0;" 
d="M435 576c52 -88 95 -195 95 -311c0 -197 -118 -279 -238 -279c-139 0 -238 110 -238 265c0 156 102 265 227 265c50 0 93 -17 117 -42c-13 31 -34 66 -59 102h-204v63h159c-31 41 -61 77 -83 101h108c22 -27 49 -61 76 -101h119v-63h-79zM292 73c87 0 141 67 141 178
c0 109 -53 178 -141 178c-86 0 -141 -69 -141 -178c0 -111 54 -178 141 -178z" />
    <glyph glyph-name="dcaron" unicode="&#x10f;" horiz-adv-x="600" 
d="M282 -14c-130 0 -228 110 -228 265s98 265 228 265c56 0 108 -21 146 -61v303h95v-758h-90v52c-38 -43 -92 -66 -151 -66zM650 733c38 0 69 -31 69 -69c0 -19 -3 -31 -10 -47l-57 -129h-59l46 108c-32 4 -58 33 -58 68c0 38 31 69 69 69zM293 73c87 0 140 68 140 178
s-53 178 -140 178c-88 0 -142 -68 -142 -178s54 -178 142 -178z" />
    <glyph glyph-name="dcroat" unicode="&#x111;" horiz-adv-x="633" 
d="M608 659v-81h-85v-578h-90v52c-38 -43 -92 -66 -151 -66c-130 0 -228 110 -228 265s98 265 228 265c56 0 108 -21 146 -61v123h-156v81h156v99h95v-99h85zM293 73c87 0 140 68 140 178s-53 178 -140 178c-88 0 -142 -68 -142 -178s54 -178 142 -178z" />
    <glyph glyph-name="e" unicode="e" horiz-adv-x="560" 
d="M516 274v-61h-364c5 -69 45 -142 144 -142c62 0 110 25 124 86h91c-19 -115 -112 -171 -217 -171c-139 0 -241 105 -241 264c0 155 96 266 235 266c129 0 228 -88 228 -242zM151 290h269c-3 86 -51 141 -132 141c-91 0 -132 -67 -137 -141z" />
    <glyph glyph-name="eacute" unicode="&#xe9;" horiz-adv-x="560" 
d="M435 724l-131 -151h-87l98 151h120zM516 274v-61h-364c5 -69 45 -142 144 -142c62 0 110 25 124 86h91c-19 -115 -112 -171 -217 -171c-139 0 -241 105 -241 264c0 155 96 266 235 266c129 0 228 -88 228 -242zM151 290h269c-3 86 -51 141 -132 141
c-91 0 -132 -67 -137 -141z" />
    <glyph glyph-name="ebreve" unicode="&#x115;" horiz-adv-x="560" 
d="M288 564c-84 0 -134 52 -134 138h72c0 -57 30 -72 62 -72c37 0 62 15 62 72h72c0 -86 -44 -138 -134 -138zM516 274v-61h-364c5 -69 45 -142 144 -142c62 0 110 25 124 86h91c-19 -115 -112 -171 -217 -171c-139 0 -241 105 -241 264c0 155 96 266 235 266
c129 0 228 -88 228 -242zM151 290h269c-3 86 -51 141 -132 141c-91 0 -132 -67 -137 -141z" />
    <glyph glyph-name="ecaron" unicode="&#x11b;" horiz-adv-x="560" 
d="M327 568h-78l-116 131h98l57 -69l57 69h98zM516 274v-61h-364c5 -69 45 -142 144 -142c62 0 110 25 124 86h91c-19 -115 -112 -171 -217 -171c-139 0 -241 105 -241 264c0 155 96 266 235 266c129 0 228 -88 228 -242zM151 290h269c-3 86 -51 141 -132 141
c-91 0 -132 -67 -137 -141z" />
    <glyph glyph-name="ecircumflex" unicode="&#xea;" horiz-adv-x="560" 
d="M288 637l-57 -69h-98l116 131h78l116 -131h-98zM516 274v-61h-364c5 -69 45 -142 144 -142c62 0 110 25 124 86h91c-19 -115 -112 -171 -217 -171c-139 0 -241 105 -241 264c0 155 96 266 235 266c129 0 228 -88 228 -242zM151 290h269c-3 86 -51 141 -132 141
c-91 0 -132 -67 -137 -141z" />
    <glyph glyph-name="edieresis" unicode="&#xeb;" horiz-adv-x="560" 
d="M185 572c-37 0 -66 30 -66 66c0 34 29 64 66 64c35 0 63 -30 63 -64c0 -36 -28 -66 -63 -66zM393 572c-37 0 -66 30 -66 66c0 34 29 64 66 64c35 0 63 -30 63 -64c0 -36 -28 -66 -63 -66zM516 274v-61h-364c5 -69 45 -142 144 -142c62 0 110 25 124 86h91
c-19 -115 -112 -171 -217 -171c-139 0 -241 105 -241 264c0 155 96 266 235 266c129 0 228 -88 228 -242zM151 290h269c-3 86 -51 141 -132 141c-91 0 -132 -67 -137 -141z" />
    <glyph glyph-name="edotaccent" unicode="&#x117;" horiz-adv-x="560" 
d="M289 573c-37 0 -66 30 -66 66c0 34 29 64 66 64c35 0 63 -30 63 -64c0 -36 -28 -66 -63 -66zM516 274v-61h-364c5 -69 45 -142 144 -142c62 0 110 25 124 86h91c-19 -115 -112 -171 -217 -171c-139 0 -241 105 -241 264c0 155 96 266 235 266c129 0 228 -88 228 -242z
M151 290h269c-3 86 -51 141 -132 141c-91 0 -132 -67 -137 -141z" />
    <glyph glyph-name="egrave" unicode="&#xe8;" horiz-adv-x="560" 
d="M347 573h-87l-131 151h120zM516 274v-61h-364c5 -69 45 -142 144 -142c62 0 110 25 124 86h91c-19 -115 -112 -171 -217 -171c-139 0 -241 105 -241 264c0 155 96 266 235 266c129 0 228 -88 228 -242zM151 290h269c-3 86 -51 141 -132 141c-91 0 -132 -67 -137 -141z
" />
    <glyph glyph-name="emacron" unicode="&#x113;" horiz-adv-x="560" 
d="M452 658v-69h-329v69h329zM516 274v-61h-364c5 -69 45 -142 144 -142c62 0 110 25 124 86h91c-19 -115 -112 -171 -217 -171c-139 0 -241 105 -241 264c0 155 96 266 235 266c129 0 228 -88 228 -242zM151 290h269c-3 86 -51 141 -132 141c-91 0 -132 -67 -137 -141z" />
    <glyph glyph-name="eogonek" unicode="&#x119;" horiz-adv-x="560" 
d="M516 274v-61h-364c5 -69 45 -142 144 -142c62 0 110 25 124 86h91c-14 -82 -65 -134 -132 -157c-59 -29 -82 -56 -82 -80c0 -25 19 -35 39 -35c14 0 31 4 49 12v-73c-21 -9 -44 -14 -65 -14c-57 0 -97 38 -97 88c0 31 16 63 50 89c-128 10 -220 112 -220 263
c0 155 96 266 235 266c129 0 228 -88 228 -242zM151 290h269c-3 86 -51 141 -132 141c-91 0 -132 -67 -137 -141z" />
    <glyph glyph-name="f" unicode="f" horiz-adv-x="328" 
d="M99 0v415h-68v87h68v103c0 106 62 153 138 153h74v-86h-50c-42 0 -67 -24 -67 -69v-101h109v-87h-109v-415h-95z" />
    <glyph glyph-name="g" unicode="g" horiz-adv-x="587" 
d="M285 -234c-129 0 -222 61 -222 194h93c0 -89 69 -109 129 -109c65 0 137 32 137 155v47c-36 -44 -89 -67 -147 -67c-127 0 -227 110 -227 265s98 265 228 265c56 0 108 -21 146 -61v47h95v-502c0 -155 -103 -234 -232 -234zM287 74c87 0 140 68 140 177
c0 110 -53 178 -140 178c-88 0 -142 -68 -142 -178c0 -109 54 -177 142 -177z" />
    <glyph glyph-name="gbreve" unicode="&#x11f;" horiz-adv-x="587" 
d="M434 703c0 -86 -44 -138 -134 -138c-84 0 -134 52 -134 138h72c0 -57 30 -72 62 -72c37 0 62 15 62 72h72zM285 -234c-129 0 -222 61 -222 194h93c0 -89 69 -109 129 -109c65 0 137 32 137 155v47c-36 -44 -89 -67 -147 -67c-127 0 -227 110 -227 265s98 265 228 265
c56 0 108 -21 146 -61v47h95v-502c0 -155 -103 -234 -232 -234zM287 74c87 0 140 68 140 177c0 110 -53 178 -140 178c-88 0 -142 -68 -142 -178c0 -109 54 -177 142 -177z" />
    <glyph glyph-name="gcircumflex" unicode="&#x11d;" horiz-adv-x="587" 
d="M300 638l-57 -69h-98l116 131h78l116 -131h-98zM422 502h95v-502c0 -155 -103 -234 -232 -234s-222 61 -222 194h93c0 -89 69 -109 129 -109c65 0 137 32 137 155v47c-36 -44 -89 -67 -147 -67c-127 0 -227 110 -227 265s98 265 228 265c56 0 108 -21 146 -61v47zM287 74
c87 0 140 68 140 177c0 110 -53 178 -140 178c-88 0 -142 -68 -142 -178c0 -109 54 -177 142 -177z" />
    <glyph glyph-name="gcommaaccent" unicode="&#x123;" horiz-adv-x="587" 
d="M248 561v97c0 45 22 69 74 94l27 -33c-29 -11 -51 -26 -51 -48v-13h54v-97h-104zM285 -234c-129 0 -222 61 -222 194h93c0 -89 69 -109 129 -109c65 0 137 32 137 155v47c-36 -44 -89 -67 -147 -67c-127 0 -227 110 -227 265s98 265 228 265c56 0 108 -21 146 -61v47h95
v-502c0 -155 -103 -234 -232 -234zM287 74c87 0 140 68 140 177c0 110 -53 178 -140 178c-88 0 -142 -68 -142 -178c0 -109 54 -177 142 -177z" />
    <glyph glyph-name="gdotaccent" unicode="&#x121;" horiz-adv-x="587" 
d="M300 573c-37 0 -66 30 -66 66c0 34 29 64 66 64c35 0 63 -30 63 -64c0 -36 -28 -66 -63 -66zM285 -234c-129 0 -222 61 -222 194h93c0 -89 69 -109 129 -109c65 0 137 32 137 155v47c-36 -44 -89 -67 -147 -67c-127 0 -227 110 -227 265s98 265 228 265
c56 0 108 -21 146 -61v47h95v-502c0 -155 -103 -234 -232 -234zM287 74c87 0 140 68 140 177c0 110 -53 178 -140 178c-88 0 -142 -68 -142 -178c0 -109 54 -177 142 -177z" />
    <glyph glyph-name="h" unicode="h" horiz-adv-x="585" 
d="M85 0v759h95v-307c29 36 76 64 146 64c105 0 185 -64 185 -194v-322h-95v299c0 74 -30 130 -110 130c-86 0 -126 -64 -126 -161v-268h-95z" />
    <glyph glyph-name="hbar" unicode="&#x127;" horiz-adv-x="595" 
d="M336 516c105 0 185 -64 185 -194v-322h-95v299c0 74 -30 130 -110 130c-86 0 -126 -64 -126 -161v-268h-95v578h-70v78h70v103h95v-103h144v-78h-144v-126c29 36 76 64 146 64z" />
    <glyph glyph-name="hcircumflex" unicode="&#x125;" horiz-adv-x="585" 
d="M256 894l-57 -69h-98l116 131h78l116 -131h-98zM326 516c105 0 185 -64 185 -194v-322h-95v299c0 74 -30 130 -110 130c-86 0 -126 -64 -126 -161v-268h-95v759h95v-307c29 36 76 64 146 64z" />
    <glyph glyph-name="i" unicode="i" horiz-adv-x="269" 
d="M136 729c35 0 63 -30 63 -64c0 -36 -28 -66 -63 -66c-37 0 -66 30 -66 66c0 34 29 64 66 64zM182 502v-502h-95v502h95z" />
    <glyph glyph-name="dotlessi" unicode="&#x131;" horiz-adv-x="265" 
d="M85 0v503h95v-503h-95z" />
    <glyph glyph-name="iacute" unicode="&#xed;" horiz-adv-x="265" 
d="M280 725l-131 -151h-87l98 151h120zM85 0v503h95v-503h-95z" />
    <glyph glyph-name="uni01D0" unicode="&#x1d0;" horiz-adv-x="265" 
d="M172 572h-78l-116 131h98l57 -69l57 69h98zM85 0v503h95v-503h-95z" />
    <glyph glyph-name="icircumflex" unicode="&#xee;" horiz-adv-x="265" 
d="M172 700l116 -131h-98l-57 69l-57 -69h-98l116 131h78zM85 0v503h95v-503h-95z" />
    <glyph glyph-name="idieresis" unicode="&#xef;" horiz-adv-x="265" 
d="M30 573c-37 0 -66 30 -66 66c0 34 29 64 66 64c35 0 63 -30 63 -64c0 -36 -28 -66 -63 -66zM238 573c-37 0 -66 30 -66 66c0 34 29 64 66 64c35 0 63 -30 63 -64c0 -36 -28 -66 -63 -66zM85 0v503h95v-503h-95z" />
    <glyph glyph-name="i.loclTRK" horiz-adv-x="265" 
d="M133 573c-37 0 -66 30 -66 66c0 34 29 64 66 64c35 0 63 -30 63 -64c0 -36 -28 -66 -63 -66zM85 0v503h95v-503h-95z" />
    <glyph glyph-name="igrave" unicode="&#xec;" horiz-adv-x="265" 
d="M-26 725h120l98 -151h-87zM85 0v503h95v-503h-95z" />
    <glyph glyph-name="ij" unicode="&#x133;" horiz-adv-x="512" 
d="M136 729c35 0 63 -30 63 -64c0 -36 -28 -66 -63 -66c-37 0 -66 30 -66 66c0 34 29 64 66 64zM390 599c-37 0 -66 30 -66 66c0 34 29 64 66 64c35 0 63 -30 63 -64c0 -36 -28 -66 -63 -66zM182 502v-502h-95v502h95zM436 502v-558c0 -119 -73 -166 -153 -166h-27v88h16
c43 0 69 25 69 76v560h95z" />
    <glyph glyph-name="imacron" unicode="&#x12b;" horiz-adv-x="265" 
d="M297 659v-69h-329v69h329zM85 0v503h95v-503h-95z" />
    <glyph glyph-name="iogonek" unicode="&#x12f;" horiz-adv-x="265" 
d="M134 574c-37 0 -66 30 -66 66c0 34 29 64 66 64c35 0 63 -30 63 -64c0 -36 -28 -66 -63 -66zM97 -80c0 -25 19 -35 39 -35c14 0 31 4 49 12v-73c-21 -9 -44 -14 -65 -14c-57 0 -97 38 -97 88c0 37 23 75 70 102h-8v503h95v-503c-60 -29 -83 -56 -83 -80z" />
    <glyph glyph-name="itilde" unicode="&#x129;" horiz-adv-x="265" 
d="M229 703h60c0 -74 -28 -120 -90 -120c-63 0 -97 46 -130 46c-23 0 -32 -21 -32 -48h-60c0 74 28 120 91 120s96 -46 129 -46c23 0 32 21 32 48zM85 0v503h95v-503h-95z" />
    <glyph glyph-name="j" unicode="j" horiz-adv-x="243" 
d="M121 599c-37 0 -66 30 -66 66c0 34 29 64 66 64c35 0 63 -30 63 -64c0 -36 -28 -66 -63 -66zM167 502v-558c0 -119 -73 -166 -153 -166h-27v88h16c43 0 69 25 69 76v560h95z" />
    <glyph glyph-name="jcircumflex" unicode="&#x135;" horiz-adv-x="307" 
d="M131 625l-57 -69h-98l116 131h78l116 -131h-98zM96 -60v560h95v-558c0 -119 -70 -166 -150 -166h-27v87h13c24 0 69 7 69 77z" />
    <glyph glyph-name="k" unicode="k" horiz-adv-x="518" 
d="M504 0h-119l-205 262v-262h-95v758h95v-458l187 202h118l-207 -221z" />
    <glyph glyph-name="kcommaaccent" unicode="&#x137;" horiz-adv-x="518" 
d="M278 281l226 -281h-119l-205 262v-262h-95v758h95v-458l187 202h118zM207 -155v97h104v-97c0 -45 -22 -69 -74 -94l-27 33c29 11 51 26 51 48v13h-54z" />
    <glyph glyph-name="l" unicode="l" horiz-adv-x="265" 
d="M180 758v-758h-95v758h95z" />
    <glyph glyph-name="lacute" unicode="&#x13a;" horiz-adv-x="265" 
d="M280 981l-131 -151h-87l98 151h120zM180 758v-758h-95v758h95z" />
    <glyph glyph-name="lcaron" unicode="&#x13e;" horiz-adv-x="265" 
d="M321 776c38 0 69 -31 69 -69c0 -19 -3 -31 -10 -47l-57 -129h-59l46 108c-32 4 -58 33 -58 68c0 38 31 69 69 69zM180 758v-758h-95v758h95z" />
    <glyph glyph-name="lcommaaccent" unicode="&#x13c;" horiz-adv-x="265" 
d="M180 758v-758h-95v758h95zM185 -58v-97c0 -45 -22 -69 -74 -94l-27 33c29 11 51 26 51 48v13h-54v97h104z" />
    <glyph glyph-name="ldot" unicode="&#x140;" horiz-adv-x="265" 
d="M180 758v-758h-95v758h95zM327 342c28 0 49 -21 49 -49s-21 -49 -49 -49s-49 21 -49 49s21 49 49 49z" />
    <glyph glyph-name="lslash" unicode="&#x142;" horiz-adv-x="418" 
d="M369 366l-114 -54v-312h-95v267l-73 -34l-36 80l109 51v394h95v-349l78 37z" />
    <glyph glyph-name="m" unicode="m" horiz-adv-x="868" 
d="M619 516c95 0 175 -64 175 -194v-322h-95v303c0 76 -30 126 -99 126c-62 0 -113 -35 -113 -133v-296h-95v303c0 76 -29 126 -99 126c-62 0 -113 -35 -113 -133v-296h-95v502h89v-55c26 42 82 69 142 69c74 0 121 -41 147 -81c31 52 90 81 156 81z" />
    <glyph glyph-name="n" unicode="n" horiz-adv-x="585" 
d="M85 0v502h89v-58c28 40 77 72 152 72c105 0 185 -64 185 -194v-322h-95v299c0 74 -30 130 -110 130c-86 0 -126 -64 -126 -161v-268h-95z" />
    <glyph glyph-name="nacute" unicode="&#x144;" horiz-adv-x="585" 
d="M430 725l-131 -151h-87l98 151h120zM85 0v502h89v-58c28 40 77 72 152 72c105 0 185 -64 185 -194v-322h-95v299c0 74 -30 130 -110 130c-86 0 -126 -64 -126 -161v-268h-95z" />
    <glyph glyph-name="ncaron" unicode="&#x148;" horiz-adv-x="585" 
d="M322 569h-78l-116 131h98l57 -69l57 69h98zM326 516c105 0 185 -64 185 -194v-322h-95v299c0 74 -30 130 -110 130c-86 0 -126 -64 -126 -161v-268h-95v502h89v-58c28 40 77 72 152 72z" />
    <glyph glyph-name="ncommaaccent" unicode="&#x146;" horiz-adv-x="585" 
d="M85 0v502h89v-58c28 40 77 72 152 72c105 0 185 -64 185 -194v-322h-95v299c0 74 -30 130 -110 130c-86 0 -126 -64 -126 -161v-268h-95zM335 -58v-97c0 -45 -22 -69 -74 -94l-27 33c29 11 51 26 51 48v13h-54v97h104z" />
    <glyph glyph-name="eng" unicode="&#x14b;" horiz-adv-x="585" 
d="M326 516c105 0 185 -64 185 -194v-378c0 -119 -73 -166 -153 -166h-27v88h16c43 0 69 25 69 76v357c0 74 -30 130 -110 130c-86 0 -126 -64 -126 -161v-268h-95v502h89v-58c28 40 77 72 152 72z" />
    <glyph glyph-name="ntilde" unicode="&#xf1;" horiz-adv-x="585" 
d="M379 700h60c0 -74 -28 -120 -90 -120c-63 0 -97 46 -130 46c-23 0 -32 -21 -32 -48h-60c0 74 28 120 91 120s96 -46 129 -46c23 0 32 21 32 48zM85 0v502h89v-58c28 40 77 72 152 72c105 0 185 -64 185 -194v-322h-95v299c0 74 -30 130 -110 130
c-86 0 -126 -64 -126 -161v-268h-95z" />
    <glyph glyph-name="o" unicode="o" 
d="M292 516c138 0 238 -109 238 -265s-100 -265 -238 -265s-238 109 -238 265s100 265 238 265zM292 429c-87 0 -141 -67 -141 -178s54 -178 141 -178s141 67 141 178s-54 178 -141 178z" />
    <glyph glyph-name="oacute" unicode="&#xf3;" 
d="M439 724l-131 -151h-87l98 151h120zM292 516c138 0 238 -109 238 -265s-100 -265 -238 -265s-238 109 -238 265s100 265 238 265zM292 429c-87 0 -141 -67 -141 -178s54 -178 141 -178s141 67 141 178s-54 178 -141 178z" />
    <glyph glyph-name="obreve" unicode="&#x14f;" 
d="M426 702c0 -86 -44 -138 -134 -138c-84 0 -134 52 -134 138h72c0 -57 30 -72 62 -72c37 0 62 15 62 72h72zM292 516c138 0 238 -109 238 -265s-100 -265 -238 -265s-238 109 -238 265s100 265 238 265zM292 429c-87 0 -141 -67 -141 -178s54 -178 141 -178
s141 67 141 178s-54 178 -141 178z" />
    <glyph glyph-name="uni01D2" unicode="&#x1d2;" 
d="M331 571h-78l-116 131h98l57 -69l57 69h98zM292 516c138 0 238 -109 238 -265s-100 -265 -238 -265s-238 109 -238 265s100 265 238 265zM292 73c87 0 141 67 141 178s-54 178 -141 178s-141 -67 -141 -178s54 -178 141 -178z" />
    <glyph glyph-name="ocircumflex" unicode="&#xf4;" 
d="M292 637l-57 -69h-98l116 131h78l116 -131h-98zM292 516c138 0 238 -109 238 -265s-100 -265 -238 -265s-238 109 -238 265s100 265 238 265zM292 73c87 0 141 67 141 178s-54 178 -141 178s-141 -67 -141 -178s54 -178 141 -178z" />
    <glyph glyph-name="odieresis" unicode="&#xf6;" 
d="M189 572c-37 0 -66 30 -66 66c0 34 29 64 66 64c35 0 63 -30 63 -64c0 -36 -28 -66 -63 -66zM397 572c-37 0 -66 30 -66 66c0 34 29 64 66 64c35 0 63 -30 63 -64c0 -36 -28 -66 -63 -66zM292 516c138 0 238 -109 238 -265s-100 -265 -238 -265s-238 109 -238 265
s100 265 238 265zM292 429c-87 0 -141 -67 -141 -178s54 -178 141 -178s141 67 141 178s-54 178 -141 178z" />
    <glyph glyph-name="ograve" unicode="&#xf2;" 
d="M133 724h120l98 -151h-87zM292 516c138 0 238 -109 238 -265s-100 -265 -238 -265s-238 109 -238 265s100 265 238 265zM292 429c-87 0 -141 -67 -141 -178s54 -178 141 -178s141 67 141 178s-54 178 -141 178z" />
    <glyph glyph-name="ohungarumlaut" unicode="&#x151;" 
d="M327 690l-103 -131h-87l78 131h112zM494 690l-103 -131h-87l78 131h112zM292 516c138 0 238 -109 238 -265s-100 -265 -238 -265s-238 109 -238 265s100 265 238 265zM292 429c-87 0 -141 -67 -141 -178s54 -178 141 -178s141 67 141 178s-54 178 -141 178z" />
    <glyph glyph-name="omacron" unicode="&#x14d;" 
d="M456 658v-69h-329v69h329zM292 516c138 0 238 -109 238 -265s-100 -265 -238 -265s-238 109 -238 265s100 265 238 265zM292 429c-87 0 -141 -67 -141 -178s54 -178 141 -178s141 67 141 178s-54 178 -141 178z" />
    <glyph glyph-name="oslash" unicode="&#xf8;" horiz-adv-x="588" 
d="M538 503l-63 -78c34 -45 53 -105 53 -174c0 -156 -100 -265 -238 -265c-51 0 -98 15 -135 42l-23 -28h-82l59 73c-36 45 -57 107 -57 178c0 156 100 265 238 265c53 0 101 -16 140 -46l26 33h82zM149 251c0 -41 7 -75 21 -103l204 253c-23 18 -51 28 -84 28
c-87 0 -141 -67 -141 -178zM431 251c0 38 -6 70 -18 97l-202 -251c21 -16 48 -24 79 -24c87 0 141 67 141 178z" />
    <glyph glyph-name="otilde" unicode="&#xf5;" 
d="M388 699h60c0 -74 -28 -120 -90 -120c-63 0 -97 46 -130 46c-23 0 -32 -21 -32 -48h-60c0 74 28 120 91 120s96 -46 129 -46c23 0 32 21 32 48zM292 516c138 0 238 -109 238 -265s-100 -265 -238 -265s-238 109 -238 265s100 265 238 265zM292 429
c-87 0 -141 -67 -141 -178s54 -178 141 -178s141 67 141 178s-54 178 -141 178z" />
    <glyph glyph-name="oe" unicode="&#x153;" horiz-adv-x="929" 
d="M888 213h-360l-2 -17c10 -63 51 -125 142 -125c62 0 110 25 124 86h91c-19 -115 -112 -171 -217 -171c-79 0 -146 34 -189 92c-42 -58 -108 -92 -185 -92c-138 0 -238 109 -238 265s100 265 238 265c77 0 143 -34 185 -91c42 57 106 91 183 91c129 0 228 -88 228 -242
v-61zM660 431c-84 0 -125 -56 -135 -123l3 -18h264c-3 86 -51 141 -132 141zM292 73c73 0 122 47 137 126c-3 17 -4 33 -4 51s1 35 4 52c-15 80 -64 127 -137 127c-87 0 -141 -67 -141 -178s54 -178 141 -178z" />
    <glyph glyph-name="p" unicode="p" horiz-adv-x="608" 
d="M85 -222v724h90v-52c38 43 92 66 151 66c130 0 228 -110 228 -265s-98 -265 -228 -265c-56 0 -108 21 -146 61v-269h-95zM315 73c88 0 142 68 142 178s-54 178 -142 178c-87 0 -140 -68 -140 -178s53 -178 140 -178z" />
    <glyph glyph-name="thorn" unicode="&#xfe;" horiz-adv-x="600" 
d="M327 516c120 0 219 -110 219 -265s-99 -265 -219 -265c-59 0 -109 21 -147 61v-269h-95v980h95v-302c38 40 88 60 147 60zM312 73c84 0 137 68 137 178s-53 178 -137 178s-137 -68 -137 -178s53 -178 137 -178z" />
    <glyph glyph-name="q" unicode="q" horiz-adv-x="608" 
d="M428 -222v269c-38 -40 -90 -61 -146 -61c-130 0 -228 110 -228 265s98 265 228 265c59 0 113 -23 151 -66v52h90v-724h-95zM293 73c87 0 140 68 140 178s-53 178 -140 178c-88 0 -142 -68 -142 -178s54 -178 142 -178z" />
    <glyph glyph-name="r" unicode="r" horiz-adv-x="348" 
d="M327 507v-94h-44c-61 0 -103 -44 -103 -126v-287h-95v502h89v-73c26 45 71 78 127 78h26z" />
    <glyph glyph-name="racute" unicode="&#x155;" horiz-adv-x="348" 
d="M320 722l-131 -151h-87l98 151h120zM327 507v-94h-44c-61 0 -103 -44 -103 -126v-287h-95v502h89v-73c26 45 71 78 127 78h26z" />
    <glyph glyph-name="rcaron" unicode="&#x159;" horiz-adv-x="348" 
d="M212 566h-78l-116 131h98l57 -69l57 69h98zM174 429c26 45 71 78 127 78h26v-94h-44c-61 0 -103 -44 -103 -126v-287h-95v502h89v-73z" />
    <glyph glyph-name="rcommaaccent" unicode="&#x157;" horiz-adv-x="348" 
d="M327 507v-94h-44c-61 0 -103 -44 -103 -126v-287h-95v502h89v-73c26 45 71 78 127 78h26zM225 -58v-97c0 -45 -22 -69 -74 -94l-27 33c29 11 51 26 51 48v13h-54v97h104z" />
    <glyph glyph-name="s" unicode="s" horiz-adv-x="441" 
d="M220 516c90 0 178 -53 178 -179h-92c0 73 -47 95 -89 95c-35 0 -75 -13 -75 -60c0 -35 22 -51 59 -64l85 -30c63 -22 118 -61 118 -139c0 -88 -68 -153 -176 -153c-143 0 -192 81 -192 176h90c0 -59 32 -92 101 -92c57 0 85 29 85 67c0 31 -22 48 -55 60l-111 40
c-50 18 -96 60 -96 131c0 89 75 148 170 148z" />
    <glyph glyph-name="sacute" unicode="&#x15b;" horiz-adv-x="441" 
d="M368 725l-131 -151h-87l98 151h120zM220 516c90 0 178 -53 178 -179h-92c0 73 -47 95 -89 95c-35 0 -75 -13 -75 -60c0 -35 22 -51 59 -64l85 -30c63 -22 118 -61 118 -139c0 -88 -68 -153 -176 -153c-143 0 -192 81 -192 176h90c0 -59 32 -92 101 -92c57 0 85 29 85 67
c0 31 -22 48 -55 60l-111 40c-50 18 -96 60 -96 131c0 89 75 148 170 148z" />
    <glyph glyph-name="scaron" unicode="&#x161;" horiz-adv-x="441" 
d="M260 569h-78l-116 131h98l57 -69l57 69h98zM286 278c63 -22 118 -61 118 -139c0 -88 -68 -153 -176 -153c-143 0 -192 81 -192 176h90c0 -59 32 -92 101 -92c57 0 85 29 85 67c0 31 -22 48 -55 60l-111 40c-50 18 -96 60 -96 131c0 89 75 148 170 148
c90 0 178 -53 178 -179h-92c0 73 -47 95 -89 95c-35 0 -75 -13 -75 -60c0 -35 22 -51 59 -64z" />
    <glyph glyph-name="scedilla" unicode="&#x15f;" horiz-adv-x="441" 
d="M220 516c90 0 178 -53 178 -179h-92c0 73 -47 95 -89 95c-35 0 -75 -13 -75 -60c0 -35 22 -51 59 -64l85 -30c63 -22 118 -61 118 -139c0 -88 -68 -153 -176 -153c-143 0 -192 81 -192 176h90c0 -59 32 -92 101 -92c57 0 85 29 85 67c0 31 -22 48 -55 60l-111 40
c-50 18 -96 60 -96 131c0 89 75 148 170 148zM269 -67l-72 -160l-104 44l108 116h68z" />
    <glyph glyph-name="scircumflex" unicode="&#x15d;" horiz-adv-x="441" 
d="M231 638l-57 -69h-98l116 131h78l116 -131h-98zM286 278c63 -22 118 -61 118 -139c0 -88 -68 -153 -176 -153c-143 0 -192 81 -192 176h90c0 -59 32 -92 101 -92c57 0 85 29 85 67c0 31 -22 48 -55 60l-111 40c-50 18 -96 60 -96 131c0 89 75 148 170 148
c90 0 178 -53 178 -179h-92c0 73 -47 95 -89 95c-35 0 -75 -13 -75 -60c0 -35 22 -51 59 -64z" />
    <glyph glyph-name="scommaaccent" unicode="&#x219;" horiz-adv-x="441" 
d="M220 516c90 0 178 -53 178 -179h-92c0 73 -47 95 -89 95c-35 0 -75 -13 -75 -60c0 -35 22 -51 59 -64l85 -30c63 -22 118 -61 118 -139c0 -88 -68 -153 -176 -153c-143 0 -192 81 -192 176h90c0 -59 32 -92 101 -92c57 0 85 29 85 67c0 31 -22 48 -55 60l-111 40
c-50 18 -96 60 -96 131c0 89 75 148 170 148zM273 -58v-97c0 -45 -22 -69 -74 -94l-27 33c29 11 51 26 51 48v13h-54v97h104z" />
    <glyph glyph-name="germandbls" unicode="&#xdf;" horiz-adv-x="605" 
d="M454 281c58 -24 115 -62 115 -145c0 -85 -61 -150 -158 -150c-87 0 -174 52 -174 176h90c0 -65 39 -91 83 -91c47 0 67 30 67 63c0 40 -28 53 -55 64l-91 38c-48 20 -87 64 -87 123c0 118 155 111 155 196c0 46 -44 72 -97 72c-84 0 -122 -66 -122 -168v-459h-95v457
c0 159 71 257 220 257c138 0 191 -85 191 -161c0 -131 -157 -130 -157 -191c0 -19 16 -40 69 -62z" />
    <glyph glyph-name="t" unicode="t" horiz-adv-x="345" 
d="M303 415h-104v-249c0 -64 21 -82 73 -82h29v-84h-65c-76 0 -132 31 -132 150v265h-78v87h78v146h95v-146h104v-87z" />
    <glyph glyph-name="tbar" unicode="&#x167;" horiz-adv-x="418" 
d="M305 415h-104v-104h104v-82h-104v-63c0 -64 21 -82 73 -82h29v-84h-65c-76 0 -132 31 -132 150v79h-78v82h78v104h-78v87h78v146h95v-146h104v-87z" />
    <glyph glyph-name="tcaron" unicode="&#x165;" horiz-adv-x="345" 
d="M380 743c38 0 69 -31 69 -69c0 -19 -3 -31 -10 -47l-57 -129h-59l46 108c-32 4 -58 33 -58 68c0 38 31 69 69 69zM199 648v-146h104v-87h-104v-249c0 -64 21 -82 73 -82h29v-84h-65c-76 0 -132 31 -132 150v265h-78v87h78v146h95z" />
    <glyph glyph-name="uni0163" unicode="&#x163;" horiz-adv-x="345" 
d="M303 415h-104v-249c0 -64 21 -82 73 -82h29v-84h-65c-76 0 -132 31 -132 150v265h-78v87h78v146h95v-146h104v-87zM78 -183l108 116h68l-72 -160z" />
    <glyph glyph-name="uni021B" unicode="&#x21b;" horiz-adv-x="345" 
d="M303 415h-104v-249c0 -64 21 -82 73 -82h29v-84h-65c-76 0 -132 31 -132 150v265h-78v87h78v146h95v-146h104v-87zM154 -155v97h104v-97c0 -45 -22 -69 -74 -94l-27 33c29 11 51 26 51 48v13h-54z" />
    <glyph glyph-name="u" unicode="u" horiz-adv-x="582" 
d="M258 -14c-105 0 -185 64 -185 194v322h95v-299c0 -74 30 -130 110 -130c86 0 126 64 126 161v268h95v-502h-89v58c-28 -40 -77 -72 -152 -72z" />
    <glyph glyph-name="uacute" unicode="&#xfa;" horiz-adv-x="582" 
d="M428 725l-131 -151h-87l98 151h120zM258 -14c-105 0 -185 64 -185 194v322h95v-299c0 -74 30 -130 110 -130c86 0 126 64 126 161v268h95v-502h-89v58c-28 -40 -77 -72 -152 -72z" />
    <glyph glyph-name="ubreve" unicode="&#x16d;" horiz-adv-x="582" 
d="M415 703c0 -86 -44 -138 -134 -138c-84 0 -134 52 -134 138h72c0 -57 30 -72 62 -72c37 0 62 15 62 72h72zM258 -14c-105 0 -185 64 -185 194v322h95v-299c0 -74 30 -130 110 -130c86 0 126 64 126 161v268h95v-502h-89v58c-28 -40 -77 -72 -152 -72z" />
    <glyph glyph-name="uni01D4" unicode="&#x1d4;" horiz-adv-x="582" 
d="M320 572h-78l-116 131h98l57 -69l57 69h98zM404 502h95v-502h-89v58c-28 -40 -77 -72 -152 -72c-105 0 -185 64 -185 194v322h95v-299c0 -74 30 -130 110 -130c86 0 126 64 126 161v268z" />
    <glyph glyph-name="ucircumflex" unicode="&#xfb;" horiz-adv-x="582" 
d="M281 638l-57 -69h-98l116 131h78l116 -131h-98zM404 502h95v-502h-89v58c-28 -40 -77 -72 -152 -72c-105 0 -185 64 -185 194v322h95v-299c0 -74 30 -130 110 -130c86 0 126 64 126 161v268z" />
    <glyph glyph-name="udieresis" unicode="&#xfc;" horiz-adv-x="582" 
d="M178 573c-37 0 -66 30 -66 66c0 34 29 64 66 64c35 0 63 -30 63 -64c0 -36 -28 -66 -63 -66zM386 573c-37 0 -66 30 -66 66c0 34 29 64 66 64c35 0 63 -30 63 -64c0 -36 -28 -66 -63 -66zM258 -14c-105 0 -185 64 -185 194v322h95v-299c0 -74 30 -130 110 -130
c86 0 126 64 126 161v268h95v-502h-89v58c-28 -40 -77 -72 -152 -72z" />
    <glyph glyph-name="ugrave" unicode="&#xf9;" horiz-adv-x="582" 
d="M122 725h120l98 -151h-87zM258 -14c-105 0 -185 64 -185 194v322h95v-299c0 -74 30 -130 110 -130c86 0 126 64 126 161v268h95v-502h-89v58c-28 -40 -77 -72 -152 -72z" />
    <glyph glyph-name="uhungarumlaut" unicode="&#x171;" horiz-adv-x="582" 
d="M316 691l-103 -131h-87l78 131h112zM483 691l-103 -131h-87l78 131h112zM258 -14c-105 0 -185 64 -185 194v322h95v-299c0 -74 30 -130 110 -130c86 0 126 64 126 161v268h95v-502h-89v58c-28 -40 -77 -72 -152 -72z" />
    <glyph glyph-name="umacron" unicode="&#x16b;" horiz-adv-x="582" 
d="M445 659v-69h-329v69h329zM258 -14c-105 0 -185 64 -185 194v322h95v-299c0 -74 30 -130 110 -130c86 0 126 64 126 161v268h95v-502h-89v58c-28 -40 -77 -72 -152 -72z" />
    <glyph glyph-name="uogonek" unicode="&#x173;" horiz-adv-x="582" 
d="M455 -115c14 0 31 4 49 12v-73c-21 -9 -44 -14 -65 -14c-57 0 -97 38 -97 88c0 37 23 75 70 102h-2v58c-28 -40 -77 -72 -152 -72c-105 0 -185 64 -185 194v322h95v-299c0 -74 30 -130 110 -130c86 0 126 64 126 161v268h95v-502c-60 -29 -83 -56 -83 -80
c0 -25 19 -35 39 -35z" />
    <glyph glyph-name="uring" unicode="&#x16f;" horiz-adv-x="582" 
d="M280 717c50 0 88 -38 88 -87s-38 -87 -88 -87c-49 0 -87 38 -87 87s38 87 87 87zM280 672c-22 0 -42 -20 -42 -42c0 -24 20 -43 42 -43s42 19 42 43c0 22 -20 42 -42 42zM258 -14c-105 0 -185 64 -185 194v322h95v-299c0 -74 30 -130 110 -130c86 0 126 64 126 161v268
h95v-502h-89v58c-28 -40 -77 -72 -152 -72z" />
    <glyph glyph-name="utilde" unicode="&#x169;" horiz-adv-x="582" 
d="M377 703h60c0 -74 -28 -120 -90 -120c-63 0 -97 46 -130 46c-23 0 -32 -21 -32 -48h-60c0 74 28 120 91 120s96 -46 129 -46c23 0 32 21 32 48zM258 -14c-105 0 -185 64 -185 194v322h95v-299c0 -74 30 -130 110 -130c86 0 126 64 126 161v268h95v-502h-89v58
c-28 -40 -77 -72 -152 -72z" />
    <glyph glyph-name="v" unicode="v" horiz-adv-x="512" 
d="M403 502h98l-197 -502h-96l-197 502h98l147 -394z" />
    <glyph glyph-name="w" unicode="w" horiz-adv-x="763" 
d="M636 502h98l-148 -502h-104l-100 384l-100 -384h-104l-148 502h98l101 -393l105 393h96l105 -393z" />
    <glyph glyph-name="wacute" unicode="&#x1e83;" horiz-adv-x="763" 
d="M529 722l-131 -151h-87l98 151h120zM636 502h98l-148 -502h-104l-100 384l-100 -384h-104l-148 502h98l101 -393l105 393h96l105 -393z" />
    <glyph glyph-name="wcircumflex" unicode="&#x175;" horiz-adv-x="763" 
d="M382 635l-57 -69h-98l116 131h78l116 -131h-98zM636 502h98l-148 -502h-104l-100 384l-100 -384h-104l-148 502h98l101 -393l105 393h96l105 -393z" />
    <glyph glyph-name="wdieresis" unicode="&#x1e85;" horiz-adv-x="763" 
d="M279 570c-37 0 -66 30 -66 66c0 34 29 64 66 64c35 0 63 -30 63 -64c0 -36 -28 -66 -63 -66zM487 570c-37 0 -66 30 -66 66c0 34 29 64 66 64c35 0 63 -30 63 -64c0 -36 -28 -66 -63 -66zM636 502h98l-148 -502h-104l-100 384l-100 -384h-104l-148 502h98l101 -393
l105 393h96l105 -393z" />
    <glyph glyph-name="wgrave" unicode="&#x1e81;" horiz-adv-x="763" 
d="M441 571h-87l-131 151h120zM636 502h98l-148 -502h-104l-100 384l-100 -384h-104l-148 502h98l101 -393l105 393h96l105 -393z" />
    <glyph glyph-name="x" unicode="x" horiz-adv-x="527" 
d="M512 0h-106l-142 193l-143 -193h-106l196 264l-176 238h105l124 -167l123 167h105l-176 -238z" />
    <glyph glyph-name="y" unicode="y" horiz-adv-x="524" 
d="M417 502h98l-291 -724h-89l87 223l-211 501h98l159 -383z" />
    <glyph glyph-name="yacute" unicode="&#xfd;" horiz-adv-x="524" 
d="M419 725l-131 -151h-87l98 151h120zM417 502h98l-291 -724h-89l87 223l-211 501h98l159 -383z" />
    <glyph glyph-name="ycircumflex" unicode="&#x177;" horiz-adv-x="524" 
d="M272 638l-57 -69h-98l116 131h78l116 -131h-98zM417 502h98l-291 -724h-89l87 223l-211 501h98l159 -383z" />
    <glyph glyph-name="ydieresis" unicode="&#xff;" horiz-adv-x="524" 
d="M169 573c-37 0 -66 30 -66 66c0 34 29 64 66 64c35 0 63 -30 63 -64c0 -36 -28 -66 -63 -66zM377 573c-37 0 -66 30 -66 66c0 34 29 64 66 64c35 0 63 -30 63 -64c0 -36 -28 -66 -63 -66zM417 502h98l-291 -724h-89l87 223l-211 501h98l159 -383z" />
    <glyph glyph-name="ygrave" unicode="&#x1ef3;" horiz-adv-x="524" 
d="M331 574h-87l-131 151h120zM417 502h98l-291 -724h-89l87 223l-211 501h98l159 -383z" />
    <glyph glyph-name="z" unicode="z" horiz-adv-x="480" 
d="M414 502v-73l-243 -343h257v-86h-366v80l238 336h-218v86h332z" />
    <glyph glyph-name="zacute" unicode="&#x17a;" horiz-adv-x="480" 
d="M390 722l-131 -151h-87l98 151h120zM414 502v-73l-243 -343h257v-86h-366v80l238 336h-218v86h332z" />
    <glyph glyph-name="zcaron" unicode="&#x17e;" horiz-adv-x="480" 
d="M282 566h-78l-116 131h98l57 -69l57 69h98zM171 86h257v-86h-366v80l238 336h-218v86h332v-73z" />
    <glyph glyph-name="zdotaccent" unicode="&#x17c;" horiz-adv-x="480" 
d="M244 571c-37 0 -66 30 -66 66c0 34 29 64 66 64c35 0 63 -30 63 -64c0 -36 -28 -66 -63 -66zM414 502v-73l-243 -343h257v-86h-366v80l238 336h-218v86h332z" />
    <glyph glyph-name="a.ss01" horiz-adv-x="600" 
d="M273 -14c-120 0 -219 110 -219 266c0 155 99 265 219 265c59 0 109 -21 147 -61v47h95v-503h-90v52c-38 -43 -90 -66 -152 -66zM288 74c84 0 137 68 137 178s-53 178 -137 178s-137 -68 -137 -178s53 -178 137 -178z" />
    <glyph glyph-name="pi" unicode="&#x3c0;" horiz-adv-x="639" 
d="M594 503v-88h-80v-415h-95v415h-197v-415h-95v415h-82v88h549z" />
    <glyph glyph-name="zero" unicode="0" horiz-adv-x="650" 
d="M325 -16c-175 0 -266 168 -266 365s91 365 266 365s266 -171 266 -365s-91 -365 -266 -365zM325 79c104 0 163 107 163 270s-59 270 -163 270s-163 -110 -163 -270s59 -270 163 -270z" />
    <glyph glyph-name="one" unicode="1" horiz-adv-x="426" 
d="M316 700v-700h-99v590l-145 -77v100l162 87h82z" />
    <glyph glyph-name="two" unicode="2" horiz-adv-x="585" 
d="M220 97h305v-97h-438v93l263 277c28 29 68 74 68 136c0 66 -46 113 -120 113c-80 0 -128 -56 -128 -133h-100c0 143 108 228 228 228c129 0 221 -100 221 -209c0 -96 -71 -171 -101 -202z" />
    <glyph glyph-name="three" unicode="3" horiz-adv-x="576" 
d="M287 -14c-125 0 -234 73 -234 225h100c0 -78 54 -130 134 -130s134 47 134 117s-56 117 -140 117h-41v88h41c73 0 122 42 122 104c0 67 -48 112 -119 112c-77 0 -128 -52 -128 -130h-99c0 142 91 225 227 225c118 0 220 -79 220 -197c0 -93 -55 -136 -89 -155
c45 -17 107 -71 107 -163c0 -134 -112 -213 -235 -213z" />
    <glyph glyph-name="four" unicode="4" horiz-adv-x="597" 
d="M566 261v-91h-103v-170h-99v170h-333v83l289 447h143v-439h103zM146 261h218v339z" />
    <glyph glyph-name="five" unicode="5" horiz-adv-x="594" 
d="M494 700v-99h-321v-185c26 23 69 49 130 49c116 0 225 -86 225 -230c0 -140 -91 -249 -235 -249c-140 0 -231 94 -231 228h100c0 -88 61 -133 130 -133c91 0 135 73 135 149c0 70 -47 142 -134 142c-62 0 -106 -26 -124 -64h-90v392h415z" />
    <glyph glyph-name="six" unicode="6" horiz-adv-x="582" 
d="M294 -14c-141 0 -235 98 -235 237c0 101 52 178 88 230l170 247h110l-177 -260c19 6 45 10 64 10c126 0 215 -92 215 -227c0 -139 -94 -237 -235 -237zM294 80c81 0 135 57 135 143s-54 143 -135 143s-135 -57 -135 -143s54 -143 135 -143z" />
    <glyph glyph-name="seven" unicode="7" horiz-adv-x="543" 
d="M51 700h432v-89l-253 -611h-108l251 603h-322v97z" />
    <glyph glyph-name="eight" unicode="8" horiz-adv-x="596" 
d="M298 -14c-141 0 -237 95 -237 206c0 96 56 149 107 173c-49 26 -87 80 -87 153c0 101 87 196 217 196s217 -95 217 -196c0 -73 -38 -127 -87 -153c51 -24 107 -77 107 -173c0 -111 -96 -206 -237 -206zM298 400c68 0 116 42 116 110s-48 110 -116 110s-116 -42 -116 -110
s48 -110 116 -110zM298 80c79 0 135 51 135 123s-56 123 -135 123s-135 -51 -135 -123s56 -123 135 -123z" />
    <glyph glyph-name="nine" unicode="9" horiz-adv-x="582" 
d="M288 714c141 0 235 -98 235 -237c0 -101 -52 -178 -88 -230l-170 -247h-110l177 260c-19 -6 -45 -10 -64 -10c-126 0 -215 92 -215 227c0 139 94 237 235 237zM288 620c-81 0 -135 -57 -135 -143s54 -143 135 -143s135 57 135 143s-54 143 -135 143z" />
    <glyph glyph-name="zero.tf" horiz-adv-x="650" 
d="M325 -16c-175 0 -266 168 -266 365s91 365 266 365s266 -171 266 -365s-91 -365 -266 -365zM325 79c104 0 163 107 163 270s-59 270 -163 270s-163 -110 -163 -270s59 -270 163 -270z" />
    <glyph glyph-name="one.tf" horiz-adv-x="650" 
d="M390 97h196v-97h-501v97h206v493l-185 -98v100l202 108h82v-603z" />
    <glyph glyph-name="two.tf" horiz-adv-x="650" 
d="M246 97h305v-97h-438v93l263 277c28 29 68 74 68 136c0 66 -46 113 -120 113c-80 0 -128 -56 -128 -133h-100c0 143 108 228 228 228c129 0 221 -100 221 -209c0 -96 -71 -171 -101 -202z" />
    <glyph glyph-name="three.tf" horiz-adv-x="650" 
d="M324 -14c-125 0 -234 73 -234 225h100c0 -78 54 -130 134 -130s134 47 134 117s-56 117 -140 117h-41v88h41c73 0 122 42 122 104c0 67 -48 112 -119 112c-77 0 -128 -52 -128 -130h-99c0 142 91 225 227 225c118 0 220 -79 220 -197c0 -93 -55 -136 -89 -155
c45 -17 107 -71 107 -163c0 -134 -112 -213 -235 -213z" />
    <glyph glyph-name="four.tf" horiz-adv-x="650" 
d="M593 261v-91h-103v-170h-99v170h-333v83l289 447h143v-439h103zM173 261h218v339z" />
    <glyph glyph-name="five.tf" horiz-adv-x="650" 
d="M524 700v-99h-321v-185c26 23 69 49 130 49c116 0 225 -86 225 -230c0 -140 -91 -249 -235 -249c-140 0 -231 94 -231 228h100c0 -88 61 -133 130 -133c91 0 135 73 135 149c0 70 -47 142 -134 142c-62 0 -106 -26 -124 -64h-90v392h415z" />
    <glyph glyph-name="six.tf" horiz-adv-x="650" 
d="M323 -14c-141 0 -235 98 -235 237c0 101 52 178 88 230l170 247h110l-177 -260c19 6 45 10 64 10c126 0 215 -92 215 -227c0 -139 -94 -237 -235 -237zM323 80c81 0 135 57 135 143s-54 143 -135 143s-135 -57 -135 -143s54 -143 135 -143z" />
    <glyph glyph-name="seven.tf" horiz-adv-x="650" 
d="M84 700h482v-89l-273 -611h-108l270 603h-371v97z" />
    <glyph glyph-name="eight.tf" horiz-adv-x="650" 
d="M325 -14c-141 0 -237 95 -237 206c0 96 56 149 107 173c-49 26 -87 80 -87 153c0 101 87 196 217 196s217 -95 217 -196c0 -73 -38 -127 -87 -153c51 -24 107 -77 107 -173c0 -111 -96 -206 -237 -206zM325 400c68 0 116 42 116 110s-48 110 -116 110s-116 -42 -116 -110
s48 -110 116 -110zM325 80c79 0 135 51 135 123s-56 123 -135 123s-135 -51 -135 -123s56 -123 135 -123z" />
    <glyph glyph-name="nine.tf" horiz-adv-x="650" 
d="M323 714c141 0 235 -98 235 -237c0 -101 -52 -178 -88 -230l-170 -247h-110l177 260c-19 -6 -45 -10 -64 -10c-126 0 -215 92 -215 227c0 139 94 237 235 237zM323 620c-81 0 -135 -57 -135 -143s54 -143 135 -143s135 57 135 143s-54 143 -135 143z" />
    <glyph glyph-name="zero.dnom" horiz-adv-x="392" 
d="M196 393c112 0 169 -94 169 -201s-57 -200 -169 -200s-169 94 -169 200c0 108 57 201 169 201zM196 318c-57 0 -88 -52 -88 -126s31 -126 88 -126s88 53 88 126c0 75 -31 126 -88 126z" />
    <glyph glyph-name="one.dnom" horiz-adv-x="330" 
d="M230 406v-406h-75v330l-107 -60v76l103 60h79z" />
    <glyph glyph-name="two.dnom" horiz-adv-x="361" 
d="M181 414c79 0 145 -50 145 -128c0 -49 -32 -87 -77 -129l-87 -82h166v-75h-280v61l143 140c30 30 52 50 52 84c0 44 -38 54 -61 54c-37 0 -69 -17 -69 -64h-77c0 91 71 139 145 139z" />
    <glyph glyph-name="three.dnom" horiz-adv-x="343" 
d="M166 414c83 0 139 -53 139 -120c0 -49 -21 -64 -49 -84c29 -17 62 -40 62 -94c0 -68 -61 -124 -147 -124c-76 0 -144 45 -144 130h77c0 -35 30 -55 65 -55c34 0 69 16 69 57c0 38 -40 50 -69 50h-29v68h29c32 0 58 14 58 47c0 27 -17 50 -59 50c-45 0 -65 -28 -65 -57
h-75c0 82 62 132 138 132z" />
    <glyph glyph-name="four.dnom" horiz-adv-x="347" 
d="M330 161v-64h-61v-97h-74v97h-178v62l171 247h81v-245h61zM97 161h98v147z" />
    <glyph glyph-name="five.dnom" horiz-adv-x="348" 
d="M298 406v-70h-182v-82c8 8 39 21 74 21c74 0 132 -54 132 -138c0 -81 -53 -145 -147 -145c-80 0 -143 47 -143 128h74c0 -39 36 -58 71 -57c47 1 69 36 69 71c0 36 -24 74 -71 74c-32 0 -57 -17 -66 -34l-65 1v231h254z" />
    <glyph glyph-name="six.dnom" horiz-adv-x="345" 
d="M187 406h86l-109 -154c9 2 23 4 36 4c54 0 120 -38 120 -127c0 -92 -71 -137 -150 -137c-66 0 -143 31 -143 130c0 28 3 60 38 110zM174 196c-34 0 -73 -20 -73 -66c0 -48 40 -67 73 -67c34 0 71 20 71 67c0 46 -37 66 -71 66z" />
    <glyph glyph-name="seven.dnom" horiz-adv-x="314" 
d="M286 406v-64l-147 -342h-81l145 336h-179l-1 70h263z" />
    <glyph glyph-name="eight.dnom" horiz-adv-x="352" 
d="M176 414c54 0 136 -28 136 -121c0 -36 -22 -65 -50 -81c30 -16 61 -45 61 -92c0 -92 -80 -128 -147 -128c-66 0 -147 36 -147 128c0 48 31 75 61 92c-29 17 -50 45 -50 81c0 93 82 121 136 121zM176 342c-32 0 -60 -16 -60 -50c0 -35 27 -52 60 -52s60 17 60 52
c0 33 -27 50 -60 50zM176 182c-33 0 -72 -16 -72 -60c0 -42 39 -59 72 -59s72 17 72 59c0 45 -40 60 -72 60z" />
    <glyph glyph-name="nine.dnom" horiz-adv-x="345" 
d="M74 0l96 149h-12c-62 0 -133 40 -133 132c0 97 79 133 150 133c67 0 143 -32 143 -129c0 -38 -9 -67 -38 -110l-120 -175h-86zM173 210c34 0 72 20 72 66c0 48 -39 67 -72 67s-73 -19 -73 -67c0 -46 39 -66 73 -66z" />
    <glyph glyph-name="zero.numr" horiz-adv-x="392" 
d="M196 711c112 0 169 -94 169 -201s-57 -200 -169 -200s-169 94 -169 200c0 108 57 201 169 201zM196 636c-57 0 -88 -52 -88 -126s31 -126 88 -126s88 53 88 126c0 75 -31 126 -88 126z" />
    <glyph glyph-name="one.numr" horiz-adv-x="330" 
d="M230 700v-406h-75v330l-107 -60v76l103 60h79z" />
    <glyph glyph-name="two.numr" horiz-adv-x="361" 
d="M181 706c79 0 145 -50 145 -128c0 -49 -32 -87 -77 -129l-87 -82h166v-75h-280v61l143 140c30 30 52 50 52 84c0 44 -38 54 -61 54c-37 0 -69 -17 -69 -64h-77c0 91 71 139 145 139z" />
    <glyph glyph-name="three.numr" horiz-adv-x="343" 
d="M166 705c83 0 139 -53 139 -120c0 -49 -21 -64 -49 -84c29 -17 62 -40 62 -94c0 -68 -61 -124 -147 -124c-76 0 -144 45 -144 130h77c0 -35 30 -55 65 -55c34 0 69 16 69 57c0 38 -40 50 -69 50h-29v68h29c32 0 58 14 58 47c0 27 -17 50 -59 50c-45 0 -65 -28 -65 -57
h-75c0 82 62 132 138 132z" />
    <glyph glyph-name="four.numr" horiz-adv-x="347" 
d="M330 455v-64h-61v-97h-74v97h-178v62l171 247h81v-245h61zM97 455h98v147z" />
    <glyph glyph-name="five.numr" horiz-adv-x="348" 
d="M298 700v-70h-182v-82c8 8 39 21 74 21c74 0 132 -54 132 -138c0 -81 -53 -145 -147 -145c-80 0 -143 47 -143 128h74c0 -39 36 -58 71 -57c47 1 69 36 69 71c0 36 -24 74 -71 74c-32 0 -57 -17 -66 -34l-65 1v231h254z" />
    <glyph glyph-name="six.numr" horiz-adv-x="345" 
d="M187 700h86l-109 -154c9 2 23 4 36 4c54 0 120 -38 120 -127c0 -92 -71 -137 -150 -137c-66 0 -143 31 -143 130c0 28 3 60 38 110zM174 490c-34 0 -73 -20 -73 -66c0 -48 40 -67 73 -67c34 0 71 20 71 67c0 46 -37 66 -71 66z" />
    <glyph glyph-name="seven.numr" horiz-adv-x="314" 
d="M286 700v-64l-147 -342h-81l145 336h-179l-1 70h263z" />
    <glyph glyph-name="eight.numr" horiz-adv-x="352" 
d="M176 707c54 0 136 -28 136 -121c0 -36 -22 -65 -50 -81c30 -16 61 -45 61 -92c0 -92 -80 -128 -147 -128c-66 0 -147 36 -147 128c0 48 31 75 61 92c-29 17 -50 45 -50 81c0 93 82 121 136 121zM176 635c-32 0 -60 -16 -60 -50c0 -35 27 -52 60 -52s60 17 60 52
c0 33 -27 50 -60 50zM176 475c-33 0 -72 -16 -72 -60c0 -42 39 -59 72 -59s72 17 72 59c0 45 -40 60 -72 60z" />
    <glyph glyph-name="nine.numr" horiz-adv-x="345" 
d="M74 289l96 149h-12c-62 0 -133 40 -133 132c0 97 79 133 150 133c67 0 143 -32 143 -129c0 -38 -9 -67 -38 -110l-120 -175h-86zM173 499c34 0 72 20 72 66c0 48 -39 67 -72 67s-73 -19 -73 -67c0 -46 39 -66 73 -66z" />
    <glyph glyph-name="fraction" unicode="&#x2044;" horiz-adv-x="100" 
d="M204 700h96l-403 -700h-97z" />
    <glyph glyph-name="onehalf" unicode="&#xbd;" horiz-adv-x="791" 
d="M230 700v-406h-75v330l-107 -60v76l103 60h79zM534 700h96l-403 -700h-97zM611 414c79 0 145 -50 145 -128c0 -49 -32 -87 -77 -129l-87 -82h166v-75h-280v61l143 140c30 30 52 50 52 84c0 44 -38 54 -61 54c-37 0 -69 -17 -69 -64h-77c0 91 71 139 145 139z" />
    <glyph glyph-name="onequarter" unicode="&#xbc;" horiz-adv-x="777" 
d="M155 294v330l-107 -60v76l103 60h79v-406h-75zM534 700h96l-403 -700h-97zM760 161v-64h-61v-97h-74v97h-178v62l171 247h81v-245h61zM527 161h98v147z" />
    <glyph glyph-name="threequarters" unicode="&#xbe;" horiz-adv-x="790" 
d="M318 407c0 -68 -61 -124 -147 -124c-76 0 -144 45 -144 130h77c0 -35 30 -55 65 -55c34 0 69 16 69 57c0 38 -40 50 -69 50h-29v68h29c32 0 58 14 58 47c0 27 -17 50 -59 50c-45 0 -65 -28 -65 -57h-75c0 82 62 132 138 132c83 0 139 -53 139 -120c0 -49 -21 -64 -49 -84
c29 -17 62 -40 62 -94zM547 700h96l-403 -700h-97zM773 161v-64h-61v-97h-74v97h-178v62l171 247h81v-245h61zM540 161h98v147z" />
    <glyph glyph-name="asterisk" unicode="*" horiz-adv-x="497" 
d="M287 626l-4 -122l118 46l26 -72l-118 -40l82 -103l-61 -47l-81 114l-82 -114l-61 47l83 103l-119 40l26 72l118 -46l-4 122h77z" />
    <glyph glyph-name="uni2042" unicode="&#x2042;" horiz-adv-x="941" 
d="M503 736l-4 -122l118 46l26 -72l-118 -40l82 -103l-61 -47l-81 114l-82 -114l-61 47l83 103l-119 40l26 72l118 -46l-4 122h77zM272 347l-4 -122l118 46l26 -72l-118 -40l82 -103l-61 -47l-81 114l-82 -114l-61 47l83 103l-119 40l26 72l118 -46l-4 122h77zM746 347
l-4 -122l118 46l26 -72l-118 -40l82 -103l-61 -47l-81 114l-82 -114l-61 47l83 103l-119 40l26 72l118 -46l-4 122h77z" />
    <glyph glyph-name="backslash" unicode="\" horiz-adv-x="530" 
d="M149 756l304 -833h-89l-304 833h89z" />
    <glyph glyph-name="periodcentered" unicode="&#xb7;" horiz-adv-x="298" 
d="M149 367c28 0 49 -21 49 -49s-21 -49 -49 -49s-49 21 -49 49s21 49 49 49z" />
    <glyph glyph-name="bullet" unicode="&#x2022;" horiz-adv-x="426" 
d="M213 476c60 0 108 -49 108 -109s-48 -107 -108 -107s-108 47 -108 107s48 109 108 109z" />
    <glyph glyph-name="colon" unicode=":" horiz-adv-x="214" 
d="M117 377c-38 0 -69 31 -69 69s31 69 69 69s69 -31 69 -69s-31 -69 -69 -69zM117 -14c-38 0 -69 31 -69 69s31 69 69 69s69 -31 69 -69s-31 -69 -69 -69z" />
    <glyph glyph-name="comma" unicode="," horiz-adv-x="234" 
d="M117 124c38 0 69 -31 69 -69c0 -19 -3 -31 -10 -47l-57 -129h-59l46 108c-32 4 -58 33 -58 68c0 38 31 69 69 69z" />
    <glyph glyph-name="ellipsis" unicode="&#x2026;" horiz-adv-x="882" 
d="M197 -14c-38 0 -69 31 -69 69s31 69 69 69s69 -31 69 -69s-31 -69 -69 -69zM451 -14c-38 0 -69 31 -69 69s31 69 69 69s69 -31 69 -69s-31 -69 -69 -69zM705 -14c-38 0 -69 31 -69 69s31 69 69 69s69 -31 69 -69s-31 -69 -69 -69z" />
    <glyph glyph-name="exclam" unicode="!" horiz-adv-x="301" 
d="M201 692l-6 -478h-90l-5 478h101zM150 -14c-38 0 -69 31 -69 69s31 69 69 69s69 -31 69 -69s-31 -69 -69 -69z" />
    <glyph glyph-name="exclamdown" unicode="&#xa1;" horiz-adv-x="301" 
d="M150 706c38 0 69 -31 69 -69s-31 -69 -69 -69s-69 31 -69 69s31 69 69 69zM201 0h-101l5 478h90z" />
    <glyph glyph-name="numbersign" unicode="#" horiz-adv-x="710" 
d="M657 431h-135l-18 -149h128v-69h-136l-26 -213h-82l26 213h-151l-26 -213h-82l26 213h-134v69h142l18 149h-135v69h143l24 200h82l-24 -200h151l24 200h82l-24 -200h127v-69zM422 282l18 149h-151l-18 -149h151z" />
    <glyph glyph-name="period" unicode="." horiz-adv-x="234" 
d="M117 -14c-38 0 -69 31 -69 69s31 69 69 69s69 -31 69 -69s-31 -69 -69 -69z" />
    <glyph glyph-name="question" unicode="?" horiz-adv-x="415" 
d="M206 714c120 0 181 -79 181 -170c0 -138 -139 -152 -139 -310v-33h-96v33c0 195 135 211 135 308c0 47 -37 79 -81 79c-43 0 -86 -25 -86 -104h-95c0 108 56 197 181 197zM203 -14c-38 0 -69 31 -69 69s31 69 69 69s69 -31 69 -69s-31 -69 -69 -69z" />
    <glyph glyph-name="questiondown" unicode="&#xbf;" horiz-adv-x="399" 
d="M202 496c38 0 69 -31 69 -69s-31 -69 -69 -69s-69 31 -69 69s31 69 69 69zM199 -232c-120 0 -181 79 -181 170c0 138 139 152 139 310v33h96v-33c0 -195 -135 -211 -135 -308c0 -47 37 -79 81 -79c43 0 86 25 86 104h95c0 -108 -56 -197 -181 -197z" />
    <glyph glyph-name="quotedbl" unicode="&#x22;" horiz-adv-x="413" 
d="M173 700l-19 -219h-62l-19 219h100zM340 700l-18 -219h-62l-19 219h99z" />
    <glyph glyph-name="quotesingle" unicode="'" horiz-adv-x="184" 
d="M119 700l-18 -219h-62l-19 219h99z" />
    <glyph glyph-name="semicolon" unicode=";" horiz-adv-x="214" 
d="M117 381c-38 0 -69 31 -69 69s31 69 69 69s69 -31 69 -69s-31 -69 -69 -69zM117 124c38 0 69 -31 69 -69c0 -19 -3 -31 -10 -47l-57 -129h-59l46 108c-32 4 -58 33 -58 68c0 38 31 69 69 69z" />
    <glyph glyph-name="slash" unicode="/" horiz-adv-x="513" 
d="M364 756h89l-304 -833h-89z" />
    <glyph glyph-name="underscore" unicode="_" horiz-adv-x="672" 
d="M637 -17v-65h-602v65h602z" />
    <glyph glyph-name="braceleft" unicode="{" horiz-adv-x="424" 
d="M318 838h36v-56h-36c-53 0 -66 -41 -66 -92v-224c0 -47 -25 -80 -61 -101c36 -21 61 -53 61 -100v-224c0 -51 13 -92 66 -92h36v-56h-36c-88 0 -149 50 -149 139v235c0 53 -18 76 -79 76v45c57 0 79 23 79 76v235c0 89 61 139 149 139z" />
    <glyph glyph-name="braceright" unicode="}" horiz-adv-x="424" 
d="M106 838c88 0 149 -50 149 -139v-235c0 -53 22 -76 79 -76v-45c-61 0 -79 -23 -79 -76v-235c0 -89 -61 -139 -149 -139h-36v56h36c53 0 66 41 66 92v224c0 47 25 79 61 100c-36 21 -61 54 -61 101v224c0 51 -13 92 -66 92h-36v56h36z" />
    <glyph glyph-name="bracketleft" unicode="[" horiz-adv-x="448" 
d="M358 840v-80h-145v-799h145v-70h-233v949h233z" />
    <glyph glyph-name="bracketright" unicode="]" horiz-adv-x="448" 
d="M323 840v-949h-233v70h145v799h-145v80h233z" />
    <glyph glyph-name="parenleft" unicode="(" horiz-adv-x="301" 
d="M197 759h94c-113 -134 -172 -278 -172 -428s59 -294 172 -428h-94c-113 127 -172 280 -172 428s59 301 172 428z" />
    <glyph glyph-name="parenright" unicode=")" horiz-adv-x="301" 
d="M104 759c113 -127 172 -280 172 -428s-59 -301 -172 -428h-94c113 134 172 278 172 428s-59 294 -172 428h94z" />
    <glyph glyph-name="emdash" unicode="&#x2014;" horiz-adv-x="712" 
d="M667 338v-80h-622v80h622z" />
    <glyph glyph-name="endash" unicode="&#x2013;" horiz-adv-x="564" 
d="M519 338v-80h-474v80h474z" />
    <glyph glyph-name="hyphen" unicode="-" horiz-adv-x="583" 
d="M493 338v-80h-403v80h403z" />
    <glyph glyph-name="guillemotleft" unicode="&#xab;" horiz-adv-x="618" 
d="M259 534l47 -36l-122 -199l122 -199l-47 -36l-174 235zM486 534l47 -36l-122 -199l122 -199l-47 -36l-174 235z" />
    <glyph glyph-name="guillemotright" unicode="&#xbb;" horiz-adv-x="618" 
d="M132 534l174 -235l-174 -235l-47 36l122 199l-122 199zM359 534l174 -235l-174 -235l-47 36l122 199l-122 199z" />
    <glyph glyph-name="guilsinglleft" unicode="&#x2039;" horiz-adv-x="391" 
d="M259 534l47 -36l-122 -199l122 -199l-47 -36l-174 235z" />
    <glyph glyph-name="guilsinglright" unicode="&#x203a;" horiz-adv-x="391" 
d="M132 534l174 -235l-174 -235l-47 36l122 199l-122 199z" />
    <glyph glyph-name="quotedblbase" unicode="&#x201e;" horiz-adv-x="397" 
d="M107 124c38 0 69 -31 69 -69c0 -19 -3 -31 -10 -47l-57 -129h-59l46 108c-32 4 -58 33 -58 68c0 38 31 69 69 69zM310 124c38 0 69 -31 69 -69c0 -19 -3 -31 -10 -47l-57 -129h-59l46 108c-32 4 -58 33 -58 68c0 38 31 69 69 69z" />
    <glyph glyph-name="quotedblleft" unicode="&#x201c;" horiz-adv-x="397" 
d="M87 472c-38 0 -69 31 -69 69c0 19 3 31 10 47l57 129h59l-46 -108c32 -4 58 -33 58 -68c0 -38 -31 -69 -69 -69zM290 472c-38 0 -69 31 -69 69c0 19 3 31 10 47l57 129h59l-46 -108c32 -4 58 -33 58 -68c0 -38 -31 -69 -69 -69z" />
    <glyph glyph-name="quotedblright" unicode="&#x201d;" horiz-adv-x="397" 
d="M107 717c38 0 69 -31 69 -69c0 -19 -3 -31 -10 -47l-57 -129h-59l46 108c-32 4 -58 33 -58 68c0 38 31 69 69 69zM310 717c38 0 69 -31 69 -69c0 -19 -3 -31 -10 -47l-57 -129h-59l46 108c-32 4 -58 33 -58 68c0 38 31 69 69 69z" />
    <glyph glyph-name="quoteleft" unicode="&#x2018;" horiz-adv-x="194" 
d="M87 472c-38 0 -69 31 -69 69c0 19 3 31 10 47l57 129h59l-46 -108c32 -4 58 -33 58 -68c0 -38 -31 -69 -69 -69z" />
    <glyph glyph-name="quoteright" unicode="&#x2019;" horiz-adv-x="194" 
d="M107 717c38 0 69 -31 69 -69c0 -19 -3 -31 -10 -47l-57 -129h-59l46 108c-32 4 -58 33 -58 68c0 38 31 69 69 69z" />
    <glyph glyph-name="quotesinglbase" unicode="&#x201a;" horiz-adv-x="214" 
d="M112 124c38 0 69 -31 69 -69c0 -19 -3 -31 -10 -47l-57 -129h-59l46 108c-32 4 -58 33 -58 68c0 38 31 69 69 69z" />
    <glyph glyph-name="space" unicode=" " horiz-adv-x="244" 
 />
    <glyph glyph-name="cent" unicode="&#xa2;" horiz-adv-x="532" 
d="M307 74c56 5 98 45 105 105h93c-11 -112 -89 -187 -198 -193v-70h-47v72c-121 17 -207 120 -207 263c0 144 86 247 207 263v69h47v-67c111 -7 187 -82 198 -193h-93c-7 59 -49 99 -105 105v-354zM150 251c0 -94 37 -160 110 -175v350c-72 -14 -110 -79 -110 -175z" />
    <glyph glyph-name="currency" unicode="&#xa4;" horiz-adv-x="659" 
d="M512 584l67 -67l-60 -61c23 -37 35 -79 35 -121c0 -43 -11 -85 -35 -122l60 -61l-67 -67l-60 60c-37 -25 -80 -36 -123 -36s-85 11 -122 35l-60 -59l-67 67l60 60c-25 37 -37 81 -37 124s12 85 36 122l-59 59l67 67l59 -59c37 24 79 36 123 36c42 0 85 -13 123 -37z
M329 476c-79 0 -141 -65 -141 -141c0 -78 64 -140 141 -140c79 0 141 66 141 141c0 74 -63 140 -141 140z" />
    <glyph glyph-name="dollar" unicode="$" horiz-adv-x="559" 
d="M515 185c0 -106 -78 -193 -212 -199v-70h-47v72c-135 13 -213 110 -213 234h102c0 -78 43 -126 111 -138v231l-63 27c-75 32 -131 82 -131 176c0 114 90 188 194 195v67h47v-68c117 -12 205 -92 205 -223h-101c0 58 -32 116 -104 128v-214l74 -31
c88 -37 138 -101 138 -187zM239 430l17 -7v195c-60 -7 -93 -45 -93 -93c0 -45 30 -76 76 -95zM303 81c81 4 111 45 111 99c0 44 -22 77 -90 106l-21 9v-214z" />
    <glyph glyph-name="Euro" unicode="&#x20ac;" horiz-adv-x="696" 
d="M409 81c90 0 134 65 143 139h100c-8 -134 -107 -234 -245 -234c-137 0 -242 98 -278 246h-75l24 80h38c-1 12 -1 25 -1 38c0 10 0 21 1 31h-61l24 80h48c35 152 141 253 281 253c139 0 235 -99 244 -234h-100c-9 74 -53 139 -144 139c-88 0 -151 -61 -177 -158h233
l-24 -80h-222c-1 -10 -1 -20 -1 -31c0 -13 1 -26 1 -38h203l-24 -80h-164c28 -93 90 -151 176 -151z" />
    <glyph glyph-name="florin" unicode="&#x192;" horiz-adv-x="454" 
d="M359 759v-88h-38c-32 0 -59 -16 -59 -79v-89h86v-88h-86v-474c0 -106 -59 -163 -135 -163h-57v88h38c32 0 59 16 59 79v470h-68v88h68v93c0 106 59 163 135 163h57z" />
    <glyph glyph-name="sterling" unicode="&#xa3;" horiz-adv-x="598" 
d="M284 243c0 -65 -41 -117 -85 -157h317v-86h-442v83c75 58 110 114 110 164c0 17 -4 33 -10 49h-116v84h72c-21 38 -40 80 -40 133c0 126 108 202 224 202c134 0 225 -100 225 -209h-101c0 66 -46 114 -123 114c-78 0 -125 -50 -125 -117c0 -45 21 -84 44 -123h207v-84
h-166c6 -17 9 -34 9 -53z" />
    <glyph glyph-name="yen" unicode="&#xa5;" horiz-adv-x="592" 
d="M588 700l-197 -373h127v-65h-161l-11 -21v-43h172v-65h-172v-133h-99v133h-172v65h172v43l-11 21h-161v65h126l-197 373h107l185 -360l185 360h107z" />
    <glyph glyph-name="plus" unicode="+" horiz-adv-x="643" 
d="M361 555v-212h212v-80h-212v-212h-80v212h-211v80h211v212h80z" />
    <glyph glyph-name="minus" unicode="&#x2212;" horiz-adv-x="683" 
d="M616 329v-80h-543v80h543z" />
    <glyph glyph-name="multiply" unicode="&#xd7;" horiz-adv-x="583" 
d="M418 473l57 -57l-127 -127l127 -127l-57 -57l-127 127l-126 -127l-57 57l126 127l-126 127l57 57l126 -127z" />
    <glyph glyph-name="divide" unicode="&#xf7;" horiz-adv-x="627" 
d="M366 561v-111h-104v111h104zM587 341v-80h-546v80h546zM366 151v-111h-104v111h104z" />
    <glyph glyph-name="equal" unicode="=" horiz-adv-x="723" 
d="M643 425v-75h-563v75h563zM643 228v-75h-563v75h563z" />
    <glyph glyph-name="notequal" unicode="&#x2260;" horiz-adv-x="723" 
d="M643 350h-191l-86 -122h277v-75h-329l-96 -137l-71 47l63 90h-130v75h183l85 122h-268v75h320l95 135l70 -48l-61 -87h139v-75z" />
    <glyph glyph-name="greater" unicode="&#x3e;" horiz-adv-x="601" 
d="M55 584l491 -214v-78l-491 -214v89l381 164l-381 164v89z" />
    <glyph glyph-name="less" unicode="&#x3c;" horiz-adv-x="601" 
d="M546 584v-89l-381 -164l381 -164v-89l-491 214v78z" />
    <glyph glyph-name="greaterequal" unicode="&#x2265;" horiz-adv-x="723" 
d="M570 382l-491 -214v89l381 164l-381 164v89l491 -214v-78zM80 80h491v-80h-491v80z" />
    <glyph glyph-name="lessequal" unicode="&#x2264;" horiz-adv-x="602" 
d="M547 674v-89l-381 -164l381 -164v-89l-491 214v78zM55 0v80h491v-80h-491z" />
    <glyph glyph-name="plusminus" unicode="&#xb1;" horiz-adv-x="740" 
d="M418 674v-212h212v-80h-212v-212h-80v212h-211v80h211v212h80zM630 80v-80h-503v80h503z" />
    <glyph glyph-name="approxequal" unicode="&#x2248;" horiz-adv-x="715" 
d="M248 466c77 0 119 -62 188 -62c28 0 63 2 103 44l50 -39c-25 -48 -88 -91 -151 -91c-77 0 -125 59 -190 59c-29 0 -65 -2 -99 -39l-44 45c23 39 78 83 143 83zM252 257c77 0 119 -62 188 -62c28 0 63 2 103 44l50 -39c-25 -48 -88 -91 -151 -91c-77 0 -125 59 -190 59
c-29 0 -65 -2 -99 -39l-44 45c23 39 78 83 143 83z" />
    <glyph glyph-name="asciitilde" unicode="~" horiz-adv-x="691" 
d="M238 433c77 0 119 -62 188 -62c28 0 63 2 103 44l50 -39c-25 -48 -88 -91 -151 -91c-77 0 -125 59 -190 59c-29 0 -65 -2 -99 -39l-44 45c23 39 78 83 143 83z" />
    <glyph glyph-name="logicalnot" unicode="&#xac;" horiz-adv-x="723" 
d="M623 448v-275h-80v195h-443v80h523z" />
    <glyph glyph-name="infinity" unicode="&#x221e;" horiz-adv-x="859" 
d="M618 465c108 0 186 -79 186 -175c0 -98 -78 -176 -186 -176c-75 0 -141 51 -189 105c-47 -54 -113 -105 -188 -105c-108 0 -186 78 -186 176c0 96 78 175 186 175c78 0 140 -49 189 -106c48 57 110 106 188 106zM241 198c60 0 107 49 136 92c-29 42 -76 90 -136 90
c-62 0 -102 -40 -102 -90c0 -52 40 -92 102 -92zM618 198c62 0 102 40 102 92c0 50 -40 90 -102 90c-60 0 -107 -48 -136 -90c29 -43 76 -92 136 -92z" />
    <glyph glyph-name="integral" unicode="&#x222b;" horiz-adv-x="459" 
d="M355 759v-88h-38c-32 0 -59 -16 -59 -79v-651c0 -106 -59 -163 -135 -163h-57v88h38c32 0 59 16 59 79v651c0 106 59 163 135 163h57z" />
    <glyph glyph-name="uni2126" unicode="&#x2126;" horiz-adv-x="802" 
d="M401 717c194 0 321 -151 321 -322c0 -150 -119 -247 -178 -274v-28h163v-93h-256v143c117 52 168 143 168 252c0 99 -59 227 -218 227s-218 -128 -218 -227c0 -109 50 -200 168 -252v-143h-256v93h163v28c-59 27 -178 124 -178 274c0 171 127 322 321 322z" />
    <glyph glyph-name="uni2206" unicode="&#x2206;" horiz-adv-x="759" 
d="M719 0h-679l279 700h120zM182 93h395l-198 495z" />
    <glyph glyph-name="product" unicode="&#x220f;" horiz-adv-x="621" 
d="M516 700v-700h-95v611h-221v-611h-95v700h411z" />
    <glyph glyph-name="summation" unicode="&#x2211;" horiz-adv-x="592" 
d="M514 700v-93h-292l128 -233v-46l-129 -235h293v-93h-417v72l156 278l-156 281v69h417z" />
    <glyph glyph-name="radical" unicode="&#x221a;" horiz-adv-x="768" 
d="M581 676l85 -29l-227 -647h-87l-126 277h-151v81h214l101 -225z" />
    <glyph glyph-name="uni00B5" unicode="&#xb5;" horiz-adv-x="582" 
d="M404 502h95v-502h-89v58c-28 -40 -77 -72 -152 -72c-33 0 -64 6 -90 19v-199h-95v696h95v-299c0 -74 30 -130 110 -130c86 0 126 64 126 161v268z" />
    <glyph glyph-name="partialdiff" unicode="&#x2202;" horiz-adv-x="604" 
d="M309 717c188 0 238 -179 238 -349c0 -278 -133 -382 -273 -382c-127 0 -214 85 -214 239c0 190 133 292 258 292c66 0 106 -28 135 -71c-8 144 -83 181 -159 181c-66 0 -109 -28 -155 -66l-60 57c63 56 138 99 230 99zM322 430c-72 0 -157 -62 -157 -199
c0 -89 36 -150 109 -150c83 0 159 78 159 196c0 73 -29 153 -111 153z" />
    <glyph glyph-name="percent" unicode="%" horiz-adv-x="945" 
d="M250 373c-95 0 -170 75 -170 170c0 96 75 171 170 171s170 -75 170 -171c0 -95 -75 -170 -170 -170zM223 0l404 700h96l-403 -700h-97zM250 461c47 0 84 37 84 82c0 47 -37 84 -84 84c-45 0 -82 -37 -82 -84c0 -45 37 -82 82 -82zM694 -14c-95 0 -170 75 -170 170
s75 170 170 170c96 0 171 -75 171 -170s-75 -170 -171 -170zM694 72c46 0 83 37 83 84c0 46 -37 83 -83 83s-83 -37 -83 -83c0 -47 37 -84 83 -84z" />
    <glyph glyph-name="perthousand" unicode="&#x2030;" horiz-adv-x="1173" 
d="M420 538c0 -95 -75 -170 -170 -170s-170 75 -170 170c0 96 75 171 170 171s170 -75 170 -171zM627 700h96l-403 -700h-97zM168 538c0 -45 37 -82 82 -82c47 0 84 37 84 82c0 47 -37 84 -84 84c-45 0 -82 -37 -82 -84zM947 322c96 0 171 -75 171 -170s-75 -170 -171 -170
c-50 0 -95 21 -126 55c-31 -34 -76 -55 -127 -55c-95 0 -170 75 -170 170s75 170 170 170c51 0 96 -21 127 -55c31 34 76 55 126 55zM694 68c46 0 83 37 83 84c0 46 -37 83 -83 83s-83 -37 -83 -83c0 -47 37 -84 83 -84zM947 68c46 0 83 37 83 84c0 46 -37 83 -83 83
c-42 0 -77 -31 -82 -72v-11v-11c5 -42 40 -73 82 -73z" />
    <glyph glyph-name="arrowup" unicode="&#x2191;" horiz-adv-x="586" 
d="M293 714l218 -218l-1 -114l-178 185l-1 -567h-77v568l-179 -187v115z" />
    <glyph glyph-name="uni2197" unicode="&#x2197;" horiz-adv-x="683" 
d="M608 700v-309l-81 -80l5 257l-402 -401l-55 55l402 402l-258 -6l81 81z" />
    <glyph glyph-name="arrowright" unicode="&#x2192;" horiz-adv-x="864" 
d="M789 285l-218 -218l-114 1l185 178l-567 1v77h568l-187 179h115z" />
    <glyph glyph-name="uni2198" unicode="&#x2198;" horiz-adv-x="683" 
d="M608 0h-308l-81 81l258 -5l-402 402l55 55l402 -401l-5 257l81 -80v-309z" />
    <glyph glyph-name="arrowdown" unicode="&#x2193;" horiz-adv-x="585" 
d="M292 -14l-218 218v115l179 -187v568h77l1 -567l178 185l1 -114z" />
    <glyph glyph-name="uni2199" unicode="&#x2199;" horiz-adv-x="683" 
d="M75 0v309l81 80l-5 -257l402 401l55 -55l-402 -402l258 5l-81 -81h-308z" />
    <glyph glyph-name="arrowleft" unicode="&#x2190;" horiz-adv-x="864" 
d="M75 285l218 218h115l-187 -179h568v-77l-567 -1l185 -178l-114 -1z" />
    <glyph glyph-name="uni2196" unicode="&#x2196;" horiz-adv-x="683" 
d="M75 700l308 -1l81 -81l-258 6l402 -402l-55 -55l-402 401l5 -257l-81 80v309z" />
    <glyph glyph-name="arrowboth" unicode="&#x2194;" horiz-adv-x="878" 
d="M263 134l-218 217l218 218h115l-187 -179h472l-187 179h115l218 -218l-218 -217h-114l185 178h-470l185 -178h-114z" />
    <glyph glyph-name="arrowupdn" unicode="&#x2195;" horiz-adv-x="585" 
d="M293 -34l-218 218v115l179 -187v472l-179 -187v115l218 218l217 -218v-114l-178 185v-470l178 185v-114z" />
    <glyph glyph-name="lozenge" unicode="&#x25ca;" horiz-adv-x="593" 
d="M330 699l208 -348l-210 -351h-64l-209 351l207 348h68zM296 587l-141 -236l141 -235l142 235z" />
    <glyph glyph-name="uniF8FF" unicode="&#xf8ff;" horiz-adv-x="1057" 
d="M992 700v-922h-927v922h927zM922 630h-787v-782h787v782zM417 495c119 0 208 -98 208 -230c0 -134 -90 -230 -208 -230c-117 0 -206 95 -206 230c0 133 88 230 206 230zM418 420c-78 0 -129 -60 -129 -155s51 -156 129 -156c76 0 127 61 127 156s-51 155 -127 155z
M852 383v-74h-36c-34 0 -57 -24 -57 -71v-190h-74v331h70v-37c15 22 44 41 72 41h25z" />
    <glyph glyph-name="at" unicode="@" horiz-adv-x="1094" 
d="M544 -222c-299 0 -463 202 -463 469c0 260 207 467 478 467c241 0 437 -163 437 -380v-194c0 -127 -81 -190 -173 -190c-83 0 -143 36 -163 117c-35 -47 -98 -81 -172 -81c-81 0 -149 40 -149 131c0 125 130 164 188 180l125 35c0 69 -40 100 -100 100
c-54 0 -105 -25 -105 -95h-96c0 136 106 180 197 180c90 0 199 -42 199 -178v-226c0 -49 29 -78 76 -78c46 0 75 33 75 91v208c0 183 -142 287 -341 287c-226 0 -374 -168 -374 -365c0 -203 107 -390 356 -390h82v-88h-77zM499 71c56 0 153 47 153 124v56l-110 -31
c-81 -23 -106 -58 -106 -93c0 -40 31 -56 63 -56z" />
    <glyph glyph-name="ampersand" unicode="&#x26;" horiz-adv-x="735" 
d="M735 0h-124l-96 92c-51 -54 -122 -107 -224 -107c-134 0 -201 94 -201 180c0 95 54 149 140 200c-63 64 -93 109 -93 175c0 78 46 174 190 174s190 -96 190 -174c0 -83 -73 -144 -142 -186l133 -130l87 104h118l-140 -168zM327 626c-48 0 -90 -30 -90 -85
c0 -43 26 -76 77 -126c69 41 103 69 103 126c0 55 -42 85 -90 85zM297 78c66 0 111 33 152 77l-156 150c-67 -41 -102 -88 -102 -139c0 -45 34 -88 106 -88z" />
    <glyph glyph-name="paragraph" unicode="&#xb6;" horiz-adv-x="832" 
d="M732 700v-83h-67v-839h-97v839h-142v-839h-97v503c-105 0 -191 99 -191 210c0 110 86 209 191 209h403z" />
    <glyph glyph-name="section" unicode="&#xa7;" horiz-adv-x="655" 
d="M353 717c106 0 165 -66 203 -115l-59 -55c-29 37 -67 86 -144 86c-57 0 -90 -34 -90 -77c0 -49 54 -80 112 -105c78 -40 194 -88 194 -213c0 -78 -43 -134 -118 -156c39 -32 67 -75 67 -140c0 -91 -71 -175 -191 -175c-149 0 -221 104 -235 135l59 56
c19 -34 90 -109 176 -109c69 0 102 47 102 93c0 54 -42 89 -142 133c-93 45 -144 94 -144 185c0 62 51 125 128 145c-64 37 -98 80 -98 151c0 98 74 161 180 161zM347 367c-53 -8 -114 -39 -114 -107c0 -54 54 -88 112 -115l33 -16c69 0 102 60 102 109
c0 52 -51 88 -133 129z" />
    <glyph glyph-name="copyright" unicode="&#xa9;" horiz-adv-x="838" 
d="M419 -14c-195 0 -354 163 -354 364s159 364 354 364s354 -163 354 -364s-159 -364 -354 -364zM419 62c150 0 274 128 274 288s-124 288 -274 288s-274 -128 -274 -288s124 -288 274 -288zM421 138c-116 0 -195 88 -195 212c0 126 81 212 193 212c75 0 170 -47 178 -156
h-88c-8 51 -41 72 -87 72c-64 0 -100 -47 -100 -128c0 -80 36 -129 101 -129c46 0 78 22 86 72h88c-8 -108 -99 -155 -176 -155z" />
    <glyph glyph-name="registered" unicode="&#xae;" horiz-adv-x="838" 
d="M419 714c195 0 354 -163 354 -364s-159 -364 -354 -364s-354 163 -354 364s159 364 354 364zM419 62c150 0 274 128 274 288s-124 288 -274 288s-274 -128 -274 -288s124 -288 274 -288zM571 431c0 -40 -19 -113 -112 -132l117 -169h-98l-109 162v-162h-84v440h125
c136 0 161 -88 161 -139zM369 489v-113h41c74 0 76 39 76 55c0 26 -2 58 -76 58h-41z" />
    <glyph glyph-name="trademark" unicode="&#x2122;" horiz-adv-x="643" 
d="M228 700v-59h-74v-291h-70v291h-74v59h218zM633 700v-350h-70v269l-70 -165h-66l-69 165v-269h-70v350h105l67 -164l63 164h110z" />
    <glyph glyph-name="degree" unicode="&#xb0;" horiz-adv-x="350" 
d="M175 714c-91 0 -165 -74 -165 -165s74 -166 165 -166s165 75 165 166s-74 165 -165 165zM175 639c48 0 90 -42 90 -90c0 -49 -42 -91 -90 -91s-90 42 -90 91c0 48 42 90 90 90z" />
    <glyph glyph-name="bar" unicode="|" horiz-adv-x="277" 
d="M180 759v-898h-83v898h83z" />
    <glyph glyph-name="brokenbar" unicode="&#xa6;" horiz-adv-x="277" 
d="M180 759v-352h-83v352h83zM180 213v-352h-83v352h83z" />
    <glyph glyph-name="uni2113" unicode="&#x2113;" horiz-adv-x="421" 
d="M220 72c18 0 35 9 55 26l52 -56c-36 -42 -72 -56 -116 -56c-95 0 -126 66 -126 152v106c-15 -7 -29 -13 -44 -18l-24 82c24 8 47 17 68 27v282c0 99 61 150 147 150c55 0 134 -22 134 -169c0 -130 -81 -232 -186 -302v-168c0 -35 11 -56 40 -56zM180 399
c62 58 93 131 93 207c0 56 -17 76 -47 76c-28 0 -46 -20 -46 -66v-217z" />
    <glyph glyph-name="dagger" unicode="&#x2020;" horiz-adv-x="663" 
d="M373 759v-168h210v-80h-210v-674h-83v674h-210v80h210v168h83z" />
    <glyph glyph-name="daggerdbl" unicode="&#x2021;" horiz-adv-x="663" 
d="M373 759v-168h210v-80h-210v-335h210v-80h-210v-259h-83v259h-210v80h210v335h-210v80h210v168h83z" />
    <glyph glyph-name="uni2116" unicode="&#x2116;" horiz-adv-x="1090" 
d="M880 383c-91 0 -165 75 -165 166s74 165 165 165s165 -74 165 -165s-74 -166 -165 -166zM514 173v527h99v-700h-107l-316 530v-530h-99v700h104zM880 634c-46 0 -85 -39 -85 -85c0 -47 39 -86 85 -86s85 39 85 86c0 46 -39 85 -85 85zM719 225v76h322v-76h-322z" />
    <glyph glyph-name="asciicircum" unicode="^" horiz-adv-x="642" 
d="M379 700l209 -411h-99l-170 333l-180 -333h-90l209 411h121z" />
    <glyph glyph-name="uni0308" unicode="&#x308;" horiz-adv-x="0" 
d="M-348 573c-37 0 -66 30 -66 66c0 34 29 64 66 64c35 0 63 -30 63 -64c0 -36 -28 -66 -63 -66zM-140 573c-37 0 -66 30 -66 66c0 34 29 64 66 64c35 0 63 -30 63 -64c0 -36 -28 -66 -63 -66z" />
    <glyph glyph-name="uni0307" unicode="&#x307;" horiz-adv-x="0" 
d="M-118 573c-37 0 -66 30 -66 66c0 34 29 64 66 64c35 0 63 -30 63 -64c0 -36 -28 -66 -63 -66z" />
    <glyph glyph-name="gravecomb" unicode="&#x300;" horiz-adv-x="0" 
d="M-268 725h120l98 -151h-87z" />
    <glyph glyph-name="acutecomb" unicode="&#x301;" horiz-adv-x="0" 
d="M10 725l-131 -151h-87l98 151h120z" />
    <glyph glyph-name="uni030B" unicode="&#x30b;" horiz-adv-x="0" 
d="M-239 691l-103 -131h-87l78 131h112zM-72 691l-103 -131h-87l78 131h112z" />
    <glyph glyph-name="uni0302" unicode="&#x302;" horiz-adv-x="0" 
d="M-55 569h-98l-57 69l-57 -69h-98l116 131h78z" />
    <glyph glyph-name="uni030C" unicode="&#x30c;" horiz-adv-x="0" 
d="M-153 700h98l-116 -131h-78l-116 131h98l57 -69z" />
    <glyph glyph-name="uni0306" unicode="&#x306;" horiz-adv-x="0" 
d="M-79 700c0 -86 -44 -138 -134 -138c-84 0 -134 52 -134 138h72c0 -57 30 -72 62 -72c37 0 62 15 62 72h72z" />
    <glyph glyph-name="uni030A" unicode="&#x30a;" horiz-adv-x="0" 
d="M-168 717c50 0 88 -38 88 -87s-38 -87 -88 -87c-49 0 -87 38 -87 87s38 87 87 87zM-168 672c-22 0 -42 -20 -42 -42c0 -24 20 -43 42 -43s42 19 42 43c0 22 -20 42 -42 42z" />
    <glyph glyph-name="tildecomb" unicode="&#x303;" horiz-adv-x="0" 
d="M-115 700h60c0 -74 -28 -120 -90 -120c-63 0 -97 46 -130 46c-23 0 -32 -21 -32 -48h-60c0 74 28 120 91 120s96 -46 129 -46c23 0 32 21 32 48z" />
    <glyph glyph-name="uni0304" unicode="&#x304;" horiz-adv-x="0" 
d="M-72 659v-69h-329v69h329z" />
    <glyph glyph-name="uni0312" unicode="&#x312;" horiz-adv-x="0" 
d="M-154 574v97c0 45 22 69 74 94l27 -33c-29 -11 -51 -26 -51 -48v-13h54v-97h-104z" />
    <glyph glyph-name="uni0326" unicode="&#x326;" horiz-adv-x="0" 
d="M-50 -58v-97c0 -45 -22 -69 -74 -94l-27 33c29 11 51 26 51 48v13h-54v97h104z" />
    <glyph glyph-name="uni0327" unicode="&#x327;" horiz-adv-x="0" 
d="M-50 -67l-72 -160l-104 44l108 116h68z" />
    <glyph glyph-name="uni0328" unicode="&#x328;" horiz-adv-x="0" 
d="M-112 -190c-57 0 -97 38 -97 88c0 37 23 75 70 102h87c-60 -29 -83 -56 -83 -80c0 -25 19 -35 39 -35c14 0 31 4 49 12v-73c-21 -9 -44 -14 -65 -14z" />
    <glyph glyph-name="acute" unicode="&#xb4;" horiz-adv-x="282" 
d="M292 725l-131 -151h-87l98 151h120z" />
    <glyph glyph-name="breve" unicode="&#x2d8;" horiz-adv-x="426" 
d="M347 700c0 -86 -44 -138 -134 -138c-84 0 -134 52 -134 138h72c0 -57 30 -72 62 -72c37 0 62 15 62 72h72z" />
    <glyph glyph-name="caron" unicode="&#x2c7;" horiz-adv-x="420" 
d="M267 700h98l-116 -131h-78l-116 131h98l57 -69z" />
    <glyph glyph-name="cedilla" unicode="&#xb8;" horiz-adv-x="341" 
d="M221 -67l-72 -160l-104 44l108 116h68z" />
    <glyph glyph-name="circumflex" unicode="&#x2c6;" horiz-adv-x="420" 
d="M365 569h-98l-57 69l-57 -69h-98l116 131h78z" />
    <glyph glyph-name="dieresis" unicode="&#xa8;" horiz-adv-x="491" 
d="M143 573c-37 0 -66 30 -66 66c0 34 29 64 66 64c35 0 63 -30 63 -64c0 -36 -28 -66 -63 -66zM351 573c-37 0 -66 30 -66 66c0 34 29 64 66 64c35 0 63 -30 63 -64c0 -36 -28 -66 -63 -66z" />
    <glyph glyph-name="dotaccent" unicode="&#x2d9;" horiz-adv-x="239" 
d="M121 573c-37 0 -66 30 -66 66c0 34 29 64 66 64c35 0 63 -30 63 -64c0 -36 -28 -66 -63 -66z" />
    <glyph glyph-name="grave" unicode="`" horiz-adv-x="358" 
d="M63 725h120l98 -151h-87z" />
    <glyph glyph-name="hungarumlaut" unicode="&#x2dd;" horiz-adv-x="589" 
d="M350 691l-103 -131h-87l78 131h112zM517 691l-103 -131h-87l78 131h112z" />
    <glyph glyph-name="macron" unicode="&#xaf;" horiz-adv-x="481" 
d="M405 659v-69h-329v69h329z" />
    <glyph glyph-name="ogonek" unicode="&#x2db;" horiz-adv-x="273" 
d="M161 -190c-57 0 -97 38 -97 88c0 37 23 75 70 102h87c-60 -29 -83 -56 -83 -80c0 -25 19 -35 39 -35c14 0 31 4 49 12v-73c-21 -9 -44 -14 -65 -14z" />
    <glyph glyph-name="ring" unicode="&#x2da;" horiz-adv-x="335" 
d="M167 717c50 0 88 -38 88 -87s-38 -87 -88 -87c-49 0 -87 38 -87 87s38 87 87 87zM167 672c-22 0 -42 -20 -42 -42c0 -24 20 -43 42 -43s42 19 42 43c0 22 -20 42 -42 42z" />
    <glyph glyph-name="tilde" unicode="&#x2dc;" horiz-adv-x="422" 
d="M307 700h60c0 -74 -28 -120 -90 -120c-63 0 -97 46 -130 46c-23 0 -32 -21 -32 -48h-60c0 74 28 120 91 120s96 -46 129 -46c23 0 32 21 32 48z" />
    </font>
</defs>
</svg>
