<?xml version="1.0" standalone="no"?>
<!DOCTYPE svg PUBLIC "-//W3C//DTD SVG 1.1//EN" "http://www.w3.org/Graphics/SVG/1.1/DTD/svg11.dtd" >
<svg xmlns="http://www.w3.org/2000/svg" xmlns:xlink="http://www.w3.org/1999/xlink" version="1.1">
<metadata>
Created by FontForge 20170910 at Mon Apr 30 13:26:06 2018
 By Jimmy Wärting
Copyright \(c\) 2017 by Gu_mundur _lfarsson &#38; Or Type. All rights reserved.
</metadata>
<defs>
<font id="L15-SemiBoldWide" horiz-adv-x="633" >
  <font-face 
    font-family="L15 SemiBold Wide"
    font-weight="600"
    font-stretch="semi-expanded"
    units-per-em="1000"
    panose-1="0 0 7 5 0 0 0 0 0 0"
    ascent="800"
    descent="-200"
    x-height="502"
    cap-height="700"
    bbox="-454 -263 1122 993"
    underline-thickness="50"
    underline-position="-100"
    stemh="122"
    stemv="137"
    unicode-range="U+0020-FB04"
  />
<missing-glyph horiz-adv-x="490" 
d="M402 758v-980h-311v980h311zM326 692h-161v-32h63v-36h-64v-33h162v33h-64v36h64v32zM262 566h-98v-102h162v33h-64v69zM228 533v-36h-32v36h32zM326 438h-162v-33h64v-36h-64v-32h98v68h64v33zM326 379h-32v-65h-130v-33h162v98zM326 259h-98v-55h34v23h32v-46h-98v78
h-32v-111h162v111zM326 90h-162v-111h162v111zM294 57v-46h-98v46h98zM326 -44h-162v-32h68l-68 -46v-32h162v32h-100l69 46h31v32z" />
    <glyph glyph-name="f_f" unicode="ff" horiz-adv-x="692" 
d="M623 647c-47 0 -73 -16 -73 -76v-68h121v-116h-121v-387h-131v387h-76v1h-115v-388h-131v388h-68v115h68v70c0 121 72 186 173 186h66v-112h-39c-38 0 -69 -15 -69 -79v-65h191v84c0 116 71 171 174 171h86v-111h-56z" />
    <glyph glyph-name="f_f_i" unicode="ffi" horiz-adv-x="915" 
d="M777 612c-44 0 -79 36 -79 79s35 79 79 79c43 0 78 -36 78 -79s-35 -79 -78 -79zM841 503v-503h-131v386h-177v-386h-131v386h-174v-386h-131v386h-68v117h68v70c0 121 72 186 173 186h66v-112h-39c-38 0 -69 -15 -69 -79v-65h174v70c0 121 72 186 173 186h71v-112h-44
c-38 0 -69 -15 -69 -79v-65h308z" />
    <glyph glyph-name="f_f_l" unicode="ffl" horiz-adv-x="915" 
d="M419 587c0 116 71 171 174 171h86v-111h-56c-47 0 -73 -16 -73 -76v-68h121v-116h-121v-387h-131v387h-76v1h-115v-388h-131v388h-68v115h68v70c0 121 72 186 173 186h66v-112h-39c-38 0 -69 -15 -69 -79v-65h191v84zM711 758h131v-758h-131v758z" />
    <glyph glyph-name="fi" unicode="fi" horiz-adv-x="610" 
d="M472 612c-44 0 -79 36 -79 79s35 79 79 79c43 0 78 -36 78 -79s-35 -79 -78 -79zM536 503v-503h-131v386h-177v-386h-131v386h-68v117h68v70c0 121 72 186 173 186h71v-112h-44c-38 0 -69 -15 -69 -79v-65h308z" />
    <glyph glyph-name="fl" unicode="fl" horiz-adv-x="594" 
d="M105 0v387h-76v116h76v84c0 116 71 171 174 171h86v-111h-56c-47 0 -73 -16 -73 -76v-68h121v-116h-121v-387h-131zM521 758v-758h-131v758h131z" />
    <glyph glyph-name=".notdef" horiz-adv-x="490" 
d="M402 758v-980h-311v980h311zM326 692h-161v-32h63v-36h-64v-33h162v33h-64v36h64v32zM262 566h-98v-102h162v33h-64v69zM228 533v-36h-32v36h32zM326 438h-162v-33h64v-36h-64v-32h98v68h64v33zM326 379h-32v-65h-130v-33h162v98zM326 259h-98v-55h34v23h32v-46h-98v78
h-32v-111h162v111zM326 90h-162v-111h162v111zM294 57v-46h-98v46h98zM326 -44h-162v-32h68l-68 -46v-32h162v32h-100l69 46h31v32z" />
    <glyph glyph-name="A" unicode="A" horiz-adv-x="659" 
d="M513 0l-42 119h-281l-43 -119h-143l267 700h118l267 -700h-143zM231 236h198l-99 277z" />
    <glyph glyph-name="Aacute" unicode="&#xc1;" horiz-adv-x="659" 
d="M497 934l-145 -159h-111l107 159h149zM513 0l-42 119h-281l-43 -119h-143l267 700h118l267 -700h-143zM231 236h198l-99 277z" />
    <glyph glyph-name="Abreve" unicode="&#x102;" horiz-adv-x="659" 
d="M330 755c-91 0 -158 55 -158 145h86c0 -52 35 -71 72 -71c39 0 72 19 72 71h86c0 -90 -65 -145 -158 -145zM513 0l-42 119h-281l-43 -119h-143l267 700h118l267 -700h-143zM231 236h198l-99 277z" />
    <glyph glyph-name="uni01CD" unicode="&#x1cd;" horiz-adv-x="659" 
d="M387 768h-116l-116 131h116l60 -73l57 73h115zM513 0l-42 119h-281l-43 -119h-143l267 700h118l267 -700h-143zM231 236h198l-99 277z" />
    <glyph glyph-name="Acircumflex" unicode="&#xc2;" horiz-adv-x="659" 
d="M330 841l-66 -75h-119l124 131h123l124 -131h-120zM513 0l-42 119h-281l-43 -119h-143l267 700h118l267 -700h-143zM231 236h198l-99 277z" />
    <glyph glyph-name="Adieresis" unicode="&#xc4;" horiz-adv-x="659" 
d="M223 767c-40 0 -71 31 -71 70c0 38 31 70 71 70c38 0 69 -32 69 -70c0 -39 -31 -70 -69 -70zM438 767c-40 0 -71 31 -71 70c0 38 31 70 71 70c38 0 69 -32 69 -70c0 -39 -31 -70 -69 -70zM513 0l-42 119h-281l-43 -119h-143l267 700h118l267 -700h-143zM231 236h198
l-99 277z" />
    <glyph glyph-name="Agrave" unicode="&#xc0;" horiz-adv-x="659" 
d="M406 775h-111l-145 159h149zM513 0l-42 119h-281l-43 -119h-143l267 700h118l267 -700h-143zM231 236h198l-99 277z" />
    <glyph glyph-name="Amacron" unicode="&#x100;" horiz-adv-x="659" 
d="M507 866v-83h-356v83h356zM513 0l-42 119h-281l-43 -119h-143l267 700h118l267 -700h-143zM231 236h198l-99 277z" />
    <glyph glyph-name="Aogonek" unicode="&#x104;" horiz-adv-x="659" 
d="M608 -107c16 0 36 5 54 13v-86c-27 -11 -55 -16 -81 -16c-66 0 -112 37 -112 90c0 36 22 77 78 106h-34l-42 119h-281l-43 -119h-143l267 700h118l267 -700c-64 -28 -88 -54 -88 -76c0 -20 18 -31 40 -31zM231 236h198l-99 277z" />
    <glyph glyph-name="Aring" unicode="&#xc5;" horiz-adv-x="659" 
d="M329 739c-49 0 -87 38 -87 87s38 87 87 87c50 0 88 -38 88 -87s-38 -87 -88 -87zM329 862c-20 0 -36 -16 -36 -36c0 -22 16 -37 36 -37s36 15 36 37c0 20 -16 36 -36 36zM513 0l-42 119h-281l-43 -119h-143l267 700h118l267 -700h-143zM231 236h198l-99 277z" />
    <glyph glyph-name="Atilde" unicode="&#xc3;" horiz-adv-x="659" 
d="M257 807c-25 0 -37 -21 -37 -48h-68c0 82 46 135 110 135s100 -46 141 -46c25 0 37 21 37 48h68c0 -86 -47 -135 -109 -135c-67 0 -100 46 -142 46zM513 0l-42 119h-281l-43 -119h-143l267 700h118l267 -700h-143zM231 236h198l-99 277z" />
    <glyph glyph-name="AE" unicode="&#xc6;" horiz-adv-x="872" 
d="M828 577h-297v-152h280v-120h-280v-183h297v-122h-435v139h-196l-54 -139h-139l276 700h548v-123zM242 255h151v329h-23z" />
    <glyph glyph-name="B" unicode="B" horiz-adv-x="666" 
d="M509 365c64 -30 111 -79 111 -163c0 -93 -62 -202 -248 -202h-289v700h268c194 0 234 -131 234 -192c0 -56 -31 -113 -76 -143zM448 497c0 52 -35 80 -103 80h-125v-160h125c68 0 103 28 103 80zM365 123c79 0 120 32 120 90s-41 90 -120 90h-145v-180h145z" />
    <glyph glyph-name="C" unicode="C" horiz-adv-x="759" 
d="M404 -14c-205 0 -356 153 -356 364s151 364 358 364c186 0 308 -120 315 -268h-134c-14 85 -76 144 -183 144c-135 0 -219 -99 -219 -240s83 -240 220 -240c103 0 168 60 182 144h134c-7 -148 -131 -268 -317 -268z" />
    <glyph glyph-name="Cacute" unicode="&#x106;" horiz-adv-x="759" 
d="M547 934l-145 -159h-111l107 159h149zM404 -14c-205 0 -356 153 -356 364s151 364 358 364c186 0 308 -120 315 -268h-134c-14 85 -76 144 -183 144c-135 0 -219 -99 -219 -240s83 -240 220 -240c103 0 168 60 182 144h134c-7 -148 -131 -268 -317 -268z" />
    <glyph glyph-name="Ccaron" unicode="&#x10c;" horiz-adv-x="759" 
d="M438 766h-116l-116 131h116l60 -73l57 73h115zM405 110c103 0 168 60 182 144h134c-7 -148 -131 -268 -317 -268c-205 0 -356 153 -356 364s151 364 358 364c186 0 308 -120 315 -268h-134c-14 85 -76 144 -183 144c-135 0 -219 -99 -219 -240s83 -240 220 -240z" />
    <glyph glyph-name="Ccedilla" unicode="&#xc7;" horiz-adv-x="759" 
d="M404 -14c-205 0 -356 153 -356 364s151 364 358 364c186 0 308 -120 315 -268h-134c-14 85 -76 144 -183 144c-135 0 -219 -99 -219 -240s83 -240 220 -240c103 0 168 60 182 144h134c-7 -148 -131 -268 -317 -268zM443 -67l-82 -184l-129 53l122 131h89z" />
    <glyph glyph-name="Ccircumflex" unicode="&#x108;" horiz-adv-x="759" 
d="M379 843l-66 -75h-119l124 131h123l124 -131h-120zM405 110c103 0 168 60 182 144h134c-7 -148 -131 -268 -317 -268c-205 0 -356 153 -356 364s151 364 358 364c186 0 308 -120 315 -268h-134c-14 85 -76 144 -183 144c-135 0 -219 -99 -219 -240s83 -240 220 -240z" />
    <glyph glyph-name="Cdotaccent" unicode="&#x10a;" horiz-adv-x="759" 
d="M380 769c-40 0 -71 32 -71 71c0 38 31 69 71 69c39 0 70 -31 70 -69c0 -39 -31 -71 -70 -71zM404 -14c-205 0 -356 153 -356 364s151 364 358 364c186 0 308 -120 315 -268h-134c-14 85 -76 144 -183 144c-135 0 -219 -99 -219 -240s83 -240 220 -240
c103 0 168 60 182 144h134c-7 -148 -131 -268 -317 -268z" />
    <glyph glyph-name="D" unicode="D" horiz-adv-x="741" 
d="M339 700c202 0 355 -149 355 -350c0 -205 -153 -350 -355 -350h-256v700h256zM339 124c136 0 217 88 217 226c0 134 -81 226 -217 226h-119v-452h119z" />
    <glyph glyph-name="Eth" unicode="&#xd0;" horiz-adv-x="788" 
d="M386 700c202 0 355 -149 355 -350c0 -205 -153 -350 -355 -350h-256v287h-92v119h92v294h256zM386 124c136 0 217 88 217 226c0 134 -81 226 -217 226h-119v-170h166v-119h-166v-163h119z" />
    <glyph glyph-name="Dcaron" unicode="&#x10e;" horiz-adv-x="741" 
d="M414 766h-116l-116 131h116l60 -73l57 73h115zM339 700c202 0 355 -149 355 -350c0 -205 -153 -350 -355 -350h-256v700h256zM339 124c136 0 217 88 217 226c0 134 -81 226 -217 226h-119v-452h119z" />
    <glyph glyph-name="Dcroat" unicode="&#x110;" horiz-adv-x="788" 
d="M386 700c202 0 355 -149 355 -350c0 -205 -153 -350 -355 -350h-256v287h-92v119h92v294h256zM386 124c136 0 217 88 217 226c0 134 -81 226 -217 226h-119v-170h166v-119h-166v-163h119z" />
    <glyph glyph-name="E" unicode="E" horiz-adv-x="587" 
d="M542 577h-322v-152h305v-120h-305v-183h322v-122h-459v700h459v-123z" />
    <glyph glyph-name="Eacute" unicode="&#xc9;" horiz-adv-x="587" 
d="M479 934l-145 -159h-111l107 159h149zM542 577h-322v-152h305v-120h-305v-183h322v-122h-459v700h459v-123z" />
    <glyph glyph-name="Ebreve" unicode="&#x114;" horiz-adv-x="587" 
d="M312 755c-91 0 -158 55 -158 145h86c0 -52 35 -71 72 -71c39 0 72 19 72 71h86c0 -90 -65 -145 -158 -145zM542 577h-322v-152h305v-120h-305v-183h322v-122h-459v700h459v-123z" />
    <glyph glyph-name="Ecaron" unicode="&#x11a;" horiz-adv-x="587" 
d="M370 766h-116l-116 131h116l60 -73l57 73h115zM542 577h-322v-152h305v-120h-305v-183h322v-122h-459v700h459v-123z" />
    <glyph glyph-name="Ecircumflex" unicode="&#xca;" horiz-adv-x="587" 
d="M312 841l-66 -75h-119l124 131h123l124 -131h-120zM542 577h-322v-152h305v-120h-305v-183h322v-122h-459v700h459v-123z" />
    <glyph glyph-name="Edieresis" unicode="&#xcb;" horiz-adv-x="587" 
d="M205 767c-40 0 -71 31 -71 70c0 38 31 70 71 70c38 0 69 -32 69 -70c0 -39 -31 -70 -69 -70zM420 767c-40 0 -71 31 -71 70c0 38 31 70 71 70c38 0 69 -32 69 -70c0 -39 -31 -70 -69 -70zM542 577h-322v-152h305v-120h-305v-183h322v-122h-459v700h459v-123z" />
    <glyph glyph-name="Edotaccent" unicode="&#x116;" horiz-adv-x="587" 
d="M312 770c-40 0 -71 32 -71 71c0 38 31 69 71 69c39 0 70 -31 70 -69c0 -39 -31 -71 -70 -71zM542 577h-322v-152h305v-120h-305v-183h322v-122h-459v700h459v-123z" />
    <glyph glyph-name="Egrave" unicode="&#xc8;" horiz-adv-x="587" 
d="M388 775h-111l-145 159h149zM542 577h-322v-152h305v-120h-305v-183h322v-122h-459v700h459v-123z" />
    <glyph glyph-name="Emacron" unicode="&#x112;" horiz-adv-x="587" 
d="M489 866v-83h-356v83h356zM542 577h-322v-152h305v-120h-305v-183h322v-122h-459v700h459v-123z" />
    <glyph glyph-name="Eogonek" unicode="&#x118;" horiz-adv-x="587" 
d="M542 577h-322v-152h305v-120h-305v-183h322v-122h-118c-64 -28 -88 -54 -88 -76c0 -20 18 -31 40 -31c16 0 36 5 54 13v-86c-27 -11 -55 -16 -81 -16c-66 0 -112 37 -112 90c0 36 22 77 78 106h-232v700h459v-123z" />
    <glyph glyph-name="F" unicode="F" horiz-adv-x="532" 
d="M512 577h-299v-151h282v-120h-282v-306h-137v700h436v-123z" />
    <glyph glyph-name="G" unicode="G" horiz-adv-x="789" 
d="M395 -14c-199 0 -347 153 -347 366c0 209 145 362 357 362c181 0 311 -112 311 -259h-137c0 73 -69 135 -175 135c-136 0 -219 -98 -219 -239c0 -142 85 -241 222 -241c110 0 176 64 188 157h-220v114h343v-381h-113v77c-39 -57 -116 -91 -210 -91z" />
    <glyph glyph-name="Gbreve" unicode="&#x11e;" horiz-adv-x="789" 
d="M551 900c0 -90 -65 -145 -158 -145c-91 0 -158 55 -158 145h86c0 -52 35 -71 72 -71c39 0 72 19 72 71h86zM395 -14c-199 0 -347 153 -347 366c0 209 145 362 357 362c181 0 311 -112 311 -259h-137c0 73 -69 135 -175 135c-136 0 -219 -98 -219 -239
c0 -142 85 -241 222 -241c110 0 176 64 188 157h-220v114h343v-381h-113v77c-39 -57 -116 -91 -210 -91z" />
    <glyph glyph-name="Gcircumflex" unicode="&#x11c;" horiz-adv-x="789" 
d="M392 843l-66 -75h-119l124 131h123l124 -131h-120zM375 381h343v-381h-113v77c-39 -57 -116 -91 -210 -91c-199 0 -347 153 -347 366c0 209 145 362 357 362c181 0 311 -112 311 -259h-137c0 73 -69 135 -175 135c-136 0 -219 -98 -219 -239c0 -142 85 -241 222 -241
c110 0 176 64 188 157h-220v114z" />
    <glyph glyph-name="Gcommaaccent" unicode="&#x122;" horiz-adv-x="789" 
d="M395 -14c-199 0 -347 153 -347 366c0 209 145 362 357 362c181 0 311 -112 311 -259h-137c0 73 -69 135 -175 135c-136 0 -219 -98 -219 -239c0 -142 85 -241 222 -241c110 0 176 64 188 157h-220v114h343v-381h-113v77c-39 -57 -116 -91 -210 -91zM445 -58v-106
c0 -47 -31 -77 -83 -99l-26 41c30 11 53 23 53 48v10h-63v106h119z" />
    <glyph glyph-name="Gdotaccent" unicode="&#x120;" horiz-adv-x="789" 
d="M393 769c-40 0 -71 32 -71 71c0 38 31 69 71 69c39 0 70 -31 70 -69c0 -39 -31 -71 -70 -71zM395 -14c-199 0 -347 153 -347 366c0 209 145 362 357 362c181 0 311 -112 311 -259h-137c0 73 -69 135 -175 135c-136 0 -219 -98 -219 -239c0 -142 85 -241 222 -241
c110 0 176 64 188 157h-220v114h343v-381h-113v77c-39 -57 -116 -91 -210 -91z" />
    <glyph glyph-name="H" unicode="H" horiz-adv-x="721" 
d="M501 700h137v-700h-137v295h-281v-295h-137v700h137v-284h281v284z" />
    <glyph glyph-name="Hbar" unicode="&#x126;" horiz-adv-x="692" 
d="M665 608v-107h-41v-501h-137v295h-281v-295h-137v501h-42v107h42v92h137v-92h281v92h137v-92h41zM487 416v85h-281v-85h281z" />
    <glyph glyph-name="Hcircumflex" unicode="&#x124;" horiz-adv-x="721" 
d="M359 843l-66 -75h-119l124 131h123l124 -131h-120zM501 700h137v-700h-137v295h-281v-295h-137v700h137v-284h281v284z" />
    <glyph glyph-name="I" unicode="I" horiz-adv-x="303" 
d="M220 700v-700h-137v700h137z" />
    <glyph glyph-name="IJ" unicode="&#x132;" horiz-adv-x="894" 
d="M220 700v-700h-137v700h137zM459 248v-30c0 -75 48 -109 114 -109s113 34 113 109v482h137v-473c0 -168 -101 -241 -250 -241c-132 0 -248 64 -248 232v30h134z" />
    <glyph glyph-name="Iacute" unicode="&#xcd;" horiz-adv-x="303" 
d="M319 934l-145 -159h-111l107 159h149zM220 700v-700h-137v700h137z" />
    <glyph glyph-name="uni01CF" unicode="&#x1cf;" horiz-adv-x="303" 
d="M209 768h-116l-116 131h116l60 -73l57 73h115zM83 0v700h137v-700h-137z" />
    <glyph glyph-name="Icircumflex" unicode="&#xce;" horiz-adv-x="303" 
d="M152 841l-66 -75h-119l124 131h123l124 -131h-120zM83 0v700h137v-700h-137z" />
    <glyph glyph-name="Idieresis" unicode="&#xcf;" horiz-adv-x="303" 
d="M45 767c-40 0 -71 31 -71 70c0 38 31 70 71 70c38 0 69 -32 69 -70c0 -39 -31 -70 -69 -70zM260 767c-40 0 -71 31 -71 70c0 38 31 70 71 70c38 0 69 -32 69 -70c0 -39 -31 -70 -69 -70zM220 700v-700h-137v700h137z" />
    <glyph glyph-name="Idotaccent" unicode="&#x130;" horiz-adv-x="303" 
d="M152 769c-40 0 -71 32 -71 71c0 38 31 69 71 69c39 0 70 -31 70 -69c0 -39 -31 -71 -70 -71zM220 700v-700h-137v700h137z" />
    <glyph glyph-name="Igrave" unicode="&#xcc;" horiz-adv-x="303" 
d="M-28 934h149l107 -159h-111zM220 700v-700h-137v700h137z" />
    <glyph glyph-name="Imacron" unicode="&#x12a;" horiz-adv-x="303" 
d="M329 866v-83h-356v83h356zM220 700v-700h-137v700h137z" />
    <glyph glyph-name="Iogonek" unicode="&#x12e;" horiz-adv-x="303" 
d="M174 0c-64 -28 -88 -54 -88 -76c0 -20 18 -31 40 -31c16 0 36 5 54 13v-86c-27 -11 -55 -16 -81 -16c-66 0 -112 37 -112 90c0 36 22 77 78 106h18v700h137v-700h-46z" />
    <glyph glyph-name="Itilde" unicode="&#x128;" horiz-adv-x="303" 
d="M266 898h68c0 -86 -47 -135 -109 -135c-67 0 -100 46 -142 46c-25 0 -37 -21 -37 -48h-68c0 82 46 135 110 135s100 -46 141 -46c25 0 37 21 37 48zM220 700v-700h-137v700h137z" />
    <glyph glyph-name="J" unicode="J" horiz-adv-x="591" 
d="M156 248v-30c0 -75 48 -109 114 -109s113 34 113 109v482h137v-473c0 -168 -101 -241 -250 -241c-132 0 -248 64 -248 232v30h134z" />
    <glyph glyph-name="Jcircumflex" unicode="&#x134;" horiz-adv-x="591" 
d="M301 841l-66 -75h-119l124 131h123l124 -131h-120zM383 700h137v-473c0 -168 -101 -241 -250 -241c-132 0 -248 64 -248 232v30h134v-30c0 -75 48 -109 114 -109s113 34 113 109v482z" />
    <glyph glyph-name="K" unicode="K" horiz-adv-x="686" 
d="M686 0h-186l-280 289v-289h-137v700h137v-270l260 270h184l-329 -340z" />
    <glyph glyph-name="Kcommaaccent" unicode="&#x136;" horiz-adv-x="686" 
d="M335 360l351 -360h-186l-280 289v-289h-137v700h137v-270l260 270h184zM267 -164v106h119v-106c0 -47 -31 -77 -83 -99l-26 41c30 11 53 23 53 48v10h-63z" />
    <glyph glyph-name="L" unicode="L" horiz-adv-x="550" 
d="M220 700v-577h312v-123h-449v700h137z" />
    <glyph glyph-name="Lacute" unicode="&#x139;" horiz-adv-x="550" 
d="M345 934l-145 -159h-111l107 159h149zM220 700v-577h312v-123h-449v700h137z" />
    <glyph glyph-name="Lcaron" unicode="&#x13d;" horiz-adv-x="550" 
d="M392 713c45 0 83 -37 83 -83c0 -25 -10 -50 -23 -72l-71 -129h-74l66 121c-33 4 -64 39 -64 80c0 46 37 83 83 83zM220 700v-577h312v-123h-449v700h137z" />
    <glyph glyph-name="Lcommaaccent" unicode="&#x13b;" horiz-adv-x="550" 
d="M220 700v-577h312v-123h-449v700h137zM267 -58v-106c0 -47 -31 -77 -83 -99l-26 41c30 11 53 23 53 48v10h-63v106h119z" />
    <glyph glyph-name="Ldot" unicode="&#x13f;" horiz-adv-x="550" 
d="M220 700v-577h312v-123h-449v700h137zM337 359c35 0 63 -28 63 -63s-28 -63 -63 -63s-64 28 -64 63s29 63 64 63z" />
    <glyph glyph-name="Lslash" unicode="&#x141;" horiz-adv-x="530" 
d="M234 123h312v-123h-449v197l-36 -17l-45 100l81 38v382h137v-317l84 39l44 -100l-128 -60v-139z" />
    <glyph glyph-name="M" unicode="M" horiz-adv-x="902" 
d="M615 700h204v-700h-137v555l-172 -361h-117l-173 361v-555h-137v700h206l162 -348z" />
    <glyph glyph-name="N" unicode="N" horiz-adv-x="764" 
d="M544 700h137v-700h-138l-323 479v-479h-137v700h135l326 -474v474z" />
    <glyph glyph-name="Nacute" unicode="&#x143;" horiz-adv-x="764" 
d="M549 934l-145 -159h-111l107 159h149zM544 700h137v-700h-138l-323 479v-479h-137v700h135l326 -474v474z" />
    <glyph glyph-name="Ncaron" unicode="&#x147;" horiz-adv-x="764" 
d="M440 766h-116l-116 131h116l60 -73l57 73h115zM544 700h137v-700h-138l-323 479v-479h-137v700h135l326 -474v474z" />
    <glyph glyph-name="Ncommaaccent" unicode="&#x145;" horiz-adv-x="764" 
d="M544 700h137v-700h-138l-323 479v-479h-137v700h135l326 -474v474zM322 -164v106h119v-106c0 -47 -31 -77 -83 -99l-26 41c30 11 53 23 53 48v10h-63z" />
    <glyph glyph-name="Eng" unicode="&#x14a;" horiz-adv-x="764" 
d="M544 700h137v-724c0 -134 -74 -198 -180 -198h-53v113h22c51 0 80 25 80 82v28l-330 479v-480h-137v700h135l326 -473v473z" />
    <glyph glyph-name="Ntilde" unicode="&#xd1;" horiz-adv-x="764" 
d="M309 807c-25 0 -37 -21 -37 -48h-68c0 82 46 135 110 135s100 -46 141 -46c25 0 37 21 37 48h68c0 -86 -47 -135 -109 -135c-67 0 -100 46 -142 46zM544 700h137v-700h-138l-323 479v-479h-137v700h135l326 -474v474z" />
    <glyph glyph-name="O" unicode="O" horiz-adv-x="803" 
d="M402 714c202 0 354 -153 354 -364s-152 -364 -354 -364s-354 153 -354 364s152 364 354 364zM402 590c-130 0 -217 -97 -217 -240s87 -240 217 -240c129 0 216 97 216 240s-87 240 -216 240z" />
    <glyph glyph-name="Oacute" unicode="&#xd3;" horiz-adv-x="803" 
d="M570 934l-145 -159h-111l107 159h149zM402 714c202 0 354 -153 354 -364s-152 -364 -354 -364s-354 153 -354 364s152 364 354 364zM402 590c-130 0 -217 -97 -217 -240s87 -240 217 -240c129 0 216 97 216 240s-87 240 -216 240z" />
    <glyph glyph-name="Obreve" unicode="&#x14e;" horiz-adv-x="803" 
d="M561 900c0 -90 -65 -145 -158 -145c-91 0 -158 55 -158 145h86c0 -52 35 -71 72 -71c39 0 72 19 72 71h86zM402 714c202 0 354 -153 354 -364s-152 -364 -354 -364s-354 153 -354 364s152 364 354 364zM402 590c-130 0 -217 -97 -217 -240s87 -240 217 -240
c129 0 216 97 216 240s-87 240 -216 240z" />
    <glyph glyph-name="uni01D1" unicode="&#x1d1;" horiz-adv-x="803" 
d="M460 768h-116l-116 131h116l60 -73l57 73h115zM402 714c202 0 354 -153 354 -364s-152 -364 -354 -364s-354 153 -354 364s152 364 354 364zM402 110c129 0 216 97 216 240s-87 240 -216 240c-130 0 -217 -97 -217 -240s87 -240 217 -240z" />
    <glyph glyph-name="Ocircumflex" unicode="&#xd4;" horiz-adv-x="803" 
d="M403 841l-66 -75h-119l124 131h123l124 -131h-120zM402 714c202 0 354 -153 354 -364s-152 -364 -354 -364s-354 153 -354 364s152 364 354 364zM402 110c129 0 216 97 216 240s-87 240 -216 240c-130 0 -217 -97 -217 -240s87 -240 217 -240z" />
    <glyph glyph-name="Odieresis" unicode="&#xd6;" horiz-adv-x="803" 
d="M296 767c-40 0 -71 31 -71 70c0 38 31 70 71 70c38 0 69 -32 69 -70c0 -39 -31 -70 -69 -70zM511 767c-40 0 -71 31 -71 70c0 38 31 70 71 70c38 0 69 -32 69 -70c0 -39 -31 -70 -69 -70zM402 714c202 0 354 -153 354 -364s-152 -364 -354 -364s-354 153 -354 364
s152 364 354 364zM402 590c-130 0 -217 -97 -217 -240s87 -240 217 -240c129 0 216 97 216 240s-87 240 -216 240z" />
    <glyph glyph-name="Ograve" unicode="&#xd2;" horiz-adv-x="803" 
d="M223 934h149l107 -159h-111zM402 714c202 0 354 -153 354 -364s-152 -364 -354 -364s-354 153 -354 364s152 364 354 364zM402 590c-130 0 -217 -97 -217 -240s87 -240 217 -240c129 0 216 97 216 240s-87 240 -216 240z" />
    <glyph glyph-name="Ohungarumlaut" unicode="&#x150;" horiz-adv-x="803" 
d="M441 899l-123 -142h-112l94 142h141zM656 899l-124 -142h-111l93 142h142zM402 714c202 0 354 -153 354 -364s-152 -364 -354 -364s-354 153 -354 364s152 364 354 364zM402 590c-130 0 -217 -97 -217 -240s87 -240 217 -240c129 0 216 97 216 240s-87 240 -216 240z" />
    <glyph glyph-name="Omacron" unicode="&#x14c;" horiz-adv-x="803" 
d="M580 866v-83h-356v83h356zM402 714c202 0 354 -153 354 -364s-152 -364 -354 -364s-354 153 -354 364s152 364 354 364zM402 590c-130 0 -217 -97 -217 -240s87 -240 217 -240c129 0 216 97 216 240s-87 240 -216 240z" />
    <glyph glyph-name="Oslash" unicode="&#xd8;" horiz-adv-x="805" 
d="M756 700l-86 -106c54 -63 86 -147 86 -244c0 -211 -152 -364 -354 -364c-69 0 -132 18 -185 50l-29 -36h-126l79 97c-58 64 -93 152 -93 253c0 211 152 364 354 364c73 0 139 -20 194 -55l34 41h126zM185 350c0 -58 14 -109 40 -149l291 358c-32 20 -71 31 -114 31
c-130 0 -217 -97 -217 -240zM618 350c0 53 -12 100 -34 138l-286 -353c30 -16 65 -25 104 -25c129 0 216 97 216 240z" />
    <glyph glyph-name="Otilde" unicode="&#xd5;" horiz-adv-x="803" 
d="M513 896h68c0 -86 -47 -135 -109 -135c-67 0 -100 46 -142 46c-25 0 -37 -21 -37 -48h-68c0 82 46 135 110 135s100 -46 141 -46c25 0 37 21 37 48zM402 714c202 0 354 -153 354 -364s-152 -364 -354 -364s-354 153 -354 364s152 364 354 364zM402 590
c-130 0 -217 -97 -217 -240s87 -240 217 -240c129 0 216 97 216 240s-87 240 -216 240z" />
    <glyph glyph-name="OE" unicode="&#x152;" horiz-adv-x="1122" 
d="M1077 577h-322v-152h305v-120h-305v-183h322v-122h-459v70c-55 -55 -128 -84 -215 -84c-204 0 -355 153 -355 364s151 364 355 364c87 0 160 -29 215 -84v70h459v-123zM402 110c135 0 216 96 216 240s-81 240 -216 240s-216 -96 -216 -240s81 -240 216 -240z" />
    <glyph glyph-name="P" unicode="P" horiz-adv-x="634" 
d="M354 700c172 0 245 -109 245 -217s-73 -218 -245 -218h-134v-265h-137v700h271zM341 387c84 0 119 41 119 96s-35 95 -119 95h-121v-191h121z" />
    <glyph glyph-name="Thorn" unicode="&#xde;" horiz-adv-x="627" 
d="M353 582c172 0 244 -108 244 -217c0 -108 -72 -217 -244 -217h-133v-148h-137v700h137v-118h133zM340 270c87 0 119 44 119 95s-32 96 -119 96h-120v-191h120z" />
    <glyph glyph-name="Q" unicode="Q" horiz-adv-x="803" 
d="M756 350c0 -112 -43 -207 -113 -272l94 -124h-150l-45 59c-42 -17 -90 -27 -140 -27c-202 0 -354 153 -354 364s152 364 354 364s354 -153 354 -364zM402 110c21 0 42 3 60 8l-116 153h150l67 -89c35 42 55 100 55 168c0 143 -87 240 -216 240c-130 0 -217 -97 -217 -240
s87 -240 217 -240z" />
    <glyph glyph-name="R" unicode="R" horiz-adv-x="648" 
d="M460 0l-142 265h-98v-265h-137v700h272c171 0 243 -109 243 -217c0 -84 -44 -170 -144 -203l160 -280h-154zM220 578v-191h121c84 0 120 41 120 96s-36 95 -120 95h-121z" />
    <glyph glyph-name="Racute" unicode="&#x154;" horiz-adv-x="648" 
d="M488 934l-145 -159h-111l107 159h149zM460 0l-142 265h-98v-265h-137v700h272c171 0 243 -109 243 -217c0 -84 -44 -170 -144 -203l160 -280h-154zM220 578v-191h121c84 0 120 41 120 96s-36 95 -120 95h-121z" />
    <glyph glyph-name="Rcaron" unicode="&#x158;" horiz-adv-x="648" 
d="M379 766h-116l-116 131h116l60 -73l57 73h115zM460 0l-142 265h-98v-265h-137v700h272c171 0 243 -109 243 -217c0 -84 -44 -170 -144 -203l160 -280h-154zM220 578v-191h121c84 0 120 41 120 96s-36 95 -120 95h-121z" />
    <glyph glyph-name="Rcommaaccent" unicode="&#x156;" horiz-adv-x="648" 
d="M454 280l160 -280h-154l-142 265h-98v-265h-137v700h272c171 0 243 -109 243 -217c0 -84 -44 -170 -144 -203zM220 578v-191h121c84 0 120 41 120 96s-36 95 -120 95h-121zM264 -164v106h119v-106c0 -47 -31 -77 -83 -99l-26 41c30 11 53 23 53 48v10h-63z" />
    <glyph glyph-name="S" unicode="S" horiz-adv-x="607" 
d="M305 -14c-195 0 -269 121 -269 245h133c0 -78 46 -124 140 -124c79 0 120 35 120 84c0 47 -36 71 -101 93l-132 42c-99 32 -147 92 -147 179c0 125 102 209 249 209c170 0 259 -112 259 -234h-133c0 67 -47 113 -128 113c-71 0 -110 -33 -110 -79c0 -35 23 -62 81 -79
l135 -42c124 -37 163 -116 163 -194c0 -119 -88 -213 -260 -213z" />
    <glyph glyph-name="Sacute" unicode="&#x15a;" horiz-adv-x="607" 
d="M482 934l-145 -159h-111l107 159h149zM305 -14c-195 0 -269 121 -269 245h133c0 -78 46 -124 140 -124c79 0 120 35 120 84c0 47 -36 71 -101 93l-132 42c-99 32 -147 92 -147 179c0 125 102 209 249 209c170 0 259 -112 259 -234h-133c0 67 -47 113 -128 113
c-71 0 -110 -33 -110 -79c0 -35 23 -62 81 -79l135 -42c124 -37 163 -116 163 -194c0 -119 -88 -213 -260 -213z" />
    <glyph glyph-name="Scaron" unicode="&#x160;" horiz-adv-x="607" 
d="M373 766h-116l-116 131h116l60 -73l57 73h115zM402 393c124 -37 163 -116 163 -194c0 -119 -88 -213 -260 -213c-195 0 -269 121 -269 245h133c0 -78 46 -124 140 -124c79 0 120 35 120 84c0 47 -36 71 -101 93l-132 42c-99 32 -147 92 -147 179c0 125 102 209 249 209
c170 0 259 -112 259 -234h-133c0 67 -47 113 -128 113c-71 0 -110 -33 -110 -79c0 -35 23 -62 81 -79z" />
    <glyph glyph-name="Scedilla" unicode="&#x15e;" horiz-adv-x="607" 
d="M305 -14c-195 0 -269 121 -269 245h133c0 -78 46 -124 140 -124c79 0 120 35 120 84c0 47 -36 71 -101 93l-132 42c-99 32 -147 92 -147 179c0 125 102 209 249 209c170 0 259 -112 259 -234h-133c0 67 -47 113 -128 113c-71 0 -110 -33 -110 -79c0 -35 23 -62 81 -79
l135 -42c124 -37 163 -116 163 -194c0 -119 -88 -213 -260 -213zM377 -67l-82 -184l-129 53l122 131h89z" />
    <glyph glyph-name="Scircumflex" unicode="&#x15c;" horiz-adv-x="607" 
d="M314 843l-66 -75h-119l124 131h123l124 -131h-120zM402 393c124 -37 163 -116 163 -194c0 -119 -88 -213 -260 -213c-195 0 -269 121 -269 245h133c0 -78 46 -124 140 -124c79 0 120 35 120 84c0 47 -36 71 -101 93l-132 42c-99 32 -147 92 -147 179
c0 125 102 209 249 209c170 0 259 -112 259 -234h-133c0 67 -47 113 -128 113c-71 0 -110 -33 -110 -79c0 -35 23 -62 81 -79z" />
    <glyph glyph-name="Scommaaccent" unicode="&#x218;" horiz-adv-x="607" 
d="M305 -14c-195 0 -269 121 -269 245h133c0 -78 46 -124 140 -124c79 0 120 35 120 84c0 47 -36 71 -101 93l-132 42c-99 32 -147 92 -147 179c0 125 102 209 249 209c170 0 259 -112 259 -234h-133c0 67 -47 113 -128 113c-71 0 -110 -33 -110 -79c0 -35 23 -62 81 -79
l135 -42c124 -37 163 -116 163 -194c0 -119 -88 -213 -260 -213zM373 -58v-106c0 -47 -31 -77 -83 -99l-26 41c30 11 53 23 53 48v10h-63v106h119z" />
    <glyph glyph-name="T" unicode="T" horiz-adv-x="572" 
d="M544 700v-122h-190v-578h-137v578h-189v122h516z" />
    <glyph glyph-name="Tbar" unicode="&#x166;" horiz-adv-x="572" 
d="M544 578h-190v-139h111v-110h-111v-329h-137v329h-110v110h110v139h-189v122h516v-122z" />
    <glyph glyph-name="Tcaron" unicode="&#x164;" horiz-adv-x="572" 
d="M344 766h-116l-116 131h116l60 -73l57 73h115zM544 700v-122h-190v-578h-137v578h-189v122h516z" />
    <glyph glyph-name="uni0162" unicode="&#x162;" horiz-adv-x="572" 
d="M544 700v-122h-190v-578h-137v578h-189v122h516zM114 -189l122 131h89l-82 -184z" />
    <glyph glyph-name="uni021A" unicode="&#x21a;" horiz-adv-x="572" 
d="M544 700v-122h-190v-578h-137v578h-189v122h516zM202 -155v106h119v-106c0 -47 -31 -77 -83 -99l-26 41c30 11 53 23 53 48v10h-63z" />
    <glyph glyph-name="U" unicode="U" horiz-adv-x="744" 
d="M672 700v-413c0 -202 -111 -301 -300 -301c-188 0 -301 99 -301 301v413h137v-401c0 -124 51 -190 164 -190c114 0 163 66 163 190v401h137z" />
    <glyph glyph-name="Uacute" unicode="&#xda;" horiz-adv-x="744" 
d="M540 930l-145 -159h-111l107 159h149zM672 700v-413c0 -202 -111 -301 -300 -301c-188 0 -301 99 -301 301v413h137v-401c0 -124 51 -190 164 -190c114 0 163 66 163 190v401h137z" />
    <glyph glyph-name="Ubreve" unicode="&#x16c;" horiz-adv-x="744" 
d="M531 896c0 -90 -65 -145 -158 -145c-91 0 -158 55 -158 145h86c0 -52 35 -71 72 -71c39 0 72 19 72 71h86zM672 700v-413c0 -202 -111 -301 -300 -301c-188 0 -301 99 -301 301v413h137v-401c0 -124 51 -190 164 -190c114 0 163 66 163 190v401h137z" />
    <glyph glyph-name="uni01D3" unicode="&#x1d3;" horiz-adv-x="744" 
d="M430 764h-116l-116 131h116l60 -73l57 73h115zM535 700h137v-413c0 -202 -111 -301 -300 -301c-188 0 -301 99 -301 301v413h137v-401c0 -124 51 -190 164 -190c114 0 163 66 163 190v401z" />
    <glyph glyph-name="Ucircumflex" unicode="&#xdb;" horiz-adv-x="744" 
d="M373 837l-66 -75h-119l124 131h123l124 -131h-120zM535 700h137v-413c0 -202 -111 -301 -300 -301c-188 0 -301 99 -301 301v413h137v-401c0 -124 51 -190 164 -190c114 0 163 66 163 190v401z" />
    <glyph glyph-name="Udieresis" unicode="&#xdc;" horiz-adv-x="744" 
d="M266 763c-40 0 -71 31 -71 70c0 38 31 70 71 70c38 0 69 -32 69 -70c0 -39 -31 -70 -69 -70zM481 763c-40 0 -71 31 -71 70c0 38 31 70 71 70c38 0 69 -32 69 -70c0 -39 -31 -70 -69 -70zM672 700v-413c0 -202 -111 -301 -300 -301c-188 0 -301 99 -301 301v413h137v-401
c0 -124 51 -190 164 -190c114 0 163 66 163 190v401h137z" />
    <glyph glyph-name="Ugrave" unicode="&#xd9;" horiz-adv-x="744" 
d="M193 930h149l107 -159h-111zM672 700v-413c0 -202 -111 -301 -300 -301c-188 0 -301 99 -301 301v413h137v-401c0 -124 51 -190 164 -190c114 0 163 66 163 190v401h137z" />
    <glyph glyph-name="Uhungarumlaut" unicode="&#x170;" horiz-adv-x="744" 
d="M411 895l-123 -142h-112l94 142h141zM626 895l-124 -142h-111l93 142h142zM672 700v-413c0 -202 -111 -301 -300 -301c-188 0 -301 99 -301 301v413h137v-401c0 -124 51 -190 164 -190c114 0 163 66 163 190v401h137z" />
    <glyph glyph-name="Umacron" unicode="&#x16a;" horiz-adv-x="744" 
d="M550 862v-83h-356v83h356zM672 700v-413c0 -202 -111 -301 -300 -301c-188 0 -301 99 -301 301v413h137v-401c0 -124 51 -190 164 -190c114 0 163 66 163 190v401h137z" />
    <glyph glyph-name="Uogonek" unicode="&#x172;" horiz-adv-x="744" 
d="M535 700h137v-413c0 -194 -103 -293 -278 -301c-52 -25 -72 -48 -72 -68s18 -31 40 -31c16 0 36 5 54 13v-86c-27 -11 -55 -16 -81 -16c-66 0 -112 37 -112 90c0 35 21 75 74 104c-143 24 -226 121 -226 295v413h137v-401c0 -124 51 -190 164 -190c114 0 163 66 163 190
v401z" />
    <glyph glyph-name="Uring" unicode="&#x16e;" horiz-adv-x="744" 
d="M372 909c50 0 88 -38 88 -87s-38 -87 -88 -87c-49 0 -87 38 -87 87s38 87 87 87zM372 858c-20 0 -36 -16 -36 -36c0 -22 16 -37 36 -37s36 15 36 37c0 20 -16 36 -36 36zM672 700v-413c0 -202 -111 -301 -300 -301c-188 0 -301 99 -301 301v413h137v-401
c0 -124 51 -190 164 -190c114 0 163 66 163 190v401h137z" />
    <glyph glyph-name="Utilde" unicode="&#x168;" horiz-adv-x="744" 
d="M487 894h68c0 -86 -47 -135 -109 -135c-67 0 -100 46 -142 46c-25 0 -37 -21 -37 -48h-68c0 82 46 135 110 135s100 -46 141 -46c25 0 37 21 37 48zM672 700v-413c0 -202 -111 -301 -300 -301c-188 0 -301 99 -301 301v413h137v-401c0 -124 51 -190 164 -190
c114 0 163 66 163 190v401h137z" />
    <glyph glyph-name="V" unicode="V" horiz-adv-x="660" 
d="M513 700h146l-265 -700h-128l-265 700h147l183 -512z" />
    <glyph glyph-name="W" unicode="W" horiz-adv-x="1108" 
d="M958 700h146l-249 -700h-129l-175 497l-176 -497h-129l-250 700h147l167 -507l168 507h145l168 -507z" />
    <glyph glyph-name="Wacute" unicode="&#x1e82;" horiz-adv-x="1074" 
d="M704 934l-145 -159h-111l107 159h149zM958 700h146l-249 -700h-129l-175 497l-176 -497h-129l-250 700h147l167 -507l168 507h145l168 -507z" />
    <glyph glyph-name="Wcircumflex" unicode="&#x174;" horiz-adv-x="1074" 
d="M536 841l-66 -75h-119l124 131h123l124 -131h-120zM958 700h146l-249 -700h-129l-175 497l-176 -497h-129l-250 700h147l167 -507l168 507h145l168 -507z" />
    <glyph glyph-name="Wdieresis" unicode="&#x1e84;" horiz-adv-x="1074" 
d="M429 767c-40 0 -71 31 -71 70c0 38 31 70 71 70c38 0 69 -32 69 -70c0 -39 -31 -70 -69 -70zM644 767c-40 0 -71 31 -71 70c0 38 31 70 71 70c38 0 69 -32 69 -70c0 -39 -31 -70 -69 -70zM958 700h146l-249 -700h-129l-175 497l-176 -497h-129l-250 700h147l167 -507
l168 507h145l168 -507z" />
    <glyph glyph-name="Wgrave" unicode="&#x1e80;" horiz-adv-x="1074" 
d="M613 775h-111l-145 159h149zM958 700h146l-249 -700h-129l-175 497l-176 -497h-129l-250 700h147l167 -507l168 507h145l168 -507z" />
    <glyph glyph-name="X" unicode="X" horiz-adv-x="641" 
d="M616 0h-149l-146 237l-147 -237h-149l220 359l-210 341h152l134 -218l133 218h152l-210 -341z" />
    <glyph glyph-name="Y" unicode="Y" horiz-adv-x="668" 
d="M512 700h146l-255 -459v-241h-137v241l-256 459h146l178 -336z" />
    <glyph glyph-name="Yacute" unicode="&#xdd;" horiz-adv-x="668" 
d="M495 934l-145 -159h-111l107 159h149zM512 700h146l-255 -459v-241h-137v241l-256 459h146l178 -336z" />
    <glyph glyph-name="Ycircumflex" unicode="&#x176;" horiz-adv-x="668" 
d="M328 841l-66 -75h-119l124 131h123l124 -131h-120zM512 700h146l-255 -459v-241h-137v241l-256 459h146l178 -336z" />
    <glyph glyph-name="Ydieresis" unicode="&#x178;" horiz-adv-x="668" 
d="M221 767c-40 0 -71 31 -71 70c0 38 31 70 71 70c38 0 69 -32 69 -70c0 -39 -31 -70 -69 -70zM436 767c-40 0 -71 31 -71 70c0 38 31 70 71 70c38 0 69 -32 69 -70c0 -39 -31 -70 -69 -70zM512 700h146l-255 -459v-241h-137v241l-256 459h146l178 -336z" />
    <glyph glyph-name="Ygrave" unicode="&#x1ef2;" horiz-adv-x="668" 
d="M404 775h-111l-145 159h149zM512 700h146l-255 -459v-241h-137v241l-256 459h146l178 -336z" />
    <glyph glyph-name="Z" unicode="Z" horiz-adv-x="591" 
d="M205 123h345v-123h-507v114l338 463h-325v123h489v-116z" />
    <glyph glyph-name="Zacute" unicode="&#x179;" horiz-adv-x="591" 
d="M454 934l-145 -159h-111l107 159h149zM205 123h345v-123h-507v114l338 463h-325v123h489v-116z" />
    <glyph glyph-name="Zcaron" unicode="&#x17d;" horiz-adv-x="591" 
d="M345 766h-116l-116 131h116l60 -73l57 73h115zM205 123h345v-123h-507v114l338 463h-325v123h489v-116z" />
    <glyph glyph-name="Zdotaccent" unicode="&#x17b;" horiz-adv-x="591" 
d="M287 770c-40 0 -71 32 -71 71c0 38 31 69 71 69c39 0 70 -31 70 -69c0 -39 -31 -71 -70 -71zM205 123h345v-123h-507v114l338 463h-325v123h489v-116z" />
    <glyph glyph-name="I.alt" horiz-adv-x="303" 
d="M220 700v-700h-137v700h137z" />
    <glyph glyph-name="a" unicode="a" horiz-adv-x="550" 
d="M191 -14c-76 0 -154 35 -154 133c0 104 91 153 213 183l119 30c0 52 -39 78 -98 78c-56 0 -99 -23 -99 -78h-120c0 125 105 184 223 184c117 0 220 -58 220 -187v-329h-123v62c-42 -50 -116 -76 -181 -76zM220 93c54 0 144 42 144 110v31l-92 -23
c-73 -19 -107 -44 -107 -76c0 -29 25 -42 55 -42z" />
    <glyph glyph-name="aacute" unicode="&#xe1;" horiz-adv-x="550" 
d="M442 736l-145 -159h-111l107 159h149zM191 -14c-76 0 -154 35 -154 133c0 104 91 153 213 183l119 30c0 52 -39 78 -98 78c-56 0 -99 -23 -99 -78h-120c0 125 105 184 223 184c117 0 220 -58 220 -187v-329h-123v62c-42 -50 -116 -76 -181 -76zM220 93
c54 0 144 42 144 110v31l-92 -23c-73 -19 -107 -44 -107 -76c0 -29 25 -42 55 -42z" />
    <glyph glyph-name="abreve" unicode="&#x103;" horiz-adv-x="550" 
d="M433 699c0 -90 -65 -145 -158 -145c-91 0 -158 55 -158 145h86c0 -52 35 -71 72 -71c39 0 72 19 72 71h86zM191 -14c-76 0 -154 35 -154 133c0 104 91 153 213 183l119 30c0 52 -39 78 -98 78c-56 0 -99 -23 -99 -78h-120c0 125 105 184 223 184c117 0 220 -58 220 -187
v-329h-123v62c-42 -50 -116 -76 -181 -76zM220 93c54 0 144 42 144 110v31l-92 -23c-73 -19 -107 -44 -107 -76c0 -29 25 -42 55 -42z" />
    <glyph glyph-name="uni01CE" unicode="&#x1ce;" horiz-adv-x="550" 
d="M332 570h-116l-116 131h116l60 -73l57 73h115zM275 516c117 0 220 -58 220 -187v-329h-123v62c-42 -50 -116 -76 -181 -76c-76 0 -154 35 -154 133c0 104 91 153 213 183l119 30c0 52 -39 78 -98 78c-56 0 -99 -23 -99 -78h-120c0 125 105 184 223 184zM364 203v31
l-92 -23c-73 -19 -107 -44 -107 -76c0 -29 25 -42 55 -42c54 0 144 42 144 110z" />
    <glyph glyph-name="acircumflex" unicode="&#xe2;" horiz-adv-x="550" 
d="M275 643l-66 -75h-119l124 131h123l124 -131h-120zM275 516c117 0 220 -58 220 -187v-329h-123v62c-42 -50 -116 -76 -181 -76c-76 0 -154 35 -154 133c0 104 91 153 213 183l119 30c0 52 -39 78 -98 78c-56 0 -99 -23 -99 -78h-120c0 125 105 184 223 184zM364 203v31
l-92 -23c-73 -19 -107 -44 -107 -76c0 -29 25 -42 55 -42c54 0 144 42 144 110z" />
    <glyph glyph-name="adieresis" unicode="&#xe4;" horiz-adv-x="550" 
d="M168 569c-40 0 -71 31 -71 70c0 38 31 70 71 70c38 0 69 -32 69 -70c0 -39 -31 -70 -69 -70zM383 569c-40 0 -71 31 -71 70c0 38 31 70 71 70c38 0 69 -32 69 -70c0 -39 -31 -70 -69 -70zM191 -14c-76 0 -154 35 -154 133c0 104 91 153 213 183l119 30
c0 52 -39 78 -98 78c-56 0 -99 -23 -99 -78h-120c0 125 105 184 223 184c117 0 220 -58 220 -187v-329h-123v62c-42 -50 -116 -76 -181 -76zM220 93c54 0 144 42 144 110v31l-92 -23c-73 -19 -107 -44 -107 -76c0 -29 25 -42 55 -42z" />
    <glyph glyph-name="agrave" unicode="&#xe0;" horiz-adv-x="550" 
d="M95 736h149l107 -159h-111zM191 -14c-76 0 -154 35 -154 133c0 104 91 153 213 183l119 30c0 52 -39 78 -98 78c-56 0 -99 -23 -99 -78h-120c0 125 105 184 223 184c117 0 220 -58 220 -187v-329h-123v62c-42 -50 -116 -76 -181 -76zM220 93c54 0 144 42 144 110v31
l-92 -23c-73 -19 -107 -44 -107 -76c0 -29 25 -42 55 -42z" />
    <glyph glyph-name="amacron" unicode="&#x101;" horiz-adv-x="550" 
d="M452 668v-83h-356v83h356zM191 -14c-76 0 -154 35 -154 133c0 104 91 153 213 183l119 30c0 52 -39 78 -98 78c-56 0 -99 -23 -99 -78h-120c0 125 105 184 223 184c117 0 220 -58 220 -187v-329h-123v62c-42 -50 -116 -76 -181 -76zM220 93c54 0 144 42 144 110v31
l-92 -23c-73 -19 -107 -44 -107 -76c0 -29 25 -42 55 -42z" />
    <glyph glyph-name="aogonek" unicode="&#x105;" horiz-adv-x="550" 
d="M473 0c-64 -28 -88 -54 -88 -76c0 -20 18 -31 40 -31c16 0 36 5 54 13v-86c-27 -11 -55 -16 -81 -16c-66 0 -112 37 -112 90c0 36 22 77 78 106h8v62c-42 -50 -116 -76 -181 -76c-76 0 -154 35 -154 133c0 104 91 153 213 183l119 30c0 52 -39 78 -98 78
c-56 0 -99 -23 -99 -78h-120c0 125 105 184 223 184c117 0 220 -58 220 -187v-329h-22zM364 203v31l-92 -23c-73 -19 -107 -44 -107 -76c0 -29 25 -42 55 -42c54 0 144 42 144 110z" />
    <glyph glyph-name="aring" unicode="&#xe5;" horiz-adv-x="550" 
d="M274 715c50 0 88 -38 88 -87s-38 -87 -88 -87c-49 0 -87 38 -87 87s38 87 87 87zM274 664c-20 0 -36 -16 -36 -36c0 -22 16 -37 36 -37s36 15 36 37c0 20 -16 36 -36 36zM191 -14c-76 0 -154 35 -154 133c0 104 91 153 213 183l119 30c0 52 -39 78 -98 78
c-56 0 -99 -23 -99 -78h-120c0 125 105 184 223 184c117 0 220 -58 220 -187v-329h-123v62c-42 -50 -116 -76 -181 -76zM220 93c54 0 144 42 144 110v31l-92 -23c-73 -19 -107 -44 -107 -76c0 -29 25 -42 55 -42z" />
    <glyph glyph-name="atilde" unicode="&#xe3;" horiz-adv-x="550" 
d="M385 698h68c0 -86 -47 -135 -109 -135c-67 0 -100 46 -142 46c-25 0 -37 -21 -37 -48h-68c0 82 46 135 110 135s100 -46 141 -46c25 0 37 21 37 48zM191 -14c-76 0 -154 35 -154 133c0 104 91 153 213 183l119 30c0 52 -39 78 -98 78c-56 0 -99 -23 -99 -78h-120
c0 125 105 184 223 184c117 0 220 -58 220 -187v-329h-123v62c-42 -50 -116 -76 -181 -76zM220 93c54 0 144 42 144 110v31l-92 -23c-73 -19 -107 -44 -107 -76c0 -29 25 -42 55 -42z" />
    <glyph glyph-name="ae" unicode="&#xe6;" horiz-adv-x="917" 
d="M874 269v-64h-378c6 -55 47 -112 137 -112c64 0 101 25 116 63h119c-22 -104 -104 -170 -235 -170c-99 0 -174 40 -219 103c-51 -70 -127 -103 -214 -103c-85 0 -163 35 -163 133c0 104 91 153 213 183l119 30c0 52 -39 78 -98 78c-56 0 -99 -23 -99 -78h-120
c0 125 105 184 223 184c69 0 134 -20 175 -64c45 40 105 64 176 64c135 0 248 -85 248 -247zM496 296h257c-3 64 -51 113 -130 113c-82 0 -121 -52 -127 -113zM364 203v31l-92 -23c-73 -19 -107 -44 -107 -76c0 -29 25 -42 55 -42c54 0 144 42 144 110z" />
    <glyph glyph-name="b" unicode="b" horiz-adv-x="652" 
d="M363 -14c-78 0 -134 32 -164 72v-58h-126v758h131v-307c27 35 82 65 158 65c127 0 242 -104 242 -265s-115 -265 -241 -265zM335 100c78 0 138 50 138 151s-60 151 -138 151s-137 -50 -137 -151s59 -151 137 -151z" />
    <glyph glyph-name="c" unicode="c" horiz-adv-x="588" 
d="M314 516c119 0 232 -71 242 -205h-122c-10 55 -52 91 -119 91c-86 0 -137 -55 -137 -151s50 -151 137 -151c66 0 109 35 119 91h122c-10 -135 -124 -205 -242 -205c-152 0 -267 106 -267 265s114 265 267 265z" />
    <glyph glyph-name="cacute" unicode="&#x107;" horiz-adv-x="588" 
d="M474 734l-145 -159h-111l107 159h149zM314 516c119 0 232 -71 242 -205h-122c-10 55 -52 91 -119 91c-86 0 -137 -55 -137 -151s50 -151 137 -151c66 0 109 35 119 91h122c-10 -135 -124 -205 -242 -205c-152 0 -267 106 -267 265s114 265 267 265z" />
    <glyph glyph-name="ccaron" unicode="&#x10d;" horiz-adv-x="588" 
d="M365 566h-116l-116 131h116l60 -73l57 73h115zM315 100c66 0 109 35 119 91h122c-10 -135 -124 -205 -242 -205c-152 0 -267 106 -267 265s114 265 267 265c119 0 232 -71 242 -205h-122c-10 55 -52 91 -119 91c-86 0 -137 -55 -137 -151s50 -151 137 -151z" />
    <glyph glyph-name="ccedilla" unicode="&#xe7;" horiz-adv-x="588" 
d="M314 516c119 0 232 -71 242 -205h-122c-10 55 -52 91 -119 91c-86 0 -137 -55 -137 -151s50 -151 137 -151c66 0 109 35 119 91h122c-10 -135 -124 -205 -242 -205c-152 0 -267 106 -267 265s114 265 267 265zM357 -67l-82 -184l-129 53l122 131h89z" />
    <glyph glyph-name="ccircumflex" unicode="&#x109;" horiz-adv-x="588" 
d="M306 642l-66 -75h-119l124 131h123l124 -131h-120zM315 100c66 0 109 35 119 91h122c-10 -135 -124 -205 -242 -205c-152 0 -267 106 -267 265s114 265 267 265c119 0 232 -71 242 -205h-122c-10 55 -52 91 -119 91c-86 0 -137 -55 -137 -151s50 -151 137 -151z" />
    <glyph glyph-name="cdotaccent" unicode="&#x10b;" horiz-adv-x="588" 
d="M307 569c-40 0 -71 32 -71 71c0 38 31 69 71 69c39 0 70 -31 70 -69c0 -39 -31 -71 -70 -71zM314 516c119 0 232 -71 242 -205h-122c-10 55 -52 91 -119 91c-86 0 -137 -55 -137 -151s50 -151 137 -151c66 0 109 35 119 91h122c-10 -135 -124 -205 -242 -205
c-152 0 -267 106 -267 265s114 265 267 265z" />
    <glyph glyph-name="d" unicode="d" horiz-adv-x="652" 
d="M291 -14c-130 0 -243 104 -243 265s112 265 243 265c72 0 130 -30 157 -65v307h131v-758h-127v58c-29 -40 -88 -72 -161 -72zM317 100c78 0 137 50 137 151s-59 151 -137 151s-138 -50 -138 -151s60 -151 138 -151z" />
    <glyph glyph-name="eth" unicode="&#xf0;" horiz-adv-x="637" 
d="M491 569c52 -85 94 -188 94 -300c0 -186 -114 -283 -267 -283c-159 0 -270 103 -270 266c0 165 114 264 249 264c53 0 93 -12 123 -34c-16 29 -35 58 -56 87h-222v77h162c-34 39 -68 74 -96 100h141c26 -25 57 -59 89 -100h136v-77h-83zM317 100c78 0 137 50 137 151
s-59 151 -137 151s-138 -50 -138 -151s60 -151 138 -151z" />
    <glyph glyph-name="dcaron" unicode="&#x10f;" horiz-adv-x="651" 
d="M291 -14c-130 0 -243 104 -243 265s112 265 243 265c72 0 130 -30 157 -65v307h131v-758h-127v58c-29 -40 -88 -72 -161 -72zM728 729c45 0 83 -37 83 -83c0 -25 -10 -50 -23 -72l-71 -129h-74l66 121c-33 4 -64 39 -64 80c0 46 37 83 83 83zM317 100
c78 0 137 50 137 151s-59 151 -137 151s-138 -50 -138 -151s60 -151 138 -151z" />
    <glyph glyph-name="dcroat" unicode="&#x111;" horiz-adv-x="636" 
d="M645 670v-96h-66v-574h-127v58c-29 -40 -88 -72 -161 -72c-130 0 -243 104 -243 265s112 265 243 265c72 0 130 -30 157 -65v123h-161v96h161v88h131v-88h66zM317 100c78 0 137 50 137 151s-59 151 -137 151s-138 -50 -138 -151s60 -151 138 -151z" />
    <glyph glyph-name="e" unicode="e" horiz-adv-x="599" 
d="M556 269v-64h-378c6 -55 47 -112 137 -112c64 0 101 25 116 63h119c-22 -104 -104 -170 -235 -170c-168 0 -268 115 -268 265s105 265 261 265c135 0 248 -85 248 -247zM178 296h257c-3 64 -51 113 -130 113c-82 0 -121 -52 -127 -113z" />
    <glyph glyph-name="eacute" unicode="&#xe9;" horiz-adv-x="599" 
d="M468 736l-145 -159h-111l107 159h149zM556 269v-64h-378c6 -55 47 -112 137 -112c64 0 101 25 116 63h119c-22 -104 -104 -170 -235 -170c-168 0 -268 115 -268 265s105 265 261 265c135 0 248 -85 248 -247zM178 296h257c-3 64 -51 113 -130 113
c-82 0 -121 -52 -127 -113z" />
    <glyph glyph-name="ebreve" unicode="&#x115;" horiz-adv-x="599" 
d="M301 557c-91 0 -158 55 -158 145h86c0 -52 35 -71 72 -71c39 0 72 19 72 71h86c0 -90 -65 -145 -158 -145zM556 269v-64h-378c6 -55 47 -112 137 -112c64 0 101 25 116 63h119c-22 -104 -104 -170 -235 -170c-168 0 -268 115 -268 265s105 265 261 265
c135 0 248 -85 248 -247zM178 296h257c-3 64 -51 113 -130 113c-82 0 -121 -52 -127 -113z" />
    <glyph glyph-name="ecaron" unicode="&#x11b;" horiz-adv-x="599" 
d="M359 568h-116l-116 131h116l60 -73l57 73h115zM556 269v-64h-378c6 -55 47 -112 137 -112c64 0 101 25 116 63h119c-22 -104 -104 -170 -235 -170c-168 0 -268 115 -268 265s105 265 261 265c135 0 248 -85 248 -247zM178 296h257c-3 64 -51 113 -130 113
c-82 0 -121 -52 -127 -113z" />
    <glyph glyph-name="ecircumflex" unicode="&#xea;" horiz-adv-x="599" 
d="M301 643l-66 -75h-119l124 131h123l124 -131h-120zM556 269v-64h-378c6 -55 47 -112 137 -112c64 0 101 25 116 63h119c-22 -104 -104 -170 -235 -170c-168 0 -268 115 -268 265s105 265 261 265c135 0 248 -85 248 -247zM178 296h257c-3 64 -51 113 -130 113
c-82 0 -121 -52 -127 -113z" />
    <glyph glyph-name="edieresis" unicode="&#xeb;" horiz-adv-x="599" 
d="M194 569c-40 0 -71 31 -71 70c0 38 31 70 71 70c38 0 69 -32 69 -70c0 -39 -31 -70 -69 -70zM409 569c-40 0 -71 31 -71 70c0 38 31 70 71 70c38 0 69 -32 69 -70c0 -39 -31 -70 -69 -70zM556 269v-64h-378c6 -55 47 -112 137 -112c64 0 101 25 116 63h119
c-22 -104 -104 -170 -235 -170c-168 0 -268 115 -268 265s105 265 261 265c135 0 248 -85 248 -247zM178 296h257c-3 64 -51 113 -130 113c-82 0 -121 -52 -127 -113z" />
    <glyph glyph-name="edotaccent" unicode="&#x117;" horiz-adv-x="599" 
d="M301 572c-40 0 -71 32 -71 71c0 38 31 69 71 69c39 0 70 -31 70 -69c0 -39 -31 -71 -70 -71zM556 269v-64h-378c6 -55 47 -112 137 -112c64 0 101 25 116 63h119c-22 -104 -104 -170 -235 -170c-168 0 -268 115 -268 265s105 265 261 265c135 0 248 -85 248 -247z
M178 296h257c-3 64 -51 113 -130 113c-82 0 -121 -52 -127 -113z" />
    <glyph glyph-name="egrave" unicode="&#xe8;" horiz-adv-x="599" 
d="M377 577h-111l-145 159h149zM556 269v-64h-378c6 -55 47 -112 137 -112c64 0 101 25 116 63h119c-22 -104 -104 -170 -235 -170c-168 0 -268 115 -268 265s105 265 261 265c135 0 248 -85 248 -247zM178 296h257c-3 64 -51 113 -130 113c-82 0 -121 -52 -127 -113z" />
    <glyph glyph-name="emacron" unicode="&#x113;" horiz-adv-x="599" 
d="M478 668v-83h-356v83h356zM556 269v-64h-378c6 -55 47 -112 137 -112c64 0 101 25 116 63h119c-22 -104 -104 -170 -235 -170c-168 0 -268 115 -268 265s105 265 261 265c135 0 248 -85 248 -247zM178 296h257c-3 64 -51 113 -130 113c-82 0 -121 -52 -127 -113z" />
    <glyph glyph-name="eogonek" unicode="&#x119;" horiz-adv-x="599" 
d="M556 269v-64h-378c6 -55 47 -112 137 -112c64 0 101 25 116 63h119c-16 -76 -65 -132 -141 -157c-63 -27 -87 -53 -87 -75c0 -20 18 -31 40 -31c16 0 36 5 54 13v-86c-27 -11 -55 -16 -81 -16c-66 0 -112 37 -112 90c0 31 16 66 57 94c-147 15 -233 124 -233 263
c0 150 105 265 261 265c135 0 248 -85 248 -247zM178 296h257c-3 64 -51 113 -130 113c-82 0 -121 -52 -127 -113z" />
    <glyph glyph-name="f" unicode="f" horiz-adv-x="378" 
d="M105 0v387h-76v116h76v84c0 116 71 171 174 171h86v-111h-56c-47 0 -73 -16 -73 -76v-68h121v-116h-121v-387h-131z" />
    <glyph glyph-name="g" unicode="g" 
d="M310 -234c-190 0 -252 110 -252 198h122c0 -67 57 -91 130 -91c76 0 140 29 140 131v46c-34 -45 -91 -64 -151 -64c-142 0 -256 110 -256 265c0 156 114 265 249 265c60 0 114 -20 150 -64v51h131v-496c0 -152 -95 -241 -263 -241zM312 100c79 0 138 50 138 151
s-59 151 -138 151c-77 0 -137 -50 -137 -151c0 -100 60 -151 137 -151z" />
    <glyph glyph-name="gbreve" unicode="&#x11f;" 
d="M479 702c0 -90 -65 -145 -158 -145c-91 0 -158 55 -158 145h86c0 -52 35 -71 72 -71c39 0 72 19 72 71h86zM310 -234c-190 0 -252 110 -252 198h122c0 -67 57 -91 130 -91c76 0 140 29 140 131v46c-34 -45 -91 -64 -151 -64c-142 0 -256 110 -256 265
c0 156 114 265 249 265c60 0 114 -20 150 -64v51h131v-496c0 -152 -95 -241 -263 -241zM312 100c79 0 138 50 138 151s-59 151 -138 151c-77 0 -137 -50 -137 -151c0 -100 60 -151 137 -151z" />
    <glyph glyph-name="gcircumflex" unicode="&#x11d;" 
d="M320 644l-66 -75h-119l124 131h123l124 -131h-120zM442 503h131v-496c0 -152 -95 -241 -263 -241c-190 0 -252 110 -252 198h122c0 -67 57 -91 130 -91c76 0 140 29 140 131v46c-34 -45 -91 -64 -151 -64c-142 0 -256 110 -256 265c0 156 114 265 249 265
c60 0 114 -20 150 -64v51zM312 100c79 0 138 50 138 151s-59 151 -138 151c-77 0 -137 -50 -137 -151c0 -100 60 -151 137 -151z" />
    <glyph glyph-name="gcommaaccent" unicode="&#x123;" 
d="M262 560v106c0 47 31 77 83 99l26 -41c-30 -11 -53 -23 -53 -48v-10h63v-106h-119zM310 -234c-190 0 -252 110 -252 198h122c0 -67 57 -91 130 -91c76 0 140 29 140 131v46c-34 -45 -91 -64 -151 -64c-142 0 -256 110 -256 265c0 156 114 265 249 265
c60 0 114 -20 150 -64v51h131v-496c0 -152 -95 -241 -263 -241zM312 100c79 0 138 50 138 151s-59 151 -138 151c-77 0 -137 -50 -137 -151c0 -100 60 -151 137 -151z" />
    <glyph glyph-name="gdotaccent" unicode="&#x121;" 
d="M321 571c-40 0 -71 32 -71 71c0 38 31 69 71 69c39 0 70 -31 70 -69c0 -39 -31 -71 -70 -71zM310 -234c-190 0 -252 110 -252 198h122c0 -67 57 -91 130 -91c76 0 140 29 140 131v46c-34 -45 -91 -64 -151 -64c-142 0 -256 110 -256 265c0 156 114 265 249 265
c60 0 114 -20 150 -64v51h131v-496c0 -152 -95 -241 -263 -241zM312 100c79 0 138 50 138 151s-59 151 -138 151c-77 0 -137 -50 -137 -151c0 -100 60 -151 137 -151z" />
    <glyph glyph-name="h" unicode="h" 
d="M73 0v759h131v-306c28 34 78 63 157 63c129 0 207 -77 207 -217v-299h-131v279c0 80 -38 122 -111 122c-82 0 -122 -54 -122 -157v-244h-131z" />
    <glyph glyph-name="hbar" unicode="&#x127;" horiz-adv-x="636" 
d="M364 516c129 0 207 -77 207 -217v-299h-131v279c0 80 -38 122 -111 122c-82 0 -122 -54 -122 -157v-244h-131v574h-63v92h63v93h131v-93h174v-92h-174v-121c28 34 78 63 157 63z" />
    <glyph glyph-name="hcircumflex" unicode="&#x125;" 
d="M291 900l-66 -75h-119l124 131h123l124 -131h-120zM361 516c129 0 207 -77 207 -217v-299h-131v279c0 80 -38 122 -111 122c-82 0 -122 -54 -122 -157v-244h-131v759h131v-306c28 34 78 63 157 63z" />
    <glyph glyph-name="i" unicode="i" horiz-adv-x="278" 
d="M140 742c43 0 78 -35 78 -78s-35 -79 -78 -79c-45 0 -80 36 -80 79s35 78 80 78zM204 502v-502h-131v502h131z" />
    <glyph glyph-name="dotlessi" unicode="&#x131;" horiz-adv-x="259" 
d="M64 0v503h131v-503h-131z" />
    <glyph glyph-name="iacute" unicode="&#xed;" horiz-adv-x="259" 
d="M297 737l-145 -159h-111l107 159h149zM64 0v503h131v-503h-131z" />
    <glyph glyph-name="uni01D0" unicode="&#x1d0;" horiz-adv-x="259" 
d="M187 571h-116l-116 131h116l60 -73l57 73h115zM64 0v503h131v-503h-131z" />
    <glyph glyph-name="icircumflex" unicode="&#xee;" horiz-adv-x="259" 
d="M192 700l124 -131h-120l-66 75l-66 -75h-119l124 131h123zM64 0v503h131v-503h-131z" />
    <glyph glyph-name="idieresis" unicode="&#xef;" horiz-adv-x="259" 
d="M23 570c-40 0 -71 31 -71 70c0 38 31 70 71 70c38 0 69 -32 69 -70c0 -39 -31 -70 -69 -70zM238 570c-40 0 -71 31 -71 70c0 38 31 70 71 70c38 0 69 -32 69 -70c0 -39 -31 -70 -69 -70zM64 0v503h131v-503h-131z" />
    <glyph glyph-name="i.loclTRK" horiz-adv-x="259" 
d="M130 572c-40 0 -71 32 -71 71c0 38 31 69 71 69c39 0 70 -31 70 -69c0 -39 -31 -71 -70 -71zM64 0v503h131v-503h-131z" />
    <glyph glyph-name="igrave" unicode="&#xec;" horiz-adv-x="259" 
d="M-50 737h149l107 -159h-111zM64 0v503h131v-503h-131z" />
    <glyph glyph-name="ij" unicode="&#x133;" horiz-adv-x="545" 
d="M140 742c43 0 78 -35 78 -78s-35 -79 -78 -79c-45 0 -80 36 -80 79s35 78 80 78zM416 585c-44 0 -79 36 -79 79s35 78 79 78c43 0 78 -35 78 -78s-35 -79 -78 -79zM204 502v-502h-131v502h131zM481 502v-526c0 -134 -74 -198 -180 -198h-53v113h22c50 0 80 25 80 82v529
h131z" />
    <glyph glyph-name="imacron" unicode="&#x12b;" horiz-adv-x="259" 
d="M307 669v-83h-356v83h356zM64 0v503h131v-503h-131z" />
    <glyph glyph-name="iogonek" unicode="&#x12f;" horiz-adv-x="259" 
d="M130 573c-40 0 -71 32 -71 71c0 38 31 69 71 69c39 0 70 -31 70 -69c0 -39 -31 -71 -70 -71zM64 0v503h131v-503h-46c-64 -28 -88 -54 -88 -76c0 -20 18 -31 40 -31c16 0 36 5 54 13v-86c-27 -11 -55 -16 -81 -16c-66 0 -112 37 -112 90c0 36 22 77 78 106h24z" />
    <glyph glyph-name="itilde" unicode="&#x129;" horiz-adv-x="259" 
d="M244 701h68c0 -86 -47 -135 -109 -135c-67 0 -100 46 -142 46c-25 0 -37 -21 -37 -48h-68c0 82 46 135 110 135s100 -46 141 -46c25 0 37 21 37 48zM64 0v503h131v-503h-131z" />
    <glyph glyph-name="j" unicode="j" horiz-adv-x="267" 
d="M138 585c-44 0 -79 36 -79 79s35 78 79 78c43 0 78 -35 78 -78s-35 -79 -78 -79zM203 502v-526c0 -134 -74 -198 -180 -198h-53v113h22c50 0 80 25 80 82v529h131z" />
    <glyph glyph-name="jcircumflex" unicode="&#x135;" horiz-adv-x="293" 
d="M148 631l-66 -75h-119l124 131h123l124 -131h-120zM86 -31v533h131v-531c0 -139 -77 -195 -164 -195h-49v116h13c24 0 69 7 69 77z" />
    <glyph glyph-name="k" unicode="k" horiz-adv-x="597" 
d="M588 0h-169l-215 227v-227h-131v759h131v-429l195 173h174l-252 -222z" />
    <glyph glyph-name="kcommaaccent" unicode="&#x137;" horiz-adv-x="597" 
d="M321 281l267 -281h-169l-215 227v-227h-131v759h131v-429l195 173h174zM239 -164v106h119v-106c0 -47 -31 -77 -83 -99l-26 41c30 11 53 23 53 48v10h-63z" />
    <glyph glyph-name="l" unicode="l" horiz-adv-x="277" 
d="M204 758v-758h-131v758h131z" />
    <glyph glyph-name="lacute" unicode="&#x13a;" horiz-adv-x="277" 
d="M306 993l-145 -159h-111l107 159h149zM204 758v-758h-131v758h131z" />
    <glyph glyph-name="lcaron" unicode="&#x13e;" horiz-adv-x="277" 
d="M348 772c45 0 83 -37 83 -83c0 -25 -10 -50 -23 -72l-71 -129h-74l66 121c-33 4 -64 39 -64 80c0 46 37 83 83 83zM204 758v-758h-131v758h131z" />
    <glyph glyph-name="lcommaaccent" unicode="&#x13c;" horiz-adv-x="277" 
d="M204 758v-758h-131v758h131zM198 -58v-106c0 -47 -31 -77 -83 -99l-26 41c30 11 53 23 53 48v10h-63v106h119z" />
    <glyph glyph-name="ldot" unicode="&#x140;" horiz-adv-x="277" 
d="M204 758v-758h-131v758h131zM320 356c35 0 63 -28 63 -63s-28 -63 -63 -63s-64 28 -64 63s29 63 64 63z" />
    <glyph glyph-name="lslash" unicode="&#x142;" horiz-adv-x="404" 
d="M375 360l-110 -52v-308h-131v246l-60 -28l-45 100l105 49v391h131v-329l66 31z" />
    <glyph glyph-name="m" unicode="m" horiz-adv-x="938" 
d="M681 516c114 0 192 -73 192 -204v-312h-131v286c0 77 -36 114 -98 114c-66 0 -106 -40 -106 -129v-271h-131v286c0 79 -38 114 -98 114c-66 0 -105 -41 -105 -129v-271h-131v502h125v-59c27 46 85 73 149 73c73 0 126 -29 161 -83c34 55 95 83 173 83z" />
    <glyph glyph-name="n" unicode="n" 
d="M73 0v502h125v-61c30 41 77 75 163 75c129 0 207 -78 207 -218v-298h-131v279c0 80 -37 121 -111 121c-81 0 -122 -54 -122 -157v-243h-131z" />
    <glyph glyph-name="nacute" unicode="&#x144;" 
d="M482 737l-145 -159h-111l107 159h149zM73 0v502h125v-61c30 41 77 75 163 75c129 0 207 -78 207 -218v-298h-131v279c0 80 -37 121 -111 121c-81 0 -122 -54 -122 -157v-243h-131z" />
    <glyph glyph-name="ncaron" unicode="&#x148;" 
d="M373 569h-116l-116 131h116l60 -73l57 73h115zM361 516c129 0 207 -78 207 -218v-298h-131v279c0 80 -37 121 -111 121c-81 0 -122 -54 -122 -157v-243h-131v502h125v-61c30 41 77 75 163 75z" />
    <glyph glyph-name="ncommaaccent" unicode="&#x146;" 
d="M73 0v502h125v-61c30 41 77 75 163 75c129 0 207 -78 207 -218v-298h-131v279c0 80 -37 121 -111 121c-81 0 -122 -54 -122 -157v-243h-131zM374 -58v-106c0 -47 -31 -77 -83 -99l-26 41c30 11 53 23 53 48v10h-63v106h119z" />
    <glyph glyph-name="eng" unicode="&#x14b;" 
d="M361 516c129 0 207 -78 207 -218v-322c0 -134 -73 -198 -179 -198h-54v113h22c51 0 80 25 80 82v306c0 80 -37 121 -111 121c-81 0 -122 -54 -122 -157v-243h-131v502h125v-61c30 41 77 75 163 75z" />
    <glyph glyph-name="ntilde" unicode="&#xf1;" 
d="M425 699h68c0 -86 -47 -135 -109 -135c-67 0 -100 46 -142 46c-25 0 -37 -21 -37 -48h-68c0 82 46 135 110 135s100 -46 141 -46c25 0 37 21 37 48zM73 0v502h125v-61c30 41 77 75 163 75c129 0 207 -78 207 -218v-298h-131v279c0 80 -37 121 -111 121
c-81 0 -122 -54 -122 -157v-243h-131z" />
    <glyph glyph-name="o" unicode="o" 
d="M316 516c153 0 269 -103 269 -265s-116 -265 -269 -265c-152 0 -268 103 -268 265s116 265 268 265zM316 402c-77 0 -137 -50 -137 -151s60 -151 137 -151c79 0 138 50 138 151c0 102 -59 151 -138 151z" />
    <glyph glyph-name="oacute" unicode="&#xf3;" 
d="M483 736l-145 -159h-111l107 159h149zM316 516c153 0 269 -103 269 -265s-116 -265 -269 -265c-152 0 -268 103 -268 265s116 265 268 265zM316 402c-77 0 -137 -50 -137 -151s60 -151 137 -151c79 0 138 50 138 151c0 102 -59 151 -138 151z" />
    <glyph glyph-name="obreve" unicode="&#x14f;" 
d="M474 702c0 -90 -65 -145 -158 -145c-91 0 -158 55 -158 145h86c0 -52 35 -71 72 -71c39 0 72 19 72 71h86zM316 516c153 0 269 -103 269 -265s-116 -265 -269 -265c-152 0 -268 103 -268 265s116 265 268 265zM316 402c-77 0 -137 -50 -137 -151s60 -151 137 -151
c79 0 138 50 138 151c0 102 -59 151 -138 151z" />
    <glyph glyph-name="uni01D2" unicode="&#x1d2;" 
d="M373 570h-116l-116 131h116l60 -73l57 73h115zM316 516c153 0 269 -103 269 -265s-116 -265 -269 -265c-152 0 -268 103 -268 265s116 265 268 265zM316 100c79 0 138 50 138 151c0 102 -59 151 -138 151c-77 0 -137 -50 -137 -151s60 -151 137 -151z" />
    <glyph glyph-name="ocircumflex" unicode="&#xf4;" 
d="M316 643l-66 -75h-119l124 131h123l124 -131h-120zM316 516c153 0 269 -103 269 -265s-116 -265 -269 -265c-152 0 -268 103 -268 265s116 265 268 265zM316 100c79 0 138 50 138 151c0 102 -59 151 -138 151c-77 0 -137 -50 -137 -151s60 -151 137 -151z" />
    <glyph glyph-name="odieresis" unicode="&#xf6;" 
d="M209 569c-40 0 -71 31 -71 70c0 38 31 70 71 70c38 0 69 -32 69 -70c0 -39 -31 -70 -69 -70zM424 569c-40 0 -71 31 -71 70c0 38 31 70 71 70c38 0 69 -32 69 -70c0 -39 -31 -70 -69 -70zM316 516c153 0 269 -103 269 -265s-116 -265 -269 -265c-152 0 -268 103 -268 265
s116 265 268 265zM316 402c-77 0 -137 -50 -137 -151s60 -151 137 -151c79 0 138 50 138 151c0 102 -59 151 -138 151z" />
    <glyph glyph-name="ograve" unicode="&#xf2;" 
d="M136 736h149l107 -159h-111zM316 516c153 0 269 -103 269 -265s-116 -265 -269 -265c-152 0 -268 103 -268 265s116 265 268 265zM316 402c-77 0 -137 -50 -137 -151s60 -151 137 -151c79 0 138 50 138 151c0 102 -59 151 -138 151z" />
    <glyph glyph-name="ohungarumlaut" unicode="&#x151;" 
d="M354 701l-123 -142h-112l94 142h141zM569 701l-124 -142h-111l93 142h142zM316 516c153 0 269 -103 269 -265s-116 -265 -269 -265c-152 0 -268 103 -268 265s116 265 268 265zM316 402c-77 0 -137 -50 -137 -151s60 -151 137 -151c79 0 138 50 138 151
c0 102 -59 151 -138 151z" />
    <glyph glyph-name="omacron" unicode="&#x14d;" 
d="M493 668v-83h-356v83h356zM316 516c153 0 269 -103 269 -265s-116 -265 -269 -265c-152 0 -268 103 -268 265s116 265 268 265zM316 402c-77 0 -137 -50 -137 -151s60 -151 137 -151c79 0 138 50 138 151c0 102 -59 151 -138 151z" />
    <glyph glyph-name="oslash" unicode="&#xf8;" horiz-adv-x="634" 
d="M597 503l-70 -79c37 -45 58 -103 58 -173c0 -162 -116 -265 -269 -265c-53 0 -102 13 -143 36l-19 -22h-111l66 75c-38 45 -61 105 -61 176c0 162 116 265 268 265c55 0 105 -13 147 -38l22 25h112zM179 251c0 -31 6 -57 16 -78l188 214c-19 10 -42 15 -67 15
c-77 0 -137 -50 -137 -151zM454 251c0 29 -5 54 -13 74l-187 -212c18 -9 39 -13 62 -13c79 0 138 50 138 151z" />
    <glyph glyph-name="otilde" unicode="&#xf5;" 
d="M426 698h68c0 -86 -47 -135 -109 -135c-67 0 -100 46 -142 46c-25 0 -37 -21 -37 -48h-68c0 82 46 135 110 135s100 -46 141 -46c25 0 37 21 37 48zM316 516c153 0 269 -103 269 -265s-116 -265 -269 -265c-152 0 -268 103 -268 265s116 265 268 265zM316 402
c-77 0 -137 -50 -137 -151s60 -151 137 -151c79 0 138 50 138 151c0 102 -59 151 -138 151z" />
    <glyph glyph-name="oe" unicode="&#x153;" horiz-adv-x="1005" 
d="M962 269v-64h-378c6 -55 47 -112 137 -112c64 0 101 25 116 63h119c-22 -104 -104 -170 -235 -170c-88 0 -157 31 -203 82c-48 -52 -120 -82 -202 -82c-152 0 -268 103 -268 265s116 265 268 265c82 0 154 -30 203 -83c46 52 113 83 195 83c135 0 248 -85 248 -247z
M584 296h257c-3 64 -51 113 -130 113c-82 0 -121 -52 -127 -113zM316 100c74 0 131 44 137 134v17v17c-6 90 -62 134 -137 134c-77 0 -137 -50 -137 -151s60 -151 137 -151z" />
    <glyph glyph-name="p" unicode="p" horiz-adv-x="652" 
d="M73 -222v724h126v-58c30 40 86 72 164 72c126 0 241 -104 241 -265s-115 -265 -242 -265c-76 0 -131 30 -158 65v-273h-131zM335 100c78 0 138 50 138 151s-60 151 -138 151s-137 -50 -137 -151s59 -151 137 -151z" />
    <glyph glyph-name="thorn" unicode="&#xfe;" horiz-adv-x="651" 
d="M363 516c124 0 240 -104 240 -265s-115 -265 -241 -265c-76 0 -131 30 -158 65v-273h-131v981h131v-309c30 37 84 66 159 66zM335 100c77 0 137 50 137 151s-60 151 -137 151c-78 0 -137 -50 -137 -151s59 -151 137 -151z" />
    <glyph glyph-name="q" unicode="q" horiz-adv-x="652" 
d="M448 -222v273c-27 -35 -82 -65 -158 -65c-127 0 -242 104 -242 265s115 265 241 265c78 0 134 -32 163 -72v58h127v-724h-131zM317 100c78 0 137 50 137 151s-59 151 -137 151s-138 -50 -138 -151s60 -151 138 -151z" />
    <glyph glyph-name="r" unicode="r" horiz-adv-x="389" 
d="M376 507v-123h-56c-71 0 -116 -38 -116 -126v-258h-131v502h125v-70c28 45 78 75 141 75h37z" />
    <glyph glyph-name="racute" unicode="&#x155;" horiz-adv-x="389" 
d="M356 736l-145 -159h-111l107 159h149zM376 507v-123h-56c-71 0 -116 -38 -116 -126v-258h-131v502h125v-70c28 45 78 75 141 75h37z" />
    <glyph glyph-name="rcaron" unicode="&#x159;" horiz-adv-x="389" 
d="M247 568h-116l-116 131h116l60 -73l57 73h115zM339 507h37v-123h-56c-71 0 -116 -38 -116 -126v-258h-131v502h125v-70c28 45 78 75 141 75z" />
    <glyph glyph-name="rcommaaccent" unicode="&#x157;" horiz-adv-x="389" 
d="M376 507v-123h-56c-71 0 -116 -38 -116 -126v-258h-131v502h125v-70c28 45 78 75 141 75h37zM248 -58v-106c0 -47 -31 -77 -83 -99l-26 41c30 11 53 23 53 48v10h-63v106h119z" />
    <glyph glyph-name="s" unicode="s" horiz-adv-x="486" 
d="M238 516c110 0 210 -60 210 -179h-120c0 55 -45 77 -89 77c-41 0 -75 -17 -75 -51c0 -29 22 -42 62 -52l87 -22c73 -19 140 -59 140 -144c0 -100 -90 -159 -209 -159c-146 0 -216 82 -216 182h118c0 -58 44 -79 99 -79c52 0 84 21 84 55c0 28 -26 42 -68 53l-87 23
c-80 20 -133 64 -133 141c0 101 92 155 197 155z" />
    <glyph glyph-name="sacute" unicode="&#x15b;" horiz-adv-x="486" 
d="M407 736l-145 -159h-111l107 159h149zM238 516c110 0 210 -60 210 -179h-120c0 55 -45 77 -89 77c-41 0 -75 -17 -75 -51c0 -29 22 -42 62 -52l87 -22c73 -19 140 -59 140 -144c0 -100 -90 -159 -209 -159c-146 0 -216 82 -216 182h118c0 -58 44 -79 99 -79
c52 0 84 21 84 55c0 28 -26 42 -68 53l-87 23c-80 20 -133 64 -133 141c0 101 92 155 197 155z" />
    <glyph glyph-name="scaron" unicode="&#x161;" horiz-adv-x="486" 
d="M298 568h-116l-116 131h116l60 -73l57 73h115zM313 289c73 -19 140 -59 140 -144c0 -100 -90 -159 -209 -159c-146 0 -216 82 -216 182h118c0 -58 44 -79 99 -79c52 0 84 21 84 55c0 28 -26 42 -68 53l-87 23c-80 20 -133 64 -133 141c0 101 92 155 197 155
c110 0 210 -60 210 -179h-120c0 55 -45 77 -89 77c-41 0 -75 -17 -75 -51c0 -29 22 -42 62 -52z" />
    <glyph glyph-name="scedilla" unicode="&#x15f;" horiz-adv-x="486" 
d="M238 516c110 0 210 -60 210 -179h-120c0 55 -45 77 -89 77c-41 0 -75 -17 -75 -51c0 -29 22 -42 62 -52l87 -22c73 -19 140 -59 140 -144c0 -100 -90 -159 -209 -159c-146 0 -216 82 -216 182h118c0 -58 44 -79 99 -79c52 0 84 21 84 55c0 28 -26 42 -68 53l-87 23
c-80 20 -133 64 -133 141c0 101 92 155 197 155zM303 -67l-82 -184l-129 53l122 131h89z" />
    <glyph glyph-name="scircumflex" unicode="&#x15d;" horiz-adv-x="486" 
d="M238 643l-66 -75h-119l124 131h123l124 -131h-120zM313 289c73 -19 140 -59 140 -144c0 -100 -90 -159 -209 -159c-146 0 -216 82 -216 182h118c0 -58 44 -79 99 -79c52 0 84 21 84 55c0 28 -26 42 -68 53l-87 23c-80 20 -133 64 -133 141c0 101 92 155 197 155
c110 0 210 -60 210 -179h-120c0 55 -45 77 -89 77c-41 0 -75 -17 -75 -51c0 -29 22 -42 62 -52z" />
    <glyph glyph-name="scommaaccent" unicode="&#x219;" horiz-adv-x="486" 
d="M238 516c110 0 210 -60 210 -179h-120c0 55 -45 77 -89 77c-41 0 -75 -17 -75 -51c0 -29 22 -42 62 -52l87 -22c73 -19 140 -59 140 -144c0 -100 -90 -159 -209 -159c-146 0 -216 82 -216 182h118c0 -58 44 -79 99 -79c52 0 84 21 84 55c0 28 -26 42 -68 53l-87 23
c-80 20 -133 64 -133 141c0 101 92 155 197 155zM299 -58v-106c0 -47 -31 -77 -83 -99l-26 41c30 11 53 23 53 48v10h-63v106h119z" />
    <glyph glyph-name="germandbls" unicode="&#xdf;" horiz-adv-x="689" 
d="M523 285c69 -28 126 -68 126 -147c0 -90 -74 -152 -187 -152c-116 0 -202 64 -202 182h117c0 -58 39 -78 81 -78c45 0 66 23 66 51c0 32 -28 43 -56 53l-81 29c-75 28 -110 71 -110 129c0 122 157 112 157 184c0 35 -39 64 -101 64c-88 0 -129 -56 -129 -147v-453h-131
v448c0 150 79 266 264 266c174 0 228 -104 228 -178c0 -125 -159 -117 -159 -178c0 -17 13 -33 65 -53z" />
    <glyph glyph-name="t" unicode="t" horiz-adv-x="397" 
d="M359 394h-126v-198c0 -63 22 -87 77 -87h46v-109h-88c-112 0 -165 46 -165 172v222h-84v108h84v146h130v-146h126v-108z" />
    <glyph glyph-name="tbar" unicode="&#x167;" horiz-adv-x="412" 
d="M359 394h-126v-83h113v-105h-113v-10c0 -63 22 -87 77 -87h46v-109h-88c-112 0 -165 46 -165 172v34h-71v105h71v83h-84v108h84v146h130v-146h126v-108z" />
    <glyph glyph-name="tcaron" unicode="&#x165;" horiz-adv-x="394" 
d="M397 743c45 0 83 -37 83 -83c0 -25 -10 -50 -23 -72l-71 -129h-27v-65h-126v-198c0 -63 22 -87 77 -87h46v-109h-88c-112 0 -165 46 -165 172v222h-84v108h84v146h130v-146h102l43 78c-33 4 -64 39 -64 80c0 46 37 83 83 83z" />
    <glyph glyph-name="uni0163" unicode="&#x163;" horiz-adv-x="397" 
d="M359 394h-126v-198c0 -63 22 -87 77 -87h46v-109h-88c-112 0 -165 46 -165 172v222h-84v108h84v146h130v-146h126v-108zM82 -198l122 131h89l-82 -184z" />
    <glyph glyph-name="uni021B" unicode="&#x21b;" horiz-adv-x="397" 
d="M359 394h-126v-198c0 -63 22 -87 77 -87h46v-109h-88c-112 0 -165 46 -165 172v222h-84v108h84v146h130v-146h126v-108zM170 -164v106h119v-106c0 -47 -31 -77 -83 -99l-26 41c30 11 53 23 53 48v10h-63z" />
    <glyph glyph-name="u" unicode="u" horiz-adv-x="634" 
d="M272 -14c-128 0 -207 78 -207 218v298h131v-279c0 -80 38 -121 111 -121c82 0 123 54 123 158v242h131v-502h-125v57c-30 -39 -75 -71 -164 -71z" />
    <glyph glyph-name="uacute" unicode="&#xfa;" horiz-adv-x="634" 
d="M483 737l-145 -159h-111l107 159h149zM272 -14c-128 0 -207 78 -207 218v298h131v-279c0 -80 38 -121 111 -121c82 0 123 54 123 158v242h131v-502h-125v57c-30 -39 -75 -71 -164 -71z" />
    <glyph glyph-name="ubreve" unicode="&#x16d;" horiz-adv-x="634" 
d="M474 703c0 -90 -65 -145 -158 -145c-91 0 -158 55 -158 145h86c0 -52 35 -71 72 -71c39 0 72 19 72 71h86zM272 -14c-128 0 -207 78 -207 218v298h131v-279c0 -80 38 -121 111 -121c82 0 123 54 123 158v242h131v-502h-125v57c-30 -39 -75 -71 -164 -71z" />
    <glyph glyph-name="uni01D4" unicode="&#x1d4;" horiz-adv-x="634" 
d="M373 571h-116l-116 131h116l60 -73l57 73h115zM430 502h131v-502h-125v57c-30 -39 -75 -71 -164 -71c-128 0 -207 78 -207 218v298h131v-279c0 -80 38 -121 111 -121c82 0 123 54 123 158v242z" />
    <glyph glyph-name="ucircumflex" unicode="&#xfb;" horiz-adv-x="634" 
d="M316 644l-66 -75h-119l124 131h123l124 -131h-120zM430 502h131v-502h-125v57c-30 -39 -75 -71 -164 -71c-128 0 -207 78 -207 218v298h131v-279c0 -80 38 -121 111 -121c82 0 123 54 123 158v242z" />
    <glyph glyph-name="udieresis" unicode="&#xfc;" horiz-adv-x="634" 
d="M209 570c-40 0 -71 31 -71 70c0 38 31 70 71 70c38 0 69 -32 69 -70c0 -39 -31 -70 -69 -70zM424 570c-40 0 -71 31 -71 70c0 38 31 70 71 70c38 0 69 -32 69 -70c0 -39 -31 -70 -69 -70zM272 -14c-128 0 -207 78 -207 218v298h131v-279c0 -80 38 -121 111 -121
c82 0 123 54 123 158v242h131v-502h-125v57c-30 -39 -75 -71 -164 -71z" />
    <glyph glyph-name="ugrave" unicode="&#xf9;" horiz-adv-x="634" 
d="M136 737h149l107 -159h-111zM272 -14c-128 0 -207 78 -207 218v298h131v-279c0 -80 38 -121 111 -121c82 0 123 54 123 158v242h131v-502h-125v57c-30 -39 -75 -71 -164 -71z" />
    <glyph glyph-name="uhungarumlaut" unicode="&#x171;" horiz-adv-x="634" 
d="M354 702l-123 -142h-112l94 142h141zM569 702l-124 -142h-111l93 142h142zM272 -14c-128 0 -207 78 -207 218v298h131v-279c0 -80 38 -121 111 -121c82 0 123 54 123 158v242h131v-502h-125v57c-30 -39 -75 -71 -164 -71z" />
    <glyph glyph-name="umacron" unicode="&#x16b;" horiz-adv-x="634" 
d="M493 669v-83h-356v83h356zM272 -14c-128 0 -207 78 -207 218v298h131v-279c0 -80 38 -121 111 -121c82 0 123 54 123 158v242h131v-502h-125v57c-30 -39 -75 -71 -164 -71z" />
    <glyph glyph-name="uogonek" unicode="&#x173;" horiz-adv-x="634" 
d="M515 0c-64 -28 -88 -54 -88 -76c0 -20 18 -31 40 -31c16 0 36 5 54 13v-86c-27 -11 -55 -16 -81 -16c-66 0 -112 37 -112 90c0 36 22 77 78 106h30v57c-30 -39 -75 -71 -164 -71c-128 0 -207 78 -207 218v298h131v-279c0 -80 38 -121 111 -121c82 0 123 54 123 158v242
h131v-502h-46z" />
    <glyph glyph-name="uring" unicode="&#x16f;" horiz-adv-x="634" 
d="M315 716c50 0 88 -38 88 -87s-38 -87 -88 -87c-49 0 -87 38 -87 87s38 87 87 87zM315 665c-20 0 -36 -16 -36 -36c0 -22 16 -37 36 -37s36 15 36 37c0 20 -16 36 -36 36zM272 -14c-128 0 -207 78 -207 218v298h131v-279c0 -80 38 -121 111 -121c82 0 123 54 123 158v242
h131v-502h-125v57c-30 -39 -75 -71 -164 -71z" />
    <glyph glyph-name="utilde" unicode="&#x169;" horiz-adv-x="634" 
d="M430 701h68c0 -86 -47 -135 -109 -135c-67 0 -100 46 -142 46c-25 0 -37 -21 -37 -48h-68c0 82 46 135 110 135s100 -46 141 -46c25 0 37 21 37 48zM272 -14c-128 0 -207 78 -207 218v298h131v-279c0 -80 38 -121 111 -121c82 0 123 54 123 158v242h131v-502h-125v57
c-30 -39 -75 -71 -164 -71z" />
    <glyph glyph-name="v" unicode="v" horiz-adv-x="579" 
d="M433 502h135l-214 -502h-129l-215 502h136l143 -351z" />
    <glyph glyph-name="w" unicode="w" horiz-adv-x="833" 
d="M677 502h134l-164 -502h-135l-95 337l-95 -337h-136l-163 502h134l100 -358l98 358h123l98 -358z" />
    <glyph glyph-name="wacute" unicode="&#x1e83;" horiz-adv-x="833" 
d="M584 734l-145 -159h-111l107 159h149zM677 502h134l-164 -502h-135l-95 337l-95 -337h-136l-163 502h134l100 -358l98 358h123l98 -358z" />
    <glyph glyph-name="wcircumflex" unicode="&#x175;" horiz-adv-x="833" 
d="M417 641l-66 -75h-119l124 131h123l124 -131h-120zM677 502h134l-164 -502h-135l-95 337l-95 -337h-136l-163 502h134l100 -358l98 358h123l98 -358z" />
    <glyph glyph-name="wdieresis" unicode="&#x1e85;" horiz-adv-x="833" 
d="M310 567c-40 0 -71 31 -71 70c0 38 31 70 71 70c38 0 69 -32 69 -70c0 -39 -31 -70 -69 -70zM525 567c-40 0 -71 31 -71 70c0 38 31 70 71 70c38 0 69 -32 69 -70c0 -39 -31 -70 -69 -70zM677 502h134l-164 -502h-135l-95 337l-95 -337h-136l-163 502h134l100 -358
l98 358h123l98 -358z" />
    <glyph glyph-name="wgrave" unicode="&#x1e81;" horiz-adv-x="833" 
d="M493 575h-111l-145 159h149zM677 502h134l-164 -502h-135l-95 337l-95 -337h-136l-163 502h134l100 -358l98 358h123l98 -358z" />
    <glyph glyph-name="x" unicode="x" horiz-adv-x="590" 
d="M575 0h-150l-129 166l-130 -166h-151l204 264l-185 238h153l108 -140l109 140h153l-186 -238z" />
    <glyph glyph-name="y" unicode="y" horiz-adv-x="580" 
d="M434 502h143l-309 -724h-128l90 221l-227 503h141l152 -345z" />
    <glyph glyph-name="yacute" unicode="&#xfd;" horiz-adv-x="580" 
d="M469 737l-145 -159h-111l107 159h149zM434 502h143l-309 -724h-128l90 221l-227 503h141l152 -345z" />
    <glyph glyph-name="ycircumflex" unicode="&#x177;" horiz-adv-x="580" 
d="M302 644l-66 -75h-119l124 131h123l124 -131h-120zM434 502h143l-309 -724h-128l90 221l-227 503h141l152 -345z" />
    <glyph glyph-name="ydieresis" unicode="&#xff;" horiz-adv-x="580" 
d="M195 570c-40 0 -71 31 -71 70c0 38 31 70 71 70c38 0 69 -32 69 -70c0 -39 -31 -70 -69 -70zM410 570c-40 0 -71 31 -71 70c0 38 31 70 71 70c38 0 69 -32 69 -70c0 -39 -31 -70 -69 -70zM434 502h143l-309 -724h-128l90 221l-227 503h141l152 -345z" />
    <glyph glyph-name="ygrave" unicode="&#x1ef3;" horiz-adv-x="580" 
d="M378 578h-111l-145 159h149zM434 502h143l-309 -724h-128l90 221l-227 503h141l152 -345z" />
    <glyph glyph-name="z" unicode="z" horiz-adv-x="518" 
d="M461 502v-85l-240 -301h254v-116h-424v92l235 294h-220v116h395z" />
    <glyph glyph-name="zacute" unicode="&#x17a;" horiz-adv-x="518" 
d="M428 734l-145 -159h-111l107 159h149zM461 502v-85l-240 -301h254v-116h-424v92l235 294h-220v116h395z" />
    <glyph glyph-name="zcaron" unicode="&#x17e;" horiz-adv-x="518" 
d="M319 566h-116l-116 131h116l60 -73l57 73h115zM221 116h254v-116h-424v92l235 294h-220v116h395v-85z" />
    <glyph glyph-name="zdotaccent" unicode="&#x17c;" horiz-adv-x="518" 
d="M261 570c-40 0 -71 32 -71 71c0 38 31 69 71 69c39 0 70 -31 70 -69c0 -39 -31 -71 -70 -71zM461 502v-85l-240 -301h254v-116h-424v92l235 294h-220v116h395z" />
    <glyph glyph-name="a.ss01" horiz-adv-x="641" 
d="M284 -14c-124 0 -236 104 -236 265c0 162 112 265 236 265c73 0 126 -28 153 -61v48h131v-503h-127v55c-29 -37 -82 -69 -157 -69zM311 100c75 0 132 50 132 151c0 102 -57 152 -132 152c-74 0 -132 -51 -132 -152c0 -100 58 -151 132 -151z" />
    <glyph glyph-name="pi" unicode="&#x3c0;" horiz-adv-x="625" 
d="M601 503v-115h-65v-388h-131v388h-183v-388h-131v388h-68v115h578z" />
    <glyph glyph-name="zero" unicode="0" horiz-adv-x="686" 
d="M343 -14c-194 0 -292 169 -292 363c0 197 98 365 292 365s292 -171 292 -365c0 -196 -99 -363 -292 -363zM343 109c100 1 156 99 156 240c0 146 -56 241 -156 241s-156 -98 -156 -241c0 -144 56 -239 156 -240z" />
    <glyph glyph-name="one" unicode="1" horiz-adv-x="497" 
d="M394 700v-700h-131v558l-200 -106v132l217 116h114z" />
    <glyph glyph-name="two" unicode="2" horiz-adv-x="644" 
d="M285 124h297v-124h-496v104l267 245c48 43 89 86 89 142c0 66 -55 102 -120 102c-67 0 -126 -36 -126 -123h-131c0 157 119 244 256 244c147 0 256 -100 256 -222c0 -86 -52 -155 -114 -208z" />
    <glyph glyph-name="three" unicode="3" horiz-adv-x="619" 
d="M308 -14c-148 0 -259 81 -259 225h130c0 -64 52 -104 129 -104c73 0 130 36 130 99s-62 96 -137 96h-47v112h48c69 0 116 35 116 87c0 55 -45 92 -116 92c-79 0 -123 -47 -123 -106h-129c0 131 102 227 252 227c133 0 250 -83 250 -204c0 -80 -49 -126 -94 -149
c51 -18 115 -69 115 -159c0 -126 -117 -216 -265 -216z" />
    <glyph glyph-name="four" unicode="4" horiz-adv-x="653" 
d="M622 277v-112h-110v-165h-131v165h-350v110l310 425h171v-423h110zM171 277h210v291z" />
    <glyph glyph-name="five" unicode="5" horiz-adv-x="627" 
d="M536 700v-121h-331v-158c24 22 71 44 131 44c127 0 242 -86 242 -230c0 -137 -95 -249 -264 -249c-146 0 -256 81 -256 223h132c0 -69 62 -102 123 -102c80 0 130 55 130 124c0 68 -52 119 -128 119c-63 0 -106 -34 -122 -60h-114v410h457z" />
    <glyph glyph-name="six" unicode="6" horiz-adv-x="622" 
d="M311 -14c-132 0 -263 79 -263 236c0 98 50 168 90 223l189 255h149l-195 -264c20 5 42 8 64 8c123 0 233 -77 233 -222c0 -154 -130 -236 -267 -236zM313 107c74 0 132 45 132 115s-58 116 -132 116s-132 -45 -132 -116c0 -70 59 -115 132 -115z" />
    <glyph glyph-name="seven" unicode="7" horiz-adv-x="569" 
d="M40 700h476v-111l-266 -589h-143l262 579h-329v121z" />
    <glyph glyph-name="eight" unicode="8" horiz-adv-x="636" 
d="M318 -14c-162 0 -266 96 -266 213c0 92 62 141 114 166c-50 28 -91 75 -91 148c0 113 93 201 243 201s244 -88 244 -201c0 -73 -41 -120 -92 -148c51 -25 114 -74 114 -166c0 -117 -104 -213 -266 -213zM318 414c66 0 110 36 110 91c0 54 -45 90 -110 90
c-66 0 -110 -36 -110 -90c0 -55 44 -91 110 -91zM318 104c81 0 131 42 131 104c0 61 -50 103 -131 103s-131 -42 -131 -103c0 -62 50 -104 131 -104z" />
    <glyph glyph-name="nine" unicode="9" horiz-adv-x="624" 
d="M311 714c132 0 263 -79 263 -236c0 -98 -50 -168 -90 -223l-189 -255h-149l195 264c-20 -5 -42 -8 -64 -8c-123 0 -233 77 -233 222c0 154 130 236 267 236zM309 593c-74 0 -132 -45 -132 -115s58 -116 132 -116s132 45 132 116c0 70 -59 115 -132 115z" />
    <glyph glyph-name="zero.tf" horiz-adv-x="686" 
d="M343 -14c-194 0 -292 169 -292 363c0 197 98 365 292 365s292 -171 292 -365c0 -196 -99 -363 -292 -363zM343 109c100 1 156 99 156 240c0 146 -56 241 -156 241s-156 -98 -156 -241c0 -144 56 -239 156 -240z" />
    <glyph glyph-name="one.tf" horiz-adv-x="686" 
d="M427 124h220v-124h-581v124h230v433l-220 -115v131l237 127h114v-576z" />
    <glyph glyph-name="two.tf" horiz-adv-x="686" 
d="M304 124h297v-124h-496v104l267 245c48 43 89 86 89 142c0 66 -55 102 -120 102c-67 0 -126 -36 -126 -123h-131c0 157 119 244 256 244c147 0 256 -100 256 -222c0 -86 -52 -155 -114 -208z" />
    <glyph glyph-name="three.tf" horiz-adv-x="686" 
d="M330 -14c-148 0 -259 81 -259 225h130c0 -64 52 -104 129 -104c73 0 130 36 130 99s-62 96 -137 96h-47v112h48c69 0 116 35 116 87c0 55 -45 92 -116 92c-79 0 -123 -47 -123 -106h-129c0 131 102 227 252 227c133 0 250 -83 250 -204c0 -80 -49 -126 -94 -149
c51 -18 115 -69 115 -159c0 -126 -117 -216 -265 -216z" />
    <glyph glyph-name="four.tf" horiz-adv-x="686" 
d="M639 277v-112h-110v-165h-131v165h-350v110l310 425h171v-423h110zM188 277h210v291z" />
    <glyph glyph-name="five.tf" horiz-adv-x="686" 
d="M561 700v-121h-331v-158c24 22 71 44 131 44c127 0 242 -86 242 -230c0 -137 -95 -249 -264 -249c-146 0 -256 81 -256 223h132c0 -69 62 -102 123 -102c80 0 130 55 130 124c0 68 -52 119 -128 119c-63 0 -106 -34 -122 -60h-114v410h457z" />
    <glyph glyph-name="six.tf" horiz-adv-x="686" 
d="M337 -14c-132 0 -263 79 -263 236c0 98 50 168 90 223l189 255h149l-195 -264c20 5 42 8 64 8c123 0 233 -77 233 -222c0 -154 -130 -236 -267 -236zM339 107c74 0 132 45 132 115s-58 116 -132 116s-132 -45 -132 -116c0 -70 59 -115 132 -115z" />
    <glyph glyph-name="seven.tf" horiz-adv-x="686" 
d="M75 700h538v-111l-292 -589h-143l285 579h-388v121z" />
    <glyph glyph-name="eight.tf" horiz-adv-x="686" 
d="M343 -14c-162 0 -266 96 -266 213c0 92 62 141 114 166c-50 28 -91 75 -91 148c0 113 93 201 243 201s244 -88 244 -201c0 -73 -41 -120 -92 -148c51 -25 114 -74 114 -166c0 -117 -104 -213 -266 -213zM343 414c66 0 110 36 110 91c0 54 -45 90 -110 90
c-66 0 -110 -36 -110 -90c0 -55 44 -91 110 -91zM343 104c81 0 131 42 131 104c0 61 -50 103 -131 103s-131 -42 -131 -103c0 -62 50 -104 131 -104z" />
    <glyph glyph-name="nine.tf" horiz-adv-x="686" 
d="M346 714c132 0 263 -79 263 -236c0 -98 -50 -168 -90 -223l-189 -255h-149l195 264c-20 -5 -42 -8 -64 -8c-123 0 -233 77 -233 222c0 154 130 236 267 236zM344 593c-74 0 -132 -45 -132 -115s58 -116 132 -116s132 45 132 116c0 70 -59 115 -132 115z" />
    <glyph glyph-name="zero.dnom" horiz-adv-x="403" 
d="M202 393c118 0 177 -94 177 -201s-59 -200 -177 -200c-119 0 -178 94 -178 200c0 108 59 201 178 201zM202 306c-55 0 -84 -47 -84 -114c0 -68 29 -114 84 -114c54 0 84 48 84 114c0 69 -30 114 -84 114z" />
    <glyph glyph-name="one.dnom" horiz-adv-x="377" 
d="M267 406v-406h-94v318l-134 -73v89l125 72h103z" />
    <glyph glyph-name="two.dnom" horiz-adv-x="389" 
d="M196 414c89 0 159 -55 159 -133c0 -49 -30 -87 -79 -127l-88 -72h170v-82h-308v65l160 134c30 25 51 47 51 79c0 40 -37 55 -67 55c-29 0 -70 -9 -70 -62h-87c0 95 78 143 159 143z" />
    <glyph glyph-name="three.dnom" horiz-adv-x="363" 
d="M175 414c88 0 152 -53 152 -119c0 -50 -23 -67 -52 -85c35 -14 65 -40 65 -93c0 -76 -75 -125 -160 -125c-81 0 -154 44 -154 130h86c0 -36 33 -49 66 -49c37 0 73 15 73 53c0 33 -43 44 -74 44h-30v76h30c32 0 61 11 61 40c0 28 -23 47 -62 47c-45 0 -65 -25 -65 -52
h-84c0 82 66 133 148 133z" />
    <glyph glyph-name="four.dnom" horiz-adv-x="378" 
d="M361 170v-78h-65v-92h-94v92h-185v80l178 234h101v-236h65zM114 170h88v121z" />
    <glyph glyph-name="five.dnom" horiz-adv-x="365" 
d="M321 406v-83h-187v-67c12 11 38 19 67 19c82 0 142 -57 142 -140c0 -78 -53 -143 -158 -143c-84 0 -154 41 -154 130h89c0 -31 34 -44 62 -44c43 -1 67 25 67 56c0 26 -19 63 -66 63c-38 0 -57 -25 -61 -34l-79 2v241h278z" />
    <glyph glyph-name="six.dnom" horiz-adv-x="367" 
d="M193 406h106l-119 -155c5 0 17 2 33 2c62 0 134 -39 134 -127c0 -95 -84 -134 -168 -134c-72 0 -156 28 -156 132c0 21 0 56 51 123zM184 179c-31 0 -69 -14 -69 -51c0 -36 38 -51 69 -51c32 0 69 15 69 51s-36 51 -69 51z" />
    <glyph glyph-name="seven.dnom" horiz-adv-x="327" 
d="M304 406v-78l-153 -328h-102l151 323h-180l-1 83h285z" />
    <glyph glyph-name="eight.dnom" horiz-adv-x="374" 
d="M187 414c69 0 150 -42 150 -122c0 -41 -22 -61 -50 -80c34 -20 62 -48 62 -94c0 -79 -79 -126 -162 -126c-82 0 -162 47 -162 125c0 47 30 75 63 95c-29 19 -52 39 -52 80c0 80 81 122 151 122zM187 331c-32 0 -56 -13 -56 -43c0 -26 24 -40 56 -40s56 14 56 40
c0 29 -24 43 -56 43zM187 174c-33 0 -69 -14 -69 -47c0 -35 37 -50 69 -50c33 0 69 15 69 50c0 34 -37 47 -69 47z" />
    <glyph glyph-name="nine.dnom" horiz-adv-x="367" 
d="M69 0l112 152c-3 2 -11 1 -23 1c-65 0 -137 40 -137 129c0 97 87 132 167 132c73 0 157 -28 157 -132c0 -26 -4 -59 -51 -123l-118 -159h-107zM184 227c32 0 69 14 69 51s-38 51 -69 51c-32 0 -69 -16 -69 -51c0 -36 36 -51 69 -51z" />
    <glyph glyph-name="zero.numr" horiz-adv-x="403" 
d="M202 710c118 0 177 -94 177 -201s-59 -200 -177 -200c-119 0 -178 94 -178 200c0 108 59 201 178 201zM202 623c-55 0 -84 -47 -84 -114c0 -68 29 -114 84 -114c54 0 84 48 84 114c0 69 -30 114 -84 114z" />
    <glyph glyph-name="one.numr" horiz-adv-x="377" 
d="M267 700v-406h-94v318l-134 -73v89l125 72h103z" />
    <glyph glyph-name="two.numr" horiz-adv-x="389" 
d="M196 707c89 0 159 -55 159 -133c0 -49 -30 -87 -79 -127l-88 -72h170v-82h-308v65l160 134c30 25 51 47 51 79c0 40 -37 55 -67 55c-29 0 -70 -9 -70 -62h-87c0 95 78 143 159 143z" />
    <glyph glyph-name="three.numr" horiz-adv-x="363" 
d="M175 706c88 0 152 -53 152 -119c0 -50 -23 -67 -52 -85c35 -14 65 -40 65 -93c0 -76 -75 -125 -160 -125c-81 0 -154 44 -154 130h86c0 -36 33 -49 66 -49c37 0 73 15 73 53c0 33 -43 44 -74 44h-30v76h30c32 0 61 11 61 40c0 28 -23 47 -62 47c-45 0 -65 -25 -65 -52
h-84c0 82 66 133 148 133z" />
    <glyph glyph-name="four.numr" horiz-adv-x="378" 
d="M361 464v-78h-65v-92h-94v92h-185v80l178 234h101v-236h65zM114 464h88v121z" />
    <glyph glyph-name="five.numr" horiz-adv-x="365" 
d="M321 700v-83h-187v-67c12 11 38 19 67 19c82 0 142 -57 142 -140c0 -78 -53 -143 -158 -143c-84 0 -154 41 -154 130h89c0 -31 34 -44 62 -44c43 -1 67 25 67 56c0 26 -19 63 -66 63c-38 0 -57 -25 -61 -34l-79 2v241h278z" />
    <glyph glyph-name="six.numr" horiz-adv-x="367" 
d="M193 700h106l-119 -155c5 0 17 2 33 2c62 0 134 -39 134 -127c0 -95 -84 -134 -168 -134c-72 0 -156 28 -156 132c0 21 0 56 51 123zM184 473c-31 0 -69 -14 -69 -51c0 -36 38 -51 69 -51c32 0 69 15 69 51s-36 51 -69 51z" />
    <glyph glyph-name="seven.numr" horiz-adv-x="327" 
d="M304 700v-78l-153 -328h-102l151 323h-180l-1 83h285z" />
    <glyph glyph-name="eight.numr" horiz-adv-x="374" 
d="M187 706c69 0 150 -42 150 -122c0 -41 -22 -61 -50 -80c34 -20 62 -48 62 -94c0 -79 -79 -126 -162 -126c-82 0 -162 47 -162 125c0 47 30 75 63 95c-29 19 -52 39 -52 80c0 80 81 122 151 122zM187 623c-32 0 -56 -13 -56 -43c0 -26 24 -40 56 -40s56 14 56 40
c0 29 -24 43 -56 43zM187 466c-33 0 -69 -14 -69 -47c0 -35 37 -50 69 -50c33 0 69 15 69 50c0 34 -37 47 -69 47z" />
    <glyph glyph-name="nine.numr" horiz-adv-x="367" 
d="M69 291l112 152c-3 2 -11 1 -23 1c-65 0 -137 40 -137 129c0 97 87 132 167 132c73 0 157 -28 157 -132c0 -26 -4 -59 -51 -123l-118 -159h-107zM184 518c32 0 69 14 69 51s-38 51 -69 51c-32 0 -69 -16 -69 -51c0 -36 36 -51 69 -51z" />
    <glyph glyph-name="fraction" unicode="&#x2044;" horiz-adv-x="104" 
d="M229 700h100l-453 -700h-101z" />
    <glyph glyph-name="onehalf" unicode="&#xbd;" horiz-adv-x="870" 
d="M267 700v-406h-94v318l-134 -73v89l125 72h103zM606 700h100l-453 -700h-101zM677 414c89 0 159 -55 159 -133c0 -49 -30 -87 -79 -127l-88 -72h170v-82h-308v65l160 134c30 25 51 47 51 79c0 40 -37 55 -67 55c-29 0 -70 -9 -70 -62h-87c0 95 78 143 159 143z" />
    <glyph glyph-name="onequarter" unicode="&#xbc;" horiz-adv-x="859" 
d="M173 294v318l-134 -73v89l125 72h103v-406h-94zM606 700h100l-453 -700h-101zM842 170v-78h-65v-92h-94v92h-185v80l178 234h101v-236h65zM595 170h88v121z" />
    <glyph glyph-name="threequarters" unicode="&#xbe;" horiz-adv-x="845" 
d="M340 409c0 -76 -75 -125 -160 -125c-81 0 -154 44 -154 130h86c0 -36 33 -49 66 -49c37 0 73 15 73 53c0 33 -43 44 -74 44h-30v76h30c32 0 61 11 61 40c0 28 -23 47 -62 47c-45 0 -65 -25 -65 -52h-84c0 82 66 133 148 133c88 0 152 -53 152 -119c0 -50 -23 -67 -52 -85
c35 -14 65 -40 65 -93zM592 700h100l-453 -700h-101zM828 170v-78h-65v-92h-94v92h-185v80l178 234h101v-236h65zM581 170h88v121z" />
    <glyph glyph-name="asterisk" unicode="*" horiz-adv-x="496" 
d="M298 637l-4 -117l113 44l34 -92l-115 -39l80 -100l-79 -60l-79 111l-79 -111l-79 60l81 100l-115 39l34 92l112 -44l-4 117h100z" />
    <glyph glyph-name="uni2042" unicode="&#x2042;" horiz-adv-x="1012" 
d="M550 752l-4 -117l113 44l34 -92l-115 -39l80 -100l-79 -60l-79 111l-79 -111l-79 60l81 100l-115 39l34 92l112 -44l-4 117h100zM297 358l-4 -117l113 44l34 -92l-115 -39l80 -100l-79 -60l-79 111l-79 -111l-79 60l81 100l-115 39l34 92l112 -44l-4 117h100zM815 358
l-4 -117l113 44l34 -92l-115 -39l80 -100l-79 -60l-79 111l-79 -111l-79 60l81 100l-115 39l34 92l112 -44l-4 117h100z" />
    <glyph glyph-name="backslash" unicode="\" horiz-adv-x="516" 
d="M152 771l308 -844l-114 -19l-307 844z" />
    <glyph glyph-name="periodcentered" unicode="&#xb7;" horiz-adv-x="284" 
d="M142 381c35 0 63 -28 63 -63s-28 -63 -63 -63s-64 28 -64 63s29 63 64 63z" />
    <glyph glyph-name="bullet" unicode="&#x2022;" horiz-adv-x="412" 
d="M206 494c70 0 126 -57 126 -127s-56 -125 -126 -125s-126 55 -126 125s56 127 126 127z" />
    <glyph glyph-name="colon" unicode=":" horiz-adv-x="243" 
d="M122 347c-46 0 -83 37 -83 83s37 83 83 83c45 0 83 -37 83 -83s-38 -83 -83 -83zM122 -14c-46 0 -83 37 -83 83s37 83 83 83c45 0 83 -37 83 -83s-38 -83 -83 -83z" />
    <glyph glyph-name="comma" unicode="," horiz-adv-x="243" 
d="M122 152c45 0 83 -37 83 -83c0 -25 -10 -50 -23 -72l-71 -129h-74l66 121c-33 4 -64 39 -64 80c0 46 37 83 83 83z" />
    <glyph glyph-name="ellipsis" unicode="&#x2026;" horiz-adv-x="896" 
d="M180 -14c-45 0 -83 37 -83 83s38 83 83 83c46 0 83 -37 83 -83s-37 -83 -83 -83zM449 -14c-46 0 -84 37 -84 83s38 83 84 83c45 0 83 -37 83 -83s-38 -83 -83 -83zM717 -14c-46 0 -83 37 -83 83s37 83 83 83c45 0 83 -37 83 -83s-38 -83 -83 -83z" />
    <glyph glyph-name="exclam" unicode="!" horiz-adv-x="287" 
d="M208 692l-6 -461h-119l-5 461h130zM142 -14c-46 0 -83 37 -83 83s37 83 83 83c45 0 83 -37 83 -83s-38 -83 -83 -83z" />
    <glyph glyph-name="exclamdown" unicode="&#xa1;" horiz-adv-x="287" 
d="M142 706c45 0 83 -37 83 -83s-38 -83 -83 -83c-46 0 -83 37 -83 83s37 83 83 83zM208 0h-130l5 461h119z" />
    <glyph glyph-name="numbersign" unicode="#" horiz-adv-x="758" 
d="M711 402h-136l-14 -121h125v-98h-137l-22 -183h-110l22 183h-167l-22 -183h-111l22 183h-127v98h139l14 121h-128v98h140l20 165h111l-20 -165h166l20 165h111l-20 -165h124v-98zM450 281l15 121h-167l-14 -121h166z" />
    <glyph glyph-name="period" unicode="." horiz-adv-x="243" 
d="M122 -14c-46 0 -83 37 -83 83s37 83 83 83c45 0 83 -37 83 -83s-38 -83 -83 -83z" />
    <glyph glyph-name="question" unicode="?" horiz-adv-x="480" 
d="M241 714c136 0 207 -87 207 -184c0 -134 -146 -161 -146 -276v-31h-125v32c0 167 143 189 143 271c0 47 -39 72 -80 72c-37 0 -82 -20 -82 -96h-125c0 110 69 212 208 212zM241 -14c-46 0 -83 37 -83 83s37 83 83 83c45 0 83 -37 83 -83s-38 -83 -83 -83z" />
    <glyph glyph-name="questiondown" unicode="&#xbf;" horiz-adv-x="404" 
d="M188 497c46 0 83 -37 83 -83s-37 -83 -83 -83c-45 0 -83 37 -83 83s38 83 83 83zM188 -231c-136 0 -207 87 -207 184c0 134 146 161 146 276v31h125v-32c0 -167 -143 -189 -143 -271c0 -47 39 -72 80 -72c37 0 82 20 82 96h125c0 -110 -69 -212 -208 -212z" />
    <glyph glyph-name="quotedbl" unicode="&#x22;" horiz-adv-x="399" 
d="M174 700l-19 -219h-90l-19 219h128zM353 700l-18 -219h-91l-19 219h128z" />
    <glyph glyph-name="quotesingle" unicode="'" horiz-adv-x="203" 
d="M145 700l-19 -219h-91l-19 219h129z" />
    <glyph glyph-name="semicolon" unicode=";" horiz-adv-x="228" 
d="M115 348c-46 0 -83 37 -83 83s37 83 83 83c45 0 83 -37 83 -83s-38 -83 -83 -83zM122 152c45 0 83 -37 83 -83c0 -25 -10 -50 -23 -72l-71 -129h-74l66 121c-33 4 -64 39 -64 80c0 46 37 83 83 83z" />
    <glyph glyph-name="slash" unicode="/" horiz-adv-x="499" 
d="M340 752h120l-301 -825h-120z" />
    <glyph glyph-name="underscore" unicode="_" horiz-adv-x="658" 
d="M637 -17v-75h-616v75h616z" />
    <glyph glyph-name="braceleft" unicode="{" horiz-adv-x="430" 
d="M325 845h42v-77h-27c-60 0 -72 -42 -72 -91v-211c0 -47 -27 -80 -66 -101c39 -21 66 -53 66 -100v-211c0 -49 12 -91 72 -91h27v-77h-42c-100 0 -170 56 -170 159v222c0 47 -20 67 -81 69v59c59 1 81 22 81 69v222c0 105 70 159 170 159z" />
    <glyph glyph-name="braceright" unicode="}" horiz-adv-x="430" 
d="M105 845c100 0 170 -54 170 -159v-222c0 -47 22 -68 81 -69v-59c-61 -2 -81 -22 -81 -69v-222c0 -103 -70 -159 -170 -159h-42v77h27c60 0 72 42 72 91v211c0 47 27 79 66 100c-39 21 -66 54 -66 101v211c0 49 -12 91 -72 91h-27v77h42z" />
    <glyph glyph-name="bracketleft" unicode="[" horiz-adv-x="448" 
d="M365 847v-103h-144v-767h144v-93h-262v963h262z" />
    <glyph glyph-name="bracketright" unicode="]" horiz-adv-x="448" 
d="M345 847v-963h-262v93h144v774h-144v96h262z" />
    <glyph glyph-name="parenleft" unicode="(" horiz-adv-x="350" 
d="M215 759h125c-125 -134 -190 -278 -190 -428s65 -294 190 -428h-125c-125 127 -190 280 -190 428s65 301 190 428z" />
    <glyph glyph-name="parenright" unicode=")" horiz-adv-x="350" 
d="M135 759c125 -127 190 -280 190 -428s-65 -301 -190 -428h-125c125 134 190 278 190 428s-65 294 -190 428h125z" />
    <glyph glyph-name="emdash" unicode="&#x2014;" horiz-adv-x="781" 
d="M736 352v-108h-691v108h691z" />
    <glyph glyph-name="endash" unicode="&#x2013;" horiz-adv-x="662" 
d="M617 352v-108h-572v108h572z" />
    <glyph glyph-name="hyphen" unicode="-" horiz-adv-x="652" 
d="M562 352v-108h-472v108h472z" />
    <glyph glyph-name="guillemotleft" unicode="&#xab;" horiz-adv-x="650" 
d="M270 544l59 -45l-131 -200l131 -200l-59 -45l-192 245zM513 544l60 -45l-132 -200l132 -200l-60 -45l-192 245z" />
    <glyph glyph-name="guillemotright" unicode="&#xbb;" horiz-adv-x="650" 
d="M137 544l192 -245l-192 -245l-59 45l131 200l-131 200zM380 544l193 -245l-193 -245l-59 45l131 200l-131 200z" />
    <glyph glyph-name="guilsinglleft" unicode="&#x2039;" horiz-adv-x="423" 
d="M285 544l61 -45l-143 -200l143 -200l-61 -45l-207 245z" />
    <glyph glyph-name="guilsinglright" unicode="&#x203a;" horiz-adv-x="423" 
d="M139 544l207 -245l-207 -245l-61 45l142 200l-142 200z" />
    <glyph glyph-name="quotedblbase" unicode="&#x201e;" horiz-adv-x="411" 
d="M119 152c45 0 83 -37 83 -83c0 -25 -10 -50 -23 -72l-71 -129h-74l66 121c-33 4 -64 39 -64 80c0 46 37 83 83 83zM322 152c45 0 83 -37 83 -83c0 -25 -10 -50 -23 -72l-71 -129h-74l66 121c-33 4 -64 39 -64 80c0 46 37 83 83 83z" />
    <glyph glyph-name="quotedblleft" unicode="&#x201c;" horiz-adv-x="426" 
d="M96 444c-45 0 -83 37 -83 83c0 25 10 50 23 72l71 129h74l-66 -121c33 -4 64 -39 64 -80c0 -46 -37 -83 -83 -83zM314 444c-45 0 -83 37 -83 83c0 25 10 50 23 72l71 129h74l-66 -121c33 -4 64 -39 64 -80c0 -46 -37 -83 -83 -83z" />
    <glyph glyph-name="quotedblright" unicode="&#x201d;" horiz-adv-x="426" 
d="M112 713c45 0 83 -37 83 -83c0 -25 -10 -50 -23 -72l-71 -129h-74l66 121c-33 4 -64 39 -64 80c0 46 37 83 83 83zM329 713c45 0 83 -37 83 -83c0 -25 -10 -50 -23 -72l-71 -129h-74l66 121c-33 4 -64 39 -64 80c0 46 37 83 83 83z" />
    <glyph glyph-name="quoteleft" unicode="&#x2018;" horiz-adv-x="208" 
d="M96 444c-45 0 -83 37 -83 83c0 25 10 50 23 72l71 129h74l-66 -121c33 -4 64 -39 64 -80c0 -46 -37 -83 -83 -83z" />
    <glyph glyph-name="quoteright" unicode="&#x2019;" horiz-adv-x="208" 
d="M112 713c45 0 83 -37 83 -83c0 -25 -10 -50 -23 -72l-71 -129h-74l66 121c-33 4 -64 39 -64 80c0 46 37 83 83 83z" />
    <glyph glyph-name="quotesinglbase" unicode="&#x201a;" horiz-adv-x="200" 
d="M113 152c45 0 83 -37 83 -83c0 -25 -10 -50 -23 -72l-71 -129h-74l66 121c-33 4 -64 39 -64 80c0 46 37 83 83 83z" />
    <glyph glyph-name="space" unicode=" " horiz-adv-x="250" 
 />
    <glyph glyph-name="cent" unicode="&#xa2;" horiz-adv-x="588" 
d="M340 102c52 8 85 40 94 89h122c-9 -125 -108 -194 -216 -204v-71h-61v72c-134 15 -232 116 -232 263s97 248 232 263v69h61v-68c109 -10 207 -80 216 -204h-122c-9 48 -42 81 -94 89v-298zM178 251c0 -82 36 -134 101 -147v294c-64 -13 -101 -65 -101 -147z" />
    <glyph glyph-name="currency" unicode="&#xa4;" horiz-adv-x="645" 
d="M505 584l67 -67l-60 -61c23 -37 35 -79 35 -121c0 -43 -11 -85 -35 -122l60 -61l-67 -67l-60 60c-37 -25 -80 -36 -123 -36s-85 11 -122 35l-60 -59l-67 67l60 60c-25 37 -37 81 -37 124s12 85 36 122l-59 59l67 67l59 -59c37 24 79 36 123 36c42 0 85 -13 123 -37z
M322 449c-64 0 -114 -52 -114 -114c0 -63 52 -113 114 -113c64 0 113 53 113 114c0 60 -50 113 -113 113z" />
    <glyph glyph-name="dollar" unicode="$" horiz-adv-x="607" 
d="M565 199c0 -113 -79 -203 -233 -212v-71h-62v71c-169 14 -234 128 -234 244h133c0 -66 33 -110 101 -121v192l-74 24c-99 32 -147 92 -147 179c0 117 89 198 221 208v67h62v-68c148 -13 225 -118 225 -232h-133c0 56 -33 98 -92 110v-175l70 -22
c124 -37 163 -116 163 -194zM267 435l3 -1v157c-54 -7 -84 -37 -84 -77c0 -35 23 -62 81 -79zM332 108c64 6 97 39 97 83c0 46 -35 70 -97 92v-175z" />
    <glyph glyph-name="Euro" unicode="&#x20ac;" horiz-adv-x="759" 
d="M444 110c83 0 132 50 142 124h135c-6 -136 -117 -248 -276 -248c-152 0 -268 97 -309 242h-88l24 80h49c-1 14 -2 28 -2 42v20h-71l25 80h57c35 158 156 264 316 264s268 -113 275 -248h-135c-10 74 -57 124 -142 124s-147 -55 -173 -140h227l-25 -80h-216v-19
c0 -15 1 -29 2 -43h192l-25 -80h-147c30 -73 88 -118 165 -118z" />
    <glyph glyph-name="florin" unicode="&#x192;" horiz-adv-x="440" 
d="M370 759v-112h-38c-32 0 -59 -14 -59 -77v-69h93v-117h-93v-422c0 -121 -69 -185 -163 -185h-65v112h38c32 0 59 15 59 78v417h-93v117h93v73c0 121 68 185 163 185h65z" />
    <glyph glyph-name="sterling" unicode="&#xa3;" horiz-adv-x="624" 
d="M301 250c0 -45 -24 -90 -68 -135h319v-115h-488v83c75 56 107 112 107 164c0 16 -3 30 -8 44h-120v95h66c-18 32 -33 68 -33 117c0 130 106 211 246 211c153 0 256 -101 256 -226h-135c0 69 -51 105 -119 105c-67 0 -117 -37 -117 -105c0 -38 17 -71 36 -102h228v-95
h-176c4 -13 6 -27 6 -41z" />
    <glyph glyph-name="yen" unicode="&#xa5;" horiz-adv-x="668" 
d="M658 700l-189 -341h101v-80h-146l-21 -38v-29h167v-79h-167v-133h-137v133h-167v79h167v29l-21 38h-146v80h101l-190 341h146l178 -336l178 336h146z" />
    <glyph glyph-name="plus" unicode="+" horiz-adv-x="629" 
d="M368 555v-198h198v-108h-198v-198h-109v198h-196v108h196v198h109z" />
    <glyph glyph-name="minus" unicode="&#x2212;" horiz-adv-x="669" 
d="M616 343v-108h-557v108h557z" />
    <glyph glyph-name="multiply" unicode="&#xd7;" horiz-adv-x="569" 
d="M411 493l77 -77l-127 -127l127 -127l-77 -77l-127 127l-126 -127l-77 77l126 127l-126 127l77 77l126 -127z" />
    <glyph glyph-name="divide" unicode="&#xf7;" horiz-adv-x="613" 
d="M373 575v-139h-133v139h133zM580 355v-108h-546v108h546zM373 165v-139h-133v139h133z" />
    <glyph glyph-name="equal" unicode="=" horiz-adv-x="709" 
d="M636 439v-103h-563v103h563zM636 242v-103h-563v103h563z" />
    <glyph glyph-name="notequal" unicode="&#x2260;" horiz-adv-x="709" 
d="M636 336h-183l-66 -94h249v-103h-321l-96 -137l-95 64l51 73h-102v103h174l66 94h-240v103h312l95 135l94 -65l-49 -70h111v-103z" />
    <glyph glyph-name="greater" unicode="&#x3e;" horiz-adv-x="601" 
d="M55 584l491 -214v-107l-491 -214v118l347 150l-347 149v118z" />
    <glyph glyph-name="less" unicode="&#x3c;" horiz-adv-x="586" 
d="M546 584v-118l-347 -149l347 -150v-118l-491 214v107z" />
    <glyph glyph-name="greaterequal" unicode="&#x2265;" horiz-adv-x="658" 
d="M74 703l491 -214v-107l-491 -214v118l347 150l-347 149v118zM73 0v109h492v-109h-492z" />
    <glyph glyph-name="lessequal" unicode="&#x2264;" horiz-adv-x="624" 
d="M557 286v-118l-491 214v107l491 214v-118l-347 -149zM66 109h492v-109h-492v109z" />
    <glyph glyph-name="plusminus" unicode="&#xb1;" horiz-adv-x="726" 
d="M425 674v-198h198v-108h-198v-198h-109v198h-196v108h196v198h109zM622 109v-109h-502v109h502z" />
    <glyph glyph-name="approxequal" unicode="&#x2248;" horiz-adv-x="701" 
d="M242 480c85 0 120 -62 195 -62c18 0 54 2 93 50l69 -55c-21 -54 -91 -109 -170 -109c-82 0 -122 59 -194 59c-29 0 -63 -7 -92 -47l-63 65c22 45 83 99 162 99zM246 271c85 0 120 -62 195 -62c18 0 54 2 93 50l69 -55c-21 -54 -91 -109 -170 -109c-82 0 -122 59 -194 59
c-29 0 -63 -7 -92 -47l-63 65c22 45 83 99 162 99z" />
    <glyph glyph-name="asciitilde" unicode="~" horiz-adv-x="677" 
d="M239 447c85 0 120 -62 195 -62c18 0 54 2 93 50l69 -55c-21 -54 -91 -109 -170 -109c-82 0 -122 59 -194 59c-29 0 -63 -7 -92 -47l-63 65c22 45 83 99 162 99z" />
    <glyph glyph-name="logicalnot" unicode="&#xac;" horiz-adv-x="709" 
d="M630 462v-289h-109v181h-443v108h552z" />
    <glyph glyph-name="infinity" unicode="&#x221e;" horiz-adv-x="841" 
d="M600 465c108 0 186 -79 186 -175c0 -98 -78 -176 -186 -176c-71 0 -133 45 -180 95c-46 -50 -108 -95 -179 -95c-108 0 -186 78 -186 176c0 96 78 175 186 175c73 0 132 -43 180 -95c47 52 106 95 179 95zM241 212c51 0 90 39 118 78c-28 38 -67 76 -118 76
c-55 0 -88 -33 -88 -76c0 -45 33 -78 88 -78zM600 212c55 0 88 33 88 78c0 43 -33 76 -88 76c-51 0 -90 -38 -118 -76c28 -39 67 -78 118 -78z" />
    <glyph glyph-name="integral" unicode="&#x222b;" horiz-adv-x="445" 
d="M365 759v-112h-38c-32 0 -59 -14 -59 -77v-608c0 -121 -68 -185 -163 -185h-65v112h38c32 0 59 15 59 78v607c0 121 68 185 163 185h65z" />
    <glyph glyph-name="uni2126" unicode="&#x2126;" horiz-adv-x="788" 
d="M394 717c202 0 335 -151 335 -324c0 -151 -109 -246 -163 -265v-13h148v-115h-277v136c107 37 153 146 153 246c0 98 -52 211 -196 211s-197 -113 -197 -211c0 -100 46 -209 154 -246v-136h-278v115h149v13c-55 19 -164 114 -164 265c0 173 133 324 336 324z" />
    <glyph glyph-name="uni2206" unicode="&#x2206;" horiz-adv-x="766" 
d="M532 504l11 -504l-432 196l234 504zM327 392l1 -277l165 138z" />
    <glyph glyph-name="product" unicode="&#x220f;" horiz-adv-x="607" 
d="M529 700v-700h-131v581h-189v-581h-131v700h451z" />
    <glyph glyph-name="summation" unicode="&#x2211;" horiz-adv-x="578" 
d="M507 700v-123h-277l128 -203v-46l-129 -205h278v-123h-439v102l156 248l-156 251v99h439z" />
    <glyph glyph-name="radical" unicode="&#x221a;" horiz-adv-x="754" 
d="M564 708l123 -37l-236 -671h-116l-126 277h-156v110h238l90 -201z" />
    <glyph glyph-name="uni00B5" unicode="&#xb5;" horiz-adv-x="634" 
d="M430 502h131v-502h-125v57c-30 -39 -75 -71 -164 -71c-28 0 -53 4 -76 11v-191h-131v696h131v-279c0 -80 38 -121 111 -121c82 0 123 54 123 158v242z" />
    <glyph glyph-name="partialdiff" unicode="&#x2202;" horiz-adv-x="590" 
d="M303 717c191 0 242 -179 242 -347c0 -274 -134 -384 -284 -384c-132 0 -215 86 -215 236c0 196 141 295 266 295c55 0 89 -19 117 -47c-23 105 -78 135 -142 135c-60 0 -97 -26 -141 -66l-74 79c62 55 136 99 231 99zM314 401c-61 0 -135 -53 -135 -171
c0 -74 29 -125 90 -125c70 0 135 68 135 171c0 59 -22 125 -90 125z" />
    <glyph glyph-name="percent" unicode="%" horiz-adv-x="959" 
d="M249 373c-98 0 -176 75 -176 170c0 96 78 171 176 171c99 0 176 -75 176 -171c0 -95 -77 -170 -176 -170zM190 0l448 700h131l-447 -700h-132zM249 479c40 0 71 29 71 64c0 37 -31 66 -71 66c-38 0 -69 -29 -69 -66c0 -35 31 -64 69 -64zM709 -14c-98 0 -176 75 -176 170
s78 170 176 170c100 0 178 -75 178 -170s-78 -170 -178 -170zM709 90c39 0 70 29 70 66c0 36 -31 65 -70 65c-38 0 -70 -29 -70 -65c0 -37 32 -66 70 -66z" />
    <glyph glyph-name="perthousand" unicode="&#x2030;" horiz-adv-x="1187" 
d="M422 538c0 -95 -77 -170 -175 -170c-97 0 -174 75 -174 170c0 96 77 171 174 171c98 0 175 -75 175 -171zM632 700h131l-443 -700h-132zM180 538c0 -35 30 -64 67 -64c39 0 70 29 70 64c0 37 -31 66 -70 66c-37 0 -67 -29 -67 -66zM947 322c98 0 175 -75 175 -170
s-77 -170 -175 -170c-48 0 -90 18 -122 47c-31 -29 -74 -47 -122 -47c-98 0 -174 75 -174 170s76 170 174 170c48 0 91 -18 122 -47c32 29 74 47 122 47zM703 86c38 0 69 29 69 66c0 36 -31 65 -69 65s-68 -29 -68 -65c0 -37 30 -66 68 -66zM947 86c38 0 68 29 68 66
c0 36 -30 65 -68 65c-35 0 -63 -24 -68 -55v-10v-10c5 -32 33 -56 68 -56z" />
    <glyph glyph-name="arrowup" unicode="&#x2191;" horiz-adv-x="701" 
d="M351 714l265 -266v-147l-211 217l-1 -518h-107v518l-212 -217v147z" />
    <glyph glyph-name="uni2197" unicode="&#x2197;" horiz-adv-x="718" 
d="M643 700v-376l-104 -103l5 303l-393 -392l-75 75l391 393l-303 -4l104 104h375z" />
    <glyph glyph-name="arrowright" unicode="&#x2192;" horiz-adv-x="900" 
d="M825 299l-266 -265h-147l217 211l-554 2v106l554 1l-217 211h147z" />
    <glyph glyph-name="uni2198" unicode="&#x2198;" horiz-adv-x="718" 
d="M643 0h-375l-104 104l303 -4l-391 393l75 75l393 -391l-5 302l104 -103v-376z" />
    <glyph glyph-name="arrowdown" unicode="&#x2193;" horiz-adv-x="701" 
d="M351 -14l-266 266v147l211 -217l1 518h107l1 -518l211 217v-147z" />
    <glyph glyph-name="uni2199" unicode="&#x2199;" horiz-adv-x="718" 
d="M76 0v376l104 103l-5 -302l393 391l75 -75l-391 -393l303 4l-104 -104h-375z" />
    <glyph glyph-name="arrowleft" unicode="&#x2190;" horiz-adv-x="900" 
d="M75 299l266 266h147l-217 -211l554 -1v-106l-554 -2l217 -211h-147z" />
    <glyph glyph-name="uni2196" unicode="&#x2196;" horiz-adv-x="718" 
d="M75 700h376l104 -104l-304 4l392 -393l-75 -75l-393 392l4 -303l-104 103v376z" />
    <glyph glyph-name="arrowboth" unicode="&#x2194;" horiz-adv-x="1069" 
d="M337 75l-266 265l265 266h148l-217 -212h532l-217 212h148l265 -266l-266 -265h-147l217 211h-532l217 -211h-147z" />
    <glyph glyph-name="arrowupdn" unicode="&#x2195;" horiz-adv-x="626" 
d="M313 -117l-265 266v148l211 -218v484l-211 -219v148l265 266l266 -265l-1 -148l-211 217v-483l211 217l1 -147z" />
    <glyph glyph-name="lozenge" unicode="&#x25ca;" horiz-adv-x="579" 
d="M330 699l208 -348l-210 -351h-78l-209 351l207 348h82zM289 552l-120 -201l120 -200l121 200z" />
    <glyph glyph-name="uniF8FF" unicode="&#xf8ff;" horiz-adv-x="1057" 
d="M992 700v-922h-927v922h927zM922 630h-787v-782h787v782zM417 495c119 0 208 -98 208 -230c0 -134 -90 -230 -208 -230c-117 0 -206 95 -206 230c0 133 88 230 206 230zM418 420c-78 0 -129 -60 -129 -155s51 -156 129 -156c76 0 127 61 127 156s-51 155 -127 155z
M852 383v-74h-36c-34 0 -57 -24 -57 -71v-190h-74v331h70v-37c15 22 44 41 72 41h25z" />
    <glyph glyph-name="at" unicode="@" horiz-adv-x="1155" 
d="M578 -222c-316 0 -490 206 -490 459c0 275 226 477 510 477c256 0 459 -164 459 -380v-194c0 -128 -78 -190 -179 -190c-82 0 -151 33 -170 125c-54 -60 -132 -89 -203 -89c-85 0 -155 41 -155 133c0 129 138 166 210 183l123 31c-1 52 -39 78 -98 78
c-56 0 -99 -23 -99 -78h-120c0 128 109 184 222 184c112 0 221 -54 221 -187v-220c0 -46 28 -71 71 -71c46 0 74 32 74 86v209c0 180 -153 283 -357 283c-245 0 -403 -160 -403 -370c0 -188 114 -377 379 -377h88v-92h-83zM532 93c53 0 146 42 146 107v35l-98 -25
c-72 -18 -101 -45 -101 -75s25 -42 53 -42z" />
    <glyph glyph-name="ampersand" unicode="&#x26;" horiz-adv-x="789" 
d="M789 0h-163l-83 75c-56 -49 -131 -90 -233 -90c-156 0 -231 89 -231 183c0 89 63 148 145 195c-56 55 -90 103 -90 166c0 76 49 185 215 185s213 -108 213 -185c0 -78 -72 -136 -150 -183l120 -110l91 101h153l-157 -181zM348 601c-46 0 -82 -25 -82 -72
c0 -36 29 -71 65 -107c66 37 99 61 99 107c0 47 -36 72 -82 72zM322 100c52 0 95 23 132 55l-146 131c-54 -32 -93 -70 -93 -111c0 -44 37 -75 107 -75z" />
    <glyph glyph-name="paragraph" unicode="&#xb6;" horiz-adv-x="818" 
d="M739 700v-110h-71v-812h-122v812h-124v-812h-122v473c-121 0 -220 102 -220 225c0 122 99 224 220 224h439z" />
    <glyph glyph-name="section" unicode="&#xa7;" horiz-adv-x="641" 
d="M350 717c107 0 172 -66 211 -111l-78 -76c-31 35 -66 76 -133 76c-49 0 -75 -26 -75 -56c0 -34 27 -61 102 -94c87 -41 189 -97 189 -213c0 -70 -35 -129 -101 -159c34 -33 59 -76 59 -132c0 -100 -76 -186 -215 -186s-220 104 -233 138l80 77c18 -34 86 -104 158 -104
c61 0 87 33 87 75c0 43 -56 77 -139 118c-95 48 -146 95 -146 190c0 64 39 122 109 148c-47 35 -73 77 -73 142c0 95 72 167 198 167zM319 353c-47 -3 -93 -39 -93 -84c0 -50 60 -80 119 -109l35 -17c50 4 78 50 78 89c0 51 -65 83 -139 121z" />
    <glyph glyph-name="copyright" unicode="&#xa9;" horiz-adv-x="880" 
d="M440 -14c-205 0 -372 163 -372 364s167 364 372 364s372 -163 372 -364s-167 -364 -372 -364zM440 62c157 0 288 128 288 288s-131 288 -288 288c-158 0 -288 -128 -288 -288s130 -288 288 -288zM443 142c-122 0 -206 86 -206 208c0 125 86 208 204 208
c81 0 183 -49 190 -158h-99c-8 44 -39 68 -88 68c-62 0 -99 -42 -99 -118c0 -75 37 -118 100 -118c48 0 79 24 87 68h99c-7 -109 -107 -158 -188 -158z" />
    <glyph glyph-name="registered" unicode="&#xae;" horiz-adv-x="867" 
d="M440 714c205 0 372 -163 372 -364s-167 -364 -372 -364s-372 163 -372 364s167 364 372 364zM440 62c157 0 288 128 288 288s-131 288 -288 288c-158 0 -288 -128 -288 -288s130 -288 288 -288zM598 427c0 -39 -18 -106 -110 -125l114 -163h-108l-103 151v-151h-92v422
h131c143 0 168 -88 168 -134zM391 481v-106h39c73 0 76 39 76 52c0 18 -3 54 -76 54h-39z" />
    <glyph glyph-name="trademark" unicode="&#x2122;" horiz-adv-x="657" 
d="M228 700v-73h-67v-277h-84v277h-67v73h218zM647 700v-350h-84v240l-63 -143h-66l-62 143v-240h-84v350h119l60 -142l63 142h117z" />
    <glyph glyph-name="degree" unicode="&#xb0;" horiz-adv-x="357" 
d="M179 714c-91 0 -165 -74 -165 -165s74 -166 165 -166s165 75 165 166s-74 165 -165 165zM179 628c43 0 79 -35 79 -79c0 -45 -36 -80 -79 -80c-44 0 -80 35 -80 80c0 44 36 79 80 79z" />
    <glyph glyph-name="bar" unicode="|" horiz-adv-x="277" 
d="M194 759v-898h-111v898h111z" />
    <glyph glyph-name="brokenbar" unicode="&#xa6;" horiz-adv-x="277" 
d="M194 759v-352h-111v352h111zM194 213v-352h-111v352h111z" />
    <glyph glyph-name="uni2113" unicode="&#x2113;" horiz-adv-x="435" 
d="M242 94c23 0 43 9 62 26l58 -76c-35 -40 -87 -58 -140 -58c-118 0 -149 85 -149 185v49c-14 -5 -29 -8 -44 -12l-19 110c22 6 43 12 63 20v263c0 108 75 166 178 166c66 0 170 -22 170 -173c0 -135 -88 -247 -217 -319v-123c0 -41 16 -58 38 -58zM204 410
c63 53 93 119 93 191c0 52 -21 66 -48 66s-45 -23 -45 -66v-191z" />
    <glyph glyph-name="dagger" unicode="&#x2020;" horiz-adv-x="649" 
d="M380 759v-168h196v-109h-196v-645h-112v645h-195v109h195v168h112z" />
    <glyph glyph-name="daggerdbl" unicode="&#x2021;" horiz-adv-x="649" 
d="M380 759v-168h196v-109h-196v-306h196v-109h-196v-230h-112v230h-195v109h195v306h-195v109h195v168h112z" />
    <glyph glyph-name="uni2116" unicode="&#x2116;" horiz-adv-x="1165" 
d="M936 383c-91 0 -165 75 -165 166s74 165 165 165s165 -74 165 -165s-74 -166 -165 -166zM544 226v474h137v-700h-138l-323 479v-479h-137v700h135zM936 620c-39 0 -71 -32 -71 -71c0 -40 32 -72 71 -72s71 32 71 72c0 39 -32 71 -71 71zM774 224v91h324v-91h-324z" />
    <glyph glyph-name="asciicircum" unicode="^" horiz-adv-x="628" 
d="M372 700l209 -411h-128l-141 297l-151 -297h-119l209 411h121z" />
    <glyph glyph-name="uni0308" unicode="&#x308;" horiz-adv-x="0" 
d="M-346 570c-40 0 -71 31 -71 70c0 38 31 70 71 70c38 0 69 -32 69 -70c0 -39 -31 -70 -69 -70zM-131 570c-40 0 -71 31 -71 70c0 38 31 70 71 70c38 0 69 -32 69 -70c0 -39 -31 -70 -69 -70z" />
    <glyph glyph-name="uni0307" unicode="&#x307;" horiz-adv-x="0" 
d="M-135 572c-40 0 -71 32 -71 71c0 38 31 69 71 69c39 0 70 -31 70 -69c0 -39 -31 -71 -70 -71z" />
    <glyph glyph-name="gravecomb" unicode="&#x300;" horiz-adv-x="0" 
d="M-305 737h149l107 -159h-111z" />
    <glyph glyph-name="acutecomb" unicode="&#x301;" horiz-adv-x="0" 
d="M5 737l-145 -159h-111l107 159h149z" />
    <glyph glyph-name="uni030B" unicode="&#x30b;" horiz-adv-x="0" 
d="M-219 702l-123 -142h-112l94 142h141zM-4 702l-124 -142h-111l93 142h142z" />
    <glyph glyph-name="uni0302" unicode="&#x302;" horiz-adv-x="0" 
d="M-42 569h-120l-66 75l-66 -75h-119l124 131h123z" />
    <glyph glyph-name="uni030C" unicode="&#x30c;" horiz-adv-x="0" 
d="M-168 700h115l-116 -131h-116l-116 131h116l60 -73z" />
    <glyph glyph-name="uni0306" unicode="&#x306;" horiz-adv-x="0" 
d="M-59 700c0 -90 -65 -145 -158 -145c-91 0 -158 55 -158 145h86c0 -52 35 -71 72 -71c39 0 72 19 72 71h86z" />
    <glyph glyph-name="uni030A" unicode="&#x30a;" horiz-adv-x="0" 
d="M-161 716c50 0 88 -38 88 -87s-38 -87 -88 -87c-49 0 -87 38 -87 87s38 87 87 87zM-161 665c-20 0 -36 -16 -36 -36c0 -22 16 -37 36 -37s36 15 36 37c0 20 -16 36 -36 36z" />
    <glyph glyph-name="tildecomb" unicode="&#x303;" horiz-adv-x="0" 
d="M-129 699h68c0 -86 -47 -135 -109 -135c-67 0 -100 46 -142 46c-25 0 -37 -21 -37 -48h-68c0 82 46 135 110 135s100 -46 141 -46c25 0 37 21 37 48z" />
    <glyph glyph-name="uni0304" unicode="&#x304;" horiz-adv-x="0" 
d="M-47 669v-83h-356v83h356z" />
    <glyph glyph-name="uni0312" unicode="&#x312;" horiz-adv-x="0" 
d="M-169 578v106c0 47 31 77 83 99l26 -41c-30 -11 -53 -23 -53 -48v-10h63v-106h-119z" />
    <glyph glyph-name="uni0326" unicode="&#x326;" horiz-adv-x="0" 
d="M-50 -58v-106c0 -47 -31 -77 -83 -99l-26 41c30 11 53 23 53 48v10h-63v106h119z" />
    <glyph glyph-name="uni0327" unicode="&#x327;" horiz-adv-x="0" 
d="M-73 -67l-82 -184l-129 53l122 131h89z" />
    <glyph glyph-name="uni0328" unicode="&#x328;" horiz-adv-x="0" 
d="M-91 -196c-66 0 -112 37 -112 90c0 36 22 77 78 106h109c-64 -28 -88 -54 -88 -76c0 -20 18 -31 40 -31c16 0 36 5 54 13v-86c-27 -11 -55 -16 -81 -16z" />
    <glyph glyph-name="acute" unicode="&#xb4;" horiz-adv-x="268" 
d="M309 737l-145 -159h-111l107 159h149z" />
    <glyph glyph-name="breve" unicode="&#x2d8;" horiz-adv-x="435" 
d="M376 700c0 -90 -65 -145 -158 -145c-91 0 -158 55 -158 145h86c0 -52 35 -71 72 -71c39 0 72 19 72 71h86z" />
    <glyph glyph-name="caron" unicode="&#x2c7;" horiz-adv-x="452" 
d="M284 700h115l-116 -131h-116l-116 131h116l60 -73z" />
    <glyph glyph-name="cedilla" unicode="&#xb8;" horiz-adv-x="327" 
d="M230 -67l-82 -184l-129 53l122 131h89z" />
    <glyph glyph-name="circumflex" unicode="&#x2c6;" horiz-adv-x="452" 
d="M410 569h-120l-66 75l-66 -75h-119l124 131h123z" />
    <glyph glyph-name="dieresis" unicode="&#xa8;" horiz-adv-x="477" 
d="M132 571c-40 0 -71 31 -71 70c0 38 31 70 71 70c38 0 69 -32 69 -70c0 -39 -31 -70 -69 -70zM347 571c-40 0 -71 31 -71 70c0 38 31 70 71 70c38 0 69 -32 69 -70c0 -39 -31 -70 -69 -70z" />
    <glyph glyph-name="dotaccent" unicode="&#x2d9;" horiz-adv-x="277" 
d="M142 572c-40 0 -71 32 -71 71c0 38 31 69 71 69c39 0 70 -31 70 -69c0 -39 -31 -71 -70 -71z" />
    <glyph glyph-name="grave" unicode="`" horiz-adv-x="382" 
d="M44 737h149l107 -159h-111z" />
    <glyph glyph-name="hungarumlaut" unicode="&#x2dd;" horiz-adv-x="596" 
d="M377 702l-123 -142h-112l94 142h141zM592 702l-124 -142h-111l93 142h142z" />
    <glyph glyph-name="macron" unicode="&#xaf;" horiz-adv-x="451" 
d="M403 669v-83h-356v83h356z" />
    <glyph glyph-name="ogonek" unicode="&#x2db;" horiz-adv-x="290" 
d="M168 -196c-66 0 -112 37 -112 90c0 36 22 77 78 106h109c-64 -28 -88 -54 -88 -76c0 -20 18 -31 40 -31c16 0 36 5 54 13v-86c-27 -11 -55 -16 -81 -16z" />
    <glyph glyph-name="ring" unicode="&#x2da;" horiz-adv-x="321" 
d="M160 716c50 0 88 -38 88 -87s-38 -87 -88 -87c-49 0 -87 38 -87 87s38 87 87 87zM160 665c-20 0 -36 -16 -36 -36c0 -22 16 -37 36 -37s36 15 36 37c0 20 -16 36 -36 36z" />
    <glyph glyph-name="tilde" unicode="&#x2dc;" horiz-adv-x="494" 
d="M365 699h68c0 -86 -47 -135 -109 -135c-67 0 -100 46 -142 46c-25 0 -37 -21 -37 -48h-68c0 82 46 135 110 135s100 -46 141 -46c25 0 37 21 37 48z" />
    </font>
</defs>
</svg>
